<svg width="100" height="100" viewBox="0 0 100 100" fill="none" xmlns="http://www.w3.org/2000/svg">
<rect width="100" height="100" fill="white"/>
<circle cx="50" cy="50" r="45" fill="#BE9A40"/>
<path d="M61.1093 52.7321C63.824 53.9378 66.3148 55.4828 68.2858 57.7643C68.6685 58.2119 69.0078 58.7029 69.3182 59.201C69.9753 60.2696 70.329 61.432 70.3146 62.7099C70.2857 65.078 70.3146 67.4533 70.3074 69.8214C70.3001 71.2798 69.5854 71.9946 68.1198 71.9946C56.0915 72.0018 44.0705 72.0018 32.0423 71.9946C30.5767 71.9946 29.833 71.2148 29.833 69.7275C29.833 67.4822 29.8691 65.2296 29.8186 62.9842C29.7825 61.2009 30.324 59.6414 31.3925 58.2408C33.2624 55.7861 35.7533 54.1399 38.6557 52.761C38.4968 53.057 38.4246 53.223 38.3308 53.3674C36.9301 55.5189 35.9482 57.8365 35.3779 60.3418C35.2984 60.6739 35.0241 61.0276 34.7353 61.2226C33.3274 62.19 32.9376 63.9806 33.8833 65.309C34.8652 66.6808 36.7568 66.9623 38.0636 65.9227C39.3921 64.8686 39.4932 63.0564 38.3308 61.728C38.1719 61.5475 38.0853 61.2154 38.1286 60.9843C38.6557 58.1325 39.948 55.6417 41.7818 53.3313C41.9479 53.5407 42.0851 53.7356 42.2367 53.9161C44.9874 57.23 46.5541 61.1793 48.2725 65.0563C48.8573 66.3848 49.4637 67.706 50.1063 69.1355C52.9004 63.8578 54.5681 58.0892 58.5174 53.4902C58.7773 53.9739 59.03 54.4432 59.2827 54.9197C56.8424 57.6271 56.7558 60.6955 57.8676 63.9661C57.9398 64.1827 57.9254 64.4426 57.8965 64.6809C57.8026 65.5761 58.4163 66.4858 59.2827 66.688C60.2285 66.9118 61.0588 66.457 61.427 65.5545C61.6869 64.9119 61.5136 64.3415 61.0732 63.9228C59.918 62.8182 59.8097 61.4031 59.8747 59.9736C59.9108 59.2083 60.1202 58.4069 60.4451 57.7137C60.9288 56.6669 61.8818 56.5008 62.741 57.2661C64.2644 58.6307 64.7337 60.4428 64.7264 62.4139C64.7264 62.6593 64.5026 62.8976 64.3943 63.1431C64.0839 63.8723 64.2427 64.6231 64.8131 65.179C65.369 65.7205 66.0405 65.8577 66.7191 65.5617C67.3906 65.2729 67.9898 64.6592 67.7371 63.9445C67.0007 61.8651 67.2823 59.5331 66.0621 57.5838C65.1019 56.046 63.9611 54.8475 62.1201 54.3421C61.6147 54.2049 61.2826 53.4252 60.8638 52.9342C60.9577 52.862 61.0299 52.797 61.1093 52.7321Z" fill="white"/>
<path d="M58.2572 43.8517C57.5352 45.9527 56.5316 47.8876 54.9866 49.4976C53.8025 50.7322 52.4524 51.6852 50.6908 51.909C48.9003 52.1401 47.3913 51.4831 46.0557 50.3929C44.1496 48.8334 42.9223 46.8046 42.0776 44.5231C41.9259 44.1188 41.7527 43.8661 41.2762 43.729C39.9982 43.3608 39.0019 41.1443 39.8538 40.2129C40.6047 39.3971 40.3737 38.6534 40.3592 37.8304C40.3015 34.1194 41.4639 30.9354 44.4384 28.5818C48.2144 25.5855 52.9795 25.9249 56.3223 29.3687C56.4883 29.542 56.6905 29.7081 56.9143 29.7875C58.7842 30.4156 59.5712 31.8668 59.9105 33.6645C60.2354 35.419 60.0188 37.1517 59.6867 38.8772C59.6001 39.3321 59.6362 39.6642 59.9466 40.0757C60.5531 40.8844 60.3509 41.8157 59.9611 42.6749C59.6434 43.3969 59.1452 43.9022 58.2572 43.8517Z" fill="white"/>
<path d="M53.3622 58.8906C52.2648 57.9159 51.2323 57.0134 50.1782 56.0749C52.3442 53.7429 54.4596 51.4686 56.6616 49.0933C57.2031 49.9813 57.6941 50.7611 58.1489 51.5697C58.2211 51.6924 58.1633 51.9523 58.0695 52.0895C56.5244 54.3421 54.965 56.5802 53.3622 58.8906Z" fill="white"/>
<path d="M43.6085 49.1005C45.7961 51.4542 47.9115 53.7284 50.0919 56.0749C49.0378 57.0062 47.9981 57.9304 46.9152 58.8906C45.3124 56.5803 43.7384 54.3205 42.179 52.0462C42.0923 51.9163 42.0634 51.6563 42.1356 51.5264C42.5905 50.7466 43.0742 49.9813 43.6085 49.1005Z" fill="white"/>
<path d="M60.2937 55.3312C59.8894 54.5659 59.5501 53.8295 59.1169 53.1436C58.8136 52.6671 58.7631 52.3061 59.3624 51.8368C59.7955 52.6238 60.272 53.3819 60.6403 54.1905C60.9363 54.8403 61.3406 55.1146 62.0553 55.324C62.8784 55.5623 63.7087 56.111 64.3079 56.7463C65.658 58.1758 66.1851 60.0024 66.315 61.9446C66.3584 62.5583 66.1706 63.2008 66.7266 63.7423C66.8493 63.8578 66.6833 64.5293 66.4594 64.6809C66.214 64.8542 65.6797 64.8614 65.4198 64.7025C65.196 64.5654 64.9866 63.9372 65.1021 63.7929C65.8313 62.8904 65.5209 61.9157 65.3692 60.9771C65.131 59.5115 64.5317 58.1903 63.4704 57.129C61.8532 55.5045 59.9038 55.8799 59.0663 57.9953C58.2433 60.0674 58.561 62.1034 59.449 64.0816C59.5067 64.2116 59.6945 64.291 59.8316 64.3704C60.3081 64.6592 60.3442 65.0708 60.1132 65.5184C59.8822 65.9588 59.4851 66.0815 59.0447 65.8794C58.6043 65.6772 58.3588 65.3668 58.5393 64.8108C58.6259 64.5437 58.5898 64.1972 58.496 63.9228C57.8606 62.0962 57.5935 60.2479 58.1061 58.3419C58.4599 57.1145 59.1169 56.111 60.2937 55.3312Z" fill="white"/>
<path d="M41.2115 52.2195C41.0671 52.5299 40.9733 52.8765 40.7711 53.1508C38.9228 55.6417 37.6161 58.3635 37.0601 61.432C36.9879 61.8218 37.0024 62.0312 37.3561 62.2767C38.1287 62.8182 38.3669 63.7062 38.0565 64.4932C37.7316 65.309 37.0096 65.7422 36.0493 65.6772C35.1902 65.6195 34.5476 65.0708 34.331 64.2044C34.1217 63.3885 34.6126 62.4861 35.5512 62.089C35.9483 61.9229 36.1432 61.7352 36.2226 61.2731C36.793 57.9665 38.338 55.1002 40.3379 52.4577C40.4823 52.27 40.7567 52.1834 40.966 52.0534C41.0527 52.104 41.1321 52.1617 41.2115 52.2195Z" fill="white"/>
<path d="M50.0561 66.6592C49.6445 65.7423 49.1897 64.847 48.8504 63.9012C48.706 63.5113 48.7709 63.0276 48.8215 62.5944C48.9298 61.5909 49.1103 60.6017 49.2041 59.5982C49.2402 59.2228 49.1103 58.8329 49.0236 58.2553C49.2691 58.0387 49.6879 57.6777 50.1355 57.2878C50.5831 57.6705 50.9874 58.017 51.2185 58.212C51.1679 58.8762 51.0741 59.3599 51.1174 59.8292C51.204 60.8328 51.3484 61.8291 51.4784 62.8327C51.6805 64.3272 50.5903 65.374 50.251 66.6736C50.186 66.6664 50.121 66.6664 50.0561 66.6592Z" fill="white"/>
<path d="M50.2291 54.6381C49.5576 54.0461 48.9439 53.4974 48.2075 52.8404C49.5576 52.8404 50.6984 52.8404 51.9402 52.8404C51.3409 53.4757 50.7633 54.075 50.2291 54.6381Z" fill="white"/>
<path d="M51.9116 59.0422C53.435 60.0241 53.305 59.6992 52.3087 61.8074C52.1715 60.8399 52.0488 60.0313 51.9116 59.0422Z" fill="white"/>
<path d="M48.3593 59.0711C48.2293 60.0241 48.1138 60.8255 47.9983 61.6774C46.8937 60.284 46.937 59.8219 48.3593 59.0711Z" fill="white"/>
</svg>
