<svg width="100" height="100" viewBox="0 0 100 100" fill="none" xmlns="http://www.w3.org/2000/svg">
<rect width="100" height="100" fill="white"/>
<circle cx="50" cy="50" r="45" fill="#BE9A40"/>
<path d="M66.5792 52.6965C66.5792 58.3446 66.5792 63.9912 66.5792 69.6392C66.5792 71.6549 65.7405 72.4997 63.7411 72.4997C54.5676 72.4997 45.3941 72.4997 36.2219 72.4997C34.2713 72.4997 33.4228 71.6423 33.4214 69.6701C33.4214 58.3038 33.4214 46.9389 33.4228 35.574C33.4228 34.0024 34.2016 32.9173 35.4486 32.8498C35.7677 32.8329 36.1885 33.0016 36.3975 33.2349C36.5521 33.4078 36.4964 33.8366 36.4267 34.1261C36.3891 34.2836 36.1397 34.4776 35.967 34.4972C35.2717 34.576 35.2118 35.0103 35.2146 35.5895C35.2313 39.1753 35.2229 42.7598 35.2229 46.3457C35.2229 54.1261 35.2229 61.9051 35.2229 69.6856C35.2229 70.678 35.2731 70.7342 36.2275 70.7342C45.401 70.7356 54.5745 70.7356 63.7467 70.7342C64.7248 70.7342 64.7763 70.6794 64.7763 69.7109C64.7763 58.346 64.7763 46.9797 64.7763 35.6148C64.7763 34.6294 64.7178 34.5675 63.7648 34.5647C62.3952 34.5619 61.0241 34.576 59.6545 34.5563C59.2686 34.5507 59.1028 34.6575 58.9871 35.0567C58.6318 36.2895 57.7123 37.057 56.4374 37.0668C52.1418 37.1006 47.8449 37.1076 43.5507 37.0626C42.0404 37.0471 41.033 35.9591 40.8979 34.4298C40.8965 34.4059 40.8923 34.3834 40.8909 34.3595C40.6234 31.4919 41.791 29.9485 44.7127 30.1874C45.4261 30.2451 45.8399 30.0131 46.2774 29.3989C48.1625 26.7548 52.1585 26.9038 53.903 29.6477C54.1663 30.0623 54.4296 30.2254 54.8964 30.1874C55.3576 30.1509 55.8243 30.1692 56.2897 30.1832C57.6161 30.224 58.6806 31.0126 58.9997 32.2945C59.1167 32.7626 59.3285 32.8175 59.7172 32.8132C61.1342 32.7992 62.5498 32.8034 63.9668 32.809C65.6638 32.8175 66.5751 33.741 66.5765 35.4728C66.582 41.215 66.5792 46.9558 66.5792 52.6965ZM50.0003 35.3561C51.7656 35.3561 53.531 35.3561 55.2949 35.3561C57.2469 35.3561 57.4364 35.1565 57.3681 33.1675C57.3416 32.3789 57.0059 32.0064 56.2158 31.9741C55.4732 31.9431 54.7292 31.9502 53.9866 31.9642C53.3568 31.9769 52.9499 31.7365 52.7019 31.1194C52.2185 29.9091 51.2849 29.2808 49.9975 29.2822C48.7129 29.2836 47.7752 29.9077 47.2959 31.1208C47.0507 31.7407 46.6383 31.9769 46.0113 31.9642C45.2687 31.9502 44.5246 31.9431 43.782 31.9741C42.992 32.0078 42.6548 32.3789 42.6311 33.1675C42.6242 33.4022 42.6283 33.6356 42.6297 33.8703C42.6339 34.9864 42.9836 35.3505 44.076 35.3533C46.0517 35.3603 48.026 35.3561 50.0003 35.3561Z" fill="white"/>
<path d="M63.5465 54.0359C63.5465 58.676 63.5479 63.3148 63.5465 67.9549C63.5465 69.1497 63.1494 69.549 61.9679 69.549C53.9801 69.5504 45.9909 69.5504 38.003 69.549C36.8675 69.549 36.4537 69.1371 36.4537 67.9943C36.4523 58.6676 36.4523 49.3409 36.4537 40.0157C36.4537 38.87 36.8633 38.4582 37.9989 38.4582C46.0104 38.4568 54.0219 38.4568 62.0334 38.4582C63.1271 38.4582 63.5451 38.8771 63.5451 39.9777C63.5479 44.6628 63.5465 49.3494 63.5465 54.0359ZM38.2357 40.2856C38.2357 49.4464 38.2357 58.5678 38.2357 67.7174C46.0967 67.7174 53.9104 67.7174 61.7645 67.7174C61.7645 58.558 61.7645 49.4365 61.7645 40.2856C53.9048 40.2856 46.0912 40.2856 38.2357 40.2856Z" fill="white"/>
<path d="M38.2244 34.5462C37.7423 34.5434 37.3341 34.1329 37.348 33.6634C37.3619 33.1981 37.7953 32.7919 38.2676 32.8228C38.7873 32.8566 39.0576 33.1841 39.105 33.6719C39.1509 34.1385 38.7079 34.549 38.2244 34.5462Z" fill="white"/>
<path d="M50.8394 32.5065C50.8255 32.8636 50.5189 33.1405 50.0201 33.1855C49.5394 33.2291 49.1507 32.8045 49.1619 32.2971C49.1716 31.7573 49.4837 31.4818 49.9811 31.4368C50.4618 31.3932 50.8478 31.8164 50.8394 32.5065Z" fill="white"/>
<path d="M58.2877 65.1506C58.8673 65.152 59.4469 65.138 60.0251 65.1562C60.5713 65.1731 60.9001 65.4683 60.8959 66.0306C60.8918 66.5985 60.5462 66.881 60.0042 66.8866C58.8464 66.8993 57.6872 66.9021 56.5293 66.8852C55.9845 66.8768 55.646 66.5689 55.6529 66.0109C55.6599 65.4542 56.0068 65.1675 56.5502 65.1534C57.1284 65.138 57.7081 65.1492 58.2877 65.1506Z" fill="white"/>
<path d="M53.9683 66.8894C53.4597 66.843 53.1546 66.5675 53.1142 66.0502C53.0765 65.5667 53.4959 65.1534 53.9822 65.1562C54.4699 65.159 54.8906 65.5807 54.8419 66.0601C54.7889 66.5703 54.488 66.8529 53.9683 66.8894Z" fill="white"/>
</svg>
