<svg width="100" height="100" viewBox="0 0 100 100" fill="none" xmlns="http://www.w3.org/2000/svg">
<rect width="100" height="100" fill="white"/>
<circle cx="50" cy="50" r="45" fill="#BE9A40"/>
<path d="M66.6837 58.6965C68.1865 59.7439 69.6323 60.7344 70.7707 62.1233C71.3969 62.886 71.7725 63.774 71.8978 64.7417C71.9775 65.4361 72.0002 66.1306 72.0002 66.825C72.0002 67.5764 71.9775 68.3278 71.9319 69.0792C71.875 70.081 71.4652 70.8665 70.5886 71.4357C67.344 73.5305 63.7124 74.5209 59.9897 75.2723C56.2897 76.0123 52.5442 76.4449 48.7646 76.331C42.7764 76.1489 36.8906 75.2837 31.3236 72.9385C30.2307 72.4717 29.2061 71.8342 28.1929 71.208C27.544 70.8096 27.2252 70.1038 27.1911 69.3865C27.1342 67.8155 27.1342 66.2444 27.2139 64.6848C27.2708 63.5235 27.8628 62.5445 28.6597 61.702C29.9689 60.3131 31.5286 59.2544 33.1907 58.207C33.5208 58.8445 33.8396 59.4593 34.1356 60.0741C34.1697 60.1424 34.1014 60.3131 34.0331 60.3814C32.6784 61.7931 32.223 63.5463 32.2002 65.4361C32.1775 67.1096 32.5873 68.6921 33.2818 70.1948C33.5094 70.673 33.8851 71.2422 34.3291 71.413C35.3196 71.7773 36.4239 71.8228 37.4029 71.3219C38.234 70.9007 38.4048 69.7736 37.8925 68.9767C37.3915 68.2025 36.3669 67.9521 35.5928 68.4302C35.4562 68.5099 35.331 68.601 35.1488 68.7262C34.4544 66.8023 34.1242 64.9124 34.9553 62.9885C35.6156 61.4516 36.9362 61.0076 38.4275 61.7703C39.7026 62.4193 40.5336 63.5122 41.1598 64.7644C41.3989 65.254 41.581 65.7777 41.8087 66.3241C41.6038 66.3924 41.4444 66.4493 41.285 66.5063C40.6589 66.7681 40.2718 67.3715 40.2604 68.0659C40.249 68.8173 40.6247 69.3182 41.2736 69.6256C41.877 69.9102 42.6398 69.7622 43.1179 69.2955C43.3684 69.045 43.6302 68.7945 43.8693 68.5441C44.336 68.0546 44.393 67.4284 44.2677 66.8364C43.6416 63.8651 42.2982 61.3377 39.5546 59.7781C38.7235 59.2999 37.8014 59.0836 36.8337 59.095C36.6971 59.095 36.4808 59.0495 36.4239 58.947C36.0709 58.3095 35.7522 57.6606 35.3537 56.8864C36.9931 56.1692 38.5641 55.4634 40.1466 54.7917C40.2604 54.7461 40.545 54.9283 40.6475 55.0763C42.7878 57.8882 44.9053 60.723 47.0342 63.5463C47.1252 63.6715 47.2391 63.7854 47.4212 63.9903C47.5692 63.2503 47.7058 62.6014 47.8197 61.9411C47.9449 61.2694 48.0132 60.5977 48.1726 59.9374C48.3206 59.3568 48.184 58.9015 47.8538 58.4347C47.6375 58.1387 47.3188 57.7744 47.3529 57.467C47.4212 56.8978 47.7058 56.3513 47.9221 55.8049C47.9563 55.7252 48.1271 55.6683 48.2295 55.6683C49.1175 55.6569 50.0169 55.6455 50.9049 55.6797C51.0415 55.6797 51.1895 55.8732 51.3147 55.987C51.3489 56.0212 51.3375 56.0895 51.3716 56.135C51.8953 57.0572 51.9067 57.911 51.1326 58.7421C50.9504 58.9356 50.9049 59.3568 50.939 59.6415C51.1553 61.0304 51.4286 62.4193 51.6904 63.8765C51.827 63.7626 51.9181 63.7057 51.9864 63.6146C54.1494 60.7344 56.3011 57.8427 58.4755 54.9624C58.5666 54.8372 58.8398 54.7461 58.9878 54.7917C59.4774 54.9397 59.9669 55.1218 60.4336 55.3381C61.6973 55.9529 62.9496 56.6018 64.2133 57.2279C64.4637 57.3532 64.6231 57.4784 64.5207 57.7972C64.2702 58.5372 64.0767 59.2999 63.7807 60.0285C63.4619 60.8254 63.0748 61.5882 62.7788 62.2485C61.9022 62.2143 61.1167 62.0891 60.3653 62.1916C58.1112 62.4876 56.5743 64.5823 56.8134 66.9047C57.0297 69.0336 59.0675 70.764 61.2419 70.6616C63.5074 70.5477 65.3176 68.6807 65.329 66.438C65.3403 65.6069 65.1354 64.8555 64.7028 64.1497C64.6231 64.0131 64.5548 63.7854 64.6231 63.6715C65.4997 62.146 66.1942 60.5181 66.6837 58.6965Z" fill="white"/>
<path d="M59.4886 31.4194C59.295 32.5806 59.1015 33.7305 58.9079 34.8917C58.8283 35.3698 58.7827 35.848 58.7258 36.3261C58.6803 36.679 58.8283 36.8498 59.1812 36.9067C59.9098 37.0319 60.3424 37.4076 60.2968 38.159C60.2172 39.4454 60.0578 40.7433 59.7504 41.9956C59.6365 42.4851 59.1015 42.9063 58.6803 43.2934C58.168 43.7602 57.8037 44.2838 57.6101 44.9669C56.7221 47.9838 54.8323 50.1127 51.8724 51.2853C50.2102 51.9456 48.6506 51.8659 46.9998 51.1942C43.9374 49.9533 42.1842 47.6422 41.2962 44.5571C41.1482 44.0334 40.9205 43.6349 40.431 43.3389C39.7024 42.9063 39.2584 42.2119 39.1104 41.4036C38.9283 40.4017 38.8144 39.3885 38.7575 38.3867C38.7119 37.4418 39.099 37.0206 40.0212 36.8726C40.3855 36.8156 40.5335 36.6335 40.4993 36.3033C40.4652 35.9277 40.4196 35.5634 40.3513 35.1877C40.0098 33.332 39.9073 31.465 40.2033 29.5979C40.3513 28.6758 40.7839 27.9585 41.7061 27.5373C42.207 27.3096 42.7534 26.9339 43.0153 26.4786C43.8805 24.9986 45.2011 24.3838 46.7949 24.2017C49.6296 23.8601 52.4188 24.0423 55.1055 25.1238C57.9175 26.2737 59.3975 28.4025 59.4886 31.4194Z" fill="white"/>
<path d="M61.082 68.3505C59.9777 68.3505 59.1011 67.4967 59.1011 66.3924C59.1011 65.3336 59.9777 64.4684 61.0478 64.4571C62.1521 64.4457 63.0287 65.3109 63.0287 66.4152C63.0173 67.4967 62.1635 68.3505 61.082 68.3505Z" fill="white"/>
</svg>
