<svg width="100" height="100" viewBox="0 0 100 100" fill="none" xmlns="http://www.w3.org/2000/svg">
<rect width="100" height="100" fill="white"/>
<circle cx="50" cy="50" r="45" fill="#BE9A40"/>
<path d="M51.7962 73.9894C51.4158 73.9894 51.1605 73.9894 50.9052 73.9894C45.205 73.9894 39.5099 73.9894 33.8097 73.9894C32.5852 73.9894 32.3924 73.8094 32.4081 72.6072C32.4341 70.5842 32.3455 68.5399 32.554 66.5381C33.0594 61.7293 37.1444 57.4237 41.8025 56.6452C42.0787 56.5976 42.4747 56.7564 42.6831 56.963C45.1893 59.4521 47.6695 61.9624 50.1601 64.4673C51.2908 65.606 51.8587 66.9458 51.8066 68.5929C51.7545 70.3458 51.7962 72.1094 51.7962 73.9894ZM41.2919 64.9387C40.4947 64.9387 39.7027 64.9334 38.9055 64.9387C38.3272 64.944 37.9781 65.2405 37.9937 65.839C38.0093 66.3951 38.3636 66.6599 38.8951 66.6652C40.427 66.6705 41.9641 66.6705 43.4959 66.6705C44.0639 66.6705 44.4547 66.4004 44.4547 65.8125C44.4547 65.23 44.0795 64.944 43.5064 64.944C42.7717 64.9387 42.0318 64.9387 41.2919 64.9387Z" fill="white"/>
<path d="M53.495 73.8941C53.495 72.1729 53.5783 70.4094 53.4637 68.6564C53.3908 67.4966 53.1563 66.3103 52.7759 65.2193C52.4998 64.4355 51.8589 63.7841 51.4785 63.2228C52.7916 61.7981 54.1306 60.3418 55.4802 58.896C55.9491 58.3929 56.517 57.9692 56.9234 57.4237C57.5435 56.5816 58.2521 56.5922 59.1535 56.8517C63.9472 58.2393 67.459 62.7832 67.5736 67.8673C67.6153 69.5461 67.5788 71.2249 67.5841 72.9037C67.5841 73.5975 67.3027 74 66.5732 74C62.3006 73.9947 58.0333 73.9947 53.7607 73.9894C53.7086 73.9735 53.6565 73.9417 53.495 73.8941Z" fill="white"/>
<path d="M40.9376 42.4203C43.3657 42.0125 45.6479 41.7159 47.8832 41.2181C49.7277 40.805 51.3794 39.8571 52.8539 38.6443C53.177 38.3795 53.4115 38.2736 53.8231 38.5066C55.3602 39.3804 56.9129 40.2225 58.4812 41.0433C58.9189 41.2711 59.1013 41.5518 59.0648 42.0549C58.9345 43.8608 59.07 45.7303 58.6688 47.4726C57.6788 51.7729 53.2604 54.924 49.2639 54.4262C44.5901 53.8436 41.0262 49.9299 40.9376 45.2695C40.922 44.2633 40.9376 43.257 40.9376 42.4203Z" fill="white"/>
<path d="M60.7645 41.7795C61.5773 41.9384 62.2755 42.0496 62.9581 42.2349C63.1196 42.2826 63.3228 42.5898 63.3228 42.7751C63.3437 46.048 63.3332 49.3209 63.3437 52.5938C63.3437 53.2028 62.9998 53.4888 62.4996 53.6318C60.207 54.2885 57.9091 54.9399 55.6165 55.586C55.455 55.6337 55.2935 55.6602 55.0225 55.7237C55.2101 55.9832 55.3508 56.1686 55.4706 56.3328C53.7512 58.2234 52.0213 60.1299 50.2706 62.0577C48.2594 59.9393 46.5034 58.091 44.6954 56.1898C44.6954 56.1898 44.8152 56.015 44.9768 55.782C44.7788 55.7078 44.6329 55.639 44.4818 55.5966C42.1579 54.9399 39.834 54.2938 37.5154 53.6371C36.9683 53.4835 36.6452 53.1605 36.6505 52.5197C36.6661 49.072 36.6557 45.6296 36.6609 42.182C36.6609 42.0708 36.7078 41.9649 36.7338 41.8325C37.5414 41.9225 38.3282 42.0072 39.2348 42.1078C39.2348 43.1141 39.2244 44.115 39.2348 45.1159C39.2817 49.787 42.283 54.0396 46.6181 55.586C51.4169 57.2966 56.7681 55.1253 59.3733 50.396C60.2955 48.7278 60.7905 46.9377 60.7697 45.01C60.7541 43.9667 60.7645 42.9287 60.7645 41.7795Z" fill="white"/>
<path d="M39.7386 32.2203C40.2388 33.4119 40.6608 34.577 41.2079 35.6838C41.8645 37.0078 42.8232 37.3997 44.1779 36.8913C46.5434 36.0016 48.9663 35.6838 51.4673 35.9327C51.9467 35.9804 52.4209 36.0598 53.0982 36.1499C48.2785 40.7309 42.5991 40.6938 36.7999 40.1112C36.0756 37.8287 37.6648 33.6449 39.7386 32.2203Z" fill="white"/>
<path d="M59.935 31.8178C62.5246 34.2381 63.6397 37.0449 63.3427 40.5667C59.8777 39.8941 56.8973 38.3477 54.0264 36.4676C54.24 36.5153 54.4588 36.5471 54.6673 36.6106C54.9121 36.6795 55.1518 36.7801 55.3915 36.8595C57.0224 37.3997 58.3458 36.7377 58.8929 35.0907C59.2368 34.0474 59.5547 33.0041 59.935 31.8178Z" fill="white"/>
<path d="M58.7056 28.8574C58.3461 30.8063 57.7625 32.7128 57.2363 34.6247C57.0643 35.2549 56.6006 35.472 55.9649 35.239C51.8799 33.7244 47.7897 33.7244 43.7047 35.2337C42.9648 35.5091 42.574 35.1754 42.3552 34.4923C41.8237 32.8188 41.2714 31.1505 40.7556 29.4664C40.198 27.634 41.3079 26.0505 43.2045 26.0241C44.7155 26.0029 46.2265 26.0082 47.7376 26.0135H54.0266C54.7457 26.0135 55.4699 26.0135 56.1889 26.0188C58.1429 26.0241 59.0547 26.9508 58.7056 28.8574Z" fill="white"/>
</svg>
