<svg width="100" height="100" viewBox="0 0 100 100" fill="none" xmlns="http://www.w3.org/2000/svg">
<rect width="100" height="100" fill="white"/>
<circle cx="50" cy="50" r="45" fill="#BE9A40"/>
<path d="M39.9019 39.1762C40.0145 39.343 40.1167 39.493 40.228 39.6585C43.2898 38.1469 46.514 37.3297 49.932 37.3297C53.3409 37.331 56.5572 38.1392 59.6243 39.6559C59.7369 39.4956 59.8443 39.343 59.9923 39.1335C60.3524 39.7257 60.7191 40.2688 61.0255 40.8416C61.9829 42.6377 62.4478 44.5604 62.4517 46.5879C62.4569 49.2335 62.4582 51.879 62.4517 54.5246C62.4438 57.5141 61.4826 60.1739 59.585 62.5039C59.5248 62.5776 59.4619 62.65 59.4161 62.7031C58.7181 62.4871 58.0449 62.2582 57.3613 62.0733C55.9928 61.7035 54.5863 61.719 53.1851 61.7643C52.8171 61.7759 52.4569 61.9596 52.0876 62.0371C50.3668 62.3966 48.6617 62.3539 46.975 61.8328C46.8191 61.785 46.6489 61.7565 46.4852 61.754C45.1534 61.732 43.8189 61.7216 42.5198 62.0695C41.8336 62.2531 41.1591 62.4819 40.448 62.7005C39.8783 62.0552 39.3676 61.3169 38.9367 60.5269C37.9205 58.6675 37.415 56.6788 37.4111 54.5685C37.4058 51.879 37.3954 49.1895 37.4137 46.5013C37.432 43.8854 38.2191 41.5037 39.7461 39.365C39.7919 39.3042 39.8443 39.2473 39.9019 39.1762ZM52.0326 44.7841C50.6025 46.4301 48.8608 47.7659 46.8624 48.7796C44.8744 49.7869 42.7568 50.4243 40.5881 50.8847C40.465 51.7562 40.596 53.7203 40.837 54.6888C41.992 59.3127 46.4433 62.3216 51.2076 61.6984C55.6798 61.1139 59.2301 57.1675 59.293 52.7001C59.3087 51.5958 59.2903 50.4903 59.3061 49.3847C59.3087 49.1572 59.2288 49.0744 59.0206 49.0111C57.4098 48.5197 55.8972 47.815 54.5431 46.8232C53.684 46.1909 52.8852 45.4798 52.0326 44.7841Z" fill="white"/>
<path d="M65.9996 73.4909C55.2846 73.4909 44.5879 73.4909 33.8545 73.4909C33.8584 71.9276 34.1806 70.4367 34.821 69.0157C35.8765 66.674 37.5423 64.8753 39.8092 63.6198C41.9831 62.4147 44.3364 62.1134 46.8128 62.2673C46.8128 62.3578 46.8128 62.4509 46.8128 62.544C46.8128 64.0491 46.805 65.5555 46.8155 67.0606C46.8273 68.6187 48.0439 69.957 49.5682 70.1122C51.1803 70.2764 52.6261 69.2549 52.9731 67.6955C53.0255 67.4601 53.0465 67.2132 53.0478 66.9714C53.0543 65.5012 53.0517 64.0297 53.0517 62.5595C53.0517 62.4651 53.0517 62.3707 53.0517 62.2763C56.3794 62.0203 59.3836 62.7625 61.9517 64.9206C64.91 67.4045 66.0258 70.813 65.9996 73.4909Z" fill="white"/>
<path d="M64.3507 31.6365C62.7269 34.0881 61.1004 36.5436 59.4738 39.0029C53.104 36.1065 46.7538 36.1001 40.3892 39.0029C38.7627 36.5462 37.1388 34.0958 35.5176 31.6468C43.3096 25.073 55.7179 24.5299 64.3507 31.6365Z" fill="white"/>
</svg>
