<svg width="100" height="100" viewBox="0 0 100 100" fill="none" xmlns="http://www.w3.org/2000/svg">
<rect width="100" height="100" fill="white"/>
<circle cx="50" cy="50" r="45" fill="#BE9A40"/>
<path d="M54.4826 45.7217C54.4059 47.2038 54.4442 48.7001 54.2285 50.1631C53.6293 54.1756 50.082 57.4495 46.0313 57.8593C40.8877 58.3788 36.4488 54.9476 35.7297 49.8724C35.6674 49.4197 35.6914 48.9479 35.6914 48.4857C35.6866 46.4365 35.701 44.3921 35.6866 42.343C35.6818 41.6139 35.9694 41.0896 36.5686 40.6798C39.3394 38.807 42.3977 37.7776 45.7437 37.6394C46.0361 37.6252 46.4292 37.7538 46.6257 37.9587C48.2844 39.6743 50.36 40.4797 52.6706 40.799C52.9007 40.8323 53.1308 40.8657 53.3609 40.8847C54.0943 40.9562 54.4011 41.266 54.4059 41.9999C54.4155 43.2389 54.4107 44.4779 54.4107 45.7169C54.4346 45.7217 54.4586 45.7217 54.4826 45.7217ZM44.9432 55.3861C46.5778 55.4528 47.92 54.838 48.9123 53.4989C49.291 52.989 49.2527 52.4934 48.8404 52.1884C48.4138 51.8691 47.9152 51.9454 47.5701 52.4839C46.5107 54.1232 43.3613 54.128 42.2971 52.4839C41.9471 51.9454 41.4486 51.8691 41.0267 52.1932C40.6097 52.5125 40.5761 52.9843 40.9644 53.5037C41.9423 54.8285 43.2654 55.4433 44.9432 55.3861Z" fill="white"/>
<path d="M32.3701 42.586C32.6002 36.7483 37.7582 30.8057 45.1117 30.8486C52.5131 30.8868 57.5033 36.9103 57.7095 42.5669C57.2445 42.3763 56.7699 42.1952 56.3097 41.9808C56.2091 41.9331 56.1324 41.7711 56.1084 41.6472C55.8351 40.0937 55.025 39.355 53.4479 39.1977C51.2428 38.9785 49.2391 38.3161 47.6907 36.6196C47.2497 36.1383 46.6457 35.9239 45.9841 35.9429C42.0725 36.0525 38.5252 37.2344 35.3422 39.4932C34.6663 39.9697 34.2349 40.6369 34.0958 41.4518C34.0335 41.833 33.8705 41.9998 33.5014 42.0999C33.1083 42.2 32.7488 42.4192 32.3701 42.586Z" fill="white"/>
<path d="M40.7834 62.153C40.8218 66.3323 41.7518 70.2448 43.6213 74C43.1276 74 42.7153 74 42.3078 74C39.8966 74 37.4902 74 35.079 74C33.8134 74 33.128 73.3281 33.128 72.0795C33.1327 70.8071 33.0608 69.53 33.1903 68.2671C33.5546 64.7216 36.3253 62.2436 39.9206 62.153C40.1842 62.1483 40.4479 62.153 40.7834 62.153ZM36.4979 68.0717C36.3205 68.0717 36.1719 68.0717 36.0281 68.0717C35.8795 68.0765 35.7261 68.067 35.5823 68.0908C35.1365 68.1623 34.8249 68.5245 34.8345 68.9438C34.8441 69.3537 35.1557 69.7349 35.5727 69.7444C36.7807 69.7683 37.9935 69.7683 39.2015 69.7444C39.609 69.7349 39.8631 69.449 39.911 69.0391C39.9637 68.615 39.7912 68.2814 39.3741 68.1528C39.1296 68.0765 38.8516 68.1099 38.5927 68.067C38.4633 68.0479 38.2572 68.0003 38.2284 67.9192C38.0798 67.4665 37.797 67.2235 37.3128 67.2521C36.8383 67.2807 36.6369 67.6095 36.4979 68.0717Z" fill="white"/>
<path d="M71.318 61.6622C71.2941 63.8543 70.5319 65.4221 69.2568 66.8422C68.4994 67.6857 67.8043 67.9002 66.7449 67.5046C64.9137 66.8279 63.0394 66.2704 61.1842 65.6509C61.0212 65.5985 60.8343 65.4936 60.748 65.3602C59.6263 63.6494 58.6819 61.8671 58.2888 59.8322C58.1498 59.1031 58.1834 58.4931 58.8497 57.9928C59.3099 57.6496 59.6598 57.1588 60.1104 56.8014C62.3299 55.0286 64.7939 54.6426 67.3776 55.834C69.9471 57.0254 71.1934 59.1508 71.318 61.6622ZM61.0356 61.2714C60.9733 63.8209 63.2311 65.77 65.7813 65.4317C65.9539 65.4078 66.1409 65.4364 66.3134 65.4793C68.2884 65.9845 69.971 64.3261 69.4773 62.3579C69.4293 62.1721 69.4054 61.9672 69.4197 61.7765C69.6834 58.9363 67.5598 56.8157 64.7028 57.0635C64.4775 57.0826 64.2426 57.054 64.0221 57.0015C62.2436 56.5726 60.6186 58.069 60.9014 59.8656C60.9733 60.3278 60.9925 60.7996 61.0356 61.2714Z" fill="white"/>
<path d="M49.2926 62.0911C50.2801 62.1864 51.1765 62.2769 52.1352 62.3722C49.7384 66.7708 50.3184 70.607 53.9664 73.9762C51.4881 73.9762 49.0241 73.9762 46.4883 73.9762C48.3243 70.2543 49.283 66.3514 49.2926 62.0911Z" fill="white"/>
<path d="M64.0562 72.07C63.3323 72.5608 62.6468 73.0278 61.8703 73.552C60.7102 72.1414 59.5645 70.8357 58.5195 69.4585C56.9951 67.4522 55.7296 65.2935 54.9099 62.8917C54.7277 62.3579 54.7469 61.9862 55.2119 61.605C55.696 61.2095 56.1083 60.7281 56.5924 60.2421C57.7669 64.9885 60.7629 68.534 64.0562 72.07Z" fill="white"/>
<path d="M53.414 63.7971C54.8377 67.6381 57.2298 70.8405 59.9286 73.857C58.6871 74.3193 55.5712 73.6569 53.8119 71.3742C51.8513 68.8342 52.1677 65.4507 53.414 63.7971Z" fill="white"/>
<path d="M50.7349 30.3197C46.9192 28.7995 43.1753 28.7947 39.4219 30.3006C39.767 28.5564 42.1495 26.8028 44.3594 26.6407C47.3123 26.4215 49.8433 27.8559 50.7349 30.3197Z" fill="white"/>
<path d="M45.0492 73.0374C43.8316 70.7166 42.6523 66.5992 42.6955 65.0266C43.4721 65.1982 44.2678 65.5079 45.0636 65.5079C45.8449 65.5079 46.6215 65.1934 47.4125 65.0123C47.12 67.7429 46.3339 70.4259 45.0492 73.0374Z" fill="white"/>
<path d="M42.5182 59.3271C44.196 59.7036 45.8594 59.7274 47.5228 59.3319C47.5228 60.2135 47.633 61.0808 47.4988 61.91C47.3071 63.0966 46.147 63.8972 44.9534 63.84C43.707 63.7828 42.6908 62.925 42.5422 61.6765C42.4415 60.9188 42.5182 60.1372 42.5182 59.3271Z" fill="white"/>
<path d="M33.9667 43.7964C33.9667 45.3261 33.9667 46.8511 33.9667 48.376C33.1518 48.3093 32.3656 47.3515 32.3033 46.3412C32.2218 45.0974 32.9217 44.0109 33.9667 43.7964Z" fill="white"/>
<path d="M56.1318 48.4189C56.1318 46.8559 56.1318 45.3309 56.1318 43.8012C56.9707 43.9346 57.6898 44.8448 57.8 45.8885C57.9103 46.9464 57.2296 48.0139 56.1318 48.4189Z" fill="white"/>
<path d="M66.6747 69.2631C66.1809 69.7539 65.6968 70.24 65.1599 70.769C64.3977 69.9303 63.6163 69.0677 62.835 68.2052C62.8541 68.1766 62.8685 68.1432 62.8877 68.1146C64.158 68.5006 65.4235 68.8819 66.6747 69.2631Z" fill="white"/>
<path d="M62.8002 61.2666C62.7235 60.6948 62.6468 60.1229 62.5749 59.5511C62.4934 58.922 63.0878 58.4931 63.7302 58.6695C64.0657 58.76 64.4444 58.8077 64.78 58.7552C66.4386 58.4836 67.9198 59.8322 67.7281 61.4954C67.6754 61.9576 67.6322 62.3818 67.8048 62.844C67.8863 63.0585 67.7664 63.4731 67.5843 63.6256C67.3877 63.7923 67.0234 63.8114 66.731 63.8162C66.3811 63.8257 66.012 63.678 65.6764 63.7352C64.1041 64.002 62.6899 62.8631 62.8002 61.2666Z" fill="white"/>
</svg>
