<svg width="100" height="100" viewBox="0 0 100 100" fill="none" xmlns="http://www.w3.org/2000/svg">
<rect width="100" height="100" fill="white"/>
<circle cx="50" cy="50" r="45" fill="#BE9A40"/>
<path d="M51.6741 29.4292C53.7202 29.7842 55.2119 30.7828 55.8881 32.734C56.0884 33.3083 56.1755 33.9462 56.1842 34.5552C56.2132 37.0172 56.2103 39.4821 56.1871 41.9442C56.1319 47.8524 51.2097 52.4185 45.2892 52.0722C40.0565 51.7662 35.7873 47.304 35.7525 42.0798C35.7321 38.9944 35.735 35.9089 35.7525 32.8234C35.7728 29.2848 38.7098 26.3841 42.2651 26.3783C45.0425 26.3726 47.8199 26.3754 50.5974 26.3783C51.6509 26.3783 51.6741 26.4014 51.6741 27.4896C51.6741 28.1303 51.6741 28.774 51.6741 29.4292ZM38.9565 36.1311C38.6373 36.3909 38.3558 36.6882 38.0162 36.8845C36.9888 37.479 36.7015 38.3276 36.7798 39.4908C36.8959 41.2197 36.716 42.9601 37.2529 44.663C38.4515 48.473 42.2099 51.1428 46.2585 51.01C50.3507 50.8744 53.9872 48.0487 54.7853 44.1089C55.1452 42.3309 55.0233 40.4577 55.1045 38.6249C55.1103 38.4921 55.0552 38.3161 54.9623 38.2237C54.2919 37.5339 53.6041 36.8614 52.9192 36.1802C48.2553 39.1935 43.6407 38.8558 38.9565 36.1311Z" fill="white"/>
<path d="M35.636 53.1863C35.7144 54.4101 35.7898 55.5733 35.8595 56.7335C35.9262 57.8736 36.0249 59.0166 36.0365 60.1596C36.0423 60.783 36.2397 61.1929 36.8201 61.4498C37.2903 61.6605 37.7256 61.9375 38.2741 62.2406C37.804 62.6129 37.4296 62.9333 37.0349 63.2219C36.4922 63.6174 36.5212 63.9839 36.9914 64.4342C39.1013 66.4459 41.1938 68.4779 43.3037 70.4925C43.4779 70.6599 43.7333 70.7408 43.9509 70.862C43.8871 70.9486 43.8232 71.0352 43.7594 71.1218C43.5736 71.1362 43.3879 71.165 43.2021 71.165C39.0258 71.1679 34.8495 71.1679 30.6761 71.165C29.7068 71.165 29.5907 71.0496 29.5907 70.1029C29.5878 67.2685 29.5675 64.4342 29.5965 61.5998C29.6313 57.8505 32.1446 54.3148 35.636 53.1863Z" fill="white"/>
<path d="M63.7095 74.187C59.7973 74.1899 56.6193 71.0439 56.6338 67.182C56.6483 63.3692 59.8437 60.1914 63.6776 60.1769C67.5317 60.1625 70.7619 63.3807 70.7503 67.2253C70.7387 71.0583 67.5782 74.1841 63.7095 74.187ZM59.9888 68.9773C60.0672 70.1318 60.8247 71.168 61.884 71.4826C62.9607 71.8029 64.1448 71.3873 64.7543 70.3973C65.5234 69.1504 66.2664 67.8834 66.9745 66.5989C67.671 65.3319 67.2444 63.8512 66.0429 63.17C64.7949 62.46 63.3061 62.8554 62.5399 64.1283C61.823 65.3203 61.1207 66.5239 60.4445 67.7419C60.2355 68.1229 60.1397 68.5645 59.9888 68.9773Z" fill="white"/>
<path d="M53.6735 62.2406C54.2453 61.9231 54.6835 61.6345 55.1595 61.4296C55.6993 61.1958 55.8502 60.8177 55.8734 60.2577C55.9605 58.1709 56.094 56.087 56.213 54.0002C56.2275 53.7318 56.2768 53.4634 56.3088 53.195C58.6451 53.4316 61.733 56.7105 62.1626 59.4323C59.6057 60.0384 57.6438 61.4584 56.509 63.8627C55.3685 66.2757 55.5339 68.6771 56.7644 71.1016C53.8767 71.1016 51.0499 71.1016 48.0693 71.1016C48.3218 70.8418 48.496 70.6542 48.6788 70.4781C50.7423 68.4866 52.8087 66.495 54.8693 64.5006C55.4991 63.8916 55.4845 63.6809 54.8141 63.1498C54.4688 62.8727 54.1205 62.5956 53.6735 62.2406Z" fill="white"/>
<path d="M53.9905 63.8685C51.5178 66.2526 49.1031 68.5789 46.6884 70.9082C46.6536 70.8851 46.6159 70.862 46.5811 70.8389C47.176 68.6973 47.7652 66.5556 48.3688 64.414C49.4165 60.6878 50.4846 56.9673 51.5119 53.2382C51.6513 52.736 51.8573 52.5369 52.3739 52.5773C53.1227 52.6321 53.8715 52.6466 54.6231 52.6639C55.0527 52.6725 55.2268 52.8111 55.1949 53.296C55.0469 55.504 54.9569 57.7149 54.8031 59.9229C54.7857 60.1769 54.5535 60.4915 54.33 60.6416C53.7931 61.0024 53.1952 61.2679 52.6351 61.5941C52.0111 61.9549 51.9879 62.2464 52.548 62.7197C53.0008 63.0978 53.471 63.4557 53.9905 63.8685Z" fill="white"/>
<path d="M40.2212 52.6927C41.9422 58.7251 43.6603 64.7575 45.3814 70.7869C45.3349 70.8187 45.2914 70.8504 45.245 70.8822C42.839 68.5674 40.4302 66.2555 37.9604 63.88C38.4741 63.4644 38.9587 63.0892 39.4231 62.6909C39.9397 62.2493 39.9107 61.9606 39.3389 61.5999C39.2954 61.5739 39.2548 61.5392 39.2083 61.5248C37.3712 61.0053 36.872 59.7353 36.9562 57.9487C37.0258 56.4161 36.8401 54.8719 36.7211 53.3335C36.6863 52.8948 36.8633 52.71 37.2319 52.7014C38.2012 52.6754 39.1735 52.6927 40.2212 52.6927Z" fill="white"/>
<path d="M41.5982 53.0679C43.061 54.6294 44.5237 56.1909 46.059 57.8274C47.4985 56.2342 48.9061 54.6756 50.3165 53.1141C50.3543 53.1314 50.3891 53.1459 50.4268 53.1632C48.9728 58.3354 47.5217 63.5106 46.0677 68.6828C46.0096 68.6828 45.9516 68.6828 45.8935 68.6828C44.4134 63.499 42.9333 58.3152 41.4531 53.1314C41.5025 53.1112 41.5518 53.0881 41.5982 53.0679Z" fill="white"/>
<path d="M45.9539 48.2969C44.9962 48.2565 44.0616 47.9938 43.3448 47.2723C43.1648 47.0904 43.2055 46.695 43.1445 46.3977C43.429 46.4121 43.7859 46.3227 43.9862 46.4612C45.4489 47.4627 46.5024 47.457 47.9593 46.4497C48.1538 46.3169 48.5137 46.4179 48.7952 46.4121C48.7458 46.6892 48.7952 47.0616 48.6327 47.229C47.9303 47.965 47.0016 48.242 45.9539 48.2969Z" fill="white"/>
<path d="M41.4747 40.0565C42.0378 40.1893 42.5863 40.2672 43.0913 40.4606C43.2625 40.527 43.457 40.908 43.4047 41.0754C43.3525 41.2457 42.9694 41.4737 42.8069 41.4275C41.9652 41.1822 41.1555 41.1187 40.3109 41.4217C40.1513 41.4795 39.7508 41.2688 39.6899 41.1014C39.6289 40.9368 39.8089 40.5385 39.9772 40.4664C40.4445 40.2672 40.9669 40.1835 41.4747 40.0565Z" fill="white"/>
<path d="M50.3537 40.0594C50.8703 40.1777 51.3752 40.2297 51.8222 40.4231C52.0341 40.5154 52.1327 40.8733 52.2807 41.11C52.037 41.2139 51.7525 41.4564 51.5581 41.3986C50.7629 41.162 50.0083 41.1418 49.2131 41.4015C49.0331 41.4592 48.7487 41.1966 48.5107 41.084C48.6471 40.8589 48.7313 40.5125 48.9287 40.4288C49.3756 40.2383 49.8777 40.1748 50.3537 40.0594Z" fill="white"/>
<path d="M65.2149 67.4389C64.3268 66.9222 63.5577 66.4748 62.7422 66.0015C63.3342 65.1356 63.5142 63.906 64.826 63.9695C65.2497 63.9897 65.8389 64.4111 66.0246 64.8008C66.5238 65.8658 65.6067 66.5528 65.2149 67.4389Z" fill="white"/>
<path d="M62.1776 66.9799C63.0338 67.4734 63.8203 67.9237 64.6532 68.4028C64.0496 69.2283 63.9102 70.3886 62.642 70.4521C62.0325 70.4839 61.5681 70.1779 61.3418 69.6324C60.8861 68.5414 61.7626 67.8631 62.1776 66.9799Z" fill="white"/>
</svg>
