<svg width="100" height="100" viewBox="0 0 100 100" fill="none" xmlns="http://www.w3.org/2000/svg">
<rect width="100" height="100" fill="white"/>
<circle cx="53" cy="53" r="45" fill="#BE9A40"/>
<path d="M40.9862 38.826C40.9026 38.1579 40.7493 37.4933 40.7493 36.8322C40.7458 35.3533 40.7354 33.864 40.8747 32.3921C41.0733 30.2869 42.3904 29.0447 44.331 28.394C44.683 28.2756 45.0418 28.1782 45.4077 28.1051C46.2543 27.9277 46.2578 27.9381 46.6027 28.7002C46.77 29.0655 47.0104 29.1699 47.3693 28.9437C47.857 28.6375 48.3344 28.3139 48.8396 28.046C51.5956 26.588 54.5293 27.1274 56.5954 29.4587C56.8985 29.7997 57.1912 30.1477 57.5013 30.4852C58.2504 31.2995 59.1632 31.5257 60.219 31.2264C60.6371 31.1081 60.8496 31.2403 60.7416 31.6544C60.6127 32.1659 60.3897 32.6635 60.1284 33.1228C59.9576 33.4186 59.8636 33.6204 60.0796 33.9336C60.4385 34.4625 60.5047 35.061 60.3548 35.6804C60.104 36.7104 59.8496 37.7404 59.5953 38.7738C60.8357 38.8991 61.1004 39.1914 61.1388 40.4301C61.1945 42.3509 60.212 43.882 58.4455 44.6162C58.3375 44.6614 58.219 44.6962 58.104 44.6997C57.6232 44.7101 57.3375 44.9676 57.118 45.3713C56.1006 47.2538 54.7279 48.8405 53.0311 50.1454C51.3343 51.4503 49.195 51.4433 47.5017 50.121C45.8676 48.8475 44.5401 47.3095 43.5576 45.4861C43.2928 44.999 42.9409 44.8111 42.3938 44.6649C41.0315 44.2995 40.035 43.4087 39.6309 42.0238C39.4567 41.4253 39.4009 40.7572 39.4392 40.1309C39.5124 39.0244 39.8434 38.7843 40.9862 38.826Z" fill="white"/>
<path d="M46.5266 52.522C49.1049 53.9661 51.523 53.9521 53.9933 52.5498C53.5508 53.3188 53.2163 54.0322 52.7599 54.6585C51.8365 55.9321 51.5369 57.3135 51.617 58.8794C51.7216 60.915 51.6414 62.9645 51.6414 65.0071C51.6414 65.1602 51.6031 65.3307 51.6589 65.4594C51.7285 65.623 51.8679 65.8526 52.0003 65.87C52.1327 65.8874 52.3696 65.71 52.4289 65.5603C52.6971 64.9062 52.9166 64.2311 53.1536 63.563C54.3974 60.0485 55.6413 56.5341 56.8851 53.0196C56.9339 52.8839 56.9931 52.7482 57.0907 52.5081C57.1813 52.7343 57.2475 52.8595 57.2858 52.9918C57.7248 54.5159 58.1673 56.0365 58.5959 57.5641C58.8885 58.5975 58.5123 59.1891 57.46 59.3909C57.1604 59.4466 56.8608 59.5022 56.5681 59.5753C55.5263 59.8224 55.1744 60.8454 55.8468 61.6805C56.2615 62.192 56.6935 62.6896 57.1255 63.1872C57.5227 63.643 57.5855 64.1372 57.3485 64.6904C55.9792 67.9022 54.61 71.1139 53.2546 74.3326C53.1327 74.6214 52.9654 74.7397 52.6623 74.7745C51.9585 74.8545 51.2547 75.0598 50.5544 75.0424C49.5649 75.0181 48.5788 74.8441 47.5928 74.7084C47.4848 74.6945 47.3628 74.524 47.3106 74.4022C45.9169 71.1452 44.5337 67.8848 43.147 64.6243C42.9275 64.1058 43.0146 63.6361 43.3804 63.2116C43.7985 62.7244 44.2166 62.2373 44.6243 61.7431C45.3734 60.8349 45.025 59.8154 43.8821 59.5579C43.5024 59.4744 43.1156 59.4187 42.7428 59.3178C42.1191 59.1508 41.6801 58.5766 41.8334 57.9886C42.3003 56.2035 42.823 54.4323 43.4362 52.6542C43.7288 53.472 44.0215 54.2932 44.3107 55.1109C45.5162 58.514 46.7183 61.9171 47.9238 65.3202C47.9796 65.4803 48.0248 65.6508 48.1154 65.7865C48.3175 66.0823 48.7112 66.0336 48.8332 65.696C48.882 65.5603 48.8785 65.3968 48.8785 65.2472C48.882 62.4947 48.8854 59.7423 48.8715 56.9934C48.8715 56.7568 48.7983 56.4923 48.6799 56.2835C48.0005 55.0656 47.2967 53.8582 46.5266 52.522Z" fill="white"/>
<path d="M40.109 54.7873C39.9104 55.4867 39.7153 56.1826 39.5202 56.882C38.9662 58.848 39.5864 60.4104 41.3355 61.4578C41.3773 61.4822 41.4121 61.5204 41.4121 61.5204C41.1578 62.0459 40.8546 62.5365 40.6769 63.0689C40.3982 63.9144 40.4853 64.767 40.8372 65.5882C41.9417 68.1805 43.0392 70.7729 44.1402 73.3652C44.2204 73.5497 44.2935 73.7376 44.4085 74.0159C43.7256 73.8628 43.1089 73.7236 42.4922 73.5845C40.0219 73.0277 37.5481 72.4779 35.0813 71.9142C33.6981 71.5976 32.8933 70.752 32.7121 69.3567C32.3044 66.211 31.9107 63.0654 31.5379 59.9163C31.3567 58.3818 32.1616 57.2022 33.6284 56.7533C35.7747 56.0921 37.921 55.4484 40.109 54.7873Z" fill="white"/>
<path d="M56.1396 73.9498C56.9793 71.9734 57.8051 70.0352 58.6274 68.0935C58.9444 67.3489 59.2371 66.5938 59.5785 65.8596C60.2893 64.3285 60.1256 62.9158 59.0489 61.5622C59.1883 61.4752 59.3242 61.3917 59.4566 61.3082C60.8538 60.4243 61.5088 58.7784 61.0872 57.1743C60.8781 56.381 60.6447 55.5911 60.3938 54.6968C62.892 55.7233 65.4877 56.1409 67.9267 57.1708C67.843 57.31 67.8221 57.3761 67.7768 57.4179C66.5434 58.7297 66.0278 60.2921 66.0417 62.0807C66.0696 65.1358 66.0452 68.191 66.0556 71.2461C66.0556 71.601 65.9825 71.7889 65.5957 71.8759C62.4948 72.5614 59.4008 73.2678 56.3034 73.9637C56.286 73.9742 56.2511 73.9637 56.1396 73.9498Z" fill="white"/>
<path d="M75.7761 69.0574C75.7865 69.2558 75.8004 69.4193 75.8004 69.5863C75.8039 71.1035 75.8074 72.6241 75.8004 74.1412C75.7935 76.2882 74.236 77.8749 72.163 77.861C70.1142 77.8471 68.5847 76.2534 68.5777 74.1343C68.5742 72.6171 68.5777 71.0965 68.5777 69.5794C68.5777 69.4158 68.5917 69.2488 68.5986 69.0609C70.9888 69.0574 73.3476 69.0574 75.7761 69.0574Z" fill="white"/>
<path d="M75.801 66.486C73.362 66.486 71.0067 66.486 68.6061 66.486C68.5957 66.3259 68.5782 66.1797 68.5782 66.0336C68.5748 64.6 68.5713 63.1698 68.5782 61.7362C68.5887 59.6623 70.1322 58.086 72.1635 58.0686C74.1948 58.0512 75.7731 59.6066 75.7975 61.6805C75.8184 63.2638 75.801 64.847 75.801 66.486Z" fill="white"/>
</svg>
