<svg width="100" height="100" viewBox="0 0 100 100" fill="none" xmlns="http://www.w3.org/2000/svg">
<rect width="100" height="100" fill="white"/>
<circle cx="50" cy="50" r="45" fill="#BE9A40"/>
<path d="M55.5817 68.3754C54.9567 68.3754 54.6071 68.3754 54.2575 68.3754C46.8752 68.3754 39.493 68.3754 32.1107 68.3754C30.4272 68.3754 30.2104 68.1645 30.226 66.4501C30.2456 64.3061 30.1596 62.1504 30.3569 60.02C30.81 55.1365 35.003 51.2253 39.8953 51.1433C45.0961 51.0554 50.3027 51.073 55.5035 51.1433C58.2084 51.1804 60.5012 52.2993 62.5265 54.4023C59.1302 53.6837 56.6031 54.7791 54.8786 57.4582C53.0076 60.3656 52.91 63.4313 54.6052 66.5028C54.9001 67.032 55.1676 67.5768 55.5817 68.3754Z" fill="white"/>
<path d="M58.5795 36.0923C59.5872 42.536 56.107 48.0581 49.9493 49.4152C43.0376 50.9383 37.1045 45.6153 36.8232 39.4626C36.7412 37.67 36.8232 37.7774 38.3661 36.9846C40.0906 36.1001 41.7233 35.0261 43.3423 33.9561C43.8364 33.628 44.1235 33.5031 44.684 33.8467C48.006 35.8834 51.6327 36.6468 55.5055 36.3012C56.5074 36.2133 57.5112 36.1645 58.5795 36.0923Z" fill="white"/>
<path d="M63.4174 67.6822C62.2514 69.1174 62.0698 70.6112 61.8725 72.0796C61.7222 73.2043 61.7436 74.3525 61.5776 75.4752C61.5171 75.8912 61.2046 76.5101 60.8921 76.5902C60.5035 76.6917 59.8473 76.4633 59.5622 76.147C58.1033 74.5302 57.492 72.5443 57.5447 70.4023C57.5936 68.5004 57.2518 66.7957 56.2479 65.1145C54.7461 62.5995 55.6074 58.866 57.8767 57.1829C59.2966 56.1304 60.8199 55.9468 62.4741 56.6595C62.9037 56.845 63.5482 56.9681 63.9193 56.7787C66.8507 55.281 69.5126 57.0755 70.5243 59.3718C71.4441 61.4611 71.4519 63.5602 70.2196 65.5285C69.3701 66.8856 69.0498 68.3247 69.124 69.8907C69.2275 72.105 68.7334 74.1494 67.3468 75.9263C66.9542 76.4301 66.5246 76.887 65.7922 76.6488C65.054 76.4086 65.1946 75.7642 65.1125 75.1921C64.8294 73.2024 64.5306 71.2146 64.1712 69.2385C64.0853 68.766 63.7435 68.3364 63.4174 67.6822Z" fill="white"/>
<path d="M36.8698 35.5924C36.8698 33.0735 36.7058 30.8924 36.9147 28.7484C37.1276 26.577 39.229 24.7884 41.4437 24.7474C45.6036 24.6712 49.7654 24.6654 53.9252 24.7415C56.3743 24.7865 58.421 26.7742 58.6358 29.2522C58.7667 30.7635 58.6593 32.2963 58.6593 33.9034C53.9956 34.7235 49.6228 34.0654 45.3926 31.9488C45.6583 31.5797 45.8477 31.3161 46.0352 31.0525C46.4023 30.535 46.4473 29.9903 45.9512 29.5646C45.4141 29.1057 44.8927 29.2736 44.4025 29.7481C43.1662 30.9431 41.9769 32.2026 40.6332 33.2668C39.5435 34.1338 38.2564 34.7528 36.8698 35.5924Z" fill="white"/>
</svg>
