<svg width="100" height="100" viewBox="0 0 100 100" fill="none" xmlns="http://www.w3.org/2000/svg">
<rect width="100" height="100" fill="white"/>
<circle cx="50" cy="50" r="45" fill="#BE9A40"/>
<path d="M49.2138 58.3041C49.1063 58.4899 48.9729 58.6662 48.8939 58.8629C47.3993 62.5942 45.9101 66.3297 44.4209 70.0637C44.3705 70.1894 44.3474 70.3424 44.2616 70.4367C44.052 70.6662 43.7811 71.0666 43.5919 71.0365C43.3196 70.9928 42.9984 70.6744 42.8745 70.393C42.3776 69.2726 41.9488 68.1222 41.4956 66.9827C40.4202 64.2816 39.3461 61.5791 38.2694 58.8793C38.1959 58.6949 38.0979 58.5214 37.9781 58.2741C35.992 59.2195 33.829 59.6936 32.1152 61.1241C31.764 61.4179 31.3692 61.5572 31.0453 61.1405C30.7158 60.717 30.984 60.3986 31.3284 60.1035C32.7427 58.8971 34.4865 58.3492 36.1527 57.6469C36.8836 57.3395 37.6092 57.0157 38.3552 56.7507C38.7268 56.6181 38.7894 56.4105 38.8207 56.0498C38.9337 54.7764 38.6819 53.7763 37.6514 52.813C36.071 51.3347 35.4162 49.3181 35.3332 47.1471C35.3182 46.7427 35.2678 46.5322 34.7792 46.4202C33.1702 46.0499 32.3303 44.3858 32.6556 42.7558C32.8652 41.7038 32.7945 40.593 32.8244 39.5068C32.8271 39.3866 32.6788 39.2459 32.5753 39.142C31.911 38.4794 31.7586 37.1582 32.2636 36.3658C32.3126 36.2892 32.3561 36.1772 32.4269 36.1512C33.1634 35.8848 33.1484 35.2413 33.1593 34.6415C33.2015 32.3448 34.2006 30.7052 36.2166 29.5439C37.1763 28.9906 38.0121 28.2009 39.161 28.1079C40.3889 28.0082 41.6017 27.9467 42.8132 27.612C43.7239 27.3606 44.7013 27.556 45.6011 27.9645C45.8325 28.0697 46.1238 28.0519 46.3892 28.0752C47.1053 28.1353 47.907 27.9973 48.5237 28.2746C50.6309 29.2256 52.7667 30.2516 53.5657 32.6891C53.8652 33.6031 53.8843 34.6087 54.0381 35.617C55.2932 36.225 55.5926 36.7633 55.2904 38.2362C55.2169 38.5955 54.9392 38.9999 54.6357 39.2035C54.2709 39.4467 54.162 39.6899 54.1973 40.0861C54.2858 41.0985 54.3185 42.1178 54.4478 43.1247C54.6615 44.7889 53.627 46.1715 51.8179 46.5268C51.7104 47.2755 51.6341 48.0379 51.4857 48.788C51.1264 50.6106 50.2252 52.1463 48.864 53.3869C48.4502 53.764 48.2514 54.1342 48.3263 54.6766C48.3508 54.8556 48.3304 55.0401 48.3304 55.2232C48.3304 56.6004 48.3304 56.6004 49.7052 57.0813C49.9897 56.4269 50.2402 55.7519 50.5683 55.1166C52.8919 50.6188 58.1055 48.307 62.9461 49.605C63.3994 49.7266 63.8295 49.9042 63.6675 50.463C63.5178 50.9836 63.1081 50.9686 62.618 50.8524C57.3078 49.5954 52.3665 52.5289 50.9167 57.774C49.5324 62.7814 52.7027 68.2192 57.7516 69.5022C63.8037 71.0392 69.6407 66.6849 69.7972 60.4082C69.883 56.9652 68.4169 54.2066 65.5964 52.205C65.5597 52.1791 65.5202 52.1559 65.4807 52.1326C65.0792 51.8922 64.7334 51.5793 65.0465 51.0915C65.3868 50.5628 65.8632 50.7609 66.2131 51.0861C67.2054 52.0097 68.3325 52.8486 69.103 53.9375C73.704 60.4355 69.9375 69.5063 62.1089 70.9245C56.1507 72.0038 50.3192 67.8749 49.4602 61.9248C49.3254 60.9889 49.4098 60.0202 49.3949 59.0679C49.3908 58.8438 49.3949 58.6184 49.3949 58.3943C49.3336 58.367 49.2737 58.3355 49.2138 58.3041ZM50.4675 41.2844C50.1095 41.5453 49.9326 41.6806 49.7488 41.8063C47.5204 43.3324 44.3501 42.9826 42.9058 40.772C42.134 39.5902 41.3131 39.3401 40.1044 39.4672C39.5435 39.526 38.9718 39.4768 38.4055 39.4768C37.8256 39.4768 37.2457 39.4768 36.6332 39.4768C36.6332 42.0727 36.6128 44.573 36.6468 47.0719C36.6563 47.7441 36.7666 48.4341 36.9449 49.0831C37.7657 52.0657 40.7088 54.4225 43.532 54.4061C46.3307 54.3897 49.2656 52.0561 50.085 49.1104C50.7861 46.5924 50.2824 44.0101 50.4675 41.2844ZM34.4565 35.6635C34.9398 35.6635 35.3672 35.6457 35.7933 35.6689C36.2057 35.6908 36.5542 35.9203 36.4521 36.3439C36.3936 36.5816 36.0315 36.8699 35.7729 36.9082C35.1957 36.9942 34.5968 36.9505 34.0073 36.9341C33.5717 36.9218 33.2709 36.9683 33.2723 37.5421C33.2736 38.0941 33.4819 38.2403 34.0005 38.2362C36.3827 38.2157 38.7663 38.228 41.1484 38.2253C41.3213 38.2253 41.4928 38.1925 41.6494 38.1761C41.6494 37.7471 41.6494 37.3727 41.6494 36.9382C40.6761 36.9382 39.7491 36.9355 38.8221 36.9396C38.3769 36.941 37.9645 36.874 37.9645 36.3138C37.9645 35.7714 38.3552 35.658 38.8098 35.6607C39.6497 35.6648 40.4896 35.6375 41.3281 35.6703C41.8277 35.6908 42.1163 35.5678 42.3831 35.0801C43.336 33.3381 44.8796 32.4404 46.8357 32.4377C48.7646 32.435 50.311 33.3094 51.2489 35.0254C51.6042 35.6744 51.9962 35.7509 52.5775 35.6102C52.5775 35.1866 52.5815 34.8027 52.5761 34.4202C52.5557 32.7642 51.8124 31.5592 50.345 30.7968C50.1476 30.6943 49.9584 30.5604 49.7937 30.4088C48.9647 29.6491 48.005 29.2611 46.8752 29.3622C46.1415 29.4278 45.4513 29.3526 44.7571 29.0493C44.3392 28.8662 43.7974 28.7528 43.3673 28.8512C41.9366 29.1777 40.461 29.2146 39.0494 29.4947C37.488 29.8049 36.1744 30.8938 35.1481 32.1617C34.3585 33.1372 34.4103 34.3655 34.4565 35.6635ZM47.8226 58.0582C47.7886 58.024 47.7532 57.9899 47.7192 57.9557C47.0331 58.546 46.3443 59.1348 45.6596 59.7264C44.165 61.0189 42.9249 61.0162 41.4397 59.7169C40.7755 59.1362 40.1084 58.561 39.4414 57.983C39.4033 58.0145 39.3666 58.0459 39.3284 58.076C40.7224 61.5723 42.1163 65.0686 43.5742 68.7275C45.043 65.0413 46.4328 61.5504 47.8226 58.0582ZM43.0201 37.5776C43.0215 39.7446 44.704 41.4333 46.8548 41.4265C48.9851 41.4196 50.6826 39.6899 50.669 37.5408C50.6554 35.4312 48.9538 33.7316 46.8507 33.7288C44.6972 33.7247 43.0188 35.4121 43.0201 37.5776ZM40.1425 54.8447C40.0812 55.9582 39.8621 56.9556 40.9837 57.6319C41.5568 57.9776 42.006 58.5241 42.5287 58.9613C43.2352 59.5515 43.8478 59.5625 44.5461 58.9832C45.2975 58.3615 46.0353 57.7221 46.7609 57.0717C46.897 56.9501 47.0195 56.7384 47.0304 56.5607C47.0644 55.9978 47.0426 55.4308 47.0426 54.7545C44.7299 55.9459 42.4688 56.0224 40.1425 54.8447ZM51.7662 41.9566C51.7662 43.0578 51.7662 44.1126 51.7662 45.1755C52.6537 44.9911 53.1927 44.3858 53.205 43.5975C53.2159 42.8201 52.7258 42.2367 51.7662 41.9566ZM35.3196 45.2124C35.3196 44.282 35.3223 43.4021 35.3182 42.5236C35.3169 42.3473 35.2937 42.1711 35.2801 41.9921C34.4035 42.1547 33.9229 42.6766 33.8807 43.4841C33.8345 44.338 34.285 44.9187 35.3196 45.2124ZM51.9622 38.2225C52.5516 38.2225 53.1179 38.258 53.6746 38.1993C53.8216 38.1843 54.0422 37.8837 54.0462 37.7102C54.0517 37.4642 53.9128 37.012 53.7931 36.9983C53.1832 36.9259 52.5598 36.9642 51.9608 36.9642C51.9622 37.4437 51.9622 37.8031 51.9622 38.2225ZM51.7934 39.4973C51.6355 40.6818 51.6573 40.7092 52.9396 40.8417C52.9396 40.6135 52.9396 40.3894 52.9396 40.1667C52.9396 39.9495 52.9396 39.7336 52.9396 39.4973C52.5053 39.4973 52.1718 39.4973 51.7934 39.4973ZM34.1925 40.8786C35.4121 40.5753 35.4121 40.5753 35.2461 39.5205C34.9044 39.5205 34.56 39.5205 34.1925 39.5205C34.1925 39.9878 34.1925 40.4113 34.1925 40.8786Z" fill="white"/>
<path d="M57.6464 53.7804C58.0261 53.9156 58.8061 54.0974 59.4827 54.4676C60.0571 54.7819 60.4682 54.8051 61.0331 54.4608C62.5332 53.5467 64.0987 53.5413 65.6069 54.4362C67.0689 55.3051 67.8571 56.6619 67.7563 58.352C67.706 59.1949 67.299 60.0379 66.9423 60.8318C66.7055 61.3591 66.3202 61.8455 65.9159 62.2691C65.0665 63.1585 64.88 64.2461 64.8283 65.4006C64.8133 65.7394 64.7684 66.081 64.7003 66.413C64.522 67.2806 63.8645 67.8421 63.0478 67.8531C62.2664 67.864 61.5844 67.3571 61.3775 66.5168C61.1706 65.6807 61.0345 64.8268 60.878 63.9783C60.8085 63.6026 60.7119 63.1558 60.2681 63.2446C60.0217 63.2938 59.744 63.6941 59.6664 63.9865C59.4582 64.7748 59.3615 65.5919 59.1995 66.3925C59.0226 67.271 58.3038 67.8667 57.4762 67.8531C56.6077 67.838 55.9285 67.2123 55.7937 66.2805C55.7093 65.6957 55.58 65.1055 55.5936 64.5207C55.6127 63.7556 55.2982 63.1777 54.8504 62.6093C54.3739 62.0027 53.9193 61.3742 53.5 60.7265C52.5403 59.2455 52.4586 57.6811 53.289 56.1372C54.1207 54.5933 55.4833 53.8391 57.6464 53.7804ZM66.6143 58.2877C66.4672 57.0062 65.92 56.0812 64.8691 55.4937C63.7937 54.8912 62.6789 54.9117 61.6443 55.5866C60.6928 56.2069 59.8203 56.1932 58.8674 55.5825C57.5511 54.7395 55.9448 54.9718 54.8926 56.0785C53.8689 57.1537 53.7328 58.7509 54.5822 60.0338C55.0083 60.6774 55.4275 61.3373 55.9366 61.9111C56.6309 62.6926 56.8582 63.5998 56.9099 64.5972C56.9331 65.0276 56.9603 65.4662 57.0637 65.8802C57.1223 66.1193 57.3374 66.3187 57.4816 66.5373C57.6572 66.3119 57.9254 66.1097 57.9894 65.8556C58.1813 65.0863 58.2861 64.2953 58.4359 63.5151C58.6251 62.5369 59.3479 61.9125 60.2681 61.9152C61.2087 61.9179 61.9275 62.5765 62.1085 63.5916C62.2487 64.3745 62.3685 65.1615 62.5605 65.9321C62.6176 66.1602 62.8844 66.3365 63.056 66.5373C63.1975 66.3174 63.4589 66.0974 63.4602 65.8761C63.4725 63.8827 64.1 62.1502 65.4844 60.7033C65.6546 60.5243 65.8138 60.3139 65.9105 60.0899C66.165 59.4969 66.3828 58.8889 66.6143 58.2877Z" fill="white"/>
<path d="M35.1299 69.6934C34.3145 69.6934 33.4991 69.7016 32.6838 69.6921C31.833 69.6811 31.4477 69.2999 31.43 68.4406C31.4164 67.8271 31.411 67.2123 31.4396 66.5988C31.4695 65.9457 31.8112 65.5782 32.4605 65.57C34.226 65.5468 35.9929 65.5454 37.7585 65.5686C38.4377 65.5768 38.7889 65.9635 38.8094 66.6466C38.8284 67.2833 38.8284 67.92 38.8094 68.5567C38.7876 69.2726 38.3765 69.6743 37.6428 69.6893C36.8056 69.7071 35.9671 69.6934 35.1299 69.6934ZM32.7042 68.319C34.3608 68.319 35.9494 68.319 37.5312 68.319C37.5312 67.7875 37.5312 67.3229 37.5312 66.868C35.8909 66.868 34.2982 66.868 32.7042 66.868C32.7042 67.3735 32.7042 67.823 32.7042 68.319Z" fill="white"/>
<path d="M27.5108 68.6769C27.4237 66.7122 27.862 64.7434 28.921 62.9235C29.0013 62.7855 29.0585 62.586 29.1783 62.5314C29.4533 62.4084 29.7596 62.3565 30.0536 62.2773C30.1244 62.5751 30.3571 62.9754 30.2428 63.1544C28.872 65.2954 28.676 67.6713 28.7686 70.1142C28.7727 70.2058 28.8053 70.3246 28.7604 70.382C28.5794 70.6225 28.4078 70.9846 28.1696 71.0419C27.7367 71.1472 27.5244 70.7974 27.5135 70.3779C27.4999 69.856 27.5108 69.3327 27.5108 68.6769Z" fill="white"/>
<path d="M46.8107 40.1531C45.41 40.1421 44.2584 38.9863 44.2529 37.5872C44.2475 36.1676 45.444 34.9735 46.857 34.9899C48.2537 35.0063 49.4094 36.1704 49.4162 37.5653C49.4216 38.9917 48.2414 40.1654 46.8107 40.1531ZM48.0957 37.5763C48.0971 36.8371 47.5376 36.2769 46.8121 36.2892C46.126 36.3015 45.5638 36.859 45.5475 37.5435C45.5312 38.2471 46.1192 38.8674 46.8162 38.8824C47.5131 38.8975 48.0944 38.3031 48.0957 37.5763Z" fill="white"/>
<path d="M60.2474 59.1512C59.6239 58.9545 59.0413 58.7987 58.4819 58.5828C58.1075 58.438 57.8421 58.0814 58.0993 57.7303C58.2532 57.5185 58.7595 57.3491 58.9869 57.4475C59.8581 57.8218 60.6612 57.8204 61.5324 57.4488C61.7597 57.3518 62.2634 57.5185 62.4213 57.7303C62.6881 58.0855 62.4104 58.4407 62.0442 58.5815C61.4657 58.8042 60.8613 58.9599 60.2474 59.1512Z" fill="white"/>
</svg>
