<svg width="100" height="100" viewBox="0 0 100 100" fill="none" xmlns="http://www.w3.org/2000/svg">
<rect width="100" height="100" fill="white"/>
<circle cx="50" cy="50" r="45" fill="#BE9A40"/>
<path d="M33.1788 72.1166C30.485 72.3031 28.254 71.5019 26.5064 69.4781C26.4097 69.3607 26.3545 69.1465 26.3821 68.9946C27.0038 65.6032 27.5563 62.1979 28.8756 58.9723C30.333 55.4151 32.8956 53.115 36.5633 52.072C38.8633 51.4159 41.198 50.8495 43.5533 50.2347C44.0023 51.4849 44.4236 52.6522 44.838 53.8196C46.6063 58.8134 48.3814 63.8004 50.1427 68.8012C50.2463 69.0982 50.3085 69.4228 50.3085 69.7336C50.3223 71.8196 50.3154 73.8987 50.3154 75.9846C50.3154 76.1573 50.3154 76.3369 50.3154 76.6063C49.1067 76.551 47.9394 76.5372 46.7789 76.4405C43.8779 76.2126 41.0115 75.7981 38.2762 74.7552C37.254 74.3684 36.3077 73.7812 35.3338 73.277C34.9953 73.1043 34.8986 72.8281 34.9332 72.4412C35.2095 69.2847 35.4719 66.1281 35.7413 62.9715C35.7689 62.6193 35.8104 62.2601 35.8104 61.9078C35.8104 61.4105 35.4719 61.0514 35.0022 61.0099C34.5533 60.9685 34.125 61.2931 34.0767 61.7835C33.9524 62.937 33.8626 64.0905 33.7659 65.2371C33.5586 67.5026 33.3722 69.7682 33.1788 72.1166Z" fill="white"/>
<path d="M52.0974 76.5303C52.0974 76.2885 52.0974 76.1158 52.0974 75.9362C52.0974 75.1143 52.0353 74.2923 52.1112 73.4773C52.3737 70.4174 51.8695 67.4957 50.5917 64.7121C50.4121 64.3253 50.4466 63.9938 50.6331 63.607C52.7052 59.3383 54.7567 55.0559 56.815 50.7804C56.891 50.6215 56.9739 50.4696 57.0706 50.2762C60.2893 51.0843 63.5702 51.5954 66.5679 53.0736C69.0476 54.2961 70.5948 56.3406 71.6723 58.8065C72.7636 61.3 73.3093 63.9454 73.8135 66.6047C73.9517 67.3368 74.1105 68.069 74.2141 68.8081C74.2487 69.0291 74.221 69.3399 74.0898 69.4919C72.3768 71.488 70.1873 72.31 67.5418 72.1028C67.4244 70.7421 67.307 69.4228 67.1965 68.0966C67.0238 66.0383 66.8511 63.98 66.6715 61.9216C66.6163 61.3207 66.2156 60.9546 65.7183 60.9961C65.1934 61.0444 64.8757 61.4519 64.924 62.0598C65.1934 65.4097 65.4628 68.7666 65.7736 72.1166C65.8288 72.7244 65.6976 73.0974 65.1727 73.4289C63.5149 74.4857 61.6776 75.0867 59.7851 75.5425C57.2847 76.1504 54.7498 76.4336 52.0974 76.5303Z" fill="white"/>
<path d="M50.108 49.2608C47.6491 49.2055 45.5769 47.907 44.009 45.7865C43.3597 44.9093 42.9039 43.887 42.3513 42.9407C42.2615 42.7888 42.1303 42.5885 41.9783 42.547C40.065 42.0152 39.0911 40.6061 38.58 38.831C38.3797 38.1195 38.3313 37.3045 38.4488 36.5793C38.6629 35.2254 39.7404 34.5278 41.0942 34.7074C41.8194 34.8041 42.4135 35.0735 42.9039 35.6882C44.1748 37.27 45.501 38.8034 46.834 40.3367C46.9998 40.5301 47.3314 40.6821 47.5869 40.689C49.4173 40.7166 51.2546 40.7166 53.085 40.689C53.3268 40.6821 53.6376 40.544 53.7965 40.3644C55.171 38.7757 56.5386 37.1802 57.8786 35.5639C58.6315 34.6522 59.6054 34.5485 60.6276 34.8041C61.6775 35.0597 62.1403 35.8954 62.2508 36.897C62.5064 39.2592 60.7796 42.1257 58.6798 42.5401C58.5209 42.5678 58.3621 42.7957 58.2861 42.9753C57.6299 44.4879 56.7873 45.8832 55.5854 47.0367C54.128 48.425 52.415 49.2332 50.108 49.2608ZM45.0313 44.1978C45.2385 43.445 45.4457 42.7957 45.5908 42.1257C45.6322 41.9254 45.57 41.6353 45.4457 41.4695C44.9 40.7719 44.306 40.1019 43.7327 39.425C43.5048 39.1556 43.2699 38.8862 43.042 38.6169C43.3114 40.6061 43.8847 42.4503 45.0313 44.1978ZM55.6268 44.1495C56.5731 42.8579 57.5678 40.0812 57.5954 38.6652C56.7458 39.6668 55.9308 40.6268 55.1295 41.5938C55.0605 41.6767 55.0052 41.8287 55.0328 41.9254C55.2055 42.6437 55.4058 43.3483 55.6268 44.1495ZM59.2117 40.2124C60.0474 39.5493 60.6414 38.0367 60.4757 37.0351C60.4066 36.6138 60.2063 36.3997 59.7504 36.5033C59.5708 37.7466 59.3913 38.976 59.2117 40.2124ZM41.4326 40.3298C41.2254 38.976 41.0389 37.7466 40.8524 36.5102C40.438 36.4066 40.1963 36.5862 40.1548 36.9937C40.0167 38.2715 40.514 39.3145 41.4326 40.3298Z" fill="white"/>
<path d="M59.2807 29.9553C59.2807 31.2262 59.2807 32.4281 59.2807 33.6921C59.0597 33.6921 58.8663 33.6921 58.6798 33.6921C57.1879 33.6921 55.689 33.6783 54.1971 33.7059C53.9898 33.7059 53.7136 33.8371 53.5961 33.996C51.8832 36.3375 48.7404 36.3375 47.0274 34.0029C46.91 33.844 46.6337 33.7128 46.4265 33.7128C44.9346 33.6852 43.4357 33.699 41.9438 33.699C41.7504 33.699 41.5639 33.699 41.3359 33.699C41.3359 32.435 41.3359 31.2331 41.3359 29.9622C41.5362 29.9622 41.7296 29.9622 41.9161 29.9622C43.4081 29.9622 44.9069 29.976 46.3989 29.9484C46.6199 29.9415 46.91 29.7964 47.0343 29.6238C48.7128 27.3168 51.897 27.3099 53.5685 29.6238C53.6928 29.7964 53.9898 29.9484 54.204 29.9553C55.8824 29.9691 57.5539 29.9553 59.2807 29.9553ZM50.2393 33.9615C51.448 33.9891 52.415 33.0912 52.4496 31.9169C52.491 30.6944 51.5793 29.6997 50.3774 29.6721C49.1617 29.6445 48.1809 30.57 48.1602 31.7719C48.1533 32.9737 49.0581 33.9338 50.2393 33.9615Z" fill="white"/>
<path d="M41.5503 28.1733C42.0476 26.4258 43.0491 25.1203 44.5342 24.1809C45.4528 23.6007 46.4682 23.2208 47.5457 23.2001C49.5695 23.1656 51.6071 23.1241 53.624 23.2899C56.1175 23.4971 58.4521 25.6798 59.0461 28.1457C58.8942 28.1526 58.7422 28.1733 58.5972 28.1733C57.8512 28.1733 57.0983 28.1526 56.3523 28.1802C55.4061 28.2216 54.6324 28.0697 53.8174 27.372C51.5657 25.4588 48.34 25.7489 46.2126 27.8348C46.0261 28.0213 45.7084 28.1526 45.4459 28.1595C44.1612 28.194 42.8834 28.1733 41.5503 28.1733Z" fill="white"/>
</svg>
