<svg width="100" height="100" viewBox="0 0 100 100" fill="none" xmlns="http://www.w3.org/2000/svg">
<rect width="100" height="100" fill="white"/>
<circle cx="50" cy="50" r="45" fill="#BE9A40"/>
<path d="M69.5197 38.3445C69.7273 38.8187 69.7537 39.3092 69.6418 39.822C69.6968 39.8444 69.7476 39.8668 69.7965 39.8831C72.1471 40.632 73.4374 42.9969 72.8004 45.3841C72.5521 46.3142 72.3201 47.2503 72.0474 48.1743C71.9232 48.5935 71.7177 48.9904 71.5569 49.3995C71.5121 49.5114 71.4653 49.6315 71.4653 49.7495C71.4612 54.9758 71.4612 60.2 71.4612 65.4263C71.4612 67.1806 70.1608 68.4811 68.4085 68.4811C64.3097 68.4811 60.2089 68.4811 56.1101 68.4811C56.0368 68.4811 55.9636 68.4811 55.8638 68.4811C55.9269 68.8657 55.9859 69.2259 56.045 69.5861C56.1406 70.156 56.2444 70.7258 56.3279 71.2977C56.3523 71.4646 56.4194 71.4931 56.568 71.491C57.2762 71.4849 57.9865 71.487 58.6947 71.489C59.2585 71.491 59.5882 71.9347 59.4355 72.472C59.3541 72.7589 59.1221 72.9482 58.8087 72.9747C58.709 72.9828 58.6093 72.9787 58.5095 72.9808C52.6117 72.9808 46.7138 72.9808 40.818 72.9808C40.3763 72.9808 40.1158 72.8078 40.0181 72.4537C39.8798 71.9449 40.2033 71.4971 40.7304 71.491C41.4651 71.4829 42.1978 71.487 42.9325 71.489C43.0505 71.489 43.1095 71.4626 43.1299 71.3323C43.2724 70.449 43.4209 69.5658 43.5674 68.6825C43.5776 68.6235 43.5797 68.5625 43.5898 68.479C43.4942 68.479 43.4209 68.479 43.3497 68.479C39.2631 68.479 35.1745 68.479 31.0879 68.479C29.299 68.4811 27.9985 67.1887 27.9985 65.4019C27.9985 56.2009 27.9985 47 27.9985 37.7991C27.9985 36.0672 29.3132 34.7545 31.0513 34.7545C33.4955 34.7545 35.9417 34.7525 38.386 34.7606C38.5834 34.7606 38.6444 34.6975 38.6851 34.5144C39.2529 32.0152 40.6572 30.1327 42.9264 28.9442C47.2674 26.6709 52.5954 28.6613 54.3965 33.2139C54.5695 33.6515 54.6733 34.1155 54.8076 34.5673C54.8259 34.6263 54.8381 34.6853 54.8524 34.7423C55.8964 34.7423 56.9262 34.7423 57.9804 34.7423C57.9804 34.6568 57.9804 34.5836 57.9804 34.5103C57.9804 33.3523 57.9784 32.1963 57.9804 31.0383C57.9845 29.3349 59.287 28.0141 60.9904 28.008C63.4733 27.9998 65.9541 27.9998 68.437 28.008C70.1669 28.0121 71.4633 29.3247 71.4633 31.0546C71.4633 32.5281 71.4735 34.0035 71.4592 35.477C71.447 36.7815 70.8222 37.7034 69.6439 38.257C69.6154 38.2692 69.5869 38.2814 69.5584 38.2957C69.5482 38.3059 69.5421 38.3181 69.5197 38.3445ZM42.9732 45.9601C43.0159 45.6528 43.0159 45.6528 42.7778 45.4798C41.921 44.8611 41.2433 44.0857 40.7508 43.1516C40.6897 43.0376 40.6246 42.9867 40.4923 42.9928C40.2868 43.003 40.0812 42.9989 39.8757 42.9948C38.7177 42.9745 37.6045 42.1889 37.1974 41.1062C36.6825 39.7345 37.1404 38.3059 38.3595 37.4796C38.4083 37.447 38.4796 37.3961 38.4816 37.3534C38.4918 36.9952 38.4877 36.637 38.4877 36.2585C38.3758 36.2585 38.2903 36.2585 38.2048 36.2585C35.8217 36.2585 33.4405 36.2585 31.0574 36.2585C30.1354 36.2585 29.4964 36.8975 29.4964 37.8195C29.4964 45.7199 29.4964 53.6204 29.4964 61.5188C29.4964 61.586 29.4964 61.6511 29.4964 61.7203C29.5412 61.7305 29.5656 61.7406 29.588 61.7406C30.6015 61.7427 31.615 61.7447 32.6305 61.7366C32.6794 61.7366 32.7588 61.6653 32.771 61.6144C32.8198 61.415 32.8463 61.2115 32.8829 61.01C33.4263 58.0387 33.9758 55.0674 34.5049 52.092C34.6616 51.2108 34.9669 50.417 35.612 49.78C36.1045 49.2936 36.6764 48.9192 37.2951 48.622C38.9863 47.808 40.6857 47.0102 42.383 46.2083C42.5702 46.1208 42.7615 46.0476 42.9732 45.9601ZM55.7234 61.7305C55.7234 61.6368 55.7234 61.5615 55.7234 61.4883C55.7234 60.8777 55.7092 60.2692 55.7295 59.6607C55.7397 59.3778 55.6908 59.156 55.4344 58.9993C55.3347 58.9382 55.2574 58.8426 55.1739 58.7591C54.8442 58.4254 54.83 57.9919 55.1353 57.6805C55.4487 57.361 55.8679 57.3589 56.2159 57.6744C56.3686 57.8128 56.5171 57.9552 56.6799 58.0794C57.3169 58.5638 58.013 58.8527 58.8331 58.7042C59.4477 58.5922 59.9545 58.2687 60.4002 57.8494C61.2081 57.0923 62.0039 56.3251 62.8057 55.5599C64.0024 54.4182 65.1991 53.2764 66.3937 52.1327C66.7254 51.8152 66.7539 51.341 66.4466 51.0317C65.3904 49.9673 64.3301 48.909 63.2677 47.8528C63.0378 47.6228 62.7528 47.58 62.4577 47.7103C62.3234 47.7693 62.1993 47.8589 62.0833 47.9504C60.7523 48.9843 59.4254 50.0243 58.0964 51.0602C57.7871 51.3003 57.435 51.3084 57.1317 51.0825C55.9534 50.2034 54.6712 49.5114 53.3341 48.9131C53.2365 48.8683 53.1795 48.8805 53.1143 48.966C52.9678 49.1593 52.8131 49.3466 52.6625 49.5358C51.8933 50.4964 51.126 51.459 50.3526 52.4176C50.0209 52.8307 49.5589 52.8572 49.1662 52.499C49.1071 52.4461 49.0501 52.3911 48.9504 52.3016C48.7632 52.5031 48.5943 52.7025 48.4091 52.8836C48.3155 52.9773 48.287 53.0627 48.3073 53.195C48.7388 55.9832 49.1682 58.7734 49.5915 61.5636C49.6139 61.7162 49.681 61.7467 49.8235 61.7467C51.7264 61.7427 53.6292 61.7447 55.5341 61.7447C55.585 61.7427 55.64 61.7366 55.7234 61.7305ZM29.5045 63.2446C29.5045 64.0709 29.4944 64.8605 29.5127 65.6481C29.5168 65.8333 29.59 66.0287 29.6796 66.1956C29.9909 66.7776 30.5079 66.9934 31.151 66.9934C43.5227 66.9913 55.8944 66.9913 68.2661 66.9913C68.3149 66.9913 68.3658 66.9913 68.4146 66.9913C69.3406 66.9771 69.9674 66.3441 69.9695 65.4181C69.9715 64.7588 69.9695 64.0994 69.9695 63.44C69.9695 63.381 69.9634 63.3199 69.9593 63.2548C69.8881 63.2507 69.8331 63.2466 69.7782 63.2466C63.0052 63.2466 56.2302 63.2466 49.4572 63.2507C49.3595 63.2507 49.2394 63.3016 49.1682 63.3708C48.5515 63.9752 47.943 64.5919 47.3304 65.2004C46.9417 65.5871 46.5245 65.5891 46.1399 65.2065C45.5354 64.6061 44.931 64.0058 44.3347 63.3972C44.2248 63.2873 44.1169 63.2405 43.9602 63.2405C39.2204 63.2446 34.4805 63.2446 29.7406 63.2446C29.6694 63.2446 29.5961 63.2446 29.5045 63.2446ZM65.3334 38.5012C65.25 38.5012 65.1828 38.5012 65.1156 38.5012C64.1571 38.5012 63.2006 38.5053 62.242 38.4972C62.0934 38.4972 61.9896 38.5399 61.8838 38.6457C61.0352 39.5025 60.1804 40.3532 59.3277 41.208C59.1791 41.3586 59.0143 41.4725 58.7965 41.4888C58.3243 41.5275 57.9763 41.1917 57.9763 40.689C57.9743 39.2766 57.9743 37.8663 57.9784 36.4539C57.9784 36.3012 57.9377 36.2524 57.781 36.2524C56.9038 36.2585 56.0267 36.2585 55.1495 36.2524C55.0131 36.2524 54.9602 36.287 54.9663 36.4294C54.9765 36.6716 54.9785 36.9158 54.9663 37.156C54.9582 37.3208 55.0111 37.4185 55.1515 37.5203C56.1996 38.2835 56.6637 39.3153 56.4032 40.5913C56.1508 41.8328 55.3571 42.6183 54.1258 42.9134C53.7452 43.005 53.3362 42.9643 52.9393 42.9948C52.8681 43.0009 52.7684 43.0478 52.7378 43.1068C52.2168 44.0918 51.5106 44.914 50.5887 45.5429C50.4361 45.6466 50.4768 45.781 50.489 45.9071C50.4931 45.9499 50.5969 45.9906 50.662 46.0211C50.78 46.0761 50.9042 46.1188 51.0222 46.1738C51.8892 46.5767 52.7541 46.9898 53.6252 47.3867C54.9317 47.985 56.222 48.6139 57.4065 49.4361C57.5347 49.5236 57.6141 49.5318 57.7423 49.43C58.9084 48.5101 60.0827 47.5984 61.2529 46.6825C61.6396 46.3793 62.0711 46.1839 62.5636 46.1534C62.7264 46.1432 62.8241 46.0801 62.9095 45.9519C63.3878 45.2376 63.7236 44.4561 63.9536 43.6318C64.267 42.5125 64.556 41.3871 64.8572 40.2657C65.0159 39.6898 65.1726 39.1077 65.3334 38.5012ZM44.5036 52.3036C44.4507 52.3484 44.4181 52.3749 44.3876 52.4054C43.891 52.8877 43.4698 52.8633 43.0403 52.326C42.1551 51.2189 41.2657 50.1138 40.3845 49.0026C40.2949 48.8886 40.2237 48.8663 40.0914 48.9334C39.7861 49.0881 39.4727 49.2224 39.1654 49.373C38.4287 49.7332 37.6736 50.0629 37.0102 50.5554C36.5014 50.9319 36.1575 51.4183 36.0415 52.0513C35.9397 52.613 35.8379 53.1767 35.7362 53.7404C35.3292 55.973 34.9221 58.2056 34.5151 60.4361C34.4378 60.8614 34.3625 61.2888 34.2831 61.7284C34.3584 61.7345 34.4133 61.7427 34.4683 61.7427C36.0679 61.7427 37.6655 61.7406 39.2651 61.7447C39.3995 61.7447 39.4605 61.706 39.5033 61.5737C39.6742 61.0405 39.8513 60.5094 40.0405 59.9843C40.1789 59.5956 40.5982 59.4043 40.9808 59.5366C41.3736 59.6709 41.573 60.0616 41.4529 60.4646C41.4041 60.6254 41.3471 60.7821 41.2942 60.9428C41.2087 61.1993 41.1232 61.4577 41.0316 61.7264C41.0988 61.7345 41.1415 61.7427 41.1823 61.7427C42.0167 61.7427 42.849 61.7386 43.6835 61.7467C43.8463 61.7488 43.8605 61.6653 43.8788 61.5432C44.0803 60.2082 44.2838 58.8751 44.4894 57.5421C44.7153 56.0727 44.9432 54.6054 45.1671 53.136C45.1752 53.075 45.1671 52.9895 45.1304 52.9508C44.9269 52.729 44.7153 52.5194 44.5036 52.3036ZM59.4762 38.9266C59.5576 38.8533 59.6024 38.8146 59.6452 38.7719C60.1193 38.2957 60.5996 37.8276 61.0637 37.3412C61.2957 37.097 61.5602 36.9993 61.894 36.9993C64.0757 37.0054 66.2594 37.0034 68.4411 37.0034C69.3121 37.0034 69.9674 36.3602 69.9715 35.4872C69.9776 34.0015 69.9776 32.5158 69.9715 31.0281C69.9674 30.1571 69.3142 29.5099 68.4411 29.5079C65.9602 29.5038 63.4794 29.5038 60.9985 29.5079C60.1275 29.5099 59.4783 30.1693 59.4783 31.0363C59.4783 33.5863 59.4783 36.1343 59.4783 38.6844C59.4762 38.7516 59.4762 38.8167 59.4762 38.9266ZM51.9787 39.6043C51.9787 39.183 51.9726 38.896 51.9808 38.6111C51.9848 38.4768 51.9462 38.4198 51.8078 38.3832C50.8004 38.1145 49.9924 37.559 49.4348 36.6676C49.3514 36.5353 49.2842 36.5129 49.1397 36.5678C48.287 36.8874 47.4017 37.0298 46.4899 37.0013C45.7308 36.9769 45.0002 36.8161 44.2899 36.5556C44.1963 36.521 44.1271 36.5007 44.06 36.6146C43.4962 37.5427 42.6699 38.1207 41.6259 38.3913C41.5119 38.4219 41.4794 38.4727 41.4814 38.5847C41.4855 39.0874 41.4794 39.5921 41.4855 40.0948C41.4957 40.917 41.689 41.6944 42.0675 42.425C43.0831 44.3889 45.2607 45.5429 47.4994 45.1887C49.4511 44.8794 50.8248 43.7926 51.6063 41.9752C51.9502 41.1754 52.0113 40.3268 51.9787 39.6043ZM69.9613 51.0378C69.9267 51.05 69.9023 51.054 69.882 51.0663C69.3793 51.3512 68.8461 51.5486 68.2783 51.6544C68.1684 51.6748 68.146 51.7358 68.1338 51.8315C68.0625 52.3749 67.8265 52.8368 67.4296 53.2154C65.8483 54.7275 64.269 56.2437 62.6816 57.7517C62.0955 58.3073 61.5195 58.8812 60.8846 59.3758C59.985 60.0779 58.9451 60.3669 57.7993 60.1878C57.6141 60.1593 57.4289 60.1125 57.2396 60.0738C57.2396 60.6396 57.2396 61.183 57.2396 61.7284C61.487 61.7284 65.7201 61.7284 69.9593 61.7284C69.9613 58.1608 69.9613 54.6054 69.9613 51.0378ZM53.4685 36.981C53.6109 34.3108 52.7134 32.1047 50.4463 30.6394C47.9878 29.05 45.4194 29.0642 42.9711 30.672C40.7345 32.1434 39.8594 34.3414 39.9897 36.9973C40.3112 36.9973 40.6246 37.0318 40.9279 36.9911C41.9617 36.8528 42.6801 36.3053 43.0139 35.2979C43.1625 34.8461 43.6041 34.6405 44.0437 34.8217C44.1292 34.8563 44.2126 34.9031 44.296 34.9417C45.1691 35.3447 46.0768 35.5564 47.0455 35.4973C47.8596 35.4485 48.6167 35.2043 49.3473 34.8583C49.8459 34.6222 50.2835 34.8196 50.4727 35.3427C50.5602 35.5849 50.6701 35.8311 50.8248 36.0346C51.4862 36.9057 52.4102 37.099 53.4685 36.981ZM69.1982 41.2731C69.2083 41.4522 69.1656 41.617 69.2287 41.7127C69.9654 42.832 70.0427 44.0368 69.7232 45.2946C69.6113 45.7321 69.2328 45.9316 68.7993 45.8176C68.3943 45.7118 68.1847 45.3536 68.2722 44.9242C68.3129 44.7227 68.3637 44.5232 68.3841 44.3197C68.4553 43.6054 68.3312 42.9379 67.8387 42.3863C67.6026 42.1238 67.5395 41.8491 67.6352 41.5112C67.8244 40.8478 68.0015 40.1802 68.1704 39.5127C68.205 39.3723 68.2152 39.2135 68.1867 39.0731C68.1175 38.7373 67.8081 38.5073 67.4683 38.5053C67.1162 38.5012 66.8272 38.7353 66.7254 39.1219C66.3896 40.3776 66.0457 41.6293 65.7221 42.887C65.3863 44.1854 65.0159 45.4655 64.2914 46.6133C64.269 46.6479 64.2934 46.7436 64.328 46.7802C64.4827 46.9491 64.6496 47.1079 64.8124 47.2727C65.7628 48.2313 66.7132 49.1898 67.6657 50.1443C67.7064 50.185 67.7837 50.2095 67.8407 50.2034C69.1269 50.0711 70.2442 49.1247 70.5882 47.8711C70.8548 46.8942 71.1234 45.9173 71.3697 44.9343C71.6118 43.9697 71.4226 43.0824 70.8039 42.2988C70.405 41.7961 69.886 41.4705 69.1982 41.2731ZM44.6176 71.4748C48.0366 71.4748 51.4292 71.4748 54.8361 71.4748C54.8259 71.3934 54.8218 71.3262 54.8096 71.2611C54.6672 70.4083 54.5145 69.5576 54.3843 68.7049C54.3558 68.5218 54.2947 68.477 54.1156 68.477C51.1932 68.4831 48.2687 68.4811 45.3462 68.4811C45.3156 68.4811 45.2831 68.4831 45.2526 68.4811C45.1508 68.4688 45.1121 68.5177 45.0979 68.6174C45.0613 68.8759 45.0144 69.1323 44.9717 69.3908C44.8537 70.0746 44.7377 70.7604 44.6176 71.4748ZM46.6995 63.6903C46.7748 63.6231 46.8176 63.5885 46.8563 63.5499C47.2572 63.149 47.654 62.746 48.059 62.3512C48.1567 62.2555 48.175 62.166 48.1547 62.0378C47.8087 59.8072 47.4668 57.5767 47.1249 55.3462C47.0679 54.9737 47.0089 54.5993 46.9519 54.2289C46.7952 54.2289 46.6609 54.2289 46.5184 54.2289C46.5062 54.2981 46.494 54.3591 46.4838 54.4182C46.3393 55.3462 46.1969 56.2742 46.0544 57.2022C45.802 58.8365 45.5477 60.4707 45.2994 62.107C45.2912 62.166 45.3075 62.2514 45.3441 62.2901C45.7919 62.7582 46.2437 63.2202 46.6995 63.6903ZM48.9871 46.3712C47.4749 46.8799 45.9934 46.8657 44.4894 46.3752C44.4894 46.6439 44.4853 46.8861 44.4934 47.1262C44.4955 47.173 44.5362 47.228 44.5728 47.2646C45.1142 47.812 45.6576 48.3575 46.203 48.9029C46.3108 49.0108 47.0984 49.0433 47.2185 48.9477C47.2328 48.9355 47.245 48.9212 47.2592 48.909C47.8046 48.3656 48.3521 47.8222 48.8955 47.2768C48.9362 47.2361 48.981 47.1771 48.983 47.1242C48.9911 46.884 48.9871 46.6418 48.9871 46.3712ZM41.6585 48.2048C42.381 49.1064 43.0872 49.9856 43.771 50.8363C44.1536 50.4577 44.5179 50.0955 44.8883 49.7251C44.8923 49.7393 44.8923 49.7312 44.8883 49.7271C44.2268 49.0616 43.5654 48.3941 42.8999 47.7327C42.8674 47.7001 42.7819 47.6838 42.7412 47.7022C42.3891 47.8589 42.0411 48.0257 41.6585 48.2048ZM51.8078 48.2028C51.4496 48.0339 51.1158 47.8833 50.7882 47.7225C50.6803 47.6696 50.6131 47.6859 50.5317 47.7693C49.9151 48.39 49.2923 49.0067 48.6716 49.6254C48.6329 49.664 48.6004 49.7068 48.576 49.7332C48.9525 50.1077 49.3147 50.472 49.6912 50.8485C50.3852 49.9795 51.0853 49.1044 51.8078 48.2028ZM53.4766 38.5033C53.4766 39.0243 53.4909 39.5147 53.4725 40.0032C53.4522 40.4957 53.3993 40.9882 53.3606 41.4949C53.9264 41.5255 54.3904 41.3158 54.7119 40.8437C55.0579 40.3369 55.0823 39.7956 54.775 39.2603C54.4962 38.776 54.0648 38.5318 53.4766 38.5033ZM40.1464 41.499C39.9123 40.4977 40.0242 39.5025 39.9734 38.5012C39.3934 38.5379 38.9599 38.778 38.6872 39.2644C38.388 39.7997 38.4124 40.341 38.7543 40.8478C39.0779 41.3219 39.544 41.5255 40.1464 41.499ZM45.5761 51.2148C45.9791 51.6239 46.3617 52.0106 46.7586 52.4115C47.1269 52.0207 47.4994 51.6239 47.884 51.2189C47.6785 51.0113 47.4444 50.7732 47.2063 50.5412C47.1798 50.5147 47.129 50.4984 47.0883 50.4984C46.8522 50.4944 46.6161 50.4944 46.38 50.4984C46.3353 50.4984 46.2783 50.5168 46.2477 50.5473C46.0178 50.7712 45.7919 51.0011 45.5761 51.2148Z" fill="white"/>
<path d="M40.7384 54.9982C41.2411 54.9982 41.7458 54.99 42.2485 55.0002C42.7512 55.0104 43.0666 55.4215 42.969 55.912C42.9038 56.2437 42.6413 56.4859 42.2852 56.4879C41.2533 56.4981 40.2215 56.5001 39.1917 56.4859C38.7704 56.4798 38.4916 56.1602 38.4937 55.743C38.4957 55.3136 38.7765 55.0104 39.2121 55.0002C39.7188 54.99 40.2296 54.9982 40.7384 54.9982Z" fill="white"/>
<path d="M68.4699 33.2485C68.474 33.6596 68.1463 33.9954 67.7312 34.0035C67.3221 34.0117 66.9802 33.6759 66.9761 33.2668C66.972 32.8557 67.3017 32.5158 67.7149 32.5077C68.1158 32.4975 68.4658 32.8415 68.4699 33.2485Z" fill="white"/>
<path d="M62.47 33.2505C62.4741 33.6637 62.1444 33.9995 61.7312 34.0035C61.3201 34.0076 60.9782 33.6738 60.9742 33.2648C60.9701 32.8618 61.312 32.5118 61.717 32.5057C62.124 32.4996 62.4659 32.8394 62.47 33.2505Z" fill="white"/>
<path d="M64.7151 34.0035C64.306 33.9995 63.9661 33.6535 63.9722 33.2485C63.9784 32.8394 64.3284 32.4975 64.7293 32.5057C65.1343 32.5118 65.4803 32.8659 65.4742 33.2648C65.4681 33.6759 65.1262 34.0076 64.7151 34.0035Z" fill="white"/>
</svg>
