<svg width="100" height="100" viewBox="0 0 100 100" fill="none" xmlns="http://www.w3.org/2000/svg">
<rect width="100" height="100" fill="white"/>
<circle cx="50" cy="50" r="45" fill="#BE9A40"/>
<path d="M51.7245 57.3619C51.7405 57.9583 51.9748 58.2458 52.5286 58.4162C53.2741 58.6505 54.0036 58.986 54.6905 59.3641C55.1432 59.6144 55.5159 60.0191 56.0378 60.4504C53.8492 61.5154 52.7575 63.0437 52.8747 65.3494C52.9812 67.4741 53.8066 69.258 55.3721 70.8448C52.0546 70.8448 48.8649 70.8448 45.59 70.8448C45.59 70.0408 45.59 69.2633 45.59 68.4379C45.2812 68.422 45.0575 68.4113 44.7434 68.3953C44.7434 69.226 44.7434 70.0035 44.7434 70.8395C39.4343 70.8395 34.2105 70.8395 28.9067 70.8395C28.9973 66.8085 30.222 63.294 33.4703 60.7805C34.7376 59.8007 36.2713 59.1351 37.7303 58.4322C38.2468 58.1819 38.593 57.9796 38.5184 57.298C38.0871 57.1329 37.5759 56.9944 37.1286 56.7388C36.3991 56.3288 35.6642 55.8975 35.0305 55.365C34.3276 54.7739 34.0986 53.9592 34.1945 53.0166C34.3755 51.2594 34.4927 49.4968 34.6205 47.7395C34.6365 47.4893 34.498 47.2283 34.498 46.9727C34.5033 46.3763 34.5087 45.7799 34.5939 45.1942C34.695 44.5019 34.94 43.831 35.0252 43.1334C35.3127 40.7584 35.35 38.3302 35.8665 36.0085C36.7931 31.7272 40.936 28.7825 45.4037 28.9103C49.914 29.0381 53.8332 32.249 54.584 36.5996C54.9515 38.719 55.0207 40.8916 55.271 43.0375C55.3615 43.8097 55.5958 44.5605 55.7342 45.3273C55.8141 45.764 55.9579 46.2432 55.8514 46.6426C55.4201 48.2295 55.9685 49.7737 55.9526 51.3393C55.9472 51.7599 56.0005 52.1806 56.075 52.596C56.3999 54.3532 55.5212 55.4768 54.0941 56.2649C53.3433 56.6803 52.5286 56.9944 51.7245 57.3619ZM38.1137 44.4753C38.1137 45.9184 37.906 47.3455 38.1563 48.6927C38.7634 51.957 40.9466 54.0124 43.8434 55.4076C44.7966 55.8655 45.7232 55.7537 46.6497 55.3171C48.2579 54.5609 49.5785 53.464 50.6435 52.0475C51.7192 50.6151 52.3209 49.0282 52.2676 47.207C52.2304 45.8918 52.3102 44.5658 52.225 43.2559C52.1984 42.8245 51.9215 42.2601 51.5807 42.0311C50.2228 41.1152 48.849 40.2526 48.3537 38.4154C45.7072 42.0258 41.9903 43.4689 38.1137 44.4753ZM41.772 55.4715C41.772 56.3395 41.8306 56.9731 41.7614 57.5962C41.6229 58.8422 42.1607 59.9072 42.608 60.9935C42.6773 61.1639 42.9382 61.3663 43.1086 61.3716C44.4718 61.4036 45.835 61.3982 47.1982 61.3716C47.3526 61.3663 47.571 61.1906 47.6508 61.0361C48.5561 59.3534 48.6147 57.5482 48.4017 55.5567C46.2237 57.1542 44.0671 57.1915 41.772 55.4715ZM43.9233 67.4155C43.9659 67.3782 44.0138 67.341 44.0564 67.3037C42.7944 64.0128 41.5377 60.722 40.2171 57.2767C39.8337 57.5962 39.4183 57.7666 39.3278 58.0435C38.9497 59.2416 38.6728 60.4664 38.3587 61.6751C38.4705 61.7444 38.5291 61.8136 38.5983 61.8189C40.707 62.0958 41.5271 63.3046 41.1809 65.376C41.1543 65.5464 41.2448 65.8393 41.378 65.9245C42.214 66.4517 43.0713 66.9256 43.9233 67.4155ZM51.9375 61.7337C51.618 60.5462 51.3091 59.4866 51.0642 58.4109C50.9257 57.8145 50.6382 57.4897 49.9672 57.4897C48.7158 60.7646 47.4645 64.0448 46.2131 67.3197C46.9905 67.0587 47.6136 66.6327 48.2898 66.3239C48.8969 66.0417 49.1578 65.6636 49.1046 64.9873C49.0673 64.4921 49.2057 63.9862 49.1738 63.491C49.1312 62.8307 49.4613 62.5538 50.0364 62.3887C50.6595 62.2023 51.2665 61.968 51.9375 61.7337ZM53.4072 44.6883C53.4072 45.7214 53.4072 46.7491 53.4072 47.7875C54.2805 47.6543 54.7864 47.0952 54.797 46.2752C54.8077 45.3965 54.3284 44.8427 53.4072 44.6883ZM36.8251 47.7768C36.8251 46.7118 36.8251 45.6894 36.8251 44.6457C35.8346 44.9652 35.4352 45.503 35.4885 46.371C35.5364 47.1431 35.9837 47.6277 36.8251 47.7768Z" fill="white"/>
<path d="M64.4299 65.3813C64.3873 67.2557 63.5299 69.029 61.9271 70.4401C61.1816 71.1004 60.8674 71.0418 60.2977 70.2271C59.5362 69.1355 58.6043 69.1461 57.8428 70.2484C57.2943 71.0365 56.9961 71.1004 56.2719 70.4774C54.5626 69.0023 53.6893 67.1279 53.7159 64.8542C53.7266 63.7412 54.1686 62.8147 55.0046 62.0798C56.0163 61.2012 56.8364 61.1426 57.928 61.8721C58.0239 61.936 58.1037 62.0532 58.157 62.165C58.2741 62.41 58.3327 62.8626 58.4765 62.8892C58.9558 62.9744 59.467 62.9478 59.9569 62.8839C60.09 62.8679 60.2497 62.5963 60.2977 62.4153C60.5479 61.4461 61.1976 61.1053 62.1561 61.4674C63.5512 61.9946 64.4352 63.4111 64.4299 65.3813Z" fill="white"/>
<path d="M62.8746 70.8768C63.3165 69.9715 63.9449 69.7106 64.8395 69.7691C66.1228 69.849 67.4168 69.8011 68.7108 69.7851C69.9249 69.7691 70.6384 69.0875 70.6438 67.8734C70.6651 64.0767 70.6651 60.2853 70.6438 56.4885C70.6384 55.2957 69.8983 54.5981 68.6895 54.5928C66.0323 54.5822 63.3698 54.5768 60.7126 54.5928C59.5038 54.5981 58.7743 55.3596 58.7583 56.5844C58.7477 57.1808 58.7583 57.7825 58.7583 58.4268C57.6028 57.5908 57.4111 57.0264 57.7679 55.6791C58.0874 54.4863 59.1151 53.5331 60.3824 53.5065C63.2793 53.4479 66.1761 53.432 69.0729 53.5118C70.5958 53.5544 71.7141 54.7952 71.7248 56.3235C71.7514 60.248 71.7514 64.1779 71.7194 68.1024C71.7088 69.5562 70.6065 70.7862 69.1794 70.8501C67.0973 70.946 65.0259 70.8768 62.8746 70.8768Z" fill="white"/>
<path d="M60.0791 57.0211C63.2688 57.0211 66.1709 57.0211 69.1157 57.0211C69.1157 57.3619 69.1157 57.6654 69.1157 58.0807C68.5725 58.0807 68.0347 58.0807 67.4915 58.0807C65.6278 58.0807 63.764 58.0967 61.9003 58.0701C61.5009 58.0648 61.0749 57.9583 60.7075 57.7932C60.4945 57.6973 60.3667 57.3885 60.0791 57.0211Z" fill="white"/>
<path d="M69.1424 59.4653C69.1424 59.8593 69.1424 60.1415 69.1424 60.493C66.432 60.493 63.7481 60.493 61.059 60.493C61.0164 60.4131 60.9791 60.3332 60.9365 60.2534C61.3359 59.9924 61.73 59.5132 62.14 59.4972C64.4457 59.428 66.7568 59.4653 69.1424 59.4653Z" fill="white"/>
<path d="M64.1689 61.968C65.9582 61.968 67.5077 61.968 69.1159 61.968C69.1159 62.2928 69.1159 62.591 69.1159 63.0064C67.8006 63.0064 66.4747 63.0596 65.1594 62.9638C64.8505 62.9478 64.5843 62.41 64.1689 61.968Z" fill="white"/>
<path d="M69.1313 66.8777C69.1313 67.3037 69.1313 67.5859 69.1313 67.9214C67.6989 67.9214 66.2931 67.9214 64.8394 67.9214C64.8607 67.2185 65.0364 66.8031 65.8777 66.8617C66.9427 66.9363 68.0184 66.8777 69.1313 66.8777Z" fill="white"/>
<path d="M65.3193 65.4506C65.3193 65.0885 65.3193 64.7796 65.3193 64.4388C66.5707 64.4388 67.8008 64.4388 69.1001 64.4388C69.1001 64.769 69.1001 65.0885 69.1001 65.4506C67.8647 65.4506 66.6399 65.4506 65.3193 65.4506Z" fill="white"/>
<path d="M56.2664 58.134C57.9012 58.4428 58.6467 59.5717 58.1781 60.9456C56.6977 60.6687 56.0055 59.6676 56.2664 58.134Z" fill="white"/>
<path d="M60.8459 58.8315C60.2655 60.0084 59.7543 61.0361 59.2218 62.1171C58.9076 61.1692 59.4295 59.3055 60.143 58.8475C60.3294 58.7304 60.6595 58.8315 60.8459 58.8315Z" fill="white"/>
<path d="M42.5176 50.466C42.7998 50.2423 43.0394 50.0559 43.2791 49.8696C44.8553 51.1209 45.441 51.1209 46.98 49.8696C47.2143 50.0453 47.4592 50.2263 47.6988 50.4074C46.6391 52.3244 44.0565 52.3777 42.5176 50.466Z" fill="white"/>
<path d="M42.8049 45.716C42.4588 45.9343 42.1286 46.2805 41.7559 46.339C41.2393 46.4189 40.8772 45.961 40.9784 45.503C41.053 45.1675 41.4896 44.7096 41.7878 44.6936C42.1127 44.6723 42.4641 45.0983 42.8102 45.3273C42.8102 45.4551 42.8102 45.5829 42.8049 45.716Z" fill="white"/>
<path d="M49.429 45.6521C49.1201 45.8917 48.8379 46.2645 48.4918 46.3391C47.9327 46.4562 47.5972 46.0408 47.5919 45.4977C47.5865 44.9918 47.9114 44.5871 48.4279 44.667C48.7793 44.7202 49.0935 45.0664 49.4183 45.2794C49.4237 45.4018 49.4237 45.5296 49.429 45.6521Z" fill="white"/>
</svg>
