<svg width="100" height="100" viewBox="0 0 100 100" fill="none" xmlns="http://www.w3.org/2000/svg">
<rect width="100" height="100" fill="white"/>
<circle cx="50" cy="50" r="45" fill="#BE9A40"/>
<path d="M44.4902 65.4371C45.4657 65.0326 46.453 64.7352 47.3214 64.2356C48.5109 63.5576 49.7957 63.4743 51.0923 63.3791C52.1272 63.3077 53.1621 63.2126 54.2446 63.1293C54.2446 61.9398 54.2446 60.7978 54.2446 59.5606C52.722 60.2982 51.2588 61.0119 49.7957 61.7256C48.4515 62.3799 47.1192 63.0341 45.775 63.6765C44.2047 64.4259 42.4799 63.9382 41.6591 62.5226C40.8264 61.0833 41.2427 59.406 42.6821 58.3711C42.8249 58.264 42.9914 58.0737 42.9914 57.9072C43.0152 55.2901 43.0033 52.685 43.0033 49.949C42.016 50.6033 41.1595 51.2575 40.2197 51.7571C39.2562 52.2687 38.8755 52.9229 38.9826 54.0411C39.1015 55.302 39.0302 56.5749 39.0064 57.8358C38.9707 59.5131 37.8644 60.9167 36.3537 61.2498C34.7715 61.6067 33.1894 60.9524 32.44 59.5368C32.1783 59.0253 31.9999 58.4187 31.988 57.8477C31.9404 55.6827 31.9523 53.5177 31.9761 51.3527C31.988 49.8539 32.5947 48.6048 33.7842 47.6889C35.6399 46.2614 37.4956 44.7982 39.4346 43.4778C40.2911 42.8949 41.3498 42.5738 42.3133 42.1574C43.3245 41.7292 44.3475 41.3128 45.3705 40.8965C46.108 40.5991 46.2508 39.7426 45.6322 39.2192C44.4545 38.2438 43.5862 37.0185 43.4553 35.4959C43.2531 33.0454 42.9557 30.5473 44.169 28.2277C45.3586 25.9556 47.8329 24.659 50.3429 24.9802C52.8647 25.3133 54.994 27.1452 55.565 29.6076C56.0408 31.7012 56.0408 33.8305 55.6364 35.936C55.3985 37.2207 54.649 38.2557 53.6736 39.1121C52.8766 39.814 52.9956 40.5515 53.9591 40.9084C54.8989 41.2652 55.8386 41.5864 56.7427 42.0147C58.8244 42.9663 59.8474 45.3216 59.2051 47.4985C58.3962 50.2821 57.5873 53.0657 56.8021 55.8492C56.6832 56.2775 56.6237 56.7295 56.6237 57.1696C56.5999 58.8469 56.6118 60.5242 56.6118 62.2015C56.6118 62.4156 56.6118 62.6416 56.6118 62.9152C58.5746 62.9033 60.1924 63.5457 61.4295 65.0683C62.9284 63.1888 64.9625 62.7368 67.2108 62.7962C68.4598 62.8319 69.6969 62.7368 70.8865 63.2602C73.1824 64.2594 74.5266 66.6147 74.2173 69.1723C73.9437 71.48 72.0404 73.5617 69.6732 73.8472C68.1267 74.0257 66.5327 73.9424 64.9744 73.8115C63.6302 73.6926 62.5239 72.9551 61.7269 72.051C60.7991 72.6696 59.9664 73.3595 59.0266 73.8234C58.3962 74.1327 57.611 74.2398 56.8854 74.2398C47.5236 74.3112 38.138 74.2993 28.7643 74.2993C26.7539 74.2993 25.1004 72.8718 24.9577 71.028C24.7912 68.8749 26.0878 67.2452 28.2052 66.924C31.417 66.4244 34.6169 65.9248 37.8287 65.4252C38.0071 65.4014 38.1856 65.3538 38.4473 65.3062C38.0785 64.2713 37.7216 63.2602 37.3767 62.2847C38.019 61.7851 38.6376 61.2974 39.2919 60.7859C39.7439 62.023 40.2078 63.284 40.6599 64.5449C40.8264 64.985 40.9929 65.4252 41.1357 65.8653C41.3617 66.6028 40.9453 67.2809 40.1721 67.3998C36.4012 67.9946 32.6303 68.5656 28.8594 69.1485C28.229 69.2436 27.6461 69.3983 27.3725 70.0525C27.0156 70.8733 27.539 71.7893 28.455 71.9439C28.6096 71.9677 28.7762 71.9677 28.9427 71.9677C38.2213 71.9677 47.4998 71.9677 56.7784 71.9677C58.3129 71.9677 59.4549 71.3016 60.0734 69.8741C61.037 67.6734 59.2526 65.104 56.8616 65.2824C53.1978 65.556 49.534 65.8653 45.8701 66.1627C45.1088 66.2341 44.7043 65.9961 44.4902 65.4371ZM48.3206 40.6348C48.273 41.7292 47.7377 42.4786 46.7266 42.883C45.7036 43.2875 44.6806 43.7038 43.6694 44.144C42.6345 44.5841 41.5282 44.9053 40.6123 45.5239C38.7685 46.761 37.0317 48.1647 35.2593 49.5089C34.6883 49.9371 34.3314 50.52 34.3195 51.2218C34.2838 53.4463 34.2838 55.6708 34.3076 57.9072C34.3195 58.7042 35.057 59.1919 35.8184 58.9897C36.3656 58.8469 36.6748 58.3949 36.6748 57.6692C36.6867 55.873 36.6867 54.0768 36.6629 52.2805C36.651 51.6382 36.889 51.2099 37.4243 50.865C39.3751 49.5921 41.3141 48.3074 43.2412 47.0108C43.717 46.7015 44.169 46.4874 44.7162 46.7848C45.2634 47.0822 45.3229 47.5937 45.3229 48.1528C45.311 50.8055 45.3229 53.4701 45.3229 56.1228C45.3229 56.3369 45.3467 56.5392 45.3586 56.8366C47.2143 55.7541 48.9511 54.7429 50.6878 53.7199C50.8306 53.6366 50.9138 53.3987 50.9495 53.2084C51.354 51.1862 51.7346 49.1639 52.151 47.1417C52.2937 46.4279 52.8766 46.0354 53.5428 46.1662C54.1851 46.2971 54.5539 46.8562 54.423 47.5461C53.9948 49.8539 53.5309 52.1497 53.1145 54.4574C53.0194 54.9571 52.7577 55.2188 52.3413 55.4567C49.6172 57.0269 46.905 58.6209 44.1928 60.1911C43.7527 60.4528 43.4077 60.7502 43.6575 61.3212C43.8479 61.7375 44.3118 61.8208 44.8828 61.5353C47.821 60.1078 50.7592 58.6804 53.6855 57.241C53.8639 57.1577 54.0424 56.9555 54.1019 56.7771C55.0654 53.4939 56.017 50.1988 56.9568 46.9037C57.3018 45.6785 56.7308 44.5484 55.5412 44.0607C54.7918 43.7514 54.0305 43.4421 53.2573 43.1923C51.9725 42.7641 50.8663 42.1931 50.8306 40.6348C49.986 40.6348 49.2009 40.6348 48.3206 40.6348ZM45.6679 32.974C45.6679 33.438 45.6679 33.9138 45.6679 34.3777C45.6917 36.4475 47.1786 38.1129 49.2009 38.327C51.1874 38.5412 53.0669 37.2445 53.4 35.2223C53.6855 33.4974 53.7212 31.725 53.2335 30.0001C52.8052 28.4894 51.4372 27.4188 49.9265 27.3117C48.2849 27.1928 46.905 27.9898 46.1675 29.4291C45.6084 30.5711 45.6441 31.7726 45.6679 32.974ZM67.4725 65.1397C67.4725 65.1635 67.4725 65.1872 67.4725 65.211C66.9372 65.211 66.4019 65.1754 65.8785 65.2229C63.999 65.3657 62.7142 66.6623 62.6786 68.3753C62.6429 70.1001 63.8086 71.4086 65.7 71.6109C66.735 71.7298 67.7818 71.7417 68.8167 71.6941C70.5177 71.599 71.8263 70.3261 71.9333 68.7797C72.0523 67.0786 71.053 65.6393 69.4234 65.2824C68.7929 65.1397 68.1267 65.1754 67.4725 65.1397Z" fill="white"/>
<path d="M49.7958 70.5283C47.4404 70.5283 45.097 70.5402 42.7417 70.5283C41.7781 70.5283 41.2191 69.767 41.5402 68.9343C41.7187 68.4585 42.0993 68.2563 42.5752 68.1968C45.6204 67.828 48.6538 67.4593 51.6991 67.0905C53.305 66.9002 54.899 66.686 56.5049 66.5076C57.5517 66.3887 58.5271 67.031 58.7769 67.9708C59.0505 69.0414 58.5628 70.0882 57.5636 70.4926C57.2662 70.6116 56.9331 70.6354 56.6119 70.6354C54.3399 70.6473 52.0797 70.6473 49.8077 70.6473C49.7958 70.5997 49.7958 70.564 49.7958 70.5283Z" fill="white"/>
<path d="M32.3213 61.4045C30.6083 61.2379 29.0262 61.6543 27.5154 61.0595C25.6835 60.3457 24.6486 58.4543 25.0055 56.5154C25.3386 54.624 27.0277 53.2084 28.9786 53.1846C29.5496 53.1727 30.1206 53.1846 30.7392 53.1846C30.7392 53.9697 30.7392 54.7072 30.7392 55.5042C30.1801 55.5042 29.6567 55.4924 29.1214 55.5042C28.0508 55.5161 27.3013 56.2299 27.2775 57.2172C27.2537 58.2521 27.9794 58.9896 29.0857 59.0372C29.1095 59.0372 29.1214 59.0372 29.1451 59.0372C30.3109 58.8469 31.215 59.0729 31.5837 60.3814C31.667 60.7145 31.9882 60.9762 32.3213 61.4045Z" fill="white"/>
<path d="M40.1847 54.053C41.1958 54.4099 41.8382 55.1712 41.8382 55.9563C41.8382 57.467 41.8382 57.467 40.9698 58.3116C39.7802 57.0626 40.2917 55.5281 40.1847 54.053Z" fill="white"/>
</svg>
