<svg width="100" height="100" viewBox="0 0 100 100" fill="none" xmlns="http://www.w3.org/2000/svg">
<rect width="100" height="100" fill="white"/>
<circle cx="50" cy="50" r="45" fill="#BE9A40"/>
<path d="M70.3066 60.865C70.1993 61.4059 70.1099 61.9513 69.9803 62.4877C69.636 63.8869 69.0057 65.152 68.0982 66.3188C65.6664 64.4859 62.9663 63.4712 59.913 63.4756C56.8598 63.4801 54.1463 64.4502 51.7368 66.3009C48.7193 62.6755 48.8087 56.9534 51.7994 53.4799C56.9984 57.6329 63.9319 56.8819 68.0178 53.4531C68.1161 53.5738 68.2189 53.6945 68.3128 53.8197C69.3857 55.2994 70.0384 56.9445 70.2351 58.7639C70.244 58.8399 70.2798 58.9159 70.3066 58.9919C70.3066 59.6177 70.3066 60.2391 70.3066 60.865Z" fill="white"/>
<path d="M70.3063 52.3177C70.1007 52.0897 69.895 51.8662 69.6939 51.6337C65.6929 47.0292 59.2735 45.8044 53.8733 48.6117C53.7794 48.6609 53.6855 48.6967 53.5559 48.7548C53.547 48.6207 53.538 48.5313 53.538 48.4419C53.538 46.6359 53.5201 44.8343 53.5425 43.0283C53.5648 41.5307 54.1996 40.3148 55.3575 39.3671C57.9368 42.094 61.8082 41.8749 64.1283 39.6934C65.447 40.9227 65.7153 42.4874 65.5677 44.2487C65.9164 44.2487 66.2204 44.2487 66.5289 44.2487C68.5539 44.2487 69.7296 45.1562 70.2571 47.1186C70.2616 47.141 70.2884 47.1589 70.3063 47.1812C70.3063 48.8978 70.3063 50.6055 70.3063 52.3177Z" fill="white"/>
<path d="M35.1337 28.6248C35.402 28.7142 35.6746 28.7857 35.9295 28.893C37.5567 29.5591 38.4597 31.2936 38.0797 32.9968C37.6952 34.7223 36.153 35.9025 34.4095 35.8131C32.6437 35.7237 31.2088 34.4049 30.9942 32.6839C30.7751 30.9315 31.8436 29.2909 33.5423 28.7768C33.6943 28.7321 33.8418 28.674 33.9938 28.6248C34.3738 28.6248 34.7538 28.6248 35.1337 28.6248Z" fill="white"/>
<path d="M44.1913 70.2974C42.4524 70.2974 40.7447 70.2974 38.9789 70.2974C38.9789 70.1409 38.9789 69.9979 38.9789 69.8548C38.9789 68.0399 38.9879 66.2204 38.97 64.4055C38.9655 64.1685 38.8806 63.8959 38.7465 63.7036C36.8644 61.0169 34.969 58.3437 33.0781 55.6659C33.0021 55.5542 32.9261 55.4424 32.8232 55.2904C32.9574 55.277 33.0512 55.2547 33.1496 55.2547C35.4429 55.2547 37.7317 55.2591 40.025 55.2457C40.2753 55.2457 40.4094 55.3262 40.5346 55.5408C41.7058 57.5256 42.886 59.5015 44.0572 61.4819C44.1422 61.6249 44.2137 61.8082 44.2137 61.9691C44.2226 64.6826 44.2182 67.3917 44.2182 70.1052C44.2182 70.1543 44.2048 70.208 44.1913 70.2974Z" fill="white"/>
<path d="M33.7838 70.2884C32.0493 70.2884 30.3461 70.2884 28.625 70.2884C29.233 65.6124 29.8365 60.9588 30.4489 56.2247C30.5741 56.3812 30.6501 56.4661 30.7171 56.56C32.0493 58.442 33.3815 60.3195 34.7002 62.206C34.812 62.367 34.8924 62.6084 34.8656 62.7961C34.5348 65.2503 34.1816 67.7046 33.8285 70.1588C33.8195 70.1901 33.8061 70.2258 33.7838 70.2884Z" fill="white"/>
<path d="M37.3567 37.5878C37.6563 38.8708 37.9468 40.0912 38.2329 41.3161C38.3715 41.9062 38.367 41.9062 38.9884 41.9062C39.6098 41.9062 40.2312 41.9062 40.8883 41.9062C40.8883 43.6407 40.8883 45.3528 40.8883 47.1141C40.1015 47.1141 39.3192 47.1186 38.5369 47.1141C37.9155 47.1097 37.2763 47.1723 36.6683 47.0694C35.0322 46.7923 33.9459 45.8267 33.5391 44.2039C33.0518 42.2593 32.6182 40.3013 32.1667 38.3478C32.1264 38.169 32.1264 37.9768 32.0996 37.7443C33.8877 38.4595 35.6088 38.4193 37.3567 37.5878Z" fill="white"/>
<path d="M56.3106 35.3258C56.3195 33.3544 57.9512 31.7317 59.9182 31.7362C61.894 31.7406 63.5123 33.3634 63.5168 35.3393C63.5213 37.3286 61.8672 38.9692 59.8869 38.9513C57.9154 38.9289 56.3016 37.2973 56.3106 35.3258Z" fill="white"/>
<path d="M53.6104 68.1516C56.4937 65.5856 62.3007 64.9598 66.2123 68.1382C62.855 70.9456 57.2582 71.1065 53.6104 68.1516Z" fill="white"/>
<path d="M53.6143 51.7052C57.043 48.9381 62.4834 48.7458 66.2072 51.6918C63.8111 54.5215 56.1042 54.526 53.6143 51.7052Z" fill="white"/>
<path d="M38.6039 49.5683C38.6173 49.6756 38.6308 49.7248 38.6308 49.7784C38.6755 50.7664 38.7202 51.7543 38.7649 52.7736C36.1452 52.7736 33.5435 52.7736 30.8926 52.7736C31.0803 50.4758 31.2681 48.187 31.4603 45.7909C32.9579 48.8576 35.5775 49.5907 38.6039 49.5683Z" fill="white"/>
<path d="M43.3682 47.1007C43.3682 45.3618 43.3682 43.6675 43.3682 41.9732C45.1295 41.6603 46.5734 42.2504 47.0339 43.8687C47.463 45.3796 46.3499 46.9666 44.7853 47.0918C44.3293 47.132 43.8688 47.1007 43.3682 47.1007Z" fill="white"/>
</svg>
