<svg width="100" height="100" viewBox="0 0 100 100" fill="none" xmlns="http://www.w3.org/2000/svg">
<rect width="100" height="100" fill="white"/>
<circle cx="50" cy="50" r="45" fill="#BE9A40"/>
<path d="M72.7839 35.0736C72.7092 35.4248 72.642 35.7835 72.5523 36.1273C71.2295 41.3958 65.2437 43.7871 60.6477 40.8876C60.573 40.8428 60.4908 40.7979 60.4609 40.7755C59.4371 41.7993 58.4357 42.8082 57.397 43.8469C57.4568 43.9067 57.5614 44.0338 57.6735 44.1459C59.8332 46.3056 61.9854 48.4653 64.1451 50.6175C64.5337 50.9986 64.7878 51.4246 64.6832 51.9851C64.586 52.4932 64.2871 52.8594 63.7864 53.0313C63.2633 53.2106 62.7925 53.0911 62.4039 52.7249C61.8584 52.2092 61.3353 51.6637 60.7972 51.1257C60.6926 51.021 60.5805 50.9239 60.4609 50.8118C59.7809 51.5068 59.1232 52.1794 58.4283 52.8968C57.5913 52.0523 56.8216 51.2751 56.0444 50.4905C55.8949 50.341 55.7529 50.1841 55.5885 50.0495C55.0131 49.5414 54.2284 49.5489 53.7053 50.0645C53.1747 50.5876 53.1448 51.4171 53.6904 51.9776C54.475 52.7921 55.2821 53.5843 56.0892 54.3839C56.2088 54.5035 56.3582 54.5857 56.4554 54.6529C55.596 55.5049 54.8113 56.2895 53.9893 57.1116C53.9519 57.0742 53.8398 56.9845 53.7352 56.8799C52.9431 56.0877 52.1584 55.2956 51.3588 54.5109C50.731 53.8907 49.9015 53.8533 49.3411 54.4213C48.7806 54.9817 48.8105 55.8112 49.4382 56.439C50.32 57.3283 51.2093 58.2101 52.0762 59.0695C51.2616 59.884 50.4695 60.6687 49.5727 61.5655C49.356 61.3114 49.1243 60.9975 48.8553 60.7136C48.2649 60.1082 47.6671 59.5104 47.0618 58.92C46.3817 58.2475 45.5522 58.1951 44.9843 58.7855C44.4163 59.3609 44.4761 60.1755 45.1263 60.8331C45.896 61.6028 46.6657 62.3726 47.4354 63.1423C47.5401 63.2469 47.6372 63.359 47.6895 63.4113C47.0319 64.0988 46.449 64.8237 45.7615 65.4216C44.1697 66.7966 41.7709 66.7891 40.2539 65.3319C38.0717 63.2469 35.927 61.1096 33.842 58.9275C32.3324 57.3507 32.3848 54.907 33.8271 53.2779C33.984 53.0985 34.1559 52.9267 34.3277 52.7548C38.8639 48.2112 43.4075 43.6751 47.9511 39.1389C48.0781 39.0119 48.235 38.9073 48.4293 38.7503C47.9137 38.2347 47.4504 37.7863 46.9945 37.3305C46.8152 37.1511 46.6283 36.9718 46.449 36.7849C45.9109 36.202 45.9035 35.4024 46.4191 34.8644C46.9497 34.3188 47.7867 34.2964 48.3696 34.8644C49.2813 35.7462 50.1706 36.6579 51.0673 37.5546C52.4872 38.9745 53.9071 40.3944 55.312 41.8068C56.3283 40.768 57.3297 39.7517 58.361 38.6905C57.808 37.8536 57.382 36.8597 57.1578 35.7611C56.276 31.4193 59.3549 27.0625 63.7416 26.4647C63.8537 26.4423 63.9658 26.4049 64.0853 26.375C64.6309 26.375 65.1764 26.375 65.7145 26.375C65.7967 26.4049 65.8789 26.4423 65.9685 26.4497C69.2044 26.9131 71.7676 29.2222 72.5597 32.3908C72.6494 32.742 72.7092 33.0932 72.7914 33.4445C72.7839 33.99 72.7839 34.5355 72.7839 35.0736ZM59.736 34.2366C59.7286 37.0764 62.0377 39.4154 64.87 39.4229C67.7098 39.4378 70.0563 37.1287 70.0712 34.3039C70.0862 31.4417 67.7695 29.1027 64.9148 29.0952C62.0751 29.0877 59.7435 31.4043 59.736 34.2366Z" fill="white"/>
<path d="M38.1319 67.2824C37.6985 67.7233 37.2277 68.2389 36.7195 68.7022C36.159 69.2179 35.4043 69.188 34.8363 68.6649C34.4403 68.2987 34.0591 67.9101 33.6705 67.529C33.6631 67.5215 33.6406 67.529 33.5883 67.5215C33.4912 67.6186 33.3641 67.7233 33.252 67.8428C31.7574 69.3374 30.2703 70.8395 28.7608 72.3266C27.9312 73.1412 26.6683 72.8124 26.4142 71.7288C26.2797 71.1758 26.5039 70.7349 26.8925 70.3463C28.3722 68.8741 29.8369 67.4019 31.3165 65.9297C31.4361 65.8176 31.5856 65.7354 31.8322 65.571C31.3464 65.1301 30.9578 64.7938 30.5991 64.4351C29.9116 63.7476 29.9116 62.9854 30.5991 62.2904C31.0101 61.8719 31.4286 61.4534 31.8471 61.0424C31.8695 61.02 31.8994 61.0125 31.8695 61.0274C33.9545 63.1049 36.032 65.1824 38.1319 67.2824Z" fill="white"/>
</svg>
