<svg width="100" height="100" viewBox="0 0 100 100" fill="none" xmlns="http://www.w3.org/2000/svg">
<rect width="100" height="100" fill="white"/>
<circle cx="50" cy="50" r="45" fill="#BE9A40"/>
<path d="M61.7653 37.7446C60.6141 36.5716 59.2776 35.6933 57.739 35.138C57.6098 35.0927 57.5031 34.9397 57.4133 34.815C55.1558 31.6191 51.5338 30.9505 48.2037 32.1688C47.4569 32.4408 46.783 32.9224 46.0642 33.2851C43.2621 34.713 40.4262 34.8377 37.5061 33.6194C35.8776 32.9394 34.1929 32.4011 32.5251 31.8401C32.2387 31.7438 31.8569 31.7778 31.5592 31.8741C29.4478 32.5428 28.145 34.084 27.2914 36.056C26.1908 38.5889 25.9605 41.2578 26.4828 43.9493C26.6568 44.839 27.151 45.689 27.6227 46.4823C28.4594 47.8705 29.3579 49.2135 29.8016 50.8058C30.3687 52.8117 30.3687 54.8516 30.2508 56.9029C30.1216 59.0788 30.1216 61.2491 30.745 63.3683C31.1886 64.8869 31.9804 66.1676 33.1484 67.2159C33.6763 67.6918 33.7886 67.6692 34.3389 67.1989C35.4733 66.2299 36.018 64.9266 36.4279 63.5383C36.8379 62.15 37.259 60.7618 38.18 59.6001C39.0504 58.5065 40.0836 57.6679 41.4988 57.4525C43.4361 57.1579 44.8793 58.0475 46.0811 59.4698C46.8953 60.4331 47.3389 61.6004 47.6366 62.796C48.1027 64.6603 49.3942 65.9296 50.6128 67.2555C51.0396 67.7202 51.3485 67.6635 51.7472 67.1762C51.9212 66.9609 52.0785 66.7172 52.2076 66.4679C53.2858 64.3713 53.9653 62.167 54.0832 59.7985C54.1506 58.4215 54.2742 57.0502 54.3752 55.6959C55.4197 55.5259 56.4137 55.3673 57.4806 55.1973C57.4301 55.9113 57.402 56.6479 57.3234 57.3789C57.0932 59.4811 56.9752 61.6117 56.5597 63.68C56.1778 65.5839 55.3692 67.3745 54.2068 68.9555C52.7355 70.9557 50.7307 71.29 48.8495 69.7091C47.0132 68.1622 45.4128 66.3829 44.767 63.9406C44.621 63.3967 44.4245 62.864 44.2055 62.3484C44.0538 61.997 43.8573 61.6514 43.6158 61.3511C42.7005 60.2178 41.6055 60.2008 40.7351 61.3737C40.297 61.9687 39.9882 62.6827 39.7074 63.3797C39.3705 64.2296 39.1402 65.1249 38.837 65.9862C38.2698 67.6068 37.2197 68.8705 35.8832 69.8904C34.44 70.9897 32.9856 70.9727 31.5424 69.8564C29.4365 68.2302 28.2124 66.0486 27.5946 63.4703C27.0106 61.0111 27.0499 58.5292 27.224 56.0359C27.4149 53.3387 26.9713 50.8171 25.3147 48.6185C23.3324 45.9893 22.9787 42.9747 23.2482 39.8128C23.4841 37.0646 24.259 34.509 25.9268 32.2878C27.3644 30.3668 29.2288 29.0919 31.5985 28.6669C32.0422 28.5876 32.5532 28.6272 32.9856 28.7632C34.5692 29.2562 36.1303 29.8172 37.7083 30.3328C38.6854 30.6502 39.6569 31.0411 40.662 31.2168C42.4534 31.5285 44.1044 30.9221 45.6094 30.0155C47.2884 29.0012 49.091 28.5422 51.0003 28.5139C55.9027 28.4402 59.856 31.3188 61.4115 36.0276C61.5912 36.5773 61.726 37.1383 61.8832 37.6936C61.8496 37.7049 61.8046 37.7219 61.7653 37.7446Z" fill="white"/>
<path d="M62.1019 49.4458C63.8932 50.7547 65.6621 52.0467 67.4591 53.3557C67.5714 53.2083 67.6725 53.0893 67.7624 52.9647C68.3015 52.228 68.9079 52.1204 69.6548 52.653C71.7101 54.1263 73.7373 55.6392 75.8207 57.0672C77.2021 58.0135 77.3144 58.6028 76.2812 59.9174C75.714 60.6371 75.2198 61.4077 74.692 62.1557C74.0967 62.9943 73.5127 63.102 72.6928 62.5127C70.5084 60.9487 68.3295 59.3791 66.1507 57.8038C65.2915 57.1862 65.2017 56.6365 65.7969 55.7469C65.8475 55.6732 65.8924 55.5996 65.971 55.4806C64.1909 54.1773 62.422 52.891 60.6138 51.5651C58.3338 53.894 55.571 54.9253 52.342 54.5116C49.9779 54.2056 48.0068 53.0837 46.4401 51.2591C43.4189 47.7459 43.4077 42.4704 46.4008 38.8382C49.2928 35.3306 54.4086 34.4353 58.3563 36.7076C62.3658 39.0195 64.5222 44.363 62.1019 49.4458ZM60.7148 45.0486C60.7148 41.0934 57.5533 37.8805 53.6505 37.8862C49.7476 37.8919 46.5355 41.1161 46.5468 45.026C46.558 48.9641 49.7533 52.194 53.628 52.1997C57.5364 52.1997 60.7148 48.9868 60.7148 45.0486Z" fill="white"/>
<path d="M56.8062 49.9388C54.7622 51.4631 51.7017 51.2024 49.798 49.3778C47.8999 47.5532 47.4395 44.499 48.849 42.3004C48.1976 44.8503 48.9051 46.8676 50.6572 48.4939C52.4148 50.1201 54.4589 50.7548 56.8062 49.9388Z" fill="white"/>
</svg>
