<svg width="100" height="100" viewBox="0 0 100 100" fill="none" xmlns="http://www.w3.org/2000/svg">
<rect width="100" height="100" fill="white"/>
<circle cx="50" cy="50" r="45" fill="#BE9A40"/>
<path d="M63.486 30.2347C70.0675 30.2347 75.4234 34.6323 76.5822 40.5973C77.0947 43.2418 76.805 45.812 75.6908 48.2633C73.0092 54.1837 70.3424 60.1041 67.579 65.9873C66.1008 69.1369 63.5009 70.8752 60.017 70.994C56.6594 71.1054 54.0298 69.6569 52.247 66.7747C51.6156 65.757 51.259 64.6354 51.103 63.4468C51.0213 62.7931 51.4224 62.2286 52.0315 62.132C52.6629 62.0354 53.1829 62.4291 53.3389 63.0754C53.5024 63.7142 53.6361 64.3828 53.9109 64.9771C55.8051 69.0404 61.3095 69.9763 64.2957 66.745C64.6894 66.3216 65.0386 65.8239 65.2837 65.3039C68.1436 59.287 71.0035 53.2626 73.6109 47.1268C74.4725 45.0988 74.8514 43.0115 74.3388 40.8275C73.8263 38.6213 72.5932 36.846 70.9589 35.3232C68.9533 33.4586 66.5985 32.3592 63.8277 32.5301C59.9501 32.7678 56.756 34.3129 54.728 37.7819C53.9183 39.1636 53.5098 40.679 53.3092 42.2612C53.2126 43.0189 52.7818 43.4349 52.1058 43.4126C51.4224 43.3903 50.947 42.8481 50.999 42.1498C51.259 38.6733 52.7372 35.7911 55.3297 33.4958C57.8034 31.3193 60.7078 30.2719 63.486 30.2347Z" fill="white"/>
<path d="M40.9852 42.9297C40.651 44.2371 40.3093 45.5445 39.975 46.8519C39.1356 50.1575 38.2962 53.4631 37.4568 56.7687C37.3899 57.0287 37.3008 57.2887 37.1745 57.5264C36.7957 58.2172 35.8745 58.2469 35.4586 57.5784C35.3174 57.3555 35.2134 57.0955 35.1317 56.843C34.2032 54.0054 33.2821 51.1677 32.3535 48.3301C31.997 47.2307 31.4398 46.8296 30.281 46.8296C28.2754 46.8296 26.2697 46.837 24.2641 46.837C24.0041 46.837 23.7441 46.8147 23.4989 46.7553C23.0161 46.6365 22.7561 46.2948 22.7487 45.8342C22.7338 45.3736 22.979 45.0245 23.4544 44.8759C23.6772 44.8091 23.9149 44.7719 24.1526 44.7719C26.916 44.7645 29.6719 44.7645 32.4352 44.7645C33.1632 44.7645 33.4975 45.0394 33.7426 45.7971C34.4706 48.0256 35.1986 50.2466 35.9265 52.4751C35.9637 52.5865 36.0008 52.7054 36.0751 52.9134C36.142 52.7054 36.1791 52.6014 36.2088 52.49C37.5905 47.2159 38.9647 41.9417 40.3464 36.6751C40.3984 36.4671 40.4653 36.2591 40.547 36.0659C40.755 35.5831 41.0521 35.4048 41.5424 35.4122C42.0252 35.4197 42.3521 35.6722 42.4635 36.1179C42.6566 36.8608 42.7978 37.611 42.9463 38.3613C43.6372 41.86 44.328 45.3662 45.004 48.8724C45.056 49.1398 45.1674 49.1992 45.4274 49.1992C48.0199 49.1547 50.6124 49.1101 53.1974 49.0878C53.5614 49.0878 53.7471 48.9764 53.9031 48.6421C54.4454 47.5056 55.6488 46.8519 56.8596 46.9782C58.115 47.1119 59.155 47.9958 59.4669 49.2067C59.8309 50.6032 59.1401 52.0591 57.8327 52.6683C56.5179 53.2774 54.9505 52.8837 54.1483 51.6729C53.8808 51.2643 53.5986 51.1603 53.138 51.1603C50.3449 51.1752 47.5519 51.1603 44.7588 51.1529C44.5583 51.1529 44.3503 51.1529 44.1497 51.1306C43.4589 51.0712 43.2212 50.8706 43.0355 50.2021C42.664 48.8352 42.3001 47.461 41.9286 46.0942C41.6687 45.1285 41.4012 44.1628 41.1338 43.1971C41.1041 43.1006 41.0744 43.004 41.0447 42.9149C41.0224 42.9297 41.0001 42.9297 40.9852 42.9297Z" fill="white"/>
<path d="M59.1777 41.6967C59.5862 41.9269 59.9874 42.1275 60.3662 42.3726C63.4341 44.356 64.9569 47.9885 64.2141 51.5095C63.4638 55.0602 60.6485 57.7641 57.0532 58.3733C56.9195 58.3955 56.7858 58.4104 56.6521 58.4253C56.1618 58.4698 55.7458 58.1653 55.6641 57.6973C55.5749 57.1847 55.8498 56.739 56.3549 56.6202C56.6372 56.5533 56.9343 56.5236 57.2166 56.4568C60.2845 55.7288 62.5056 53.0026 62.5502 49.905C62.6021 46.6811 60.5148 43.888 57.432 43.0486C56.7783 42.8703 56.7041 42.744 56.86 42.0904C58.0486 37.1728 63.969 35.0334 68.1437 38.0048C70.803 39.899 71.9916 43.6057 70.543 46.6885C68.8048 50.3878 67.1111 54.1094 65.3878 57.8161C65.1278 58.3807 64.7044 58.5961 64.2067 58.455C63.6718 58.3064 63.3673 57.7567 63.553 57.2367C63.657 56.9396 63.7981 56.6573 63.9318 56.3676C65.4843 52.9283 67.0517 49.5038 68.5968 46.0571C70.1419 42.6103 67.9431 38.9482 64.177 38.6733C62.1416 38.547 59.9428 39.8619 59.1777 41.6967Z" fill="white"/>
</svg>
