<svg width="100" height="100" viewBox="0 0 100 100" fill="none" xmlns="http://www.w3.org/2000/svg">
<rect width="100" height="100" fill="white"/>
<circle cx="49.9998" cy="50" r="42.1053" fill="#BE9A40"/>
<path d="M37.4741 37.4748C41.2576 37.5721 44.6378 39.1017 46.6877 42.8467C48.699 46.5162 48.2233 50.108 45.9441 53.5271C43.363 57.3985 40.7964 61.2796 38.1984 65.1413C36.4407 67.7555 33.6158 68.7671 30.6822 67.8868C28.0311 67.0892 26.4206 64.5844 26.819 61.8389C27.0098 60.5185 27.2367 59.2053 27.454 57.8921C27.7293 56.2312 27.7896 54.6481 27.355 52.9264C26.312 48.7778 27.2078 44.8042 29.3542 41.159C31.0951 38.2092 34.0214 37.6037 37.4741 37.4748ZM38.8914 42.1025C40.9389 42.6375 42.3706 43.6151 42.9091 45.5557C43.66 48.255 43.0563 50.75 41.5135 53.0237C40.1445 55.0421 38.7103 57.0143 37.3461 59.0327C37.1409 59.3342 37.1554 59.7889 37.0685 60.1707C37.4017 59.9811 37.8459 59.8716 38.0511 59.5871C39.5312 57.542 41.0185 55.4944 42.3803 53.369C43.0153 52.3768 43.5223 51.2485 43.829 50.1104C45.0338 45.6311 43.1698 42.1463 39.1546 41.1663C34.5888 40.0525 31.1747 42.2192 29.9554 47.005C29.4218 49.0964 29.4218 49.0964 31.1409 50.232C32.5824 51.1853 33.3767 52.8681 33.0218 54.3344C32.6113 56.027 31.2689 56.5474 29.7768 56.844C29.4749 56.9048 29.149 56.8927 28.8737 57.0094C28.7144 57.0751 28.5309 57.3426 28.5478 57.4982C28.5647 57.6417 28.8158 57.8314 28.9945 57.8727C30.8995 58.3177 33.7003 56.3188 33.9321 54.3369C34.1928 52.1142 33.2777 50.4825 31.4355 49.2787C31.0854 49.0502 30.6387 48.4009 30.7401 48.1334C31.3196 46.5795 31.8532 44.9429 32.7828 43.6029C33.6423 42.3627 35.0886 41.5286 36.7135 42.0733C38.5413 42.6862 39.5819 44.0844 39.7364 46.059C39.8934 48.0774 39.4202 49.9378 38.2467 51.5987C37.8387 52.1774 37.4089 52.7465 37.0491 53.3544C36.9501 53.5198 37.0685 53.814 37.0878 54.0499C37.3171 53.9916 37.6455 54.0086 37.7566 53.8602C38.3892 53.0067 39.0797 52.1701 39.5505 51.2266C41.0765 48.1674 41.3952 45.1301 38.8914 42.1025Z" fill="white"/>
<path d="M73.3893 39.9383C73.37 45.0961 70.7286 48.6854 66.8316 49.4806C64.5669 49.9451 62.5435 49.2958 60.7351 47.9486C56.7585 44.9842 55.4257 39.0823 57.6953 34.6491C60.0373 30.0773 65.2984 28.876 69.3451 32.0276C72.1217 34.1944 73.2831 37.1684 73.3893 39.9383ZM70.5209 40.3857C70.5161 43.4011 68.7874 45.7721 66.1942 46.3144C63.8377 46.8056 61.2687 45.2687 60.0832 42.6448C59.9021 42.2436 59.8128 41.7937 59.6075 41.4071C59.4868 41.1809 59.2188 41.0326 59.016 40.8502C58.9267 41.1079 58.69 41.4387 58.7721 41.6162C59.3371 42.8029 59.7717 44.1282 60.612 45.0888C63.9294 48.8848 69.4175 47.703 71.057 42.9221C72.1386 39.7705 71.0932 36.0474 68.5435 34.012C67.1721 32.9201 65.6196 32.373 63.8618 32.6186C63.5818 32.6575 63.3427 32.9785 63.0844 33.1706C63.3572 33.3068 63.63 33.5597 63.9053 33.5645C67.9109 33.618 70.5282 36.3003 70.5209 40.3857Z" fill="white"/>
<path d="M44.3143 57.6563C45.1521 56.3991 46.0165 55.1151 46.864 53.8214C51.606 46.5843 47.2406 37.4141 38.6355 36.5945C35.8154 36.327 33.087 36.6967 30.6363 38.2798C29.3784 37.0201 29.2866 35.7264 30.6073 34.6686C31.5152 33.9415 32.6186 33.37 33.722 33.0076C37.3147 31.8355 40.9847 31.6142 44.674 32.5407C50.1887 33.9244 53.3251 37.7934 53.4241 43.5349C53.4989 47.9097 52.5042 52.0826 50.4929 55.9735C50.0897 56.7517 49.5609 57.4909 48.9718 58.1378C47.2913 59.9908 45.8233 59.8376 44.3143 57.6563Z" fill="white"/>
<path d="M48.9183 59.7549C49.1114 60.6571 49.2756 61.5666 49.5026 62.4615C50.3597 65.8368 53.5323 67.9963 56.9174 67.4394C61.6787 66.6539 65.1604 64.0106 67.4662 59.7841C68.2461 58.3566 68.6324 56.8246 68.2413 55.1588C68.1785 54.8962 68.4682 54.5509 68.5938 54.2445C68.7749 54.4877 69.1226 54.7381 69.1105 54.974C69.0477 56.3674 69.2457 57.9043 68.7242 59.1178C66.4111 64.4993 62.3113 67.7409 56.4587 68.3805C52.016 68.8668 47.9718 64.9079 48.1722 60.4577C48.1843 60.1805 48.4354 59.9154 48.5754 59.6431C48.6889 59.6795 48.8048 59.7184 48.9183 59.7549Z" fill="white"/>
<path d="M66.4238 50.587C67.2592 50.356 68.0053 50.1493 68.8455 49.9183C68.9614 50.7013 69.1908 51.4455 69.1329 52.1677C69.1015 52.5763 68.6524 53.1891 68.295 53.2693C67.9329 53.3496 67.2737 52.9921 67.0637 52.6346C66.7184 52.0534 66.6339 51.3166 66.4238 50.587Z" fill="white"/>
</svg>
