<svg width="100" height="100" viewBox="0 0 100 100" fill="none" xmlns="http://www.w3.org/2000/svg">
<rect width="100" height="100" fill="white"/>
<circle cx="50" cy="50" r="45" fill="#BE9A40"/>
<g clip-path="url(#clip0_1_12768)">
<path d="M39.3817 59.9989C38.9475 59.9097 38.5704 59.8316 38.1933 59.7424C37.7705 59.6531 37.6677 59.497 37.7705 59.0843C38.2276 57.244 38.6961 55.4037 39.1646 53.5634C39.2446 53.2623 39.416 53.1173 39.7245 53.1284C39.9873 53.1396 40.1245 53.0169 40.193 52.7604C40.3416 52.1915 40.5358 51.6227 40.7187 51.0427C40.8786 50.5408 41.0043 50.4293 41.53 50.4739C41.8042 50.4962 41.8956 50.3959 41.9528 50.1505C42.0442 49.6932 42.1927 49.2471 42.2956 48.7898C42.4213 48.2544 42.7412 47.931 43.3011 47.8194C43.404 47.7971 43.5182 47.6744 43.5525 47.5741C43.9639 45.9791 44.3753 44.373 44.7866 42.7335C44.5352 42.7223 44.3067 42.7 44.0439 42.6889C44.1581 42.4658 44.261 42.2762 44.3981 41.9974C43.7925 41.9974 43.2669 41.9862 42.7412 42.0085C42.6498 42.0085 42.5698 42.1424 42.4784 42.2204C42.307 42.3654 42.1242 42.6554 41.9756 42.6331C41.7814 42.6108 41.53 42.3766 41.4614 42.1758C41.2557 41.4397 41.0158 40.7036 40.9129 39.9563C40.5815 37.4691 40.6044 34.9708 41.1757 32.5059C41.2671 32.0932 41.4385 31.6805 41.6442 31.3013C41.8499 30.9109 42.0899 30.9109 42.4098 31.2232C42.467 31.279 42.547 31.3571 42.6155 31.3571C43.1183 31.3682 43.6211 31.3682 44.1467 31.3682C44.1124 31.2567 44.0782 31.1675 44.0325 31.0559C44.1239 31.0448 44.1924 31.0336 44.261 31.0336C47.5177 31.0894 50.7629 31.1452 54.0196 31.1898C54.8423 31.2009 55.6536 31.2009 56.4763 31.2232C57.6876 31.2567 58.5675 32.1155 58.6246 33.2866C58.6589 34.045 58.7046 34.0896 59.5616 34.2681C59.5273 34.0227 59.4816 33.7997 59.4473 33.5766C59.4016 33.2754 59.5388 33.1528 59.8359 33.242C60.3958 33.4093 60.9785 33.4874 61.4242 33.9447C61.7899 34.3239 62.3041 34.4354 62.8297 34.5246C66.6006 35.2161 70.3829 35.9076 74.1538 36.5992C74.7822 36.7107 74.9993 36.878 75.0108 37.2572C75.0222 37.6587 74.7822 37.8706 74.1538 37.9599C71.5027 38.3502 68.8402 38.7294 66.1892 39.1087C64.898 39.2983 63.5953 39.4767 62.2926 39.644C61.8356 39.6998 61.4928 39.9563 61.2299 40.2909C60.9671 40.6367 60.6357 40.804 60.2244 40.8597C60.1215 40.8709 60.0301 40.9043 59.9273 40.9267C59.2759 41.0828 59.2074 41.027 59.3559 40.3467C59.2074 40.3578 59.0817 40.369 58.9446 40.3801C58.8074 40.4024 58.6703 40.4248 58.5103 40.4582C58.5103 40.7036 58.5103 40.9378 58.4761 41.1609C58.2818 42.1758 57.4362 42.8896 56.3735 42.8785C55.0137 42.8673 53.6539 42.8339 52.2941 42.8116C52.1341 42.8116 51.9627 42.8116 51.7799 42.8116C51.6199 43.4362 51.4599 44.0607 51.3 44.6742C51.0143 45.7561 50.74 46.8491 50.4544 47.931C50.3972 48.1206 50.4087 48.2656 50.5801 48.4217C50.9572 48.7675 50.98 49.2024 50.8657 49.682C49.7459 54.1768 48.6261 58.6605 47.5062 63.1553C46.6378 66.6575 45.7693 70.1596 44.9009 73.6618C44.6609 74.6209 44.1353 75.0225 43.1183 75.0002C41.2786 74.9555 39.4388 74.9109 37.5991 74.8663C36.4678 74.8329 35.8051 73.9741 36.0793 72.9033C36.8107 70.0815 37.542 67.2486 38.2733 64.4268C38.6275 63.0661 38.9818 61.7054 39.3246 60.3446C39.336 60.2443 39.3474 60.1439 39.3817 59.9989ZM44.7066 40.7705C44.1239 40.7705 43.564 40.7705 42.9698 40.7705C42.924 40.9601 42.8783 41.1609 42.8212 41.4062C43.2783 41.4062 43.6782 41.4062 44.0896 41.4062C44.6495 41.4062 44.6495 41.4062 44.7066 40.7705ZM43.1297 40.1236C43.6896 40.1236 44.261 40.1236 44.8438 40.1236C44.8666 39.9229 44.878 39.7444 44.9009 39.499C44.4667 39.499 44.0896 39.499 43.7011 39.499C43.1069 39.4879 43.1069 39.4879 43.1297 40.1236ZM45.0723 37.023C44.4667 37.023 43.9182 37.023 43.3468 37.023C43.3468 37.2237 43.3468 37.4245 43.3468 37.6364C43.9182 37.6364 44.4667 37.6364 45.038 37.6364C45.0494 37.4357 45.0609 37.2572 45.0723 37.023ZM44.958 38.8856C44.9695 38.696 44.9923 38.5064 45.0152 38.2833C44.421 38.2833 43.8611 38.2833 43.2897 38.2833C43.2669 38.4841 43.2554 38.6737 43.244 38.8856C43.8382 38.8856 44.3867 38.8856 44.958 38.8856ZM43.3354 36.3761C43.941 36.3761 44.501 36.3761 45.0723 36.3761C45.0723 36.1753 45.0723 35.9969 45.0723 35.7738C44.4895 35.7738 43.9182 35.7738 43.3354 35.7738C43.3354 35.9746 43.3354 36.153 43.3354 36.3761ZM43.2326 34.5246C43.2554 34.7365 43.2669 34.915 43.2897 35.1269C43.8725 35.1269 44.4438 35.1269 45.0494 35.1269C45.038 34.9261 45.0152 34.7365 45.0037 34.5246C44.4095 34.5246 43.8382 34.5246 43.2326 34.5246ZM43.164 33.8666C43.7582 33.8666 44.3296 33.8666 45.0037 33.8666C44.878 33.6435 44.7981 33.3089 44.6724 33.2978C44.1581 33.2308 43.6325 33.2643 43.084 33.2643C43.1069 33.4539 43.1297 33.6324 43.164 33.8666ZM42.7869 32.0151C42.8441 32.2159 42.8898 32.4055 42.9469 32.6174C43.5068 32.6174 44.0667 32.6174 44.7409 32.6174C44.5695 32.372 44.4667 32.0597 44.3181 32.0374C43.8268 31.9705 43.324 32.0151 42.7869 32.0151Z" fill="white"/>
</g>
<defs>
<clipPath id="clip0_1_12768">
<rect width="39" height="44" fill="white" transform="translate(36 31)"/>
</clipPath>
</defs>
</svg>
