<svg width="100" height="100" viewBox="0 0 100 100" fill="none" xmlns="http://www.w3.org/2000/svg">
<rect width="100" height="100" fill="white"/>
<circle cx="50" cy="50" r="45" fill="#BE9A40"/>
<path d="M51.8561 67.4467C51.5244 68.4522 51.0188 69.6171 50.77 70.8396C50.5373 71.9852 50.0344 72.5044 48.8948 72.4989C43.3253 72.4797 37.7531 72.5072 32.1836 72.4797C30.6241 72.4715 30.3137 71.7819 30.814 70.2379C31.6112 67.7819 32.395 65.3093 32.9861 62.7956C33.6496 59.9686 32.9246 57.2736 31.8038 54.6746C30.6508 52.0043 29.3641 49.3806 28.4278 46.6334C26.0069 39.5344 28.3663 33.9574 35.0058 30.864C38.7803 29.1058 42.7956 28.6744 46.8885 29.0123C49.9273 29.2623 52.8458 30.0288 55.5664 31.5014C60.8577 34.3695 63.2519 39.3256 62.0026 45.3312C61.6762 46.8998 61.9438 47.996 62.9041 49.1499C63.6478 50.0455 64.3032 51.0565 64.8275 52.1032C65.7103 53.8669 65.4508 55.1994 64.0437 56.551C63.5729 57.0043 63.2305 57.3697 63.6398 58.0345C63.728 58.1774 63.7896 58.4274 63.7253 58.562C62.9817 60.15 63.4177 62.128 62.1337 63.5483C61.9197 63.7873 61.8769 64.2709 61.8929 64.6335C62.0106 67.5676 60.7747 69.0127 57.9365 68.7627C56.0185 68.5923 54.1406 67.9604 51.8561 67.4467ZM55.3176 56.4384C53.2204 55.9054 51.2595 55.3257 49.2666 54.9164C46.1288 54.2735 43.7774 55.2818 42.3542 58.2269C41.319 60.367 40.677 62.7269 40.0189 65.0346C39.5641 66.6225 39.3796 68.2929 39.0666 69.9687C40.2971 69.9687 41.2896 69.9687 42.29 69.9687C42.29 68.5786 42.1911 67.2901 42.3114 66.0236C42.5147 63.9055 42.595 61.7186 43.2049 59.7131C44.0154 57.0455 46.2866 55.9796 48.9509 56.584C50.8877 57.0236 52.8137 57.5263 54.8093 58.0153C54.9779 57.4851 55.1277 57.029 55.3176 56.4384Z" fill="white"/>
<path d="M72.4995 61.4491C71.9564 63.0315 71.4829 64.5288 70.9238 65.9931C70.6216 66.7898 69.9394 67.125 69.185 66.7211C68.3906 66.2953 68.4441 65.5728 68.8667 64.842C70.1641 62.6002 70.1695 60.3474 68.8828 58.1029C68.4681 57.3804 68.3692 56.6661 69.161 56.2128C69.918 55.7815 70.6002 56.1111 70.9078 56.8996C71.4776 58.3584 71.9484 59.8557 72.4995 61.4491Z" fill="white"/>
<path d="M68.5802 61.4931C68.1175 62.6222 67.8178 63.6772 67.2588 64.5563C67.0367 64.9024 66.2289 64.8557 65.6885 64.9876C65.5654 64.4409 65.1722 63.7403 65.3702 63.3722C66.0924 62.0288 66.079 60.8447 65.3541 59.5068C65.1588 59.1442 65.413 58.2458 65.7527 57.9463C65.9961 57.7348 67.0046 57.9409 67.1946 58.2623C67.7697 59.2403 68.1175 60.3612 68.5802 61.4931Z" fill="white"/>
</svg>
