<svg width="100" height="100" viewBox="0 0 100 100" fill="none" xmlns="http://www.w3.org/2000/svg">
<rect width="100" height="100" fill="white"/>
<circle cx="50" cy="50" r="45" fill="#BE9A40"/>
<path d="M33.2711 68.3774C33.4586 67.7342 33.6502 67.1166 33.8206 66.4947C34.2508 64.9144 34.5916 63.3213 34.6129 61.6728C34.63 60.1692 34.3147 58.755 33.4671 57.4984C33.0752 56.9191 32.6152 56.3866 32.202 55.8159C30.6132 53.635 29.5184 51.2453 29.1692 48.5575C28.8539 46.1253 28.7176 43.6632 29.3736 41.2821C30.2681 38.0235 32.2531 35.5061 35.1241 33.7086C36.8535 32.6266 38.7575 32.0729 40.7723 31.8471C43.3834 31.5532 45.9477 31.7406 48.4225 32.6522C52.4138 34.1218 54.9738 36.9246 56.0685 41.0436C56.2261 41.6314 56.2176 42.2107 56.0131 42.7772C55.6681 43.7314 55.8598 44.5663 56.4305 45.3841C57.3293 46.6748 58.177 47.9953 59.0502 49.3029C59.5188 50.0015 59.391 50.7171 58.6583 51.1218C58.2366 51.3561 57.7553 51.5094 57.2825 51.6202C56.9161 51.7054 56.7074 51.8587 56.6648 52.2335C56.635 52.5019 56.537 52.7745 56.5626 53.0386C56.5839 53.2686 56.7415 53.4816 56.8224 53.7074C56.9076 53.9331 57.0269 54.1674 57.0311 54.3974C57.0397 54.6615 56.8608 54.8191 56.5626 54.8362C56.1665 54.8575 55.7703 54.9128 55.3784 54.9682C55.2464 54.9852 55.0973 55.0151 54.9951 55.0875C54.8375 55.2025 54.7182 55.3643 54.5776 55.5092C54.7225 55.5986 54.8545 55.7094 55.0078 55.7733C55.5105 55.9777 56.0344 56.1311 56.5243 56.3611C56.9119 56.54 56.9928 56.8041 56.7159 57.1193C56.1239 57.7881 56.2857 58.5377 56.3794 59.2917C56.4348 59.756 56.5498 60.2331 56.5072 60.6888C56.4135 61.7069 55.4295 62.6653 54.3519 62.7462C53.321 62.8229 52.2817 62.7846 51.2466 62.7846C50.8164 62.7846 50.3904 62.7462 49.9602 62.7462C49.432 62.7505 49.0828 63.0231 48.9464 63.5257C48.8527 63.875 48.7761 64.2456 48.7675 64.6077C48.7462 65.6768 48.7803 66.7417 48.546 67.7981C48.5077 67.977 48.5418 68.1729 48.5418 68.3817C43.4431 68.3774 38.3699 68.3774 33.2711 68.3774Z" fill="white"/>
<path d="M71.7476 55.1812C71.688 58.5718 70.474 61.66 68.0205 64.2541C67.9267 64.3521 67.833 64.4543 67.718 64.5267C67.4411 64.7142 67.0876 64.6716 66.8533 64.4373C66.6276 64.2073 66.585 63.8409 66.7639 63.5726C66.8235 63.4874 66.9002 63.415 66.9726 63.3383C71.492 58.6528 71.4878 51.3092 66.9556 46.6535C66.5679 46.2531 66.5807 45.6738 67.0322 45.4395C67.3389 45.2819 67.6286 45.3458 67.931 45.6567C69.5283 47.2924 70.6401 49.2135 71.2577 51.4157C71.5857 52.5914 71.7348 53.7926 71.7476 55.1812Z" fill="white"/>
<path d="M67.6883 55.1812C67.6585 57.7454 66.7299 60.1266 64.8983 62.1584C64.7918 62.2734 64.6853 62.3927 64.5661 62.4949C64.2679 62.7505 63.8632 62.7334 63.6034 62.4608C63.3478 62.1967 63.3393 61.8134 63.5906 61.5194C63.7141 61.3746 63.8504 61.2468 63.974 61.1063C67.1474 57.5623 67.0664 52.1441 63.7908 48.6981C63.7312 48.6384 63.6715 48.5788 63.6162 48.5149C63.335 48.1997 63.335 47.8036 63.6119 47.5267C63.8845 47.2583 64.3147 47.2498 64.5959 47.5437C64.9537 47.9228 65.3115 48.3104 65.6224 48.7321C67.0025 50.5979 67.6798 52.6936 67.6883 55.1812Z" fill="white"/>
<path d="M63.6163 55.407C63.595 57.081 62.8794 58.8828 61.4482 60.3992C61.2607 60.5994 61.0478 60.7357 60.7581 60.6974C60.4812 60.659 60.2938 60.5057 60.2001 60.2501C60.1021 59.969 60.1703 59.7177 60.3833 59.5004C61.0478 58.8274 61.5632 58.0522 61.8528 57.1534C62.6408 54.7297 62.1978 52.553 60.5111 50.6362C60.4642 50.5808 60.4088 50.534 60.3577 50.4786C60.0851 50.1677 60.0851 49.7587 60.3662 49.4904C60.6431 49.222 61.0904 49.2007 61.3459 49.5202C61.84 50.1378 62.3512 50.7597 62.7388 51.4413C63.3692 52.5317 63.6206 53.7415 63.6163 55.407Z" fill="white"/>
</svg>
