<svg width="100" height="100" viewBox="0 0 100 100" fill="none" xmlns="http://www.w3.org/2000/svg">
<rect width="100" height="100" fill="white"/>
<circle cx="50" cy="50" r="45" fill="#BE9A40"/>
<path d="M70.0273 61.9628C69.6789 63.6412 69.1766 65.2565 68.0484 66.6047C65.9787 69.0743 63.3486 70.2084 60.1203 69.9589C59.6559 69.9236 59.1814 70.0219 58.7119 70.0219C49.8272 70.0269 40.945 70.0244 32.0603 70.0244C30.8463 70.0244 30.6696 69.8429 30.6671 68.6107C30.6671 68.1067 30.6948 67.6026 30.662 67.1012C30.5232 64.9213 31.5858 63.3942 33.4789 62.5828C35.0034 61.9301 36.6693 61.6 38.2847 61.164C39.1731 60.9246 40.0843 60.7658 41.0889 60.5466C41.0889 59.9695 41.1217 59.3874 41.0712 58.8128C41.0536 58.6163 40.8643 58.3718 40.6825 58.2634C38.1307 56.7388 36.5784 54.5338 36.0105 51.6156C35.9676 51.3939 35.6748 51.1343 35.4401 51.0511C32.5525 50.0179 31.5883 46.9007 33.393 44.4411C33.5975 44.1639 33.706 43.733 33.6858 43.3852C33.2896 37.2515 37.2145 32.5214 42.2121 31.1027C49.9181 28.9128 57.5281 34.9608 57.1041 42.9568C57.0687 43.6221 57.1722 44.1513 57.5786 44.7234C59.199 47.0015 58.149 50.0759 55.4533 50.9856C54.9611 51.1519 54.8046 51.3863 54.7214 51.8374C54.2645 54.3247 53.0252 56.4037 50.8873 57.699C49.6505 58.4474 49.5874 59.3093 49.7616 60.539C50.4506 60.6902 51.1725 60.849 51.8237 60.9926C52.0989 59.8536 52.2402 58.7599 52.6264 57.7594C54.1055 53.9265 57.8865 51.6534 61.9503 52.0642C66.0014 52.4724 69.1893 55.5267 69.8834 59.6621C69.9011 59.7629 69.9768 59.8511 70.0273 59.9468C70.0273 60.6171 70.0273 61.29 70.0273 61.9628ZM37.3684 46.5353C37.3356 46.5378 37.3053 46.5378 37.2725 46.5403C37.371 48.2942 37.3104 50.0759 37.6032 51.7971C38.2468 55.5494 41.8789 58.1904 45.8468 57.9787C49.7843 57.767 53.0984 54.7934 53.3432 51.0234C53.5224 48.2363 53.4366 45.4315 53.4492 42.6368C53.4543 41.4398 53.01 41.087 51.8061 41.3339C48.8504 41.9387 45.872 42.1277 42.8684 41.843C41.5634 41.7195 40.2635 41.5103 38.9662 41.3163C37.79 41.1399 37.376 41.4499 37.371 42.5914C37.3634 43.9069 37.3684 45.2198 37.3684 46.5353ZM55.317 43.1862C55.4003 43.1383 55.4836 43.0929 55.5644 43.045C55.9859 39.8522 54.2418 35.9764 50.9756 33.8596C47.5404 31.6344 42.9643 31.6949 39.5846 34.041C36.5708 36.1326 34.6298 40.2151 35.3921 43.1484C35.6117 42.9342 35.8565 42.6847 35.8742 42.4201C36.0105 40.4393 37.1741 39.4918 39.1403 39.8749C43.3404 40.6913 47.5303 40.6888 51.7278 39.8648C53.636 39.4893 54.8122 40.4645 54.9409 42.3924C54.9611 42.662 55.1858 42.9216 55.317 43.1862ZM53.5098 61.0456C53.5325 65.2439 56.8618 68.5351 61.0593 68.5073C65.2442 68.4796 68.533 65.1355 68.5103 60.9347C68.4876 56.7968 65.1533 53.5132 60.9936 53.5283C56.7709 53.5434 53.4871 56.8422 53.5098 61.0456ZM43.8048 68.5073C42.7068 67.1037 41.6038 65.9319 40.786 64.5862C39.7209 62.8322 38.4487 62.1468 36.5128 63.0767C36.3916 63.1347 36.2351 63.1095 36.1014 63.1473C32.285 64.2132 31.8736 65.5085 32.2951 68.4796C32.4213 68.4872 32.5576 68.5048 32.6913 68.5048C36.326 68.5073 39.9632 68.5073 43.8048 68.5073ZM55.9556 68.4721C53.9515 67.0256 52.8081 65.2616 52.2276 63.117C52.1746 62.9204 52.0433 62.7466 51.9474 62.5626C51.7531 62.6886 51.5082 62.7743 51.3719 62.9482C50.173 64.4526 48.9917 65.9722 47.8079 67.4918C47.5783 67.7866 47.3637 68.089 47.0785 68.4746C50.0493 68.4721 52.8813 68.4721 55.9556 68.4721ZM45.4126 68.152C47.0053 66.1158 48.5172 64.183 50.0291 62.2501C49.9938 62.177 49.9559 62.104 49.9206 62.0309C49.6732 62.1292 49.3426 62.1544 49.1937 62.3333C48.5096 63.1548 47.6489 63.4824 46.604 63.4547C45.766 63.432 44.9255 63.4396 44.085 63.4522C43.1006 63.4673 42.3004 63.1195 41.6518 62.3635C41.4928 62.177 41.1545 62.1418 40.8971 62.0384C40.8643 62.1115 40.8314 62.1846 40.7986 62.2602C42.3131 64.1931 43.8275 66.1259 45.4126 68.152ZM48.2168 59.3017C46.3288 59.3017 44.5115 59.3017 42.6059 59.3017C42.6059 59.6772 42.5857 60.2013 42.6109 60.723C42.6488 61.479 43.1233 61.9452 43.9007 61.9628C44.9053 61.9855 45.9124 61.978 46.917 61.9654C47.6262 61.9578 48.1007 61.5823 48.1992 60.8918C48.2799 60.3299 48.2168 59.7477 48.2168 59.3017ZM54.9788 44.6251C54.9788 46.2505 54.9788 47.8658 54.9788 49.4938C56.102 49.2216 56.892 48.1909 56.8895 47.0544C56.887 45.9204 56.0869 44.8847 54.9788 44.6251ZM35.8414 49.5013C35.8414 47.8658 35.8414 46.2429 35.8414 44.6125C34.6879 44.8973 33.966 45.8448 33.961 47.0494C33.9584 48.259 34.6677 49.204 35.8414 49.5013Z" fill="white"/>
<path d="M61.3043 56.8672C62.9071 55.8314 64.4796 56.663 65.3024 57.6534C66.3423 58.9059 66.2136 60.7127 65.0702 62.1164C64.8279 62.4162 64.6689 62.8472 64.6285 63.2327C64.5124 64.3315 64.1868 65.3344 63.3311 66.0476C63.0383 66.292 62.4477 66.4886 62.1574 66.355C61.8217 66.1988 61.5618 65.6822 61.4557 65.2714C61.2866 64.6087 61.269 63.9056 61.1857 63.2176C61.0822 63.2101 60.9787 63.205 60.8752 63.1975C60.7818 63.8174 60.6354 64.4323 60.6127 65.0547C60.59 65.6696 60.4663 66.287 59.8403 66.3676C59.4087 66.4231 58.7272 66.1786 58.5001 65.841C58.0205 65.1228 57.7656 64.2559 57.4223 63.4495C57.2153 62.9581 57.1194 62.3784 56.7989 61.9778C55.1506 59.934 56.0644 57.0436 58.6389 56.5396C59.3683 56.3984 60.1887 56.716 61.3043 56.8672ZM58.9796 63.9182C59.0276 63.9207 59.073 63.9232 59.121 63.9257C59.3305 63.3613 59.4769 62.7615 59.7596 62.2348C60.3881 61.068 61.6122 61.063 62.2433 62.2272C62.5386 62.7716 62.6875 63.394 62.9197 64.0316C62.9879 63.8627 63.0888 63.7342 63.0812 63.6107C63.0156 62.4767 63.4876 61.5922 64.2221 60.753C64.737 60.1633 64.5982 59.0671 64.0934 58.5052C63.5179 57.8651 62.7935 57.7744 61.905 58.2859C61.3194 58.6236 60.7818 58.6715 60.1735 58.3288C59.1715 57.7643 58.4445 57.86 57.864 58.5732C57.2759 59.2965 57.3642 60.2692 58.0129 61.1033C58.3461 61.5317 58.6313 62.0256 58.8131 62.5347C58.962 62.9631 58.9292 63.4545 58.9796 63.9182Z" fill="white"/>
<path d="M35.897 66.5164C37.0858 66.5164 38.2166 66.5164 39.4079 66.5164C39.4079 66.9977 39.4079 67.4539 39.4079 67.9604C38.2469 67.9604 37.0909 67.9604 35.897 67.9604C35.897 67.4866 35.897 67.0507 35.897 66.5164Z" fill="white"/>
</svg>
