<svg width="100" height="100" viewBox="0 0 100 100" fill="none" xmlns="http://www.w3.org/2000/svg">
<rect width="100" height="100" fill="white"/>
<circle cx="50" cy="50" r="45" fill="#BE9A40"/>
<path d="M67.8327 40.6755C67.7967 44.9475 66.9447 48.8596 64.5086 52.3156C64.0046 53.0357 64.0406 53.8517 64.0766 54.6917C64.3286 59.2878 63.5006 63.7278 61.7726 67.9639C61.3046 69.1159 60.5366 70.1599 59.7925 71.168C59.3965 71.696 58.7725 72.104 58.1725 72.416C56.7925 73.16 55.2805 72.656 54.5485 71.264C53.6124 69.4759 53.2764 67.5319 53.1324 65.5519C52.9884 63.6198 53.0124 61.6878 52.8324 59.7678C52.7244 58.6158 52.3764 57.4637 52.0524 56.3357C51.9084 55.8437 51.5964 55.3637 51.2724 54.9557C50.2764 53.6597 49.2444 53.6717 48.2484 54.9797C47.2043 56.3597 46.8563 58.0037 46.7243 59.6718C46.5683 61.6158 46.6283 63.5838 46.4003 65.5279C46.2083 67.1719 45.7643 68.7799 45.3923 70.3999C45.3203 70.712 45.1403 71.012 44.9843 71.312C44.2523 72.668 42.7763 73.136 41.3962 72.464C40.0882 71.816 39.2002 70.748 38.5042 69.5119C37.1002 67.0159 36.4402 64.2798 35.9121 61.4958C35.4681 59.1078 35.3241 56.6957 35.4681 54.2597C35.5041 53.6117 35.3481 52.8317 35.0001 52.3156C33.0081 49.3756 32.0481 46.1115 31.7961 42.6315C31.5801 39.6914 31.8081 36.7514 32.5881 33.9073C33.4641 30.7873 35.3481 28.5312 38.5762 27.6672C40.8802 27.0432 42.9803 27.8232 45.0443 28.8073C46.1123 29.3233 47.2643 29.7073 48.4284 29.9473C50.5284 30.3913 52.5324 29.8753 54.4045 28.9033C56.2285 27.9552 58.1125 27.2112 60.2006 27.5112C63.5366 27.9912 65.6006 30.0673 66.7167 33.1153C67.6167 35.5754 67.7727 38.1914 67.8327 40.6755Z" fill="white"/>
</svg>
