<svg width="100" height="100" viewBox="0 0 100 100" fill="none" xmlns="http://www.w3.org/2000/svg">
<rect width="100" height="100" fill="white"/>
<circle cx="49.9998" cy="50" r="42.1053" fill="#BE9A40"/>
<path d="M28.9493 40.797C29.1952 39.7037 29.8668 38.9953 30.9475 38.6944C32.7472 38.1948 34.4891 39.4867 34.5346 41.3498C34.5552 42.2404 34.5387 43.133 34.5387 43.9192C35.1958 43.909 35.8198 43.8414 36.4294 43.9049C37.0844 43.9724 37.665 44.3062 38.0824 44.8139C39.5826 46.632 41.1344 48.4131 42.5291 50.309C44.7525 53.335 44.7773 56.7807 42.7606 59.9541C42.6614 60.1117 42.6283 60.3349 42.6283 60.5274C42.6366 63.6639 42.6573 66.8005 42.6738 69.937C42.6779 70.7989 42.4238 71.0467 41.5456 71.0467C39.0929 71.0467 36.6381 71.0467 34.1854 71.0467C33.2948 71.0467 33.0551 70.8133 33.0551 69.9452C33.0551 67.5273 33.0551 65.1114 33.0551 62.6935C33.0551 62.0178 33.2163 61.809 33.863 61.6247C33.863 60.8529 33.956 60.0667 33.8279 59.3194C33.7473 58.8526 33.394 58.3838 33.053 58.0173C32.5179 57.4379 31.8938 56.9424 31.3049 56.4142C30.0445 55.2841 29.187 53.9369 29.0031 52.2253C28.9989 52.1885 28.9659 52.1557 28.9473 52.1209C28.9493 48.3497 28.9493 44.5723 28.9493 40.797ZM34.642 49.4716C34.609 49.4942 34.5759 49.5167 34.5428 49.5392C34.5449 50.6284 34.8528 51.6214 35.5181 52.4956C35.8322 52.9071 36.1814 53.29 36.5017 53.6953C36.8117 54.0884 36.7765 54.5696 36.4294 54.8623C36.0781 55.1592 35.6008 55.1223 35.2599 54.7497C34.9933 54.459 34.7474 54.1478 34.4912 53.8468C33.4146 52.5816 32.8919 51.1218 32.896 49.4675C32.9022 46.9022 32.8981 44.3348 32.8981 41.7695C32.8981 41.6344 32.9022 41.4972 32.8919 41.3621C32.8381 40.6885 32.3257 40.2073 31.6851 40.2237C30.9743 40.2422 30.6127 40.6414 30.6106 41.4132C30.6044 44.6849 30.6127 47.9566 30.59 51.2283C30.5797 52.7761 31.1355 54.0577 32.2885 55.0916C32.8175 55.5646 33.3464 56.0375 33.8796 56.5043C35.045 57.5259 35.6793 58.7707 35.5719 60.3451C35.5429 60.773 35.5677 61.205 35.5677 61.6247C37.4171 61.6247 39.2024 61.6247 40.9815 61.6247C40.9815 61.1334 41.0001 60.6727 40.9753 60.2141C40.9525 59.7985 41.0827 59.4689 41.3224 59.1249C42.2295 57.8228 42.6345 56.361 42.5519 54.7804C42.4734 53.2572 41.8059 51.9592 40.8699 50.7901C39.6012 49.2075 38.318 47.6331 37.0059 46.0853C36.7683 45.8069 36.3798 45.6062 36.0203 45.4895C35.5099 45.3237 34.9788 45.598 34.7247 46.0423C34.4478 46.5275 34.516 46.9657 34.9272 47.412C36.0099 48.5831 37.0989 49.748 38.1672 50.9334C39.4958 52.4075 39.7479 54.1949 39.6136 56.0764C39.5805 56.5289 39.2086 56.8278 38.7808 56.8175C38.3387 56.8073 38.006 56.4695 37.9895 55.9966C37.9771 55.6035 37.9895 55.2083 37.9833 54.8152C37.9729 53.9676 37.8035 53.1405 37.2683 52.4792C36.4315 51.4412 35.5202 50.4687 34.642 49.4716ZM41.0187 67.1506C38.9007 67.1506 36.8241 67.1506 34.7267 67.1506C34.7267 67.9101 34.7267 68.6472 34.7267 69.3842C36.8385 69.3842 38.9234 69.3842 41.0187 69.3842C41.0187 68.6287 41.0187 67.9122 41.0187 67.1506ZM41.0125 63.3077C38.8904 63.3077 36.8137 63.3077 34.7267 63.3077C34.7267 64.0427 34.7267 64.7531 34.7267 65.4656C36.8364 65.4656 38.9214 65.4656 41.0125 65.4656C41.0125 64.7347 41.0125 64.0345 41.0125 63.3077Z" fill="white"/>
<path d="M65.4676 44.0564C65.4676 43.1228 65.4428 42.2404 65.4738 41.36C65.513 40.2401 66.0337 39.372 67.0524 38.8745C68.0897 38.3688 69.1063 38.5142 70.0382 39.1734C70.7077 39.6464 71.0383 40.3118 71.0404 41.1266C71.0487 44.5621 71.0569 47.9955 71.0549 51.431C71.0528 53.3432 70.3007 54.934 68.8997 56.23C68.2695 56.8134 67.6207 57.3785 66.9884 57.96C66.3519 58.5476 66.0337 59.2641 66.0833 60.1404C66.1102 60.6256 66.0875 61.1149 66.0875 61.5899C66.8417 61.8602 66.9512 62.0158 66.9512 62.7897C66.9512 65.1933 66.9512 67.5948 66.9512 69.9984C66.9512 70.7907 66.6929 71.0508 65.8953 71.0508C63.3889 71.0528 60.8803 71.0528 58.3739 71.0508C57.6094 71.0508 57.3304 70.7744 57.3346 70.0168C57.349 66.8537 57.3697 63.6905 57.3779 60.5274C57.3779 60.3247 57.3304 60.0892 57.225 59.9213C55.4005 57.01 55.1505 53.5131 57.3366 50.5158C58.7789 48.5401 60.3638 46.6586 61.961 44.7996C62.7669 43.8619 63.8889 43.6121 65.1101 43.9561C65.2113 43.9827 65.3147 44.0134 65.4676 44.0564ZM64.4427 61.6391C64.4427 61.0719 64.453 60.5437 64.4406 60.0176C64.4117 58.8096 64.8415 57.7798 65.699 56.9404C66.3519 56.3016 67.0462 55.7058 67.7219 55.0916C68.8687 54.0536 69.4287 52.774 69.4184 51.2262C69.3956 47.9136 69.4039 44.601 69.3977 41.2883C69.3956 40.6598 69.0361 40.279 68.4059 40.2258C67.6641 40.1623 67.1165 40.7028 67.1144 41.5238C67.1082 44.171 67.1185 46.8183 67.1062 49.4655C67.1041 49.9241 67.0545 50.3868 66.9801 50.8393C66.7259 52.3953 65.8044 53.5889 64.7795 54.719C64.422 55.1141 63.9385 55.1653 63.579 54.8603C63.2215 54.5573 63.1988 54.0741 63.5335 53.6605C63.8579 53.2572 64.2092 52.8743 64.5171 52.4587C65.1659 51.5865 65.4758 50.6038 65.4118 49.4962C64.4881 50.4666 63.5542 51.4228 62.7566 52.4812C62.3908 52.9644 62.2255 53.6339 62.0974 54.2461C61.9838 54.7804 62.0458 55.3537 62.0313 55.9085C62.0168 56.4449 61.7027 56.7991 61.2316 56.8094C60.746 56.8196 60.403 56.4593 60.3886 55.9024C60.3782 55.5359 60.3824 55.1694 60.3865 54.8029C60.4051 53.3678 60.8432 52.0718 61.7999 50.9887C62.864 49.7828 63.9716 48.6158 65.0626 47.4325C65.5068 46.9513 65.575 46.4907 65.2692 45.9973C64.984 45.5366 64.4406 45.3237 63.8724 45.51C63.5975 45.6001 63.2897 45.7413 63.114 45.9543C61.6366 47.7375 60.1261 49.4982 58.7438 51.3531C56.7477 54.0352 57.2602 57.0305 58.7169 59.1515C58.938 59.473 59.0558 59.7821 59.0393 60.167C59.0186 60.6502 59.0351 61.1334 59.0351 61.6329C60.8246 61.6391 62.6037 61.6391 64.4427 61.6391ZM65.2837 67.1505C63.174 67.1505 61.0973 67.1505 59.0041 67.1505C59.0041 67.9122 59.0041 68.6492 59.0041 69.3965C61.1097 69.3965 63.1864 69.3965 65.2837 69.3965C65.2837 68.6472 65.2837 67.9183 65.2837 67.1505ZM65.2899 63.3199C63.1636 63.3199 61.0808 63.3199 58.9979 63.3199C58.9979 64.0549 58.9979 64.7551 58.9979 65.4717C61.1056 65.4717 63.1905 65.4717 65.2899 65.4717C65.2899 64.7429 65.2899 64.0427 65.2899 63.3199Z" fill="white"/>
<path d="M49.9994 49.3099C49.9105 49.3898 49.832 49.4614 49.7535 49.5331C47.9661 51.1628 45.1518 50.5445 44.2468 48.3149C44.1517 48.0815 44.0236 47.9607 43.786 47.8645C42.3892 47.3055 41.5606 46.2839 41.3601 44.7955C41.3209 44.5027 41.2176 44.3246 40.9551 44.1629C38.0664 42.3735 38.1119 38.2542 41.0192 36.4914C41.1638 36.4034 41.3023 36.2007 41.325 36.0348C41.544 34.4502 42.3933 33.3733 43.9017 32.8C44.0112 32.7591 44.1331 32.6485 44.1724 32.5441C45.1002 30.0525 48.2389 29.5202 49.9312 31.3628C49.9477 31.3812 49.9787 31.3853 49.9911 31.3914C50.299 31.1601 50.5821 30.9001 50.9086 30.7117C52.6835 29.6962 54.9627 30.4722 55.7437 32.3578C55.8512 32.6158 55.9855 32.7611 56.2521 32.8696C57.6344 33.4265 58.4444 34.4461 58.6469 35.9161C58.6862 36.2048 58.7771 36.387 59.0457 36.5528C61.9386 38.334 61.9034 42.4595 58.9858 44.2079C58.7709 44.3369 58.6903 44.4802 58.6593 44.7156C58.463 46.2696 57.6179 47.326 56.1487 47.9034C56.0165 47.9546 55.8739 48.0815 55.8202 48.2084C54.7953 50.6182 52.0884 51.1996 50.1358 49.4205C50.1006 49.3836 50.0573 49.3549 49.9994 49.3099ZM49.1811 40.3568C49.1811 38.117 49.1873 35.8752 49.177 33.6353C49.1729 32.7345 48.491 31.9934 47.6335 31.9074C46.6768 31.8112 45.8296 32.3865 45.6808 33.318C45.5837 33.9384 45.2655 34.1881 44.6704 34.2905C43.6166 34.4707 42.8665 35.5025 42.9595 36.5569C43.0194 37.2448 42.9016 37.4414 42.2611 37.7034C41.1452 38.1621 40.453 39.1878 40.4572 40.3773C40.4613 41.5545 41.1535 42.5475 42.3024 43.0204C42.8252 43.2354 43.0566 43.5057 42.9801 43.954C42.788 45.0575 43.536 46.3023 44.9121 46.4805C45.3523 46.5378 45.5589 46.8142 45.6519 47.2339C45.718 47.5308 45.8192 47.8419 45.9887 48.0917C46.4164 48.7244 47.2305 48.97 47.9537 48.7366C48.6935 48.4971 49.1749 47.844 49.177 47.0332C49.1853 44.8098 49.1811 42.5843 49.1811 40.3568ZM50.828 40.3527C50.828 42.5925 50.8218 44.8344 50.8321 47.0742C50.8363 47.9955 51.4995 48.71 52.4108 48.8124C53.3014 48.9127 54.161 48.3415 54.3139 47.4427C54.4234 46.7958 54.7437 46.5275 55.3718 46.4129C56.4153 46.2245 57.1406 45.207 57.0517 44.1649C56.9897 43.4565 57.0972 43.2866 57.7811 42.9979C58.8763 42.5352 59.5582 41.5136 59.554 40.3445C59.5499 39.1612 58.8536 38.16 57.715 37.6953C57.1736 37.4741 56.9856 37.208 57.0269 36.7228C57.1426 35.4002 56.4752 34.5259 55.1445 34.2516C54.6465 34.1492 54.4792 33.9404 54.3531 33.4449C54.2725 33.1256 54.1444 32.7898 53.9481 32.5298C53.5018 31.9422 52.7166 31.7497 52.0244 31.9872C51.297 32.2391 50.8363 32.8737 50.8342 33.6702C50.8239 35.8997 50.828 38.1252 50.828 40.3527Z" fill="white"/>
<path d="M46.5135 44.5314C45.4204 44.515 44.4472 43.5568 44.4203 42.4717C44.4079 41.9968 44.6993 41.6385 45.1414 41.5852C45.6084 41.53 45.9907 41.8145 46.0506 42.31C46.0981 42.7031 46.2986 42.871 46.6829 42.9181C47.1602 42.9774 47.433 43.3419 47.3917 43.7984C47.3503 44.2366 46.9887 44.5396 46.5135 44.5314Z" fill="white"/>
<path d="M44.4199 38.2685C44.4241 37.1609 45.4696 36.1516 46.571 36.1905C47.0276 36.2069 47.3624 36.5099 47.3934 36.9357C47.4244 37.3779 47.1661 37.724 46.7032 37.7915C46.3127 37.8488 46.0895 38.0065 46.0461 38.4262C45.9986 38.8889 45.5895 39.194 45.1617 39.1448C44.7257 39.0936 44.4179 38.7313 44.4199 38.2685Z" fill="white"/>
<path d="M55.5865 42.4513C55.5803 43.5425 54.5719 44.5355 53.4747 44.5334C53.0015 44.5334 52.6461 44.2222 52.613 43.7841C52.58 43.3296 52.8548 42.9795 53.3404 42.9201C53.7309 42.871 53.9107 42.6826 53.9561 42.2957C54.0119 41.8248 54.388 41.5443 54.8426 41.5873C55.2868 41.6241 55.5906 41.9783 55.5865 42.4513Z" fill="white"/>
<path d="M55.5884 38.2911C55.5822 38.7517 55.2599 39.11 54.8218 39.1469C54.3941 39.1817 54.0118 38.8746 53.9581 38.4037C53.9147 38.031 53.7246 37.8611 53.363 37.8017C52.8237 37.7158 52.553 37.3575 52.6232 36.8722C52.6873 36.428 53.0696 36.1577 53.5841 36.1987C54.6937 36.2846 55.6049 37.2346 55.5884 38.2911Z" fill="white"/>
</svg>
