<svg width="100" height="100" viewBox="0 0 100 100" fill="none" xmlns="http://www.w3.org/2000/svg">
<rect width="100" height="100" fill="white"/>
<circle cx="50" cy="50" r="45" fill="#BE9A40"/>
<path d="M61.9947 56.4451C61.9947 56.6611 61.9767 56.8411 61.9947 57.0151C62.0667 57.681 62.5226 58.1909 63.1525 58.3349C63.7884 58.4789 64.4184 58.2149 64.7663 57.639C64.9523 57.333 65.0843 56.9971 65.2882 56.7031C65.3782 56.5711 65.5702 56.4271 65.7202 56.4271C67.508 56.4091 69.3017 56.4091 71.0895 56.4211C71.6954 56.4271 72.1634 56.8351 72.2594 57.393C72.3553 57.9509 72.0734 58.5029 71.5454 58.6949C71.3175 58.7788 71.0475 58.7908 70.8015 58.7908C65.1143 58.7908 59.433 58.7908 53.7457 58.7848C45.9587 58.7788 38.1657 58.7788 30.3787 58.7728C30.1567 58.7728 29.9227 58.7728 29.7128 58.7129C29.1968 58.5689 28.8669 58.0529 28.9089 57.507C28.9509 56.9791 29.3648 56.5291 29.9047 56.4511C30.0367 56.4331 30.1747 56.4391 30.3067 56.4391C40.7094 56.4391 51.106 56.4391 61.5087 56.4391C61.6707 56.4451 61.8327 56.4451 61.9947 56.4451Z" fill="white"/>
<path d="M65.8702 55.5993C66.3202 54.7474 66.7581 53.9555 67.1661 53.1456C67.274 52.9296 67.346 52.6716 67.352 52.4317C67.37 50.8359 67.364 49.2401 67.358 47.6443C67.352 46.6004 66.6921 45.8805 65.7502 45.8745C64.8144 45.8745 64.1304 46.6004 64.1244 47.6383C64.1184 49.1621 64.1304 50.6799 64.1124 52.2037C64.1124 52.4557 64.0404 52.7376 63.9265 52.9596C63.5005 53.7815 63.0566 54.5914 62.5886 55.3893C62.5046 55.5333 62.2767 55.6713 62.1147 55.6773C56.6854 55.6893 51.2501 55.6893 45.8208 55.6833C45.6108 55.6833 45.4068 55.6593 45.1968 55.6233C44.5249 55.5153 44.045 54.9393 44.063 54.2734C44.081 53.6075 44.5789 53.0556 45.2508 52.9656C45.4248 52.9416 45.6108 52.9536 45.7848 52.9536C51.0521 52.9536 56.3194 52.9536 61.5868 52.9536C61.8867 52.9536 62.3007 53.0556 62.3067 52.5876C62.3127 52.0957 61.8747 52.1737 61.5688 52.1737C58.9411 52.1677 56.3134 52.1677 53.6918 52.1677C53.5358 52.1677 53.3738 52.1677 53.2058 52.1677C53.3318 51.5378 53.9617 51.0698 54.6396 51.0698C56.9614 51.0758 59.2831 51.0818 61.6048 51.0938C62.5766 51.0998 62.5766 51.1058 62.5826 50.128C62.5826 48.8321 62.5766 47.5303 62.5826 46.2345C62.5886 45.0886 63.2785 44.3987 64.4244 44.3867C65.0783 44.3807 65.7382 44.3747 66.3922 44.3867C67.496 44.3987 68.2099 45.1126 68.2099 46.2225C68.2159 48.5682 68.2219 50.9079 68.2099 53.2536C68.2039 54.6094 67.1901 55.6413 65.8702 55.5993Z" fill="white"/>
<path d="M40.9793 44.4708C40.7513 44.2008 40.5233 43.9368 40.3014 43.6609C39.7074 42.929 39.1195 42.197 38.5256 41.4711C38.3516 41.2552 38.1596 41.0152 37.8597 41.2492C37.5657 41.4771 37.7277 41.7171 37.9077 41.9451C38.6636 42.869 39.3775 43.8348 40.1814 44.7107C40.5593 45.1247 41.0693 45.4606 41.5852 45.6946C42.4491 46.0846 43.367 46.3725 44.2669 46.6965C44.6808 46.8465 44.9628 47.1044 45.0228 47.5544C45.1187 48.2683 44.5008 48.8202 43.7989 48.5982C42.6051 48.2203 41.4292 47.7943 40.2534 47.3564C39.9834 47.2544 39.7434 47.0444 39.5335 46.8405C38.6276 45.9766 37.7397 45.0887 36.8338 44.2188C36.7078 44.0988 36.5518 43.9788 36.3899 43.9488C36.2879 43.9308 36.0779 44.0748 36.0599 44.1708C36.0299 44.3148 36.0839 44.5307 36.1859 44.6387C36.6778 45.1547 37.1998 45.6466 37.7157 46.1505C38.1416 46.5705 38.5316 47.0384 39.0055 47.3864C39.5095 47.7583 40.1034 48.0163 40.6493 48.3403C40.7873 48.4243 40.9853 48.5802 40.9853 48.7062C41.0033 51.0039 40.9973 53.3016 40.9973 55.6413C40.3494 55.6413 39.7194 55.6413 39.0475 55.6413C39.0475 54.6215 39.0475 53.6076 39.0475 52.5997C39.0475 52.4797 39.0895 52.3298 39.0355 52.2458C38.9275 52.0838 38.7656 51.9518 38.6276 51.8138C38.5136 51.9578 38.3036 52.1018 38.2976 52.2518C38.2676 53.1457 38.2796 54.0395 38.2796 54.9394C38.2796 55.1614 38.2796 55.3834 38.2796 55.6473C37.2657 55.6473 36.2759 55.6473 35.25 55.6473C35.25 55.4674 35.25 55.3054 35.25 55.1434C35.25 50.5 35.25 45.8626 35.25 41.2192C35.25 39.8453 35.8679 39.2394 37.2537 39.2394C37.9377 39.2394 38.6276 39.2334 39.3115 39.2394C40.3254 39.2514 41.0333 39.8873 41.0633 40.8892C41.0993 42.0651 41.0693 43.2409 41.0693 44.4228C41.0453 44.4348 41.0093 44.4528 40.9793 44.4708Z" fill="white"/>
<path d="M35.3878 59.5828C36.3476 59.5828 37.2475 59.5828 38.1894 59.5828C38.2014 59.6967 38.2254 59.8107 38.2254 59.9247C38.2254 62.6664 38.2314 65.408 38.2254 68.1557C38.2194 69.2475 37.3015 69.9434 36.3356 69.5955C35.7777 69.3975 35.4058 68.9776 35.3998 68.3956C35.3758 65.48 35.3878 62.5584 35.3878 59.5828Z" fill="white"/>
<path d="M65.4681 43.0969C63.9863 43.1029 62.7864 41.921 62.7744 40.4452C62.7684 38.9694 63.9623 37.7756 65.4501 37.7756C66.9139 37.7756 68.1018 38.9454 68.1198 40.4092C68.1378 41.8791 66.9499 43.0909 65.4681 43.0969Z" fill="white"/>
<path d="M35.3584 30.3125C37.2302 30.3125 39.0959 30.3125 40.9977 30.3125C40.9977 31.5843 40.9977 32.8382 40.9977 34.128C39.1379 34.128 37.2842 34.128 35.3584 34.128C35.3584 32.8682 35.3584 31.6143 35.3584 30.3125Z" fill="white"/>
<path d="M31.1826 60.0027C31.9145 60.0027 32.6344 60.0027 33.3903 60.0027C33.3903 63.2183 33.3903 66.4099 33.3903 69.6435C32.6644 69.6435 31.9445 69.6435 31.1826 69.6435C31.1826 66.4459 31.1826 63.2363 31.1826 60.0027Z" fill="white"/>
<path d="M69.4704 69.6555C68.7145 69.6555 68.0066 69.6555 67.2627 69.6555C67.2627 66.4399 67.2627 63.2483 67.2627 60.0267C67.9946 60.0267 68.7145 60.0267 69.4704 60.0267C69.4704 63.2303 69.4704 66.4219 69.4704 69.6555Z" fill="white"/>
<path d="M41.0334 59.5948C41.0454 59.7208 41.0574 59.8048 41.0574 59.8947C41.0574 62.6544 41.0634 65.408 41.0574 68.1677C41.0514 69.2536 40.1156 69.9375 39.1557 69.6015C38.8437 69.4875 38.6997 69.3675 38.8497 68.9836C38.9757 68.6656 38.9877 68.2817 38.9877 67.9337C38.9997 65.3421 38.9937 62.7444 38.9937 60.1527C38.9937 59.9787 38.9937 59.7988 38.9937 59.6008C39.6956 59.5948 40.3435 59.5948 41.0334 59.5948Z" fill="white"/>
<path d="M64.9105 49.984C64.9105 49.1801 64.9045 48.3762 64.9105 47.5663C64.9165 47.0024 65.2345 46.6544 65.7264 46.6485C66.2364 46.6425 66.5843 47.0024 66.5843 47.5783C66.5903 49.1741 66.5903 50.7699 66.5843 52.3717C66.5843 52.5277 66.5303 52.6957 66.4584 52.8337C65.7144 54.2435 64.9645 55.6533 64.2146 57.0631C63.9447 57.5671 63.5727 57.729 63.1648 57.5251C62.7388 57.3091 62.6548 56.8891 62.9368 56.3732C63.5307 55.2874 64.1366 54.2075 64.7186 53.1156C64.8326 52.9057 64.8926 52.6417 64.8985 52.3957C64.9225 51.5918 64.9105 50.7879 64.9105 49.984Z" fill="white"/>
<path d="M35.3994 34.9499C37.2651 34.9499 39.1069 34.9499 40.9487 34.9499C41.2126 35.7958 40.7687 36.9296 39.9228 37.5776C38.9689 38.3095 37.6611 38.3695 36.6592 37.7275C35.6993 37.1096 35.1774 35.9878 35.3994 34.9499Z" fill="white"/>
<path d="M50.2549 50.26C49.643 50.212 49.133 50.236 48.6651 50.116C47.9992 49.948 47.3932 50.008 46.7393 50.188C45.7075 50.476 44.6696 50.422 43.7097 49.876C43.5237 49.768 43.3798 49.5941 43.2598 49.3661C43.3917 49.3961 43.5297 49.4501 43.6617 49.4501C43.9797 49.4501 44.3276 49.5041 44.6096 49.3961C45.2755 49.1321 45.9294 48.8142 46.5533 48.4542C46.9253 48.2382 47.2253 47.8903 47.6152 47.5543C48.1731 48.1123 48.8511 48.2322 49.583 47.6923C50.1229 48.4662 49.8529 49.3661 50.2549 50.26Z" fill="white"/>
<path d="M46.9063 40.3492C46.9063 40.9852 46.9243 41.5191 46.8943 42.053C46.8883 42.167 46.7263 42.317 46.6003 42.377C45.7364 42.8149 44.8665 43.2349 43.9906 43.6548C43.3427 43.9668 42.3588 43.7448 41.9089 43.1809C41.8549 43.1089 41.8429 42.9889 41.8429 42.8929C41.8369 42.419 41.8369 41.939 41.8369 41.3691C42.1489 41.5791 42.4188 41.7411 42.6648 41.939C42.9228 42.149 43.1567 42.149 43.4447 41.999C44.3746 41.5251 45.3105 41.0692 46.2464 40.6072C46.4323 40.5172 46.6243 40.4572 46.9063 40.3492Z" fill="white"/>
<path d="M49.4502 41.399C49.4502 42.1369 49.4742 42.7849 49.4442 43.4388C49.4202 43.9547 48.9823 44.3267 48.4904 44.3147C47.9984 44.3087 47.5725 43.9247 47.5545 43.4148C47.5305 42.6889 47.5485 41.957 47.5485 41.1351C48.1424 41.543 48.7423 41.711 49.4502 41.399Z" fill="white"/>
<path d="M52.8282 38.7294C52.8282 39.3654 52.8282 39.9833 52.8282 40.6252C51.9763 40.6252 51.1484 40.6252 50.2545 40.6252C50.5364 39.9473 50.4285 39.3294 49.9785 38.7294C50.9684 38.7294 51.8803 38.7294 52.8282 38.7294Z" fill="white"/>
<path d="M49.8875 39.8933C49.8875 40.5352 49.3715 41.0451 48.7236 41.0511C48.0757 41.0511 47.5538 40.5352 47.5538 39.8993C47.5478 39.2394 48.0937 38.7054 48.7476 38.7174C49.3835 38.7234 49.8875 39.2454 49.8875 39.8933Z" fill="white"/>
<path d="M47.987 44.7886C48.311 44.8066 48.557 44.8186 48.8749 44.8306C48.8749 45.5745 48.8809 46.3124 48.8629 47.0503C48.8629 47.1283 48.7369 47.2483 48.647 47.2723C48.413 47.3263 47.993 46.9844 47.987 46.7384C47.981 46.1025 47.987 45.4605 47.987 44.7886Z" fill="white"/>
</svg>
