<svg width="100" height="100" viewBox="0 0 100 100" fill="none" xmlns="http://www.w3.org/2000/svg">
<rect width="100" height="100" fill="white"/>
<circle cx="50" cy="50" r="45" fill="#BE9A40"/>
<path d="M54.1808 29.1787C59.5738 32.5438 59.5628 39.603 55.5948 43.0339C54.7617 42.4749 53.9287 41.9158 53.0627 41.3349C53.1833 41.2362 53.3039 41.1266 53.4354 41.006C55.3536 39.3618 55.9565 36.764 54.981 34.4511C54.8933 34.2319 54.8494 33.9688 54.8713 33.7277C54.959 32.3027 53.8738 31.3161 52.4598 31.5244C52.2954 31.5463 52.1091 31.5244 51.9556 31.4696C49.5002 30.5598 47.023 31.1846 45.4226 33.1138C43.8661 34.9882 43.7126 37.5203 45.017 39.7235C45.0609 39.7893 45.0938 39.8551 45.1266 39.9318C44.1292 40.173 43.1536 40.4032 42.178 40.6443C40.4242 37.7615 40.6215 32.2259 45.4226 29.2225C44.3374 29.08 40.1282 30.4502 37.8921 31.6779C35.5573 32.9604 33.4966 34.6155 31.7318 36.6982C33.7706 39.0988 36.215 40.9403 39.065 42.3104C38.6485 42.6502 38.2867 42.9681 37.8921 43.2531C37.8044 43.3189 37.6181 43.3079 37.5194 43.2531C34.6366 41.7624 32.1703 39.7564 30.1424 37.2243C29.8136 36.8297 29.8574 36.5009 30.2411 36.0405C32.7512 32.9604 35.8752 30.6913 39.5473 29.1896C43.6907 27.4906 47.9985 26.9645 52.4379 27.3591C57.4363 27.8085 61.9743 29.4637 65.8876 32.6315C67.1481 33.6509 68.2333 34.8896 69.3623 36.0624C69.8117 36.5228 69.7788 36.8517 69.3623 37.3559C66.315 41.0718 62.4457 43.571 57.8638 44.996C57.5678 45.0837 57.4034 45.0289 57.2171 44.7987C56.965 44.4698 56.68 44.1739 56.3621 43.8012C58.5982 43.1983 60.6918 42.3543 62.643 41.1595C64.6051 39.9537 66.337 38.4849 67.8606 36.6872C64.2324 32.4781 59.6176 30.0665 54.1808 29.1787Z" fill="white"/>
<path d="M59.4529 53.3267C59.4639 60.32 53.8297 65.9652 46.8473 65.9652C39.8649 65.9652 34.2197 60.331 34.2197 53.3486C34.2197 46.3662 39.8539 40.7101 46.8253 40.6991C53.7749 40.6882 59.4419 46.3442 59.4529 53.3267ZM56.7783 53.3595C56.7783 47.835 52.3061 43.3518 46.8253 43.3627C41.3118 43.3737 36.8614 47.846 36.8724 53.3376C36.8833 58.8402 41.3227 63.2906 46.7925 63.2906C52.328 63.3015 56.7893 58.8622 56.7783 53.3595Z" fill="white"/>
<path d="M54.269 35.0211C55.1569 37.0051 54.1594 39.877 52.263 40.8197C52.1315 40.8855 51.9232 40.8745 51.7807 40.8197C50.0927 40.162 48.3498 39.8551 46.5302 39.888C46.3548 39.888 46.1247 39.7893 46.015 39.6578C44.7106 38.1451 44.6339 35.7117 45.8177 33.9907C47.0125 32.2588 49.2925 31.4477 51.1669 32.0944C51.2107 32.1054 51.2436 32.1383 51.2875 32.1602C50.6298 33.3002 50.6846 34.2538 51.43 34.9773C52.1973 35.7117 53.1728 35.7336 54.269 35.0211Z" fill="white"/>
<path d="M56.7568 66.4146C57.8201 65.3404 58.8833 64.2771 59.9685 63.2029C60.0562 63.2906 60.1658 63.3783 60.2645 63.4769C61.7552 64.9677 63.246 66.4584 64.7258 67.9492C65.6246 68.848 65.6246 69.8345 64.7258 70.7334C64.4956 70.9745 64.2654 71.2157 64.0133 71.4349C63.3337 72.0159 62.3581 72.0597 61.7224 71.4349C60.0562 69.8126 58.423 68.1465 56.7788 66.5023C56.7678 66.4694 56.7678 66.4255 56.7568 66.4146Z" fill="white"/>
<path d="M59.0144 59.0923C59.3981 59.487 59.7707 59.8268 60.0777 60.2214C60.4723 60.7256 60.4284 61.449 59.968 61.9204C58.4883 63.4331 56.9865 64.9348 55.4739 66.4146C54.9477 66.9188 54.2133 66.9188 53.6543 66.4474C53.3145 66.1625 53.0295 65.8226 52.6787 65.4719C55.4958 64.0688 57.6004 61.9642 59.0144 59.0923Z" fill="white"/>
<path d="M51.1773 45.1933C50.4539 46.6402 50.5196 47.9117 51.55 48.9969C52.5585 50.0601 53.7971 50.1917 55.1454 49.6326C55.5729 50.4986 55.7811 51.3974 55.8907 52.3292C55.9346 52.6799 55.9236 53.0197 55.9455 53.3705C56.0442 54.6749 55.529 55.7272 54.6631 56.6699C52.4927 59.0485 48.996 59.7719 46.0584 58.4237C43.1755 57.0974 41.3669 53.9186 41.7724 50.8822C42.2219 47.4732 44.6663 44.8864 47.9218 44.3492C48.1081 44.3164 48.3054 44.3164 48.4808 44.3602C49.3687 44.6233 50.2566 44.9083 51.1773 45.1933Z" fill="white"/>
<path d="M54.7621 57.7988C52.822 61.438 48.3278 63.2686 44.3378 62.1176C40.3369 60.9776 37.3445 57.1412 37.7391 52.4278C38.0569 48.5803 41.3673 44.9082 45.2257 44.3821C42.9348 45.7851 41.4988 47.6705 41.0385 50.2245C40.589 52.8004 41.2358 55.0914 42.9238 57.0864C45.6094 60.2323 50.7503 61.1969 54.7621 57.7988Z" fill="white"/>
</svg>
