<svg width="100" height="100" viewBox="0 0 100 100" fill="none" xmlns="http://www.w3.org/2000/svg">
<rect width="100" height="100" fill="white"/>
<circle cx="50.5" cy="50.5" r="45.5" fill="#BE9A40"/>
<path d="M73.3244 49.8135C72.9551 50.7896 72.2428 51.1589 71.214 51.1167C69.9794 51.0639 68.7447 51.1061 67.4521 51.1061C67.4521 50.8951 67.4521 50.7157 67.4521 50.5416C67.4521 46.3523 67.4521 42.1631 67.4521 37.9685C67.4521 36.1957 66.4444 35.1722 64.6768 35.1563C64.4975 35.1563 64.3181 35.1563 64.1017 35.1563C64.1017 34.8292 64.0806 34.5549 64.107 34.2858C64.1545 33.8004 64.4552 33.5155 64.9512 33.4891C65.2994 33.4733 65.6582 33.468 66.0064 33.4944C66.1331 33.5049 66.2861 33.5946 66.3705 33.6949C67.9164 35.6312 70.3381 35.6312 71.8841 33.6949C72.1215 33.3941 72.7282 33.4099 73.0606 33.7318C73.1556 33.8215 73.2348 33.9323 73.3244 34.0325C73.3244 39.2876 73.3244 44.5479 73.3244 49.8135Z" fill="white"/>
<path d="M73.3254 62.2969C73.0616 62.7295 72.6818 62.8667 72.1752 62.8614C68.4608 62.8456 64.7517 62.8509 61.0373 62.8509C60.1667 62.8509 59.9135 62.6029 59.9135 61.7429C59.9135 60.7668 59.9082 59.7854 59.9135 58.8093C59.9188 58.134 60.2195 57.8174 60.8948 57.8174C64.7148 57.8121 68.5347 57.8174 72.3599 57.8121C72.8295 57.8121 73.1408 58.0285 73.336 58.44C73.3254 59.7274 73.3254 61.0095 73.3254 62.2969Z" fill="white"/>
<path d="M43.1298 57.0787C42.3014 56.6883 41.5522 56.3717 40.8294 55.9865C40.402 55.7597 40.1277 55.3851 40.0802 54.8522C40.038 54.3773 39.6317 54.0871 39.178 54.1293C38.7453 54.1663 38.4498 54.4987 38.4287 54.9683C38.3971 55.7175 38.6978 56.3348 39.2043 56.8624C39.9113 57.6011 40.8188 58.0073 41.758 58.345C42.1854 58.498 42.618 58.6405 42.9979 58.7724C42.4386 59.854 41.8899 60.8986 41.3042 62.0225C41.2726 62.0225 41.1196 62.0225 40.9718 62.0225C37.3471 62.0225 33.7224 62.0225 30.0977 62.0225C29.4646 62.0225 29.4013 61.9222 29.6651 61.3207C30.6042 59.1575 31.0791 56.8993 31.0316 54.5409C30.9841 52.2141 30.1927 50.1511 28.8156 48.2939C28.5043 47.8771 28.2036 47.455 27.8923 47.0382C26.7896 45.5662 26.2567 43.92 26.3358 42.0681C26.4044 40.3955 26.5891 38.7494 27.2486 37.1876C28.04 35.3093 29.5595 34.1169 31.1793 33.0089C33.7119 31.2784 36.5188 30.6927 39.5156 31.0673C41.3148 31.2942 43.114 31.6055 44.8762 32.0223C46.5118 32.4022 47.9311 33.2516 49.0338 34.5601C49.1446 34.6868 49.2396 34.8292 49.3345 34.9664C49.3609 34.998 49.3662 35.0455 49.3926 35.1299C49.2396 35.1405 49.1129 35.1563 48.981 35.1563C48.2002 35.1616 47.4193 35.1458 46.6384 35.1616C44.5016 35.1985 43.1245 36.602 43.1245 38.7336C43.1245 44.6217 43.1245 50.5152 43.1245 56.4034C43.1298 56.5775 43.1298 56.7569 43.1298 57.0787ZM28.0136 40.7913C27.982 41.5774 28.5412 42.0681 29.1691 41.8043C29.6017 41.6249 29.6914 41.245 29.702 40.8229C29.7389 39.4511 30.2824 38.2798 31.2848 37.3829C31.9021 36.8289 32.6355 36.4015 33.3425 35.9583C33.8068 35.6681 34.0021 35.2566 33.8016 34.8134C33.6063 34.3913 33.1579 34.2277 32.6777 34.4071C30.103 35.3674 28.1191 38.0793 28.0136 40.7913ZM36.3921 32.6502C35.9278 32.6607 35.5691 33.0459 35.5796 33.5154C35.5902 33.9745 35.9384 34.3121 36.3974 34.3121C36.8617 34.3121 37.2469 33.9375 37.2416 33.4785C37.2416 33.0248 36.8459 32.6396 36.3921 32.6502Z" fill="white"/>
<path d="M50.6638 59.511C50.6638 59.8065 50.6638 60.0228 50.6638 60.2339C50.6638 63.2465 50.6638 66.2592 50.6638 69.2719C50.6638 70.1583 50.4158 70.401 49.5136 70.4063C49.408 70.4063 49.2972 70.4063 49.1917 70.4063C48.4425 70.3957 48.1681 70.1319 48.1576 69.388C48.1523 69.0503 48.1576 68.7126 48.1576 68.3802C48.1576 65.6261 48.1576 62.8772 48.1576 60.1231C48.1576 59.9437 48.1576 59.7643 48.1576 59.5163C47.6616 59.5163 47.2079 59.5163 46.7541 59.5163C45.4351 59.511 44.7861 58.8568 44.7861 57.5377C44.7861 51.2961 44.7861 45.0597 44.7861 38.818C44.7861 37.4831 45.414 36.8553 46.7541 36.8553C49.139 36.8553 51.5238 36.85 53.9086 36.8553C54.6684 36.8553 55.0957 37.52 54.7317 38.1162C54.5206 38.4592 54.1935 38.5278 53.8189 38.5225C51.7559 38.5172 49.6929 38.5172 47.6247 38.5225C46.733 38.5225 46.4639 38.781 46.4639 39.6622C46.4639 45.334 46.4639 51.0111 46.4639 56.683C46.4639 57.5694 46.7225 57.8174 47.6194 57.8174C49.6402 57.8174 51.6557 57.8174 53.6764 57.8174C53.8611 57.8174 54.0458 57.8227 54.2199 57.8649C54.6261 57.9651 54.8319 58.2553 54.8583 58.6616C54.8794 59.0467 54.5892 59.416 54.1882 59.4688C53.7978 59.5216 53.3968 59.511 53.0011 59.511C52.2413 59.5163 51.4816 59.511 50.6638 59.511Z" fill="white"/>
<path d="M65.7851 56.1238C64.6296 56.1238 63.548 56.1238 62.44 56.1238C62.4295 55.9549 62.4189 55.8072 62.4189 55.6595C62.4189 49.7713 62.4189 43.8831 62.4189 37.9949C62.4189 37.1033 62.6722 36.85 63.5639 36.85C64.0071 36.85 64.4503 36.8395 64.8935 36.8553C65.4316 36.8658 65.7376 37.1666 65.7851 37.6995C65.7957 37.7892 65.7904 37.8841 65.7904 37.9738C65.7904 43.8778 65.7904 49.7818 65.7904 55.6806C65.7851 55.8177 65.7851 55.9549 65.7851 56.1238Z" fill="white"/>
<path d="M48.1787 56.1237C48.1787 50.8053 48.1787 45.5292 48.1787 40.1897C49.044 40.1897 49.8987 40.1845 50.7482 40.195C50.9803 40.2003 51.3497 40.1739 51.4235 40.3005C51.6662 40.7173 51.8245 41.1869 51.9512 41.6512C51.9775 41.7515 51.7559 41.9414 51.624 42.0575C50.6374 42.9492 50.4475 43.6403 51.1017 44.8064C51.8667 46.1729 52.7479 47.4814 53.5815 48.811C53.6923 48.9903 53.8295 49.1539 53.9877 49.3808C53.7187 49.5391 53.4812 49.6921 53.2333 49.824C51.8509 50.5626 51.5502 51.5334 52.273 52.9422C52.2994 52.9949 52.3205 53.053 52.3469 53.1163C52.1147 53.3537 51.7929 53.5489 51.6768 53.8338C51.5607 54.1029 51.6504 54.4617 51.6504 54.7677C51.3286 55.1687 50.9803 55.5961 50.5583 56.1184C49.8829 56.1237 49.0493 56.1237 48.1787 56.1237Z" fill="white"/>
<path d="M69.1412 33.4786C68.2021 33.4838 67.4476 32.7293 67.4581 31.7955C67.4634 30.8774 68.2021 30.144 69.1201 30.1388C70.0645 30.1335 70.8137 30.8827 70.8032 31.8219C70.7979 32.7399 70.054 33.4733 69.1412 33.4786Z" fill="white"/>
<path d="M67.4795 52.8104C68.3026 52.8104 69.1045 52.8104 69.9382 52.8104C69.9382 53.9131 69.9382 54.9947 69.9382 56.108C69.1309 56.108 68.3184 56.108 67.4795 56.108C67.4795 55.0158 67.4795 53.9236 67.4795 52.8104Z" fill="white"/>
<path d="M60.7468 42.754C60.7468 43.6299 60.7521 44.4635 60.7362 45.3024C60.7362 45.4027 60.6096 45.5451 60.5146 45.5873C59.7865 45.8986 59.0479 46.1835 58.2617 46.5001C58.2617 45.2338 58.2617 44.0098 58.2617 42.754C59.069 42.754 59.8762 42.754 60.7468 42.754Z" fill="white"/>
</svg>
