<svg width="100" height="100" viewBox="0 0 100 100" fill="none" xmlns="http://www.w3.org/2000/svg">
<rect width="100" height="100" fill="white"/>
<circle cx="50" cy="50" r="45" fill="#BE9A40"/>
<path d="M31.7374 57.3013C33.6809 57.4228 35.5589 57.1331 37.4557 56.694C40.7259 55.9278 43.9775 56.2455 47.1917 57.1144C47.6308 57.2359 48.0886 57.2452 48.5465 57.3013C48.5838 57.3013 48.6212 57.3013 48.6492 57.3013C50.6114 57.4228 52.5175 57.1331 54.4329 56.6846C57.6938 55.9185 60.936 56.2175 64.1315 57.1238C64.8323 57.32 65.5237 57.2826 66.2244 57.3013C66.7757 57.3107 67.327 57.3013 67.8876 57.3013C67.8876 58.0114 67.8876 58.6935 67.8876 59.4129C67.1775 59.4129 66.4674 59.4129 65.7106 59.4129C65.7106 59.5905 65.7106 59.7213 65.7106 59.8614C65.6919 61.0387 65.7573 62.2254 65.6265 63.384C65.3555 65.8506 63.1224 67.8408 60.637 67.8875C59.0673 67.9249 57.5069 67.9249 55.9372 67.8875C53.2276 67.8315 50.9291 65.4956 50.873 62.786C50.8543 61.6834 50.873 60.5715 50.873 59.441C50.1629 59.441 49.4808 59.441 48.752 59.441C48.752 59.5811 48.752 59.7119 48.752 59.8521C48.7333 61.0294 48.7987 62.216 48.6679 63.3746C48.397 65.8413 46.1639 67.8315 43.6785 67.8782C42.1088 67.9156 40.5484 67.9156 38.9787 67.8782C36.2691 67.8221 33.9705 65.4863 33.9145 62.7766C33.8958 61.6741 33.9145 60.5622 33.9145 59.4129C33.167 59.4129 32.4475 59.4129 31.7188 59.4129C31.7374 58.7122 31.7374 58.0021 31.7374 57.3013ZM46.6497 59.1887C43.0992 58.1235 39.586 58.1329 36.0542 59.1887C36.0542 60.2819 36.0542 61.3657 36.0542 62.4496C36.0542 62.5898 36.0542 62.7299 36.0635 62.8701C36.2036 64.4678 37.5398 65.7385 39.1375 65.7666C40.6045 65.7852 42.0807 65.7852 43.557 65.7666C44.9492 65.7479 46.1639 64.8042 46.5096 63.4587C46.6217 63.0196 46.631 62.5524 46.6404 62.0945C46.6591 61.1322 46.6497 60.1511 46.6497 59.1887ZM63.5429 59.17C60.039 58.1235 56.5352 58.1329 53.0127 59.1887C53.0127 60.4314 52.9473 61.6741 53.0314 62.8981C53.1341 64.4771 54.4796 65.7385 56.0493 65.7666C57.5536 65.7946 59.0673 65.7946 60.5716 65.7666C62.0385 65.7385 63.3747 64.6266 63.5242 63.1691C63.6456 61.8516 63.5429 60.5155 63.5429 59.17Z" fill="white"/>
<path d="M55.1249 31.7188C55.1249 32.4102 55.1249 33.1016 55.1249 33.8304C52.2938 33.8304 49.4907 33.8304 46.6596 33.8304C46.6596 34.5498 46.6596 35.2226 46.6596 35.942C49.4627 35.942 52.2657 35.942 55.0968 35.942C55.0968 36.6708 55.0968 37.3529 55.0968 38.063C52.2938 38.063 49.4907 38.063 46.669 38.063C46.669 38.7731 46.669 39.4645 46.669 40.184C49.472 40.184 52.2751 40.184 55.1062 40.184C55.1062 40.9035 55.1062 41.5762 55.1062 42.2863C51.6024 42.2863 48.0892 42.2863 44.5293 42.2863C44.5293 38.7638 44.5293 35.2413 44.5293 31.7188C48.0612 31.7188 51.593 31.7188 55.1249 31.7188Z" fill="white"/>
<path d="M46.6221 53.0407C45.9213 53.0407 45.2393 53.0407 44.5385 53.0407C44.5385 51.6392 44.5385 50.2563 44.5385 48.8455C43.8284 48.8455 43.137 48.8455 42.4175 48.8455C42.4175 50.2377 42.4175 51.6298 42.4175 53.0407C41.6981 53.0407 41.0253 53.0407 40.3059 53.0407C40.3059 51.6485 40.3059 50.2563 40.3059 48.8361C39.5864 48.8361 38.9137 48.8361 38.1942 48.8361C38.1942 50.219 38.1942 51.6112 38.1942 53.0314C37.4654 53.0314 36.7834 53.0314 36.0732 53.0314C36.0732 50.9384 36.0732 48.8455 36.0732 46.7245C39.5771 46.7245 43.0902 46.7245 46.6314 46.7245C46.6221 48.8174 46.6221 50.9197 46.6221 53.0407Z" fill="white"/>
<path d="M53.0312 46.7151C53.732 46.7151 54.4141 46.7151 55.1149 46.7151C55.1149 48.1166 55.1149 49.4995 55.1149 50.9103C55.825 50.9103 56.5164 50.9103 57.2358 50.9103C57.2358 49.5182 57.2358 48.126 57.2358 46.7151C57.9553 46.7151 58.628 46.7151 59.3475 46.7151C59.3475 48.1073 59.3475 49.4995 59.3475 50.9197C60.0669 50.9197 60.7397 50.9197 61.4591 50.9197C61.4591 49.5368 61.4591 48.1446 61.4591 46.7244C62.1879 46.7244 62.87 46.7244 63.5801 46.7244C63.5801 48.8174 63.5801 50.9103 63.5801 53.0313C60.0763 53.0313 56.5631 53.0313 53.0312 53.0313C53.0312 50.9384 53.0312 48.8454 53.0312 46.7151Z" fill="white"/>
</svg>
