<svg width="100" height="100" viewBox="0 0 100 100" fill="none" xmlns="http://www.w3.org/2000/svg">
<rect width="100" height="100" fill="white"/>
<circle cx="49.9998" cy="50" r="42.1053" fill="#BE9A40"/>
<path d="M49.9697 69.7369C49.2557 69.5494 48.5774 69.3174 47.9794 68.8622C46.5603 67.7644 46.0158 65.783 46.7031 64.0872C47.3725 62.4271 49.1308 61.356 50.8712 61.5524C52.7723 61.7577 54.2539 63.1322 54.5484 64.9351C54.9054 67.1753 53.522 69.1835 51.3085 69.6565C51.2104 69.6744 51.1211 69.7101 51.0229 69.7369C50.6748 69.7369 50.3268 69.7369 49.9697 69.7369ZM50.4874 62.8733C48.4881 62.9447 47.2208 64.9261 48.024 66.738C48.1936 67.1128 48.506 67.2646 48.8719 67.1485C49.2289 67.0236 49.3985 66.7112 49.3093 66.3185C49.2914 66.2203 49.2557 66.131 49.22 66.0329C48.979 65.2474 49.4699 64.4174 50.2821 64.2924C50.5142 64.2567 50.7552 64.3103 50.9872 64.3281C51.371 64.3638 51.6923 64.1407 51.7637 63.7837C51.8351 63.4535 51.6298 63.1143 51.2728 63.0072C51.014 62.9358 50.7462 62.9179 50.4874 62.8733Z" fill="white"/>
<path d="M63.6698 69.7369C62.9647 69.5673 62.2864 69.3442 61.6973 68.889C60.2693 67.8001 59.7159 65.8454 60.3764 64.1229C61.019 62.4538 62.7505 61.3739 64.5266 61.5524C66.2314 61.7309 67.4452 62.6145 68.0343 64.23C68.6501 65.9347 68.2217 67.4431 66.9186 68.6926C66.3563 69.2281 65.6602 69.5316 64.8926 69.6655C64.8123 69.6833 64.7319 69.7101 64.6516 69.7369C64.3214 69.7369 64.0001 69.7369 63.6698 69.7369ZM64.1696 62.8733C63.884 62.9358 63.5359 62.9715 63.2146 63.0875C61.7598 63.6052 61.0458 65.4081 61.733 66.7915C61.8937 67.1039 62.1882 67.2467 62.5006 67.1664C62.8398 67.0771 63.054 66.8004 63.0093 66.4434C62.9915 66.3006 62.9379 66.1578 62.8933 66.015C62.6613 65.2474 63.1522 64.4263 63.9465 64.2924C64.1696 64.2567 64.4195 64.3014 64.6516 64.3281C65.0443 64.3638 65.3567 64.1675 65.437 63.8015C65.5174 63.4535 65.321 63.1143 64.9372 63.0072C64.7052 62.9447 64.4642 62.9179 64.1696 62.8733Z" fill="white"/>
<path d="M33.4219 34.1785C43.9002 34.1785 54.3606 34.1785 64.8478 34.1785C64.8478 42.8361 64.8478 51.4847 64.8478 60.1422C61.6436 60.0708 59.6176 61.5791 58.7518 64.6941C57.8236 64.4352 56.8775 64.4174 55.9136 64.7119C55.5387 62.9447 54.6016 61.6059 53.0129 60.7759C51.8169 60.1511 50.5584 60.0083 49.2375 60.3028C46.8544 60.8294 44.4178 63.3731 45.1765 66.9611C41.2672 66.9611 37.3579 66.9611 33.4219 66.9611C33.4219 56.0365 33.4219 45.1209 33.4219 34.1785ZM52.5845 41.6758C52.7451 41.6758 52.8968 41.6758 53.0396 41.6758C55.7351 41.6758 58.4305 41.6758 61.117 41.6758C61.242 41.6758 61.3669 41.6847 61.4919 41.6668C61.8667 41.6311 62.1167 41.3634 62.1167 41.0064C62.1167 40.6494 61.8757 40.3727 61.5008 40.328C61.3759 40.3102 61.2509 40.3191 61.1259 40.3191C58.4216 40.3191 55.7172 40.3191 53.0039 40.3191C52.8611 40.3191 52.7183 40.3191 52.5755 40.3191C52.5755 39.141 52.5755 38.0342 52.5755 36.8918C52.754 36.8918 52.9058 36.8918 53.0486 36.8918C55.744 36.8918 58.4394 36.8918 61.1259 36.8918C61.2777 36.8918 61.4294 36.9007 61.5722 36.865C61.9025 36.7847 62.081 36.5616 62.0988 36.2224C62.1167 35.8922 61.8935 35.6155 61.5722 35.5441C61.4473 35.5173 61.3223 35.5262 61.1974 35.5262C58.1628 35.5262 55.1371 35.5262 52.1025 35.5262C51.3885 35.5262 51.1564 35.7583 51.1564 36.4634C51.1564 39.4801 51.1564 42.4969 51.1564 45.5136C51.1564 46.2366 51.3885 46.4686 52.1203 46.4686C55.1282 46.4686 58.136 46.4686 61.1349 46.4686C61.2688 46.4686 61.4116 46.4776 61.5454 46.4508C61.8757 46.3972 62.0899 46.1206 62.0899 45.7903C62.0899 45.4601 61.8668 45.1834 61.5454 45.1298C61.4026 45.1031 61.2509 45.112 61.0992 45.112C58.4037 45.112 55.7083 45.112 53.0218 45.112C52.879 45.112 52.7273 45.112 52.5577 45.112C52.5845 43.9517 52.5845 42.8361 52.5845 41.6758ZM37.5007 45.0941C37.5007 44.9335 37.5007 44.7907 37.5007 44.639C37.5007 41.9346 37.5007 39.2302 37.5007 36.5259C37.5007 35.8565 37.2687 35.5262 36.8135 35.5352C36.3583 35.5441 36.1352 35.8654 36.1352 36.508C36.1352 39.498 36.1352 42.4969 36.1352 45.4869C36.1352 46.2544 36.3404 46.4686 37.108 46.4686C40.098 46.4686 43.0969 46.4686 46.0869 46.4686C46.8991 46.4686 47.0865 46.2812 47.0865 45.4512C47.0865 42.488 47.0865 39.5158 47.0865 36.5527C47.0865 36.4009 47.0865 36.2492 47.0597 36.1064C47.0062 35.7672 46.7919 35.5709 46.4528 35.5441C46.1136 35.5173 45.8726 35.678 45.7745 36.0082C45.7298 36.1689 45.7209 36.3474 45.7209 36.5259C45.7209 39.2302 45.7209 41.9346 45.7209 44.639C45.7209 44.7818 45.7209 44.9335 45.7209 45.0852C44.5606 45.0852 43.4539 45.0852 42.3025 45.0852C42.3025 44.9156 42.3025 44.7639 42.3025 44.6211C42.3025 41.9435 42.3025 39.257 42.3025 36.5794C42.3025 36.4188 42.3025 36.2492 42.2758 36.0975C42.2133 35.7583 41.9991 35.5709 41.6599 35.553C41.3386 35.5352 41.0976 35.6869 40.9994 35.9904C40.9459 36.1599 40.937 36.3563 40.937 36.5437C40.937 39.2481 40.937 41.9524 40.937 44.6568C40.937 44.7996 40.937 44.9424 40.937 45.1031C39.7588 45.0941 38.661 45.0941 37.5007 45.0941ZM55.3156 53.3143C55.4673 53.3143 55.6012 53.3143 55.7351 53.3143C57.0828 53.3143 58.4305 53.3143 59.7782 53.3143C59.9389 53.3143 60.1085 53.3054 60.2602 53.2697C60.5815 53.1983 60.7422 52.9752 60.76 52.6539C60.7689 52.3326 60.6172 52.1005 60.3048 52.0023C60.1442 51.9488 59.9657 51.9398 59.7872 51.9398C58.4305 51.9398 57.0649 51.9398 55.7083 51.9398C55.5744 51.9398 55.4495 51.9309 55.3156 51.922C55.3156 51.4489 55.3156 51.0205 55.3156 50.5832C56.8775 50.5832 58.4127 50.5832 59.9389 50.5832C60.4476 50.5832 60.7422 50.3244 60.7422 49.896C60.7422 49.4765 60.4566 49.2266 59.9389 49.2176C58.2074 49.2176 56.4759 49.2087 54.7444 49.2176C54.1642 49.2176 53.9322 49.4675 53.9322 50.0388C53.9322 51.7613 53.9322 53.475 53.9322 55.1976C53.9322 55.7956 54.1732 56.0365 54.7712 56.0365C55.628 56.0365 56.4937 56.0365 57.3506 56.0365C58.2342 56.0365 59.1178 56.0455 60.0103 56.0365C60.5458 56.0276 60.885 55.6081 60.7243 55.1529C60.5994 54.7959 60.3227 54.6799 59.9567 54.6799C58.7608 54.6888 57.5648 54.6799 56.3688 54.6799C56.0207 54.6799 55.6815 54.6799 55.3156 54.6799C55.3156 54.2158 55.3156 53.7874 55.3156 53.3143ZM43.6681 50.5921C43.6681 51.1723 43.6681 51.7167 43.6681 52.2612C43.6681 53.2876 43.6592 54.305 43.677 55.3314C43.6859 55.7599 43.9626 56.0365 44.3375 56.0455C44.6945 56.0544 44.9801 55.7866 45.0247 55.3939C45.0337 55.3047 45.0337 55.2154 45.0337 55.1351C45.0337 53.4661 45.0337 51.797 45.0337 50.1191C45.0337 49.4497 44.8016 49.2176 44.1322 49.2176C42.4632 49.2176 40.7942 49.2176 39.1162 49.2176C38.4022 49.2176 38.188 49.4318 38.188 50.1548C38.188 51.797 38.188 53.4482 38.188 55.0905C38.188 55.2243 38.188 55.3671 38.2148 55.501C38.2772 55.8223 38.4914 56.0008 38.8038 56.0276C39.1251 56.0544 39.3661 55.9116 39.4821 55.6081C39.5446 55.4475 39.5535 55.269 39.5535 55.0905C39.5625 53.716 39.5535 52.3504 39.5535 50.9759C39.5535 50.842 39.5535 50.7171 39.5535 50.5921C40.0355 50.5921 40.4728 50.5921 40.9102 50.5921C40.9102 52.1005 40.9102 53.5821 40.9102 55.0726C40.9102 55.26 40.9191 55.4564 40.9816 55.626C41.0887 55.9116 41.3297 56.0455 41.6331 56.0276C41.9544 56.0098 42.1687 55.8313 42.2401 55.51C42.2758 55.3582 42.2758 55.1886 42.2758 55.028C42.2758 53.6803 42.2758 52.3326 42.2758 50.9848C42.2758 50.851 42.2758 50.7171 42.2758 50.5743C42.7666 50.5921 43.1861 50.5921 43.6681 50.5921ZM42.9541 62.9001C42.7934 62.9001 42.6595 62.9001 42.5257 62.9001C41.5796 62.9001 40.6335 62.8912 39.6874 62.9001C39.1698 62.909 38.8841 63.1678 38.8931 63.5873C38.902 63.989 39.1876 64.2567 39.6785 64.2657C40.9727 64.2746 42.2758 64.2746 43.5699 64.2657C44.0876 64.2657 44.3553 63.989 44.3643 63.4802C44.3732 62.1861 44.3732 60.8919 44.3643 59.5888C44.3643 59.0622 44.0965 58.8034 43.5788 58.8034C42.2668 58.7945 40.9637 58.7945 39.6517 58.8034C39.5178 58.8034 39.375 58.8302 39.259 58.8926C38.9556 59.0533 38.8395 59.321 38.9288 59.6513C39.027 60.0172 39.3036 60.169 39.6606 60.169C40.6335 60.169 41.6064 60.169 42.5792 60.169C42.7131 60.169 42.838 60.169 42.9719 60.169C42.9719 60.4278 42.9719 60.6241 42.9719 60.8473C41.8563 60.8473 40.7674 60.8383 39.6874 60.8473C39.2055 60.8473 38.9109 61.124 38.9109 61.5256C38.9109 61.9362 39.1876 62.2039 39.6785 62.2128C40.3925 62.2218 41.0976 62.2128 41.8116 62.2128C42.1954 62.2128 42.5792 62.2128 42.9898 62.2128C42.9541 62.4449 42.9541 62.6323 42.9541 62.9001Z" fill="white"/>
<path d="M66.9187 31.4474C66.9187 31.8937 66.9187 32.3131 66.9187 32.7505C55.057 32.7505 43.2221 32.7505 31.3604 32.7505C31.3604 32.3131 31.3604 31.8937 31.3604 31.4474C43.2042 31.4474 55.0391 31.4474 66.9187 31.4474Z" fill="white"/>
</svg>
