<svg width="100" height="100" viewBox="0 0 100 100" fill="none" xmlns="http://www.w3.org/2000/svg">
<rect width="100" height="100" fill="white"/>
<circle cx="50" cy="50" r="45" fill="#BE9A40"/>
<path d="M55.0516 30C55.0516 30.6914 55.0516 31.3828 55.0516 32.1116C52.2205 32.1116 49.4175 32.1116 46.5864 32.1116C46.5864 32.8311 46.5864 33.5038 46.5864 34.2233C49.3894 34.2233 52.1925 34.2233 55.0236 34.2233C55.0236 34.9521 55.0236 35.6342 55.0236 36.3443C52.2205 36.3443 49.4175 36.3443 46.5957 36.3443C46.5957 37.0544 46.5957 37.7458 46.5957 38.4652C49.3988 38.4652 52.2018 38.4652 55.0329 38.4652C55.0329 39.1847 55.0329 39.8574 55.0329 40.5675C51.5291 40.5675 48.0159 40.5675 44.4561 40.5675C44.4561 37.045 44.4561 33.5225 44.4561 30C47.9879 30 51.5198 30 55.0516 30Z" fill="white"/>
<path d="M46.5489 51.322C45.8481 51.322 45.166 51.322 44.4652 51.322C44.4652 49.9204 44.4652 48.5376 44.4652 47.1267C43.7551 47.1267 43.0637 47.1267 42.3443 47.1267C42.3443 48.5189 42.3443 49.9111 42.3443 51.322C41.6248 51.322 40.9521 51.322 40.2326 51.322C40.2326 49.9298 40.2326 48.5376 40.2326 47.1174C39.5132 47.1174 38.8404 47.1174 38.121 47.1174C38.121 48.5002 38.121 49.8924 38.121 51.3126C37.3922 51.3126 36.7101 51.3126 36 51.3126C36 49.2197 36 47.1267 36 45.0057C39.5038 45.0057 43.017 45.0057 46.5582 45.0057C46.5489 47.0987 46.5489 49.201 46.5489 51.322Z" fill="white"/>
<path d="M52.958 44.9963C53.6588 44.9963 54.3409 44.9963 55.0416 44.9963C55.0416 46.3979 55.0416 47.7807 55.0416 49.1916C55.7517 49.1916 56.4431 49.1916 57.1626 49.1916C57.1626 47.7994 57.1626 46.4072 57.1626 44.9963C57.8821 44.9963 58.5548 44.9963 59.2742 44.9963C59.2742 46.3885 59.2742 47.7807 59.2742 49.2009C59.9937 49.2009 60.6664 49.2009 61.3859 49.2009C61.3859 47.8181 61.3859 46.4259 61.3859 45.0057C62.1147 45.0057 62.7968 45.0057 63.5069 45.0057C63.5069 47.0986 63.5069 49.1916 63.5069 51.3126C60.003 51.3126 56.4899 51.3126 52.958 51.3126C52.958 49.2196 52.958 47.1267 52.958 44.9963Z" fill="white"/>
<path d="M48.9564 71C47.5826 70.6693 46.2609 70.2341 45.1131 69.3463C42.3306 67.2226 41.2524 63.4104 42.5393 60.0508C43.7914 56.7957 47.1652 54.6894 50.6259 55.0375C53.9476 55.3857 56.3127 57.109 57.4605 60.2597C58.6604 63.5845 57.8257 66.5263 55.2866 68.9633C54.191 70.0078 52.8346 70.5996 51.339 70.8607C51.1824 70.8956 51.0259 70.9478 50.8694 71C50.226 71 49.5999 71 48.9564 71ZM49.9303 57.6138C49.3738 57.7356 48.6956 57.8053 48.0695 58.0316C45.2348 59.0412 43.8436 62.5575 45.1827 65.2556C45.4957 65.8648 46.0696 66.1434 46.6783 65.9867C47.3391 65.8126 47.7565 65.273 47.6695 64.5767C47.6348 64.2982 47.5304 64.0197 47.4435 63.7412C46.9913 62.2441 47.9478 60.6427 49.4955 60.3816C49.9303 60.3119 50.4173 60.399 50.8694 60.4512C51.6346 60.5208 52.2433 60.1379 52.3998 59.4242C52.5563 58.7453 52.1737 58.0838 51.4259 57.8749C50.9738 57.7531 50.5042 57.7008 49.9303 57.6138Z" fill="white"/>
</svg>
