<svg width="100" height="100" viewBox="0 0 100 100" fill="none" xmlns="http://www.w3.org/2000/svg">
<rect width="100" height="100" fill="white"/>
<circle cx="50" cy="50" r="45" fill="#BE9A40"/>
<path d="M53.3954 34.1742C53.3954 35.5672 53.4022 36.9603 53.3954 38.3534C53.375 41.7715 50.8947 44.5169 47.5649 44.8159C44.2147 45.1149 41.2382 42.8045 40.681 39.4271C40.5519 38.6592 40.5587 37.8505 40.6131 37.069C40.7082 35.5876 40.3276 34.2421 39.6005 32.9713C38.9957 31.9112 38.7307 30.7628 38.7511 29.5396C38.7715 28.296 38.7511 27.0457 38.7579 25.7953C38.7647 24.9934 39.0501 24.6808 39.8384 24.6876C41.1907 24.7012 42.5566 24.6672 43.9021 24.7963C45.2952 24.9322 46.498 25.5982 47.4629 26.6107C48.6386 27.8543 50.0384 28.4116 51.7441 28.364C53.3071 28.3164 53.4022 28.4455 53.4022 29.9949C53.3954 31.3812 53.3954 32.7743 53.3954 34.1742Z" fill="white"/>
<path d="M55.6653 76.0005C53.5111 76.2384 51.3093 75.8306 49.1823 74.9948C48.0271 74.5395 47.035 74.6278 46.002 75.4093C44.8196 76.3131 41.6053 76.2588 40.3414 75.4637C39.0095 74.621 38.4998 73.1396 38.8939 71.2912C39.2949 69.3885 40.1783 67.7508 41.5985 66.4188C41.8432 66.1946 42.2305 66.0179 42.5567 66.0111C44.2828 65.9703 46.002 65.9703 47.7281 65.9975C48.0475 66.0043 48.428 66.1334 48.6727 66.3373C50.8472 68.1449 53.2732 69.538 55.7808 70.8087C56.6234 71.2301 57.4865 71.4611 58.4175 71.4883C59.8037 71.5359 60.7483 72.4601 60.7415 73.7444C60.7347 75.0424 59.7426 75.9801 58.3359 75.9937C57.4933 76.0073 56.6506 76.0005 55.6653 76.0005Z" fill="white"/>
<path d="M42.156 57.6458C41.7891 56.1644 41.4221 54.6762 41.0416 53.188C40.3348 50.4222 40.4639 47.704 41.4017 45.013C41.4289 44.9246 41.4629 44.8431 41.4969 44.7547C41.5104 44.7276 41.5376 44.7072 41.5784 44.6596C43.8209 46.4876 46.3421 47.1672 49.2573 46.3585C48.836 50.164 48.4215 53.8879 48.007 57.6458C46.0499 57.6458 44.1267 57.6458 42.156 57.6458Z" fill="white"/>
<path d="M42.4482 64.0676C42.4482 62.5726 42.4482 61.1115 42.4482 59.5961C44.2423 59.5961 46.0227 59.5961 47.8507 59.5961C47.8507 61.0708 47.8507 62.5454 47.8507 64.0676C46.0703 64.0676 44.2898 64.0676 42.4482 64.0676Z" fill="white"/>
</svg>
