<svg width="100" height="100" viewBox="0 0 100 100" fill="none" xmlns="http://www.w3.org/2000/svg">
<rect width="100" height="100" fill="white"/>
<circle cx="50" cy="50" r="45" fill="#BE9A40"/>
<path d="M61.4846 52.1536C61.4846 50.0227 61.4817 47.8889 61.4846 45.758C61.4902 42.7838 63.4326 40.8352 66.3916 40.8238C67.3172 40.821 68.2427 40.8124 69.1683 40.8267C71.5663 40.8637 73.5798 42.4676 73.7507 44.8521C73.9529 47.6924 73.9586 50.5583 73.7165 53.4071C73.6111 54.6463 72.9874 55.6833 72.2071 56.5921C72.2413 56.6633 72.2498 56.6946 72.2612 56.6975C73.782 56.914 73.8788 57.9282 73.8589 59.2101C73.7905 63.1985 73.8333 67.1869 73.8333 71.1752C73.8333 72.309 73.6624 72.4857 72.5631 72.4857C68.4991 72.4857 64.435 72.4714 60.371 72.4999C59.5736 72.5056 59.2147 72.2236 59.0951 71.4316C58.6793 68.7195 58.2066 66.016 57.768 63.3039C57.711 62.9592 57.5943 62.6772 57.3664 62.4122C56.5804 61.4949 55.8627 60.5149 55.0283 59.646C54.0799 58.6575 53.5701 57.5265 53.4106 56.1762C53.2967 55.2246 53.0404 54.2902 52.8125 53.182C52.3312 54.0766 51.9126 54.8087 51.5395 55.5608C51.2803 56.0878 50.9101 56.33 50.3177 56.2816C49.882 56.2445 49.4377 56.3157 49.0077 56.2645C48.4352 56.1961 48.3527 56.4382 48.3555 56.951C48.3754 61.7114 48.3669 66.4718 48.3669 71.2322C48.3669 72.3005 48.1818 72.4885 47.1223 72.4885C41.5147 72.4885 35.9071 72.4885 30.2995 72.4885C29.2458 72.4885 29.0692 72.3033 29.0692 71.2179C29.0692 66.4576 29.0606 61.6972 29.0834 56.9368C29.0863 56.4155 28.9553 56.0537 28.4967 55.8229C27.7136 55.4298 27.4572 54.823 27.5057 53.9398C27.5826 52.5553 27.5313 51.1622 27.5256 49.772C27.5199 48.1282 28.2433 46.9203 29.6701 46.1255C31.1482 45.3022 32.632 44.4874 34.1072 43.6613C35.0186 43.1513 35.0983 42.3309 34.3322 41.6642C33.2073 40.6871 32.4298 39.4849 32.276 37.9921C32.0282 35.6105 32.014 33.2032 32.2503 30.8302C32.501 28.3203 34.3265 26.5883 36.827 26.2322C38.0943 26.0498 39.4101 25.9957 40.6518 26.3974C42.8276 27.0982 44.226 28.6195 44.4253 30.8957C44.6304 33.246 44.6446 35.6247 44.3912 37.9807C44.2231 39.5305 43.4086 40.7669 42.2239 41.7582C41.6771 42.2141 41.6714 43.1456 42.2837 43.5017C43.7902 44.3792 45.3253 45.2053 46.8432 46.0628C47.1594 46.2395 47.2989 45.9973 47.504 45.8549C48.814 44.9461 49.6001 43.7268 49.7652 42.1257C49.8421 41.3623 50.1554 40.7982 51.0013 40.7127C51.4883 40.6643 51.3202 40.3167 51.269 40.0803C50.7563 37.6702 50.3946 35.2344 49.976 32.8072C49.5687 30.4855 51.1323 27.7791 54.4957 27.7107C55.3501 27.6936 56.0193 28.1437 56.4237 28.9101C56.569 29.1892 56.6744 29.306 57.0418 29.2775C58.3233 29.1721 59.192 30.0667 59.1208 31.3572C59.0068 33.4311 58.3661 35.3256 57.1785 37.032C57.0503 37.2144 56.7854 37.391 56.8709 37.6104C56.9706 37.8668 57.2867 37.7528 57.486 37.7215C58.4914 37.5676 58.9841 38.1203 59.6078 38.8411C60.9548 40.3937 60.7242 42.1685 60.6985 43.9433C60.69 44.5273 60.1944 44.7011 59.753 44.8065C58.9214 45.0088 58.6993 45.3592 58.9784 46.2508C59.3685 47.4901 59.5252 48.8034 59.8014 50.0825C60.0036 51.0226 60.8609 51.4813 61.4846 52.1536ZM72.2897 64.6343C72.2897 62.7569 72.2925 60.8796 72.2868 59.0022C72.2868 58.78 72.3922 58.4353 72.1672 58.3612C71.5122 58.1475 70.9141 57.7174 70.1195 58.0478C67.6845 59.0649 65.429 58.6774 63.4696 56.9197C62.0143 55.6149 60.9406 53.9455 59.5736 52.5553C58.6565 51.6237 58.1923 50.5526 58.067 49.2905C58.0471 49.0883 57.9645 48.8889 57.9559 48.6866C57.936 48.2194 57.7196 48.2707 57.4177 48.4444C56.3725 49.0484 55.333 49.658 54.2735 50.2364C53.8919 50.4443 53.8919 50.7235 53.9631 51.0768C54.2166 52.3074 54.5128 53.5324 54.6922 54.7745C54.9485 56.5408 55.4925 58.1304 56.8395 59.3982C57.4718 59.9936 57.936 60.7599 58.5398 61.3895C59.0553 61.9279 59.2176 62.5575 59.3287 63.2583C59.7103 65.6371 60.146 68.0102 60.5163 70.3889C60.5903 70.8675 60.784 70.9502 61.2112 70.9473C64.7056 70.9331 68.2029 70.9302 71.6973 70.9502C72.1701 70.953 72.3096 70.822 72.3039 70.3462C72.2726 68.4403 72.2897 66.5373 72.2897 64.6343ZM30.6128 57.3328C30.6128 61.814 30.6156 66.1328 30.6071 70.4516C30.6071 70.8077 30.6954 70.9445 31.077 70.9416C36.1691 70.9302 41.2613 70.9302 46.3534 70.9416C46.7322 70.9416 46.8262 70.8106 46.8233 70.4516C46.8148 65.8707 46.8148 61.2926 46.8233 56.7117C46.8233 56.3927 46.7493 56.2616 46.399 56.2531C45.9319 56.2417 45.5901 56.3357 45.2826 56.7459C44.5421 57.7316 43.7304 58.666 42.9615 59.6318C42.7023 59.9565 42.4061 60.1047 41.9818 60.136C40.0765 60.2699 38.2481 60.1075 36.6106 58.9822C36.2546 58.7372 35.8074 58.6261 35.4486 58.3868C34.9844 58.0735 34.7679 58.196 34.5202 58.666C34.0844 59.495 33.7199 59.5435 32.9282 58.9822C32.2019 58.4666 31.4757 57.9481 30.6128 57.3328ZM35.0043 44.9518C34.9303 44.986 34.8363 45.023 34.7452 45.0743C33.1987 45.9346 31.638 46.7722 30.1115 47.6696C29.3995 48.0883 29.0749 48.7948 29.072 49.621C29.0635 51.0369 29.0806 52.4499 29.0606 53.8658C29.0549 54.219 29.186 54.4241 29.4679 54.6178C30.627 55.4241 31.7804 56.2417 32.9139 57.0849C33.3041 57.3755 33.5063 57.4097 33.7569 56.914C34.2895 55.8628 34.9018 54.8486 35.46 53.8088C35.7818 53.2077 36.471 52.5752 36.3115 52.0055C36.1606 51.4727 35.2464 51.2961 34.6398 51.0483C33.9961 50.7833 34.2695 50.4757 34.4547 50.1224C34.6426 49.7606 34.6853 49.2791 35.3575 49.6438C36.8897 50.4757 38.4731 51.2078 40.0253 52.0055C40.3585 52.1764 40.5835 52.2163 40.8882 51.9286C42.4033 50.5013 43.9355 49.0911 45.4791 47.6952C45.8208 47.3875 45.8636 47.2394 45.4136 47.0029C44.2801 46.4047 43.158 45.7779 42.053 45.1313C41.6657 44.9062 41.4464 44.986 41.1303 45.2794C40.3044 46.0457 39.7889 47.0286 39.1538 47.9288C38.5756 48.7521 38.0829 48.7493 37.5048 47.9231C36.8583 47.0001 36.3429 45.9774 35.4628 45.231C35.3261 45.1199 35.235 44.9461 35.0043 44.9518ZM54.5384 43.704C54.5384 43.2083 54.4985 42.8921 54.547 42.593C54.621 42.1314 54.3675 41.9149 54.0058 41.8038C53.1315 41.5389 52.3569 42.0004 51.5594 42.2141C51.0924 42.3394 51.1978 42.8807 51.0611 43.2425C50.7905 43.949 50.913 44.8036 50.295 45.3734C47.3103 48.1197 44.3143 50.8545 41.3325 53.6065C40.9309 53.9769 40.5436 54.0167 40.0765 53.7689C39.4898 53.4555 38.8918 53.1649 38.2994 52.8601C38.0545 52.7348 37.8637 52.6465 37.6785 52.9883C37.0634 54.1421 36.4197 55.2788 35.779 56.4183C35.6565 56.6377 35.6451 56.7801 35.91 56.8969C37.6159 57.6547 39.1424 58.9224 41.2128 58.6034C41.6486 58.535 41.9505 58.4467 42.2353 58.0934C45.0547 54.5951 47.9141 51.128 50.7108 47.6097C51.4028 46.7408 52.1575 46.0115 53.1999 45.6497C54.2536 45.2879 54.8859 44.7267 54.5384 43.704ZM72.2897 50.638C72.2897 50.0797 72.2897 49.6694 72.2897 49.2592C72.2897 47.775 72.2868 47.7351 70.8372 47.7864C69.0772 47.849 67.5279 47.4274 66.3546 46.0429C66.0783 45.7181 65.9786 45.9688 65.8419 46.1255C65.1812 46.8833 64.3724 47.4075 63.3927 47.6183C63.0281 47.698 63.0281 47.8918 63.0281 48.1596C63.0338 49.6495 62.9911 51.1423 63.0481 52.6322C63.1307 54.8856 64.7967 56.6576 67.0751 57.0052C69.1171 57.3157 71.1847 56.0679 71.9764 54.0737C72.4349 52.9029 72.2356 51.6893 72.2897 50.638ZM42.9672 30.9384C40.5293 32.8927 39.9284 33.1007 36.9181 33.1007C35.9926 33.1007 35.067 33.1121 34.1414 33.095C33.8253 33.0893 33.6829 33.1576 33.6914 33.5138C33.7142 34.7729 33.6487 36.0378 33.7227 37.2941C33.8594 39.6302 35.7676 41.4677 38.0886 41.5845C40.404 41.7013 42.4859 40.1373 42.8333 37.8411C43.1694 35.6048 42.8931 33.34 42.9672 30.9384ZM55.9396 41.0375C55.9795 40.0717 55.6121 39.1772 55.3529 38.2798C55.1365 37.5334 55.2447 36.9893 55.726 36.3768C56.8623 34.9268 57.4519 33.2488 57.5686 31.4056C57.5829 31.1692 57.617 30.9128 57.3351 30.8273C57.0788 30.7475 56.9876 30.9925 56.8794 31.1578C56.6972 31.4341 56.5804 31.7532 56.2671 31.9298C55.5323 32.3457 55.1564 32.981 55.1763 33.8271C55.1963 34.6561 54.5783 34.226 54.2394 34.3029C53.8862 34.3826 53.6043 34.3285 53.6185 33.8129C53.6498 32.6961 54.0286 31.7446 54.8802 31.0296C55.3415 30.6421 55.1934 30.1835 55.1108 29.7618C55.0425 29.42 54.715 29.2519 54.3362 29.2519C52.5505 29.2605 51.2006 30.8586 51.4996 32.6135C51.5936 33.169 51.6848 33.7246 51.7816 34.2801C52.0949 36.072 52.4024 37.8668 52.7413 39.6558C52.7784 39.8467 52.7243 40.3082 53.1201 40.18C54.2622 39.8097 54.9542 40.7184 55.9396 41.0375ZM36.2489 31.5566C36.8897 31.5566 37.5333 31.5737 38.1741 31.5538C39.4585 31.511 40.5721 31.0438 41.4806 30.1322C42.3122 29.2975 42.2837 29.0724 41.2983 28.3973C39.9142 27.4458 38.3564 27.5853 36.8412 27.8076C35.1923 28.0526 34.1271 29.2263 33.774 30.8501C33.6601 31.3743 33.7227 31.6079 34.3265 31.568C34.9644 31.5224 35.6081 31.5566 36.2489 31.5566ZM67.8469 42.3707C67.1178 42.3707 66.5511 42.348 65.9872 42.3764C64.2613 42.4619 62.9854 43.8749 63.0168 45.5871C63.0253 46.1198 63.1962 46.134 63.6034 45.9261C64.4236 45.5073 64.9961 44.8834 65.2752 44.0088C65.4147 43.573 65.5628 43.1542 66.1125 43.157C66.6621 43.157 66.8017 43.5843 66.9555 44.0117C67.3941 45.2253 68.2712 45.9802 69.5329 46.1711C70.3132 46.2879 71.122 46.2081 71.9166 46.2309C72.2498 46.2423 72.2697 46.0514 72.2897 45.7922C72.415 44.194 71.3983 42.7981 69.829 42.4477C69.1228 42.2853 68.3994 42.4135 67.8469 42.3707ZM46.9458 54.7232C47.3616 54.7232 47.6236 54.6805 47.8657 54.7289C49.6855 55.1135 50.7877 54.3728 51.3572 52.6322C51.6477 51.7434 52.5107 51.0483 52.2487 49.9629C52.2259 49.866 52.3113 49.6837 52.3996 49.6239C53.1885 49.1111 52.8439 48.4758 52.6217 47.7322C50.7278 50.0654 48.8909 52.3274 46.9458 54.7232ZM36.6932 42.9177C36.5451 42.8351 36.397 42.8465 36.3343 43.0915C36.2631 43.3707 36.0153 43.6356 36.3457 43.9262C37.0434 44.5387 37.6387 45.2424 38.1057 46.0457C38.2453 46.2879 38.3934 46.3192 38.5472 46.0543C39.0256 45.2253 39.6579 44.5216 40.3556 43.8721C40.6803 43.573 40.3755 43.2966 40.2958 43.0288C40.1961 42.6927 39.9541 42.9434 39.7889 42.9747C38.7665 43.1827 37.7497 43.1998 36.6932 42.9177ZM54.4444 48.3732C55.1507 47.9658 55.8114 47.5015 56.5348 47.1938C57.3465 46.8491 57.5487 46.4246 57.261 45.5643C56.8367 44.2966 56.569 42.9775 56.2329 41.6785C56.0791 42.6927 56.0165 43.6869 56.0962 44.6698C56.1703 45.6013 55.8855 46.2252 54.9741 46.4816C54.1226 46.7181 54.0115 47.2536 54.2992 47.9858C54.3476 48.1026 54.3875 48.2222 54.4444 48.3732ZM59.1692 42.0289C59.4796 41.0261 58.6167 40.3053 58.0926 39.4535C57.9218 39.1744 57.6113 39.237 57.3977 39.3111C57.1357 39.4051 57.3152 39.6672 57.3607 39.841C57.6427 40.9549 57.9389 42.0631 58.2322 43.1741C58.2835 43.3707 58.2066 43.7068 58.591 43.6014C58.8673 43.5245 59.2204 43.5046 59.1749 43.0488C59.1464 42.7696 59.1692 42.4847 59.1692 42.0289Z" fill="white"/>
<path d="M65.3521 50.8717C64.848 50.789 64.5575 50.5298 64.5831 50.0455C64.6059 49.6039 64.885 49.3304 65.3293 49.3304C65.8106 49.3304 66.1011 49.6153 66.1011 50.0968C66.1039 50.5868 65.7792 50.809 65.3521 50.8717Z" fill="white"/>
<path d="M69.9577 49.3079C70.4675 49.3848 70.758 49.644 70.7352 50.1312C70.7152 50.5727 70.4361 50.8491 69.9919 50.8519C69.5106 50.8548 69.2201 50.5727 69.2144 50.0884C69.2115 49.5927 69.5362 49.3734 69.9577 49.3079Z" fill="white"/>
<path d="M36.0012 35.4224C35.5284 35.3541 35.2351 35.0977 35.2522 34.6134C35.2693 34.1689 35.5455 33.8955 35.9869 33.8869C36.4682 33.8784 36.7644 34.1604 36.7701 34.6418C36.7787 35.1261 36.4711 35.3711 36.0012 35.4224Z" fill="white"/>
<path d="M40.6094 35.4226C40.1395 35.34 39.849 35.075 39.8889 34.5907C39.9288 34.1121 40.242 33.8443 40.7233 33.8899C41.1619 33.9298 41.4239 34.2204 41.4097 34.6648C41.3898 35.1491 41.0822 35.3855 40.6094 35.4226Z" fill="white"/>
</svg>
