<svg width="100" height="100" viewBox="0 0 100 100" fill="none" xmlns="http://www.w3.org/2000/svg">
<rect width="100" height="100" fill="white"/>
<circle cx="50" cy="50" r="45" fill="#BE9A40"/>
<path d="M61.9902 55.8254C61.9902 62.2396 61.9902 68.6293 61.9902 75.0619C53.9135 75.0619 45.8643 75.0619 37.7754 75.0619C37.7754 68.663 37.7754 62.2763 37.7754 55.8254C45.8184 55.8254 53.8798 55.8254 61.9902 55.8254Z" fill="white"/>
<path d="M31.75 50.6603C43.8681 50.6603 55.9036 50.6603 68.0003 50.6603C67.3727 55.4213 66.7511 60.1454 66.1265 64.8849C64.9784 64.8849 63.8793 64.8849 62.7158 64.8849C62.7158 61.6181 62.7158 58.3758 62.7158 55.1059C54.1401 55.1059 45.6255 55.1059 37.0498 55.1059C37.0498 58.3543 37.0498 61.5967 37.0498 64.8757C35.8894 64.8757 34.7933 64.8757 33.6207 64.8757C33.0022 60.1607 32.3807 55.4396 31.75 50.6603Z" fill="white"/>
<path d="M50.8456 49.9133C50.8456 48.8356 50.8364 47.8038 50.8548 46.7689C50.8578 46.6128 50.9772 46.4444 51.0813 46.3127C51.6937 45.5473 51.6569 44.4941 50.9772 43.842C50.3618 43.2511 49.3852 43.2511 48.7575 43.842C48.0778 44.4819 48.038 45.5534 48.6504 46.3097C48.7575 46.4413 48.88 46.6097 48.8831 46.7659C48.9045 47.6201 48.8953 48.4743 48.8953 49.3254C48.8953 49.5061 48.8953 49.6867 48.8953 49.9102C45.4417 49.9102 42.0218 49.9102 38.5254 49.9102C38.5652 49.4203 38.6019 48.9427 38.6417 48.462C38.755 47.1425 38.8622 45.8198 38.9846 44.5002C39.104 43.2296 39.8297 42.3234 40.8063 41.5916C42.4658 40.3455 44.3854 39.6107 46.2929 38.8606C46.6113 38.7351 46.942 38.6341 47.343 38.4963C47.8727 39.4546 48.3993 40.4098 48.9382 41.3865C49.2351 41.0283 49.2352 40.7497 49.0178 40.3731C48.7973 39.9904 48.7269 39.5189 48.5646 39.0015C49.4433 39.0015 50.1598 39.0015 50.9129 39.0015C51.0936 39.4821 50.9834 39.9506 50.6864 40.3547C50.42 40.716 50.4261 41.0191 50.7415 41.3926C51.2742 40.4221 51.7947 39.473 52.3428 38.4779C54.7492 39.3995 57.1588 40.2108 59.1703 41.8396C60.0674 42.5652 60.6185 43.4868 60.7073 44.6747C60.8359 46.4107 61.0073 48.1436 61.1635 49.9163C57.7283 49.9133 54.3237 49.9133 50.8456 49.9133Z" fill="white"/>
<path d="M54.6203 31.6963C55.0673 31.8739 55.0888 32.2168 54.9388 32.5872C54.7091 33.1598 54.5959 33.8762 54.1795 34.2528C53.4263 34.9386 53.2212 35.903 52.6425 36.6623C51.2739 38.4657 49.0297 38.6187 47.4621 36.9869C47.3856 36.9073 47.2968 36.8338 47.2478 36.7419C46.8712 36.0255 46.663 35.1039 46.0874 34.6324C45.371 34.0476 45.2455 33.2792 44.9148 32.5719C44.624 31.9473 44.7127 31.7789 45.1659 31.482C45.0067 30.7594 44.7954 30.043 44.6974 29.3143C44.526 28.0314 44.8383 26.8741 45.916 26.072C46.2375 25.8301 46.709 25.7842 47.1131 25.6617C47.3121 25.6005 47.554 25.6188 47.7224 25.5147C49.6727 24.336 51.5617 24.7677 53.0038 25.8638C54.7918 27.2201 55.4041 29.1245 54.7581 31.2707C54.7214 31.4024 54.6724 31.5371 54.6203 31.6963ZM47.2356 28.5581C46.8682 29.2255 46.3783 29.8164 46.2007 30.4869C45.6557 32.5566 46.0201 34.5436 47.205 36.3102C48.696 38.533 51.3199 38.4258 52.7252 36.1449C53.4355 34.9906 53.7508 33.6956 53.8886 32.379C54.0478 30.8451 53.3375 30.0246 51.8312 29.8072C51.2372 29.7215 50.6432 29.6572 50.0493 29.5745C49.0848 29.4337 48.0867 29.3847 47.2356 28.5581ZM45.8333 34.2865C45.8915 34.2681 45.9527 34.2497 46.0109 34.2283C45.8976 33.5761 45.7966 32.9209 45.6649 32.2719C45.6343 32.128 45.521 31.981 45.4047 31.88C45.3281 31.8126 45.172 31.7912 45.071 31.8157C45.022 31.8279 44.9638 32.0178 44.9944 32.0943C45.2638 32.8322 45.5516 33.5578 45.8333 34.2865ZM54.6908 32.0086C53.7508 32.578 54.0999 33.6374 53.76 34.4365C54.2468 33.6956 54.7122 32.9485 54.6908 32.0086Z" fill="white"/>
<path d="M50.561 49.9255C50.0864 49.9255 49.6762 49.9255 49.2077 49.9255C49.1924 49.7786 49.1649 49.6255 49.1649 49.4724C49.1618 48.7284 49.1526 47.9814 49.1679 47.2374C49.1771 46.7965 49.1251 46.426 48.7975 46.0525C48.2678 45.4494 48.4117 44.4482 49.0026 43.9369C49.517 43.493 50.2946 43.5144 50.7876 43.9828C51.357 44.5278 51.4489 45.5137 50.9039 46.1076C50.613 46.426 50.5518 46.7414 50.5579 47.1333C50.5702 48.0579 50.561 48.9764 50.561 49.9255Z" fill="white"/>
</svg>
