<svg width="100" height="100" viewBox="0 0 100 100" fill="none" xmlns="http://www.w3.org/2000/svg">
<rect width="100" height="100" fill="white"/>
<circle cx="50" cy="50" r="45" fill="#BE9A40"/>
<path fill-rule="evenodd" clip-rule="evenodd" d="M52.004 39.5233C48.7253 38.4739 45.9789 39.2043 44.0374 40.965C44.273 41.078 44.4816 41.2422 44.6482 41.4461C44.8148 41.65 44.9356 41.8886 45.0019 42.1452C46.2545 47.0031 47.194 44.9106 47.648 46.6937C48.0089 47.9585 48.2192 49.2628 48.2744 50.5787C48.3306 50.5562 48.3881 50.5371 48.4466 50.5213C48.674 50.4588 48.9114 50.4427 49.1449 50.474C49.3785 50.5054 49.6036 50.5835 49.8074 50.7038C50.0112 50.8242 50.1895 50.9845 50.3322 51.1754C50.4749 51.3664 50.579 51.5842 50.6387 51.8163C51.528 55.2229 51.5437 57.4557 50.7671 59.1526C50.0844 60.5561 48.9946 61.43 47.4852 62.1126C47.7764 62.4029 48.0802 62.69 48.3996 62.9706C50.9049 64.7951 53.0969 64.5463 55.1293 63.4172C56.7483 64.1987 58.4582 64.5081 60.2964 63.8063C62.9989 62.7729 65.7516 58.7028 67.048 56.1511C69.8664 50.6329 70.8435 43.5518 64.524 40.1006C62.7985 39.1596 60.644 38.8821 57.9133 39.5073C57.2493 39.7329 56.5602 39.8732 55.8621 39.9252C55.834 38.6479 56.0149 37.3748 56.3976 36.1581C56.8672 34.6903 57.7023 33.3716 58.8214 32.3305C58.9216 32.2613 59.0059 32.1709 59.0687 32.0655C59.1314 31.9601 59.1712 31.8422 59.1852 31.7197C59.1991 31.5973 59.1871 31.4732 59.1497 31.3559C59.1124 31.2387 59.0507 31.131 58.9689 31.0402C58.887 30.9494 58.7869 30.8776 58.6753 30.8298C58.5638 30.7819 58.4434 30.7591 58.3225 30.7629C58.2015 30.7667 58.0828 30.797 57.9743 30.8518C57.8659 30.9065 57.7703 30.9844 57.6941 31.0802C56.356 32.3173 55.3576 33.8883 54.7974 35.6382L54.7254 35.8647C52.9967 32.7675 50.0405 31.1535 45.218 31.9063L43.314 32.1072C44.7075 35.0577 46.4205 38.0656 49.9779 38.5089C51.3307 38.678 52.7963 38.3686 54.3621 37.5361L54.2807 37.871H54.2995C54.21 38.555 54.1692 39.2447 54.1773 39.9347C53.4405 39.8757 52.7119 39.7367 52.004 39.5201V39.5233ZM36.2586 41.0288C37.9653 38.2665 37.339 35.7562 33.1489 33.6479C31.8963 36.8599 32.413 40.2888 36.2586 41.0288ZM44.6042 63.0887L46.1073 62.4316L48.052 67.0088C48.4779 68.0135 46.9779 68.6738 46.552 67.6691L44.6104 63.0919L44.6042 63.0887ZM40.5895 49.4559C43.4518 48.4576 44.4883 47.2806 43.2889 42.6077C41.0405 44.4162 38.4256 45.7113 40.602 49.4559H40.5895ZM38.5446 44.6523C41.2127 43.7177 42.1803 42.6236 41.0499 38.2729C38.958 39.9539 36.5279 41.1596 38.5446 44.6523ZM43.9371 61.6405C40.5425 63.4619 38.5916 63.4172 35.4037 58.218C38.9956 57.6726 42.4371 56.3457 43.9371 61.6405ZM41.363 55.5482C38.3442 57.1686 36.5937 57.1431 33.7721 52.5053C36.9663 52.0205 40.0352 50.8339 41.363 55.5482ZM39.0707 50.1258C36.3995 51.5643 34.8337 51.5261 32.3285 47.4401C35.1625 47.0126 37.8776 45.96 39.0644 50.1417L39.0707 50.1258ZM37.0258 45.3157C34.5206 46.6554 33.0863 46.6235 30.7627 42.7991C33.3995 42.3972 35.9329 41.4211 37.0258 45.3157ZM45.481 60.9452C49.1105 59.6693 50.4257 58.1893 48.8819 52.2692C46.0416 54.5722 42.7315 56.2149 45.481 60.9548V60.9452ZM42.8975 54.872C46.123 53.7461 47.2816 52.4192 45.9226 47.1562C43.386 49.1912 40.4423 50.6648 42.8975 54.872ZM45.0238 32.9429C48.6689 33.9605 50.9988 34.4102 53.8986 37.0608C50.2097 36.1358 47.9862 35.3193 45.0238 32.9429Z" fill="white"/>
</svg>
