<svg width="100" height="100" viewBox="0 0 100 100" fill="none" xmlns="http://www.w3.org/2000/svg">
<rect width="100" height="100" fill="white"/>
<circle cx="50" cy="50" r="45" fill="#BE9A40"/>
<path d="M41.5848 60.6801C44.2797 59.8278 46.3576 58.1881 48.2408 56.2562C49.2798 55.1847 49.7993 53.9347 49.7912 52.4412C49.775 48.9508 49.7912 45.4523 49.7831 41.9619C49.7831 40.9067 49.2068 40.4359 48.1597 40.6307C46.5362 40.9229 44.9047 41.0853 43.2731 40.655C42.3153 40.4034 41.4305 40.0138 40.7568 39.2264C40.2211 38.5933 39.6448 38.5771 38.9629 39.0966C38.8818 39.1615 38.7925 39.2183 38.6869 39.2832C38.0294 35.0136 39.7503 30.4031 45.0833 30.2489C46.3982 30.2083 47.632 30.5573 48.7766 31.296C50.0834 32.1483 51.4796 32.8707 52.8838 33.6824C51.9017 34.5185 50.5623 34.6484 49.2798 34.9325C49.2879 34.9893 49.3042 35.0461 49.3123 35.1029C50.4568 34.8594 51.6257 34.6971 52.7458 34.3561C55.0592 33.6662 57.1372 32.5217 58.9961 30.9388C60.3273 29.8105 61.9588 29.8592 63.5579 30.257C66.2203 30.9226 68.0791 33.0655 68.4769 35.874C68.972 39.3238 68.3064 42.5463 66.4395 45.501C65.6115 46.8078 65.4005 48.2121 65.6927 49.6976C66.4719 53.5776 66.545 57.4413 65.4492 61.2807C64.6537 64.0649 63.2819 66.5406 61.3663 68.716C60.7169 69.4547 59.9458 69.7875 58.9879 69.4872C58.022 69.1868 57.608 68.4644 57.5431 67.4741C57.2914 63.6834 56.4635 60.0388 54.8807 56.5728C54.6128 55.9965 54.2719 55.5013 53.6063 55.4932C52.9325 55.4851 52.5835 55.9721 52.3238 56.5566C50.8058 59.8927 49.9617 63.3993 49.6857 67.0439C49.6613 67.3848 49.6451 67.7339 49.5639 68.0586C49.1581 69.5846 47.2262 70.1447 46.1304 69.0083C43.8819 66.6705 42.4208 63.8863 41.5848 60.6801Z" fill="white"/>
<path d="M31.0406 41.7346C34.2144 42.1973 37.2664 42.4327 39.8071 39.9407C42.3153 42.4246 45.3917 42.2135 48.6223 41.7265C48.6223 41.97 48.6223 42.1892 48.6223 42.4083C48.6223 45.7201 48.6061 49.0238 48.6305 52.3356C48.6386 53.6263 48.2571 54.7302 47.2992 55.5744C46.2197 56.5241 45.1563 57.4981 43.9874 58.318C41.1464 60.3067 38.2486 60.193 35.4644 58.2043C34.2469 57.3277 33.1348 56.2968 32.0471 55.2659C31.349 54.6084 31 53.7318 31 52.7415C31 49.2024 31 45.6633 31 42.1242C31 42.0187 31.0244 41.9051 31.0406 41.7346ZM39.1172 54.3487C39.4905 54.097 39.8802 53.9104 40.1724 53.6263C41.7715 52.0596 43.3543 50.4849 44.9209 48.8858C46.3171 47.4572 46.3252 47.8955 44.9209 46.4182C44.4339 45.9068 44.1092 45.9474 43.6465 46.4263C42.2991 47.8225 40.9029 49.1699 39.5555 50.5661C39.1172 51.0206 38.7519 51.0531 38.273 50.6229C37.6642 50.0709 36.9986 49.5839 36.3654 49.0644C36.0245 48.7803 35.7242 48.7722 35.4401 49.1537C35.1966 49.4865 34.9449 49.8112 34.6608 50.1115C34.2712 50.5255 34.328 50.8258 34.7745 51.1749C35.9109 52.0596 37.0067 52.985 38.135 53.8779C38.3866 54.0727 38.7275 54.162 39.1172 54.3487Z" fill="white"/>
</svg>
