<svg width="20" height="20" viewBox="0 0 20 20" fill="none" xmlns="http://www.w3.org/2000/svg">
<path d="M13.6383 5.637C13.6383 6.35633 13.425 7.05951 13.0253 7.65761C12.6257 8.25571 12.0577 8.72187 11.3931 8.99715C10.7285 9.27242 9.99723 9.34445 9.29172 9.20412C8.58621 9.06378 7.93816 8.71739 7.42952 8.20875C6.92088 7.7001 6.57448 7.05205 6.43414 6.34654C6.29381 5.64103 6.36584 4.90975 6.64111 4.24518C6.91639 3.5806 7.38255 3.01258 7.98065 2.61295C8.57875 2.21331 9.28194 2 10.0013 2C10.9659 2 11.8909 2.38318 12.573 3.06525C13.2551 3.74732 13.6383 4.67241 13.6383 5.637Z" fill="#6D6D6D"/>
<path opacity="0.25" fill-rule="evenodd" clip-rule="evenodd" d="M14.9591 11.5463C14.72 11.3153 14.409 11.1732 14.0779 11.1435C13.7467 11.1138 13.4154 11.1985 13.1391 11.3833C12.1763 11.9083 11.0972 12.1834 10.0006 12.1834C8.90396 12.1834 7.82487 11.9083 6.86208 11.3833C6.58575 11.1985 6.25444 11.1138 5.9233 11.1435C5.59216 11.1732 5.28117 11.3153 5.04207 11.5463C4.01636 12.7334 3.45294 14.2505 3.45508 15.8193V16.5463C3.45495 16.7374 3.49248 16.9267 3.56556 17.1033C3.63863 17.2799 3.74581 17.4403 3.88094 17.5755C4.01608 17.7106 4.17652 17.8178 4.35311 17.8908C4.5297 17.9639 4.71896 18.0015 4.91007 18.0013H15.0921C15.2832 18.0015 15.4725 17.9639 15.649 17.8908C15.8256 17.8178 15.9861 17.7106 16.1212 17.5755C16.2563 17.4403 16.3635 17.2799 16.4366 17.1033C16.5097 16.9267 16.5472 16.7374 16.5471 16.5463V15.8193C16.5489 14.2504 15.9852 12.7333 14.9591 11.5463Z" fill="#6D6D6D"/>
</svg>
