<svg width="24" height="24" viewBox="0 0 24 24" fill="none" xmlns="http://www.w3.org/2000/svg">
<path d="M12.1201 13.5295H11.9501C10.9008 13.5032 9.90423 13.0646 9.17617 12.3086C8.4481 11.5526 8.04722 10.5402 8.06037 9.49078C8.07353 8.44131 8.49966 7.43928 9.24644 6.7018C9.99322 5.96432 11.0005 5.55078 12.0501 5.55078C13.0996 5.55078 14.1069 5.96432 14.8537 6.7018C15.6005 7.43928 16.0266 8.44131 16.0397 9.49078C16.0529 10.5402 15.652 11.5526 14.924 12.3086C14.1959 13.0646 13.1993 13.5032 12.1501 13.5295H12.1201ZM12.0001 6.96953C11.3376 6.96968 10.7015 7.22959 10.2285 7.69345C9.75552 8.15732 9.48324 8.78815 9.47015 9.45052C9.45706 10.1129 9.7042 10.754 10.1585 11.2362C10.6128 11.7184 11.2381 12.0032 11.9001 12.0295C11.9764 12.019 12.0538 12.019 12.1301 12.0295C12.7873 11.9927 13.4043 11.7013 13.8503 11.2173C14.2963 10.7332 14.5363 10.0945 14.5194 9.43647C14.5025 8.77846 14.2301 8.15289 13.7597 7.69238C13.2894 7.23186 12.6583 6.97259 12.0001 6.96953Z" fill="#BC9962"/>
<path d="M12.0001 22.7495C9.31537 22.7514 6.72787 21.745 4.75007 19.9295C4.66273 19.85 4.59524 19.7512 4.55304 19.6409C4.51084 19.5306 4.49509 19.412 4.50707 19.2945C4.60532 18.6518 4.84456 18.0387 5.20762 17.4993C5.57069 16.9599 6.04859 16.5075 6.60707 16.1745C8.23698 15.2026 10.0994 14.6895 11.9971 14.6895C13.8948 14.6895 15.7572 15.2026 17.3871 16.1745C17.9446 16.5086 18.4218 16.9613 18.7848 17.5005C19.1477 18.0397 19.3875 18.6522 19.4871 19.2945C19.5019 19.4112 19.4877 19.5296 19.4459 19.6395C19.404 19.7494 19.3357 19.8473 19.2471 19.9245C17.2708 21.7411 14.6844 22.7493 12.0001 22.7495ZM6.08007 19.0995C7.73933 20.4898 9.83536 21.251 12.0001 21.2495C14.1648 21.251 16.2608 20.4898 17.9201 19.0995C17.6691 18.3993 17.1855 17.8063 16.5501 17.4195C15.1672 16.6139 13.5955 16.1895 11.9951 16.1895C10.3947 16.1895 8.82292 16.6139 7.44007 17.4195C6.80709 17.8065 6.3268 18.3998 6.08007 19.0995Z" fill="#BC9962"/>
<path d="M12 22.75C9.87386 22.75 7.79545 22.1195 6.02762 20.9383C4.2598 19.7571 2.88194 18.0782 2.0683 16.1139C1.25466 14.1495 1.04177 11.9881 1.45656 9.90278C1.87135 7.81749 2.89519 5.90202 4.39861 4.39861C5.90202 2.89519 7.81749 1.87135 9.90278 1.45656C11.9881 1.04177 14.1495 1.25466 16.1139 2.0683C18.0782 2.88194 19.7571 4.2598 20.9383 6.02762C22.1195 7.79545 22.75 9.87386 22.75 12C22.7476 14.8504 21.6143 17.5833 19.5988 19.5988C17.5833 21.6143 14.8504 22.7476 12 22.75ZM12 2.75C10.1705 2.75 8.38213 3.29251 6.86098 4.30891C5.33983 5.32531 4.15423 6.76997 3.45412 8.46018C2.75401 10.1504 2.57083 12.0103 2.92774 13.8046C3.28465 15.5989 4.16563 17.2471 5.45927 18.5407C6.7529 19.8344 8.40109 20.7154 10.1954 21.0723C11.9897 21.4292 13.8496 21.246 15.5398 20.5459C17.23 19.8458 18.6747 18.6602 19.6911 17.139C20.7075 15.6179 21.25 13.8295 21.25 12C21.2471 9.54765 20.2716 7.19656 18.5375 5.46248C16.8034 3.7284 14.4524 2.75292 12 2.75Z" fill="#BC9962"/>
</svg>
