<svg width="20" height="20" viewBox="0 0 20 20" fill="none" xmlns="http://www.w3.org/2000/svg">
<path opacity="0.25" d="M15.2099 7.582C14.6579 7.582 14.1183 7.41831 13.6594 7.11163C13.2004 6.80495 12.8426 6.36906 12.6314 5.85907C12.4202 5.34908 12.3649 4.7879 12.4726 4.2465C12.5803 3.7051 12.8461 3.20779 13.2364 2.81747C13.6267 2.42714 14.124 2.16132 14.6654 2.05363C15.2069 1.94594 15.768 2.00121 16.278 2.21245C16.788 2.4237 17.2239 2.78143 17.5306 3.2404C17.8373 3.69938 18.0009 4.23899 18.0009 4.791C18.0007 5.53114 17.7065 6.24089 17.1832 6.76424C16.6598 7.2876 15.9501 7.58174 15.2099 7.582ZM15.2099 3.117C14.8786 3.1168 14.5546 3.2149 14.279 3.39887C14.0034 3.58285 13.7885 3.84444 13.6616 4.15054C13.5347 4.45665 13.5015 4.79352 13.5661 5.11853C13.6307 5.44354 13.7902 5.74209 14.0245 5.9764C14.2589 6.21072 14.5574 6.37027 14.8824 6.43486C15.2074 6.49946 15.5443 6.46621 15.8504 6.33931C16.1565 6.21241 16.4181 5.99756 16.6021 5.72196C16.7861 5.44635 16.8841 5.12237 16.8839 4.791C16.8834 4.3471 16.7069 3.92151 16.3931 3.60753C16.0793 3.29355 15.6538 3.1178 15.2099 3.117Z" fill="#FF3A29"/>
<path d="M10 18C7.87827 18 5.84344 17.1572 4.34315 15.6569C2.84285 14.1566 2 12.1218 2 10C2 7.8783 2.84285 5.84347 4.34315 4.34317C5.84344 2.84288 7.87827 2.00003 10 2.00003C10.5426 1.99855 11.0838 2.05351 11.615 2.16403C11.6873 2.17814 11.7561 2.20663 11.8173 2.2478C11.8784 2.28897 11.9307 2.34199 11.9709 2.40371C12.0112 2.46544 12.0387 2.53462 12.0518 2.60716C12.0648 2.6797 12.0632 2.75413 12.047 2.82603C12.0333 2.8979 12.0054 2.9663 11.9648 3.02718C11.9242 3.08805 11.8719 3.14018 11.8108 3.18045C11.7497 3.22073 11.6812 3.24835 11.6093 3.26168C11.5373 3.275 11.4634 3.27376 11.392 3.25803C10.9342 3.16218 10.4677 3.11458 10 3.11603C8.63852 3.11623 7.30766 3.52013 6.17573 4.27668C5.04379 5.03322 4.16161 6.10843 3.64073 7.36633C3.11985 8.62423 2.98366 10.0083 3.2494 11.3436C3.51513 12.6789 4.17085 13.9055 5.13363 14.8681C6.09642 15.8307 7.32303 16.4863 8.65837 16.7518C9.9937 17.0174 11.3778 16.881 12.6356 16.3599C13.8935 15.8389 14.9685 14.9565 15.7249 13.8245C16.4813 12.6924 16.885 11.3615 16.885 10C16.8854 9.5404 16.8405 9.08186 16.751 8.63103C16.7287 8.48861 16.7624 8.34309 16.845 8.22496C16.9277 8.10683 17.0528 8.02526 17.1942 7.99734C17.3356 7.96941 17.4824 7.99731 17.6037 8.07517C17.725 8.15303 17.8115 8.27483 17.845 8.41503C17.9489 8.93965 18.0008 9.47323 18 10.008C17.9963 12.1279 17.152 14.1597 15.6523 15.658C14.1526 17.1562 12.1199 17.9984 10 18Z" fill="#FF3A29"/>
</svg>
