<svg width="24" height="24" viewBox="0 0 24 24" fill="none" xmlns="http://www.w3.org/2000/svg">
<g clip-path="url(#clip0_136_4405)">
<path d="M8.53383 20.9997H8.423C7.36045 20.975 6.35079 20.5171 5.61551 19.7266C4.88023 18.9361 4.47935 17.8774 4.50082 16.7828V7.06887C4.52995 5.98794 4.96517 4.96083 5.71481 4.20385C6.46446 3.44686 7.47003 3.01908 8.51976 3.01057H14.0376C14.1147 2.99648 14.1936 2.99648 14.2707 3.01057H14.3841C14.4729 3.01077 14.5608 3.02931 14.6426 3.0651C14.7243 3.1009 14.7982 3.15322 14.86 3.21897L19.3161 8.00031C19.4331 8.12726 19.4986 8.2955 19.4991 8.47056V16.7973C19.5099 17.8862 19.1061 18.936 18.3741 19.7216C17.6422 20.5073 16.6405 20.9661 15.5839 20.9997H8.53383ZM5.82024 7.08517V16.7973C5.80417 17.5331 6.07187 18.2453 6.56468 18.7781C7.05749 19.3109 7.73523 19.6207 8.44939 19.6397H15.5593C16.2698 19.6139 16.9422 19.3022 17.4322 18.7715C17.9221 18.2407 18.1904 17.5333 18.1796 16.801V9.3277H16.4125C15.6385 9.32435 14.8972 9.00564 14.3505 8.44117C13.8038 7.8767 13.4962 7.11233 13.4948 6.31501V4.36968H8.5224C7.81817 4.37335 7.14283 4.65853 6.63874 5.16511C6.13466 5.67168 5.8412 6.36007 5.82024 7.08517ZM14.8134 6.31501C14.8143 6.75257 14.9833 7.17197 15.2834 7.48162C15.5835 7.79127 15.9904 7.96601 16.4151 7.96769H17.4575L14.8134 5.13169V6.31501ZM11.002 15.6394V11.8112L10.0661 12.7798C9.94187 12.9038 9.77531 12.9726 9.60233 12.9713C9.42935 12.97 9.26378 12.8987 9.14129 12.7729C9.0188 12.6471 8.94918 12.4768 8.94744 12.2986C8.94569 12.1204 9.01196 11.9486 9.13197 11.8203L11.1938 9.6856C11.2151 9.66361 11.2381 9.64332 11.2624 9.62489C11.381 9.53178 11.5268 9.48294 11.676 9.4864C11.8251 9.48986 11.9686 9.5454 12.0831 9.64392C12.0987 9.65702 12.1137 9.67093 12.1279 9.6856L14.1915 11.8203C14.3114 11.9487 14.3775 12.1206 14.3756 12.2988C14.3737 12.477 14.304 12.6473 14.1813 12.773C14.0587 12.8987 13.8931 12.9697 13.7201 12.9709C13.5471 12.972 13.3806 12.903 13.2565 12.7789L12.3206 11.8103V15.6394C12.3206 15.8196 12.2511 15.9925 12.1273 16.1199C12.0036 16.2473 11.8358 16.3189 11.6609 16.3189C11.4859 16.3189 11.3181 16.2473 11.1944 16.1199C11.0706 15.9925 11.002 15.8196 11.002 15.6394Z" fill="#BC9962"/>
</g>
<defs>
<clipPath id="clip0_136_4405">
<rect width="15" height="18" fill="white" transform="translate(4.5 3)"/>
</clipPath>
</defs>
</svg>
