<svg width="18" height="18" viewBox="0 0 18 18" fill="none" xmlns="http://www.w3.org/2000/svg">
<path d="M12.7774 0H5.23162C1.95398 0 0 1.953 0 5.229V12.762C0 16.047 1.95398 18 5.23162 18H12.7684C16.046 18 18 16.047 18 12.771V5.229C18.009 1.953 16.055 0 12.7774 0ZM14.8844 9.477L11.0215 13.338C10.9589 13.4008 10.8846 13.4506 10.8027 13.4846C10.7208 13.5186 10.633 13.5362 10.5443 13.5362C10.4556 13.5362 10.3678 13.5186 10.2859 13.4846C10.204 13.4506 10.1296 13.4008 10.067 13.338C9.94144 13.211 9.871 13.0396 9.871 12.861C9.871 12.6824 9.94144 12.511 10.067 12.384L12.7774 9.675H3.6018C3.42269 9.675 3.25092 9.60388 3.12426 9.4773C2.99761 9.35071 2.92646 9.17902 2.92646 9C2.92646 8.82098 2.99761 8.64929 3.12426 8.5227C3.25092 8.39612 3.42269 8.325 3.6018 8.325H12.7774L10.067 5.616C10.0007 5.5542 9.94746 5.47968 9.91055 5.39688C9.87364 5.31409 9.85379 5.2247 9.85219 5.13407C9.85059 5.04344 9.86727 4.95341 9.90124 4.86936C9.93521 4.78531 9.98576 4.70896 10.0499 4.64487C10.114 4.58077 10.1904 4.53024 10.2745 4.49629C10.3586 4.46234 10.4487 4.44567 10.5393 4.44727C10.63 4.44887 10.7194 4.4687 10.8023 4.5056C10.8851 4.54249 10.9597 4.59568 11.0215 4.662L14.8844 8.523C14.9473 8.58555 14.9971 8.65988 15.0312 8.74174C15.0652 8.8236 15.0827 8.91136 15.0827 9C15.0827 9.08864 15.0652 9.1764 15.0312 9.25826C14.9971 9.34012 14.9473 9.41445 14.8844 9.477Z" fill="#BC9962"/>
</svg>
