<svg width="24" height="24" viewBox="0 0 24 24" fill="none" xmlns="http://www.w3.org/2000/svg">
<path d="M10.1592 20.929C10.713 20.8119 14.0872 20.8119 14.641 20.929C15.1144 21.0383 15.6263 21.2938 15.6263 21.8516C15.5988 22.3827 15.2872 22.8535 14.8568 23.1525C14.2986 23.5876 13.6436 23.8631 12.9588 23.9624C12.5801 24.0115 12.208 24.0126 11.8425 23.9624C11.1567 23.8631 10.5016 23.5876 9.94457 23.1514C9.51302 22.8535 9.20147 22.3827 9.17394 21.8516C9.17394 21.2938 9.68586 21.0383 10.1592 20.929ZM12.4655 1.8457C14.7697 1.8457 17.1234 2.93902 18.5216 4.75304C19.4287 5.9211 19.8448 7.08805 19.8448 8.90207V9.37398C19.8448 10.7652 20.2125 11.5852 21.0217 12.5301C21.6349 13.2263 21.8309 14.1199 21.8309 15.0894C21.8309 16.0577 21.5127 16.977 20.8753 17.7234C20.0408 18.6181 18.8639 19.1893 17.6629 19.2886C15.9223 19.437 14.1807 19.5619 12.416 19.5619C10.6501 19.5619 8.90962 19.4872 7.1691 19.2886C5.96692 19.1893 4.79006 18.6181 3.95668 17.7234C3.31926 16.977 3 16.0577 3 15.0894C3 14.1199 3.19706 13.2263 3.80916 12.5301C4.64364 11.5852 4.98712 10.7652 4.98712 9.37398V8.90207C4.98712 7.03896 5.4517 5.8207 6.40838 4.62809C7.83074 2.88882 10.1107 1.8457 12.3664 1.8457H12.4655Z" fill="#323A45"/>
</svg>
