<svg width="24" height="24" viewBox="0 0 24 24" fill="none" xmlns="http://www.w3.org/2000/svg">
<path d="M8 5.75C7.80149 5.74869 7.61149 5.66925 7.47112 5.52888C7.33075 5.38851 7.25131 5.19851 7.25 5V2C7.25131 1.80149 7.33075 1.61149 7.47112 1.47112C7.61149 1.33075 7.80149 1.25131 8 1.25C8.19851 1.25131 8.38851 1.33075 8.52888 1.47112C8.66925 1.61149 8.74869 1.80149 8.75 2V5C8.74869 5.19851 8.66925 5.38851 8.52888 5.52888C8.38851 5.66925 8.19851 5.74869 8 5.75Z" fill="#BC9962"/>
<path d="M16 5.75C15.8015 5.74869 15.6115 5.66925 15.4711 5.52888C15.3307 5.38851 15.2513 5.19851 15.25 5V2C15.2513 1.80149 15.3307 1.61149 15.4711 1.47112C15.6115 1.33075 15.8015 1.25131 16 1.25C16.1985 1.25131 16.3885 1.33075 16.5289 1.47112C16.6693 1.61149 16.7487 1.80149 16.75 2V5C16.7487 5.19851 16.6693 5.38851 16.5289 5.52888C16.3885 5.66925 16.1985 5.74869 16 5.75Z" fill="#BC9962"/>
<path d="M20.5 9.83984H3.5C3.30149 9.83853 3.11149 9.7591 2.97112 9.61873C2.83075 9.47836 2.75131 9.28835 2.75 9.08984C2.75131 8.89134 2.83075 8.70133 2.97112 8.56096C3.11149 8.42059 3.30149 8.34115 3.5 8.33984H20.5C20.6985 8.34115 20.8885 8.42059 21.0289 8.56096C21.1693 8.70133 21.2487 8.89134 21.25 9.08984C21.2487 9.28835 21.1693 9.47836 21.0289 9.61873C20.8885 9.7591 20.6985 9.83853 20.5 9.83984Z" fill="#BC9962"/>
<path d="M16 22.75H8C4.35 22.75 2.25 20.65 2.25 17V8.5C2.25 4.85 4.35 2.75 8 2.75H16C19.65 2.75 21.75 4.85 21.75 8.5V17C21.75 20.65 19.65 22.75 16 22.75ZM8 4.25C5.14 4.25 3.75 5.64 3.75 8.5V17C3.75 19.86 5.14 21.25 8 21.25H16C18.86 21.25 20.25 19.86 20.25 17V8.5C20.25 5.64 18.86 4.25 16 4.25H8Z" fill="#BC9962"/>
<path d="M8.5 14.5004C8.36932 14.4988 8.24022 14.4716 8.12 14.4204C7.99886 14.3696 7.88726 14.2986 7.79 14.2104C7.70175 14.1131 7.63073 14.0015 7.58 13.8804C7.52876 13.7602 7.50158 13.6311 7.5 13.5004C7.50388 13.2356 7.60743 12.9821 7.79 12.7904C7.88726 12.7021 7.99886 12.6311 8.12 12.5804C8.30237 12.5005 8.50514 12.4795 8.7 12.5204C8.76266 12.5313 8.82334 12.5515 8.88 12.5804C8.94374 12.6022 9.00427 12.6325 9.06 12.6704L9.21 12.7904C9.25301 12.8379 9.29309 12.888 9.33 12.9404C9.36788 12.9961 9.39814 13.0566 9.42 13.1204C9.44889 13.177 9.46911 13.2377 9.48 13.3004C9.49161 13.3665 9.49829 13.4333 9.5 13.5004C9.49612 13.7651 9.39257 14.0186 9.21 14.2104C9.01826 14.3929 8.76473 14.4965 8.5 14.5004Z" fill="#BC9962"/>
<path d="M12 14.5011C11.7353 14.4973 11.4817 14.3937 11.29 14.2111L11.17 14.0611C11.1321 14.0054 11.1019 13.9449 11.08 13.8811C11.0511 13.8245 11.0309 13.7638 11.02 13.7011C11.0084 13.6351 11.0017 13.5682 11 13.5011C11.0014 13.3701 11.0286 13.2407 11.08 13.1201C11.1307 12.999 11.2017 12.8874 11.29 12.7901C11.4306 12.6514 11.6092 12.5574 11.8032 12.52C11.9972 12.4826 12.1979 12.5036 12.38 12.5801C12.5024 12.6285 12.6144 12.6997 12.71 12.7901C12.8928 12.9821 12.9964 13.2361 13 13.5011C12.9983 13.5682 12.9916 13.6351 12.98 13.7011C12.9691 13.7638 12.9489 13.8245 12.92 13.8811C12.8981 13.9449 12.8679 14.0054 12.83 14.0611L12.71 14.2111C12.6144 14.3015 12.5024 14.3728 12.38 14.4211C12.2598 14.4724 12.1307 14.4996 12 14.5011Z" fill="#BC9962"/>
<path d="M8.5 18.0011C8.36932 17.9996 8.24022 17.9724 8.12 17.9211C7.99886 17.8704 7.88726 17.7994 7.79 17.7111C7.6996 17.6155 7.62832 17.5035 7.58 17.3811C7.52876 17.2609 7.50158 17.1318 7.5 17.0011C7.50363 16.7361 7.6072 16.4821 7.79 16.2901C7.88726 16.2019 7.99886 16.1309 8.12 16.0801C8.30211 16.0036 8.50282 15.9826 8.69681 16.02C8.8908 16.0574 9.06938 16.1514 9.21 16.2901C9.25301 16.3377 9.29309 16.3877 9.33 16.4401C9.36788 16.4959 9.39814 16.5564 9.42 16.6201C9.45045 16.6797 9.47073 16.7439 9.48 16.8101C9.49165 16.8732 9.49834 16.937 9.5 17.0011C9.49612 17.2659 9.39257 17.5194 9.21 17.7111C9.01826 17.8937 8.76473 17.9973 8.5 18.0011Z" fill="#BC9962"/>
</svg>
