<svg width="24" height="24" viewBox="0 0 24 24" fill="none" xmlns="http://www.w3.org/2000/svg">
<g clip-path="url(#clip0_274_914)">
<path d="M12 22.75C9.87386 22.75 7.79545 22.1195 6.02762 20.9383C4.2598 19.7571 2.88194 18.0782 2.0683 16.1139C1.25466 14.1495 1.04177 11.9881 1.45656 9.90278C1.87135 7.81749 2.89519 5.90202 4.39861 4.39861C5.90202 2.89519 7.81749 1.87135 9.90278 1.45656C11.9881 1.04177 14.1495 1.25466 16.1139 2.0683C18.0782 2.88194 19.7571 4.2598 20.9383 6.02762C22.1195 7.79545 22.75 9.87386 22.75 12C22.7476 14.8504 21.6143 17.5833 19.5988 19.5988C17.5833 21.6143 14.8504 22.7476 12 22.75ZM12 2.75C10.1705 2.75 8.38213 3.29251 6.86098 4.30891C5.33983 5.32531 4.15423 6.76997 3.45412 8.46018C2.75401 10.1504 2.57083 12.0103 2.92774 13.8046C3.28465 15.5989 4.16563 17.2471 5.45927 18.5407C6.7529 19.8344 8.40109 20.7154 10.1954 21.0723C11.9897 21.4292 13.8496 21.246 15.5398 20.5459C17.23 19.8458 18.6747 18.6602 19.6911 17.139C20.7075 15.6179 21.25 13.8295 21.25 12C21.2471 9.54765 20.2716 7.19656 18.5375 5.46248C16.8034 3.7284 14.4524 2.75292 12 2.75Z" fill="#BC9962"/>
<path d="M15.7096 15.9298C15.5748 15.9322 15.4424 15.8938 15.3296 15.8198L12.2296 13.9698C11.8336 13.7124 11.5052 13.3638 11.272 12.9531C11.0389 12.5424 10.9077 12.0817 10.8896 11.6098V7.50977C10.891 7.31126 10.9704 7.12125 11.1108 6.98088C11.2511 6.84051 11.4411 6.76108 11.6396 6.75977C11.8382 6.76108 12.0282 6.84051 12.1685 6.98088C12.3089 7.12125 12.3883 7.31126 12.3896 7.50977V11.6098C12.4084 11.8215 12.4726 12.0267 12.5779 12.2113C12.6832 12.396 12.827 12.5558 12.9996 12.6798L16.0996 14.5298C16.1846 14.5801 16.2587 14.6468 16.3178 14.7259C16.3768 14.805 16.4197 14.895 16.4438 14.9907C16.468 15.0864 16.473 15.186 16.4586 15.2836C16.4441 15.3813 16.4105 15.4751 16.3596 15.5598C16.2917 15.6716 16.1963 15.7642 16.0826 15.829C15.9689 15.8937 15.8405 15.9284 15.7096 15.9298Z" fill="#BC9962"/>
</g>
<defs>
<clipPath id="clip0_274_914">
<rect width="24" height="24" fill="white"/>
</clipPath>
</defs>
</svg>
