<svg width="24" height="24" viewBox="0 0 24 24" fill="none" xmlns="http://www.w3.org/2000/svg">
<path d="M5.99994 22.7504C5.68367 22.7489 5.36826 22.7174 5.05794 22.6564L5.03094 22.6504C4.88994 22.6174 4.74494 22.5844 4.58894 22.5364C4.42452 22.487 4.26294 22.4286 4.10494 22.3614C4.07066 22.3502 4.03723 22.3365 4.00494 22.3204C3.68195 22.1616 3.3746 21.9728 3.08694 21.7564L3.04194 21.7194C2.89001 21.604 2.74816 21.4759 2.61794 21.3364C2.50394 21.2124 2.38794 21.0854 2.26794 20.9444L2.24294 20.9134C2.02687 20.6273 1.83805 20.3217 1.67894 20.0004C1.66255 19.9681 1.64851 19.9347 1.63694 19.9004C1.57094 19.7424 1.51894 19.5854 1.46794 19.4324L1.46294 19.4154C1.41494 19.2594 1.38194 19.1154 1.34894 18.9734L1.34294 18.9464C1.28201 18.6348 1.25086 18.318 1.24994 18.0004V8.57042C1.24994 8.37151 1.32895 8.18075 1.46961 8.04009C1.61026 7.89944 1.80102 7.82042 1.99994 7.82042C2.19885 7.82042 2.38961 7.89944 2.53027 8.04009C2.67092 8.18075 2.74994 8.37151 2.74994 8.57042V18.0004C2.75124 18.2169 2.77266 18.4329 2.81394 18.6454C2.83994 18.7574 2.86494 18.8634 2.89394 18.9614C2.92294 19.0594 2.96494 19.1734 3.00094 19.2664C3.01972 19.2985 3.0361 19.3319 3.04994 19.3664C3.0586 19.3871 3.06627 19.4081 3.07294 19.4294C3.17528 19.6266 3.29333 19.8152 3.42594 19.9934C3.52594 20.1064 3.61894 20.2124 3.72594 20.3244C3.80723 20.4097 3.89591 20.4877 3.99094 20.5574L4.02694 20.5864C4.20111 20.7145 4.385 20.8289 4.57694 20.9284C4.59827 20.9351 4.61927 20.9428 4.63994 20.9514C4.67452 20.9662 4.70795 20.9836 4.73994 21.0034C4.82494 21.0384 4.91894 21.0694 5.03994 21.1034C5.13994 21.1334 5.24594 21.1584 5.36094 21.1854C5.57149 21.2266 5.78539 21.2484 5.99994 21.2504C6.3304 21.2521 6.65908 21.2018 6.97394 21.1014C7.07394 21.0664 7.15894 21.0334 7.23993 21.0014L7.27193 20.9874C7.55535 20.8752 7.81798 20.7164 8.04893 20.5174L8.07994 20.4924C8.15355 20.4339 8.22367 20.3711 8.28994 20.3044L8.32594 20.2684C8.91888 19.6625 9.25062 18.8482 9.24994 18.0004V4.50042C9.26897 4.26578 9.23677 4.02981 9.15555 3.80885C9.07434 3.58789 8.94606 3.38723 8.77959 3.22076C8.61313 3.0543 8.41247 2.92602 8.19151 2.84481C7.97055 2.76359 7.73458 2.73139 7.49994 2.75042H4.49994C4.26529 2.73139 4.02932 2.76359 3.80836 2.84481C3.5874 2.92602 3.38674 3.0543 3.22028 3.22076C3.05381 3.38723 2.92553 3.58789 2.84432 3.80885C2.7631 4.02981 2.7309 4.26578 2.74994 4.50042C2.74994 4.69934 2.67092 4.8901 2.53027 5.03075C2.38961 5.17141 2.19885 5.25042 1.99994 5.25042C1.80102 5.25042 1.61026 5.17141 1.46961 5.03075C1.32895 4.8901 1.24994 4.69934 1.24994 4.50042C1.22985 4.0683 1.30017 3.63673 1.45639 3.23333C1.61261 2.82993 1.8513 2.46357 2.15719 2.15768C2.46308 1.85178 2.82944 1.6131 3.23284 1.45688C3.63624 1.30065 4.06781 1.23034 4.49994 1.25042H7.49994C7.93206 1.23034 8.36363 1.30065 8.76703 1.45688C9.17043 1.6131 9.53679 1.85178 9.84268 2.15768C10.1486 2.46357 10.3873 2.82993 10.5435 3.23333C10.6997 3.63673 10.77 4.0683 10.7499 4.50042V18.0004C10.7509 19.2389 10.2662 20.4284 9.39994 21.3134L9.39294 21.3204L9.35294 21.3604C9.24736 21.4667 9.13585 21.5668 9.01894 21.6604C8.66956 21.9596 8.27368 22.1998 7.84694 22.3714C7.71594 22.4304 7.58994 22.4714 7.47894 22.5164L7.45994 22.5234C6.98842 22.6762 6.49557 22.7528 5.99994 22.7504Z" fill="#BC9962"/>
<path d="M15.66 13.2504H19.5C19.9321 13.2303 20.3637 13.3007 20.7671 13.4569C21.1705 13.6131 21.5369 13.8518 21.8427 14.1577C22.1486 14.4636 22.3873 14.8299 22.5435 15.2333C22.6998 15.6367 22.7701 16.0683 22.75 16.5004V19.5004C22.7701 19.9326 22.6998 20.3641 22.5435 20.7675C22.3873 21.1709 22.1486 21.5373 21.8427 21.8432C21.5369 22.1491 21.1705 22.3878 20.7671 22.544C20.3637 22.7002 19.9321 22.7705 19.5 22.7504H6C5.80109 22.7504 5.61032 22.6714 5.46967 22.5308C5.32902 22.3901 5.25 22.1993 5.25 22.0004C5.25 21.8015 5.32902 21.6107 5.46967 21.4701C5.61032 21.3294 5.80109 21.2504 6 21.2504C6.33052 21.2518 6.6592 21.2012 6.974 21.1004C7.074 21.0654 7.159 21.0324 7.24 21.0004L7.272 20.9864C7.55541 20.8742 7.81804 20.7154 8.049 20.5164L8.08 20.4914C8.15371 20.432 8.22383 20.3682 8.29 20.3004L8.33 20.2604L15.13 13.4694C15.2707 13.3291 15.4613 13.2503 15.66 13.2504ZM19.5 21.2504C19.7346 21.2695 19.9706 21.2373 20.1916 21.156C20.4125 21.0748 20.6132 20.9465 20.7797 20.7801C20.9461 20.6136 21.0744 20.413 21.1556 20.192C21.2368 19.971 21.269 19.7351 21.25 19.5004V16.5004C21.269 16.2658 21.2368 16.0298 21.1556 15.8088C21.0744 15.5879 20.9461 15.3872 20.7797 15.2208C20.6132 15.0543 20.4125 14.926 20.1916 14.8448C19.9706 14.7636 19.7346 14.7314 19.5 14.7504H15.97L9.46 21.2504H19.5Z" fill="#BC9962"/>
<path d="M4.80993 21.8204C4.18832 21.6345 3.62405 21.2938 3.16993 20.8304C2.70651 20.3763 2.36589 19.812 2.17993 19.1904C2.37406 19.8082 2.71457 20.37 3.17248 20.8279C3.63038 21.2858 4.19214 21.6263 4.80993 21.8204Z" stroke="#BC9962" stroke-width="1.5" stroke-linecap="round" stroke-linejoin="round"/>
<path d="M14.48 4.08496C14.9114 4.09409 15.3367 4.18847 15.7314 4.36267C16.1262 4.53687 16.4825 4.78745 16.78 5.09996L18.9 7.21996C19.22 7.5116 19.4756 7.86678 19.6505 8.26282C19.8254 8.65886 19.9157 9.08703 19.9157 9.51996C19.9157 9.95289 19.8254 10.3811 19.6505 10.7771C19.4756 11.1731 19.22 11.5283 18.9 11.82L16.19 14.535L9.39002 21.325C9.24952 21.4645 9.05954 21.5428 8.86152 21.5428C8.66351 21.5428 8.47352 21.4645 8.33302 21.325C8.19201 21.1859 8.11172 20.9967 8.10966 20.7987C8.1076 20.6007 8.18394 20.4099 8.32202 20.268C8.91644 19.6627 9.24964 18.8483 9.25002 18V8.33496C9.2502 8.13612 9.32933 7.94548 9.47002 7.80496L12.18 5.09996C12.4775 4.78745 12.8339 4.53687 13.2286 4.36267C13.6234 4.18847 14.0487 4.09409 14.48 4.08496ZM10.75 17.843L15.13 13.469L17.84 10.759C18.0197 10.6062 18.1639 10.4163 18.2629 10.2022C18.3618 9.98822 18.4131 9.75525 18.4131 9.51946C18.4131 9.28367 18.3618 9.0507 18.2629 8.83668C18.1639 8.62266 18.0197 8.4327 17.84 8.27996L15.72 6.15996C15.5619 5.98649 15.3709 5.84629 15.1579 5.74756C14.945 5.64882 14.7146 5.59355 14.48 5.58496C14.2455 5.59355 14.015 5.64882 13.8021 5.74756C13.5892 5.84629 13.3981 5.98649 13.24 6.15996L10.75 8.65096V17.843Z" fill="#BC9962"/>
<path d="M6 16.25C6.34612 16.25 6.68446 16.3526 6.97225 16.5449C7.26003 16.7372 7.48434 17.0105 7.61679 17.3303C7.74924 17.6501 7.7839 18.0019 7.71637 18.3414C7.64885 18.6809 7.48218 18.9927 7.23744 19.2374C6.99269 19.4822 6.68087 19.6488 6.34141 19.7164C6.00194 19.7839 5.65007 19.7492 5.3303 19.6168C5.01053 19.4843 4.73722 19.26 4.54493 18.9722C4.35264 18.6845 4.25 18.3461 4.25 18C4.25053 17.536 4.43507 17.0912 4.76315 16.7631C5.09122 16.4351 5.53603 16.2505 6 16.25ZM6 18.25C6.04945 18.25 6.09778 18.2353 6.13889 18.2079C6.18 18.1804 6.21205 18.1414 6.23097 18.0957C6.24989 18.05 6.25484 17.9997 6.2452 17.9512C6.23555 17.9027 6.21174 17.8582 6.17678 17.8232C6.14181 17.7883 6.09727 17.7644 6.04877 17.7548C6.00028 17.7452 5.95001 17.7501 5.90433 17.769C5.85865 17.788 5.8196 17.82 5.79213 17.8611C5.76466 17.9022 5.75 17.9506 5.75 18C5.75 18.0663 5.77634 18.1299 5.82322 18.1768C5.87011 18.2237 5.9337 18.25 6 18.25Z" fill="#BC9962"/>
</svg>
