<svg width="30" height="30" viewBox="0 0 30 30" fill="none" xmlns="http://www.w3.org/2000/svg">
<path d="M15 30C12.0333 30 9.13319 29.1203 6.66645 27.4721C4.19972 25.8238 2.27713 23.4811 1.14181 20.7403C0.00649918 17.9994 -0.290551 14.9834 0.288228 12.0737C0.867006 9.16394 2.29562 6.49119 4.3934 4.3934C6.49119 2.29562 9.16394 0.867006 12.0737 0.288228C14.9834 -0.290551 17.9994 0.00649918 20.7403 1.14181C23.4811 2.27713 25.8238 4.19972 27.4721 6.66645C29.1203 9.13319 30 12.0333 30 15C29.9967 18.9772 28.4153 22.7906 25.6029 25.6029C22.7906 28.4153 18.9772 29.9967 15 30ZM15 2.09303C12.4472 2.09303 9.95182 2.85001 7.82927 4.26825C5.70673 5.68648 4.05241 7.70228 3.07552 10.0607C2.09862 12.4192 1.84302 15.0143 2.34103 17.518C2.83905 20.0217 4.06832 22.3215 5.8734 24.1266C7.67847 25.9317 9.97827 27.161 12.482 27.659C14.9857 28.157 17.5809 27.9014 19.9393 26.9245C22.2977 25.9476 24.3135 24.2933 25.7318 22.1707C27.15 20.0482 27.907 17.5528 27.907 15C27.9029 11.5781 26.5418 8.29753 24.1221 5.87788C21.7025 3.45823 18.4219 2.09709 15 2.09303Z" fill="#BC9962"/>
<path d="M13.0186 19.9971C12.8812 19.9971 12.7452 19.9699 12.6183 19.9172C12.4914 19.8646 12.3762 19.7874 12.2791 19.6901L8.33027 15.7399C8.14542 15.5415 8.04478 15.2791 8.04956 15.008C8.05435 14.7369 8.16418 14.4782 8.35592 14.2865C8.54766 14.0947 8.80633 13.9849 9.07745 13.9801C9.34857 13.9753 9.61096 14.076 9.80934 14.2608L13.0186 17.4701L20.1907 10.2994C20.3891 10.1146 20.6515 10.0139 20.9226 10.0187C21.1937 10.0235 21.4524 10.1333 21.6442 10.3251C21.8359 10.5168 21.9457 10.7755 21.9505 11.0466C21.9553 11.3177 21.8547 11.5801 21.6698 11.7785L13.7582 19.6901C13.6611 19.7874 13.5459 19.8646 13.419 19.9172C13.2921 19.9699 13.156 19.9971 13.0186 19.9971Z" fill="#BC9962"/>
</svg>
