<svg width="17" height="18" viewBox="0 0 17 18" fill="none" xmlns="http://www.w3.org/2000/svg">
<g clip-path="url(#clip0_12_4168)">
<path d="M12.0163 18.0002H4.9837C4.31914 18.039 3.65391 17.936 3.03176 17.6978C2.40962 17.4596 1.84464 17.0917 1.37393 16.6182C0.903216 16.1447 0.537435 15.5764 0.300641 14.9506C0.063847 14.3248 -0.0386048 13.6556 1.06487e-05 12.9872V5.01319C-0.0386048 4.34471 0.063847 3.67557 0.300641 3.04976C0.537435 2.42396 0.903216 1.85563 1.37393 1.38215C1.84464 0.90867 2.40962 0.540765 3.03176 0.302578C3.65391 0.0643913 4.31914 -0.0386632 4.9837 0.000179457H8.77738C9.01468 0.000179457 9.24227 0.0950137 9.41007 0.263796C9.57786 0.432579 9.67211 0.661485 9.67211 0.900179V3.50119C9.6733 4.52722 10.079 5.51084 10.8003 6.23635C11.5215 6.96186 12.4994 7.36999 13.5195 7.37118H16.1053C16.3426 7.37118 16.5701 7.46602 16.7379 7.6348C16.9057 7.80358 17 8.03249 17 8.27118V12.9872C17.0386 13.6556 16.9362 14.3248 16.6994 14.9506C16.4626 15.5764 16.0968 16.1447 15.6261 16.6182C15.1554 17.0917 14.5904 17.4596 13.9683 17.6978C13.3461 17.936 12.6809 18.039 12.0163 18.0002ZM4.02633 11.4752C3.84892 11.4775 3.67946 11.5495 3.55408 11.6758C3.42871 11.8021 3.35736 11.9726 3.35527 12.1511C3.35759 12.3294 3.42904 12.4997 3.55438 12.6258C3.67973 12.7519 3.84907 12.8237 4.02633 12.8261H5.6458V14.4002C5.64604 14.5793 5.71693 14.751 5.84291 14.8775C5.9689 15.0041 6.1397 15.0752 6.31775 15.0752C6.49501 15.0728 6.66435 15.001 6.78969 14.8749C6.91504 14.7488 6.98649 14.5785 6.9888 14.4002V12.8252H8.50091C8.67816 12.8228 8.84751 12.751 8.97285 12.6249C9.0982 12.4988 9.16965 12.3285 9.17196 12.1502C9.16988 11.9717 9.09853 11.8011 8.97316 11.6749C8.84778 11.5486 8.67832 11.4766 8.50091 11.4743H6.9888V9.90018C6.98857 9.72123 6.91778 9.54969 6.79199 9.42315C6.66619 9.29662 6.49565 9.22542 6.31775 9.22518C6.1397 9.22518 5.9689 9.29626 5.84291 9.42282C5.71693 9.54939 5.64604 9.72108 5.6458 9.90018V11.4752H4.02633Z" fill="white"/>
<path d="M13.3585 6.12953C14.2085 6.13853 15.3895 6.13853 16.4006 6.13853C16.5128 6.14157 16.6233 6.11091 16.7181 6.05048C16.8128 5.99004 16.8875 5.90257 16.9327 5.79923C16.9778 5.69589 16.9913 5.58136 16.9714 5.47027C16.9515 5.35918 16.8992 5.25657 16.8211 5.17553C15.5327 3.87053 13.2243 1.52153 11.9001 0.189533C11.8196 0.107256 11.7169 0.0505839 11.6047 0.0265634C11.4925 0.00254284 11.3757 0.012234 11.2689 0.0544317C11.1621 0.0966294 11.07 0.169472 11.0041 0.2639C10.9381 0.358328 10.9012 0.470175 10.8979 0.585533V3.72653C10.9111 4.3722 11.1768 4.9866 11.6375 5.43646C12.0981 5.88632 12.7165 6.13535 13.3585 6.12953Z" fill="white"/>
</g>
<defs>
<clipPath id="clip0_12_4168">
<rect width="17" height="18" fill="white"/>
</clipPath>
</defs>
</svg>
