<svg width="20" height="20" viewBox="0 0 20 20" fill="none" xmlns="http://www.w3.org/2000/svg">
<path opacity="0.25" fill-rule="evenodd" clip-rule="evenodd" d="M9.99999 3.60023C9.03529 3.60011 8.08306 3.81808 7.21447 4.23784C6.34588 4.6576 5.58341 5.26829 4.98409 6.02424C4.38477 6.78019 3.96413 7.66185 3.75356 8.60328C3.54299 9.54472 3.54796 10.5216 3.76812 11.4608C3.98828 12.4001 4.41793 13.2774 5.02493 14.0272C5.63192 14.777 6.40057 15.3798 7.2734 15.7907C8.14622 16.2016 9.10062 16.4098 10.0653 16.3999C11.0299 16.3899 11.9798 16.162 12.844 15.7332C12.9381 15.6865 13.0405 15.6587 13.1453 15.6515C13.2501 15.6444 13.3553 15.6579 13.4549 15.6914C13.5545 15.7248 13.6465 15.7776 13.7257 15.8466C13.8049 15.9157 13.8697 15.9996 13.9165 16.0937C13.9632 16.1878 13.991 16.2902 13.9982 16.395C14.0054 16.4998 13.9918 16.6051 13.9584 16.7046C13.9249 16.8042 13.8721 16.8963 13.8031 16.9755C13.7341 17.0547 13.6501 17.1195 13.556 17.1662C11.9978 17.9394 10.2302 18.1837 8.52071 17.862C6.81127 17.5404 5.25322 16.6704 4.08263 15.3838C2.91204 14.0972 2.1927 12.4641 2.03356 10.7319C1.87442 8.99978 2.28415 7.26296 3.20071 5.78459C4.11726 4.30623 5.49069 3.16687 7.11291 2.53913C8.73512 1.91139 10.5177 1.82947 12.1907 2.30579C13.8636 2.78211 15.3358 3.79071 16.384 5.17879C17.4323 6.56687 17.9996 8.25879 18 9.99823V10.0052C18.0062 10.6829 17.9081 11.3575 17.709 12.0052C17.5545 12.5076 17.2799 12.9648 16.909 13.3372C16.4493 13.7755 15.8351 14.0145 15.2 14.0022C15.0949 14.0022 14.9909 13.9815 14.8939 13.9413C14.7968 13.9011 14.7086 13.8422 14.6343 13.7679C14.56 13.6936 14.5011 13.6054 14.4609 13.5084C14.4207 13.4113 14.4 13.3073 14.4 13.2022C14.4 13.0972 14.4207 12.9931 14.4609 12.8961C14.5011 12.799 14.56 12.7108 14.6343 12.6365C14.7086 12.5623 14.7968 12.5033 14.8939 12.4631C14.9909 12.4229 15.0949 12.4022 15.2 12.4022C15.3098 12.4077 15.4196 12.3908 15.5227 12.3526C15.6258 12.3145 15.7202 12.2558 15.8 12.1802C15.9812 11.9872 16.1139 11.7537 16.187 11.4992C16.3325 11.0127 16.4033 10.507 16.397 9.99923C16.3967 8.30254 15.7227 6.67538 14.5232 5.47545C13.3236 4.27552 11.6967 3.60103 9.99999 3.60023Z" fill="#6D6D6D"/>
<path fill-rule="evenodd" clip-rule="evenodd" d="M12.3979 10.001C12.3979 10.4757 12.2572 10.9397 11.9934 11.3344C11.7297 11.729 11.3549 12.0367 10.9164 12.2183C10.4778 12.4 9.99525 12.4475 9.52969 12.3549C9.06414 12.2623 8.63649 12.0337 8.30084 11.6981C7.9652 11.3624 7.73662 10.9348 7.64401 10.4692C7.55141 10.0037 7.59896 9.5211 7.78061 9.08256C7.96226 8.64402 8.26987 8.26919 8.66455 8.00547C9.05923 7.74175 9.52325 7.601 9.99793 7.601C10.6344 7.601 11.2449 7.85385 11.695 8.30394C12.1451 8.75403 12.3979 9.36448 12.3979 10.001ZM12.9979 12.646C12.4836 13.2292 11.8103 13.6498 11.0606 13.8564C10.311 14.063 9.51732 14.0465 8.77683 13.8091C8.03633 13.5717 7.38111 13.1236 6.8913 12.5197C6.40148 11.9157 6.09835 11.182 6.01895 10.4085C5.93956 9.63494 6.08736 8.85502 6.44428 8.16415C6.80119 7.47328 7.35174 6.90142 8.02857 6.51855C8.7054 6.13567 9.47915 5.95838 10.2552 6.00837C11.0312 6.05836 11.7758 6.33346 12.3979 6.8C12.3979 6.58783 12.4822 6.38434 12.6322 6.23431C12.7823 6.08428 12.9857 6 13.1979 6C13.4101 6 13.6136 6.08428 13.7636 6.23431C13.9136 6.38434 13.9979 6.58783 13.9979 6.8C13.9306 8.31155 14.0076 9.82607 14.2279 11.323C14.2757 11.6453 14.4086 11.9491 14.6129 12.203C14.69 12.2765 14.7822 12.3325 14.883 12.367C14.9838 12.4015 15.0909 12.4138 15.1969 12.403C15.4091 12.403 15.6126 12.4873 15.7626 12.6373C15.9126 12.7873 15.9969 12.9908 15.9969 13.203C15.9969 13.4152 15.9126 13.6187 15.7626 13.7687C15.6126 13.9187 15.4091 14.003 15.1969 14.003C14.8778 14.0146 14.5597 13.9604 14.2624 13.8438C13.9651 13.7271 13.695 13.5505 13.4689 13.325C13.277 13.125 13.1181 12.8958 12.9979 12.646Z" fill="#6D6D6D"/>
</svg>
