<svg width="18" height="15" viewBox="0 0 18 15" fill="none" xmlns="http://www.w3.org/2000/svg">
<path fill-rule="evenodd" clip-rule="evenodd" d="M5.48789 7.19939C5.48789 9.11939 7.0596 10.6816 9.00009 10.6816C10.9318 10.6816 12.5035 9.11939 12.5035 7.19939C12.5035 5.27066 10.9318 3.70848 9.00009 3.70848C7.0596 3.70848 5.48789 5.27066 5.48789 7.19939ZM14.1629 1.84145C15.6995 3.02836 17.0078 4.76509 17.9473 6.93818C18.0176 7.104 18.0176 7.296 17.9473 7.45309C16.0683 11.7993 12.7229 14.4 9 14.4H8.99122C5.27707 14.4 1.93171 11.7993 0.0526829 7.45309C-0.017561 7.296 -0.017561 7.104 0.0526829 6.93818C1.93171 2.592 5.27707 0 8.99122 0H9C10.8615 0 12.6263 0.645818 14.1629 1.84145ZM9.00087 9.3712C10.2038 9.3712 11.1872 8.39375 11.1872 7.19811C11.1872 5.99375 10.2038 5.01629 9.00087 5.01629C8.8955 5.01629 8.79014 5.02502 8.69355 5.04248C8.65843 6.00248 7.86819 6.77048 6.89355 6.77048H6.84965C6.82331 6.91011 6.80575 7.04975 6.80575 7.19811C6.80575 8.39375 7.78916 9.3712 9.00087 9.3712Z" fill="#F6F6F6"/>
</svg>
