<svg width="25" height="24" viewBox="0 0 25 24" fill="none" xmlns="http://www.w3.org/2000/svg">
<g clip-path="url(#clip0_431_13)">
<path d="M24.5384 12.2881C24.5384 5.88273 19.0448 0.69043 12.2691 0.69043C5.49037 0.69187 -0.00317383 5.88273 -0.00317383 12.2895C-0.00317383 18.0769 4.4843 22.8744 10.349 23.7446V15.6406H7.23567V12.2895H10.3521V9.7323C10.3521 6.82639 12.1848 5.22145 14.9868 5.22145C16.3302 5.22145 17.7335 5.44764 17.7335 5.44764V8.30023H16.1861C14.6632 8.30023 14.1877 9.19491 14.1877 10.1126V12.2881H17.5894L17.0465 15.6392H14.1862V23.7432C20.0509 22.873 24.5384 18.0754 24.5384 12.2881Z" fill="white"/>
</g>
<defs>
<clipPath id="clip0_431_13">
<rect width="24.5385" height="23.0513" fill="white" transform="translate(0 0.692383)"/>
</clipPath>
</defs>
</svg>
