<svg width="24" height="24" viewBox="0 0 24 24" fill="none" xmlns="http://www.w3.org/2000/svg">
<g clip-path="url(#clip0_26_2326)">
<path d="M20.0003 4.81846V6.81876C19.9462 7.59983 19.6176 8.33863 19.07 8.90999L15.07 12.3651C14.7812 12.6362 14.5502 12.9606 14.3906 13.3196C14.2309 13.6785 14.1457 14.0649 14.1398 14.4563V18.366C14.1273 18.6684 14.0456 18.9642 13.9007 19.2317C13.7558 19.4992 13.5514 19.7316 13.3026 19.9117L12.0003 20.73C11.7155 20.9 11.3899 20.9935 11.0563 21.0011C10.7227 21.0088 10.393 20.9302 10.1004 20.7734C9.80786 20.6166 9.56282 20.387 9.39006 20.108C9.2173 19.829 9.12295 19.5103 9.11653 19.1843V14.3654C9.06743 13.6709 8.80841 13.0063 8.37235 12.456L5.70258 9.71011C5.41421 9.41006 9.35374 3 9.67467 3H18.1398C18.6328 3.00144 19.1051 3.19349 19.4537 3.5342C19.8023 3.87492 19.9988 4.33661 20.0003 4.81846Z" fill="#BC9962"/>
<path d="M5.70248 9.71011L4.83736 8.81906C4.35529 8.32331 4.06005 7.68205 4.00015 7.00061V4.90938C3.99146 4.66397 4.03296 4.41934 4.12222 4.1898C4.21148 3.96026 4.34669 3.75044 4.51995 3.57263C4.69321 3.39481 4.90103 3.25258 5.13124 3.15425C5.36145 3.05592 5.60942 3.00348 5.86062 3L9.67457 3C9.67457 3 6.12108 10.1374 5.70248 9.71011Z" fill="#BC9962"/>
</g>
<defs>
<clipPath id="clip0_26_2326">
<rect width="16" height="18" fill="white" transform="translate(4 3)"/>
</clipPath>
</defs>
</svg>
