<svg width="20" height="20" viewBox="0 0 20 20" fill="none" xmlns="http://www.w3.org/2000/svg">
<g id="arrow-3">
<g id="Group 243627">
<path id="Vector" d="M5.48837 17C5.35911 16.9991 5.23539 16.9474 5.14398 16.856C5.05258 16.7646 5.00085 16.6409 5 16.5116V3.48837C5.00085 3.35911 5.05258 3.23539 5.14398 3.14398C5.23539 3.05258 5.35911 3.00085 5.48837 3C5.61763 3.00085 5.74136 3.05258 5.83276 3.14398C5.92416 3.23539 5.97589 3.35911 5.97674 3.48837V16.5116C5.97589 16.6409 5.92416 16.7646 5.83276 16.856C5.74136 16.9474 5.61763 16.9991 5.48837 17Z" fill="#FF3A29"/>
<path id="Vector_2" d="M12.7814 13.0934H5.48837C5.35885 13.0934 5.23463 13.042 5.14304 12.9504C5.05145 12.8588 5 12.7346 5 12.6051C5 12.4755 5.05145 12.3513 5.14304 12.2597C5.23463 12.1681 5.35885 12.1167 5.48837 12.1167H12.7814C13.4912 12.1167 13.8233 11.9279 13.8884 11.7651C13.9535 11.6023 13.8558 11.2376 13.3479 10.7362L12.5665 9.95483C12.4031 9.80557 12.2715 9.62479 12.1797 9.42336C12.088 9.22193 12.0379 9.00402 12.0326 8.78273C12.0245 8.53444 12.0678 8.28716 12.1596 8.05635C12.2515 7.82554 12.39 7.61617 12.5665 7.44134L13.3479 6.65994C13.8298 6.17808 13.9795 5.78739 13.9079 5.61808C13.8363 5.44878 13.4651 5.27948 12.7814 5.27948H5.48837C5.35885 5.27948 5.23463 5.22803 5.14304 5.13644C5.05145 5.04485 5 4.92063 5 4.79111C5 4.66158 5.05145 4.53736 5.14304 4.44578C5.23463 4.35419 5.35885 4.30273 5.48837 4.30273H12.7814C14.2074 4.30273 14.6633 4.89529 14.813 5.24692C14.9628 5.59855 15.054 6.34087 14.0381 7.35669L13.2567 8.13808C13.176 8.21921 13.1124 8.31582 13.0699 8.42212C13.0273 8.52843 13.0067 8.64223 13.0093 8.75669C13.0108 8.84986 13.0312 8.94176 13.0693 9.02682C13.1073 9.11189 13.1622 9.18834 13.2307 9.25157L14.0381 10.0525C15.0344 11.0488 14.9367 11.7911 14.7935 12.1492C14.6437 12.4944 14.1814 13.0934 12.7814 13.0934Z" fill="#FF3A29"/>
</g>
</g>
</svg>
