<svg width="24" height="24" viewBox="0 0 24 24" fill="none" xmlns="http://www.w3.org/2000/svg">
<path d="M12 22.75C9.87386 22.75 7.79545 22.1195 6.02762 20.9383C4.2598 19.7571 2.88194 18.0782 2.0683 16.1139C1.25466 14.1495 1.04177 11.9881 1.45656 9.90278C1.87135 7.81749 2.89519 5.90202 4.39861 4.39861C5.90202 2.89519 7.81749 1.87135 9.90278 1.45656C11.9881 1.04177 14.1495 1.25466 16.1139 2.0683C18.0782 2.88194 19.7571 4.2598 20.9383 6.02762C22.1195 7.79545 22.75 9.87386 22.75 12C22.7476 14.8504 21.6143 17.5833 19.5988 19.5988C17.5833 21.6143 14.8504 22.7476 12 22.75ZM12 2.75C10.1705 2.75 8.38213 3.29251 6.86098 4.30891C5.33983 5.32531 4.15423 6.76997 3.45412 8.46018C2.75401 10.1504 2.57083 12.0103 2.92774 13.8046C3.28465 15.5989 4.16563 17.2471 5.45927 18.5407C6.7529 19.8344 8.40109 20.7154 10.1954 21.0723C11.9897 21.4292 13.8496 21.246 15.5398 20.5459C17.23 19.8458 18.6747 18.6602 19.6911 17.139C20.7075 15.6179 21.25 13.8295 21.25 12C21.2471 9.54765 20.2716 7.19656 18.5375 5.46248C16.8034 3.7284 14.4524 2.75292 12 2.75Z" fill="#BC9962"/>
<path d="M9.00304 21.75H8.00304C7.80454 21.7487 7.61453 21.6693 7.47416 21.5289C7.33379 21.3885 7.25435 21.1985 7.25304 21C7.25169 20.8041 7.32753 20.6156 7.46416 20.4752C7.60079 20.3349 7.7872 20.2539 7.98304 20.25C6.41304 14.862 6.41304 9.13796 7.98304 3.75C7.78685 3.74658 7.59993 3.6659 7.46287 3.52547C7.32582 3.38505 7.2497 3.19622 7.25104 3C7.25236 2.80115 7.33207 2.61084 7.47287 2.47042C7.61367 2.32999 7.80419 2.25079 8.00304 2.25H9.00304C9.12178 2.25093 9.23867 2.27941 9.34453 2.33321C9.45038 2.387 9.5423 2.46464 9.61304 2.56C9.68263 2.6572 9.72801 2.76962 9.7454 2.88789C9.76279 3.00616 9.7517 3.12688 9.71304 3.24C7.83304 8.93212 7.83304 15.0779 9.71304 20.77C9.7517 20.8831 9.76279 21.0038 9.7454 21.1221C9.72801 21.2404 9.68263 21.3528 9.61304 21.45C9.54025 21.5424 9.44767 21.6173 9.3421 21.6693C9.23654 21.7212 9.12068 21.7488 9.00304 21.75Z" fill="#BC9962"/>
<path d="M14.9999 21.7497C14.9182 21.7511 14.8368 21.7375 14.7599 21.7097C14.6664 21.6787 14.5799 21.6294 14.5055 21.5647C14.4311 21.5 14.3702 21.4212 14.3265 21.3329C14.2828 21.2445 14.2571 21.1483 14.2508 21.05C14.2445 20.9516 14.2578 20.8529 14.2899 20.7597C16.1699 15.0676 16.1699 8.92182 14.2899 3.2297C14.2263 3.0414 14.2401 2.83552 14.3282 2.65736C14.4163 2.4792 14.5716 2.34335 14.7599 2.2797C14.9482 2.21605 15.1541 2.22981 15.3323 2.31795C15.5104 2.40609 15.6463 2.5614 15.7099 2.7497C17.6999 8.74557 17.6999 15.2238 15.7099 21.2197C15.6641 21.3725 15.5703 21.5065 15.4424 21.6019C15.3146 21.6973 15.1595 21.7492 14.9999 21.7497Z" fill="#BC9962"/>
<path d="M12.0001 17.2003C9.20777 17.2038 6.42943 16.8064 3.75007 16.0203C3.74741 16.2193 3.66585 16.409 3.52333 16.5477C3.3808 16.6865 3.18898 16.763 2.99007 16.7603C2.79115 16.7577 2.60144 16.6761 2.46267 16.5336C2.32389 16.3911 2.24741 16.1993 2.25007 16.0003V15.0003C2.251 14.8816 2.27948 14.7647 2.33327 14.6589C2.38707 14.553 2.4647 14.4611 2.56007 14.3903C2.65727 14.3208 2.76968 14.2754 2.88796 14.258C3.00623 14.2406 3.12694 14.2517 3.24007 14.2903C8.93219 16.1703 15.0779 16.1703 20.7701 14.2903C20.8832 14.2517 21.0039 14.2406 21.1222 14.258C21.2404 14.2754 21.3529 14.3208 21.4501 14.3903C21.547 14.4596 21.6258 14.5512 21.6798 14.6574C21.7338 14.7636 21.7613 14.8812 21.7601 15.0003V16.0003C21.7588 16.1989 21.6793 16.3889 21.5389 16.5292C21.3986 16.6696 21.2086 16.749 21.0101 16.7503C20.8142 16.7517 20.6257 16.6759 20.4853 16.5392C20.3449 16.4026 20.264 16.2162 20.2601 16.0203C17.5771 16.8057 14.7956 17.2031 12.0001 17.2003Z" fill="#BC9962"/>
<path d="M21 9.75033C20.9182 9.75171 20.8369 9.73815 20.76 9.71033C15.0679 7.83033 8.92211 7.83033 3.22999 9.71033C3.13676 9.74191 3.03821 9.7548 2.93999 9.74827C2.84177 9.74173 2.7458 9.7159 2.65757 9.67225C2.56934 9.6286 2.49057 9.56798 2.42579 9.49387C2.361 9.41976 2.31146 9.3336 2.27999 9.24033C2.22048 9.05065 2.23734 8.84524 2.32699 8.66781C2.41664 8.49038 2.57199 8.35494 2.75999 8.29033C8.75586 6.30036 15.2341 6.30036 21.23 8.29033C21.3236 8.32133 21.4101 8.37061 21.4845 8.4353C21.5589 8.49998 21.6197 8.57879 21.6634 8.66716C21.7071 8.75552 21.7329 8.85169 21.7392 8.95008C21.7454 9.04846 21.7321 9.14712 21.7 9.24033C21.6532 9.389 21.5599 9.51876 21.4339 9.61054C21.308 9.70233 21.1559 9.75132 21 9.75033Z" fill="#BC9962"/>
</svg>
