<svg width="30" height="30" viewBox="0 0 30 30" fill="none" xmlns="http://www.w3.org/2000/svg">
<path d="M24.7675 10.4651C23.7326 10.4651 22.7209 10.1582 21.8604 9.58327C20.9999 9.00831 20.3293 8.1911 19.9332 7.23497C19.5372 6.27885 19.4336 5.22676 19.6355 4.21174C19.8374 3.19672 20.3357 2.26437 21.0675 1.53258C21.7993 0.800797 22.7316 0.302444 23.7467 0.100545C24.7617 -0.101355 25.8138 0.00226719 26.7699 0.398307C27.726 0.794347 28.5432 1.46502 29.1182 2.32551C29.6931 3.186 30 4.19766 30 5.23256C29.9997 6.62021 29.4483 7.95092 28.467 8.93213C27.4858 9.91335 26.1551 10.4647 24.7675 10.4651ZM24.7675 2.09303C24.1465 2.09303 23.5395 2.27716 23.0232 2.62213C22.5069 2.96711 22.1045 3.45744 21.8669 4.03111C21.6293 4.60479 21.5671 5.23604 21.6883 5.84505C21.8094 6.45406 22.1084 7.01348 22.5475 7.45255C22.9866 7.89162 23.546 8.19063 24.155 8.31177C24.764 8.43291 25.3952 8.37074 25.9689 8.13311C26.5426 7.89549 27.0329 7.49309 27.3779 6.97679C27.7229 6.4605 27.907 5.8535 27.907 5.23256C27.9059 4.40024 27.5748 3.60233 26.9862 3.0138C26.3977 2.42526 25.5998 2.09413 24.7675 2.09303Z" fill="#BC9962"/>
<path d="M15 17.4417H8.02326C7.74627 17.4398 7.48115 17.329 7.28528 17.1331C7.08942 16.9373 6.97857 16.6721 6.97675 16.3951C6.97857 16.1182 7.08942 15.853 7.28528 15.6572C7.48115 15.4613 7.74627 15.3505 8.02326 15.3486H15C15.277 15.3505 15.5421 15.4613 15.738 15.6572C15.9338 15.853 16.0447 16.1182 16.0465 16.3951C16.0447 16.6721 15.9338 16.9373 15.738 17.1331C15.5421 17.329 15.277 17.4398 15 17.4417Z" fill="#BC9962"/>
<path d="M20.5814 23.0237H8.02326C7.74627 23.0219 7.48115 22.911 7.28528 22.7152C7.08942 22.5193 6.97857 22.2542 6.97675 21.9772C6.97857 21.7002 7.08942 21.4351 7.28528 21.2392C7.48115 21.0433 7.74627 20.9325 8.02326 20.9307H20.5814C20.8584 20.9325 21.1235 21.0433 21.3194 21.2392C21.5152 21.4351 21.6261 21.7002 21.6279 21.9772C21.6261 22.2542 21.5152 22.5193 21.3194 22.7152C21.1235 22.911 20.8584 23.0219 20.5814 23.0237Z" fill="#BC9962"/>
<path d="M19.186 30H10.814C3.23721 30 0 26.7628 0 19.186V10.814C0 3.23721 3.23721 0 10.814 0H17.7907C18.0677 0.00182836 18.3328 0.112673 18.5287 0.308537C18.7245 0.504401 18.8354 0.769524 18.8372 1.04651C18.8354 1.3235 18.7245 1.58862 18.5287 1.78449C18.3328 1.98035 18.0677 2.09119 17.7907 2.09302H10.814C4.38139 2.09302 2.09302 4.38139 2.09302 10.814V19.186C2.09302 25.6186 4.38139 27.907 10.814 27.907H19.186C25.6186 27.907 27.907 25.6186 27.907 19.186V12.2093C27.907 11.9317 28.0172 11.6656 28.2135 11.4693C28.4097 11.273 28.6759 11.1628 28.9535 11.1628C29.231 11.1628 29.4972 11.273 29.6935 11.4693C29.8897 11.6656 30 11.9317 30 12.2093V19.186C30 26.7628 26.7628 30 19.186 30Z" fill="#BC9962"/>
</svg>
