<svg width="24" height="24" viewBox="0 0 24 24" fill="none" xmlns="http://www.w3.org/2000/svg">
<path d="M15.24 22.2705H15.11C10.67 22.2705 8.52997 20.5205 8.15997 16.6005C8.15047 16.5019 8.16055 16.4025 8.18963 16.3078C8.21871 16.2132 8.26622 16.1252 8.32941 16.049C8.39261 15.9728 8.47025 15.9099 8.55787 15.8638C8.64549 15.8177 8.74136 15.7894 8.83997 15.7805C9.03822 15.765 9.2347 15.8274 9.38777 15.9543C9.54085 16.0812 9.63847 16.2628 9.65997 16.4605C9.94997 19.6005 11.43 20.7705 15.12 20.7705H15.248C19.318 20.7705 20.758 19.3305 20.758 15.2605V8.74047C20.758 4.67047 19.318 3.23047 15.248 3.23047H15.118C11.408 3.23047 9.92797 4.42047 9.65797 7.62047C9.63638 7.81725 9.53866 7.99779 9.38571 8.12347C9.23276 8.24915 9.0367 8.31 8.83947 8.29302C8.64223 8.27604 8.45947 8.18257 8.33024 8.0326C8.20102 7.88262 8.1356 7.68805 8.14797 7.49047C8.48997 3.51047 10.64 1.73047 15.11 1.73047H15.24C20.148 1.73047 22.248 3.83047 22.248 8.74047V15.2605C22.248 20.1705 20.148 22.2705 15.24 22.2705Z" fill="#BC9962"/>
<path d="M15 12.75H3.62C3.42149 12.7487 3.23148 12.6693 3.09111 12.5289C2.95074 12.3885 2.87131 12.1985 2.87 12C2.87131 11.8015 2.95074 11.6115 3.09111 11.4711C3.23148 11.3307 3.42149 11.2513 3.62 11.25H15C15.1985 11.2513 15.3885 11.3307 15.5289 11.4711C15.6692 11.6115 15.7487 11.8015 15.75 12C15.7487 12.1985 15.6692 12.3885 15.5289 12.5289C15.3885 12.6693 15.1985 12.7487 15 12.75Z" fill="#BC9962"/>
<path d="M5.853 16.1022C5.75447 16.1026 5.65687 16.0833 5.56587 16.0455C5.47487 16.0078 5.39231 15.9523 5.323 15.8822L1.971 12.5302C1.83152 12.3891 1.7533 12.1987 1.7533 12.0002C1.7533 11.8018 1.83152 11.6114 1.971 11.4702L5.321 8.12024C5.46317 7.98776 5.65122 7.91563 5.84552 7.91906C6.03982 7.92249 6.22521 8.0012 6.36262 8.13862C6.50003 8.27603 6.57874 8.46141 6.58217 8.65571C6.5856 8.85002 6.51348 9.03806 6.381 9.18024L3.56 12.0022L6.38 14.8222C6.51948 14.9634 6.5977 15.1538 6.5977 15.3522C6.5977 15.5507 6.51948 15.7411 6.38 15.8822C6.31162 15.9527 6.22966 16.0085 6.13907 16.0463C6.04848 16.0841 5.95116 16.1032 5.853 16.1022Z" fill="#BC9962"/>
</svg>
