<svg width="24" height="24" viewBox="0 0 24 24" fill="none" xmlns="http://www.w3.org/2000/svg">
<g clip-path="url(#clip0_26_2318)">
<path d="M13.0811 6.59396H7.31532C7.08956 6.592 6.8639 6.60401 6.63964 6.6299C4.21622 6.83655 3 8.2652 3 10.8979V14.4919C3 18.086 4.44144 18.7958 7.31532 18.7958H7.67568C7.78612 18.8031 7.894 18.8323 7.993 18.8817C8.092 18.931 8.18014 18.9996 8.25225 19.0833L9.33333 20.521C9.425 20.6673 9.55248 20.7879 9.70377 20.8716C9.85507 20.9552 10.0252 20.9991 10.1982 20.9991C10.3712 20.9991 10.5413 20.9552 10.6926 20.8716C10.8439 20.7879 10.9714 20.6673 11.0631 20.521L12.1441 19.0833C12.2115 18.9943 12.2986 18.9221 12.3986 18.8722C12.4987 18.8223 12.6089 18.7962 12.7207 18.7958H13.0811C15.7207 18.7958 17.1532 17.5918 17.3604 15.1658C17.3863 14.9421 17.3984 14.7171 17.3964 14.4919V10.8979C17.3964 8.02859 15.958 6.59396 13.0811 6.59396ZM7.05405 13.7821C6.87587 13.7821 6.70169 13.7294 6.55354 13.6307C6.40539 13.5319 6.28992 13.3916 6.22173 13.2274C6.15354 13.0632 6.1357 12.8826 6.17046 12.7083C6.20522 12.534 6.29103 12.3739 6.41702 12.2482C6.54301 12.1226 6.70354 12.037 6.8783 12.0023C7.05305 11.9677 7.2342 11.9854 7.39881 12.0535C7.56343 12.1215 7.70413 12.2366 7.80313 12.3844C7.90212 12.5321 7.95496 12.7059 7.95496 12.8836C7.95496 13.1219 7.86004 13.3504 7.69109 13.5189C7.52214 13.6874 7.29299 13.7821 7.05405 13.7821ZM10.1982 13.7821C10.02 13.7821 9.84584 13.7294 9.69768 13.6307C9.54953 13.5319 9.43406 13.3916 9.36587 13.2274C9.29769 13.0632 9.27985 12.8826 9.31461 12.7083C9.34937 12.534 9.43517 12.3739 9.56116 12.2482C9.68716 12.1226 9.84768 12.037 10.0224 12.0023C10.1972 11.9677 10.3783 11.9854 10.543 12.0535C10.7076 12.1215 10.8483 12.2366 10.9473 12.3844C11.0463 12.5321 11.0991 12.7059 11.0991 12.8836C11.0991 13.1219 11.0042 13.3504 10.8352 13.5189C10.6663 13.6874 10.4371 13.7821 10.1982 13.7821ZM13.3514 13.7821C13.1732 13.7821 12.999 13.7294 12.8508 13.6307C12.7027 13.5319 12.5872 13.3916 12.519 13.2274C12.4508 13.0632 12.433 12.8826 12.4678 12.7083C12.5025 12.534 12.5883 12.3739 12.7143 12.2482C12.8403 12.1226 13.0008 12.037 13.1756 12.0023C13.3504 11.9677 13.5315 11.9854 13.6961 12.0535C13.8607 12.1215 14.0014 12.2366 14.1004 12.3844C14.1994 12.5321 14.2523 12.7059 14.2523 12.8836C14.2523 13.1219 14.1573 13.3504 13.9884 13.5189C13.8194 13.6874 13.5903 13.7821 13.3514 13.7821Z" fill="#BC9962"/>
<path d="M21.0003 7.3039V10.898C21.0003 12.695 20.4417 13.917 19.3246 14.5909C19.2627 14.6252 19.1927 14.6423 19.1219 14.6403C19.0512 14.6384 18.9822 14.6175 18.9223 14.5798C18.8624 14.5421 18.8138 14.4891 18.7816 14.4262C18.7493 14.3633 18.7346 14.293 18.739 14.2225L18.748 10.898C18.748 7.3039 16.685 5.24629 13.0814 5.24629L7.59487 5.25528C7.52421 5.25966 7.45366 5.245 7.39063 5.21283C7.32759 5.18067 7.2744 5.13218 7.23663 5.07245C7.19885 5.01272 7.17789 4.94396 7.17593 4.87337C7.17397 4.80278 7.1911 4.73296 7.2255 4.67124C7.90118 3.55708 9.12641 3 10.9192 3H16.685C19.5588 3 20.9973 4.43463 21.0003 7.3039Z" fill="#BC9962"/>
</g>
<defs>
<clipPath id="clip0_26_2318">
<rect width="18" height="18" fill="white" transform="translate(3 3)"/>
</clipPath>
</defs>
</svg>
