<svg width="20" height="20" viewBox="0 0 20 20" fill="none" xmlns="http://www.w3.org/2000/svg">
<g clip-path="url(#clip0_130_2139)">
<path opacity="0.4" d="M10.7092 12.504L8.08922 15.12C7.80079 14.864 6.65507 13.864 6.38266 13.592C5.57246 12.7776 4.82521 11.9031 4.14731 10.976C3.52469 10.1273 2.99804 9.21239 2.57695 8.24801C2.21127 7.42335 2.01511 6.53377 2.00009 5.63201C1.99664 5.10368 2.09455 4.57958 2.28852 4.08801C2.4923 3.57979 2.80708 3.12337 3.2099 2.75201C3.42316 2.52171 3.68054 2.33648 3.9668 2.20731C4.25306 2.07814 4.56236 2.00765 4.8764 2.00001C5.10077 1.99912 5.3225 2.04832 5.52538 2.14401C5.74179 2.24182 5.92738 2.39671 6.06218 2.59201L7.92097 5.20801C8.04952 5.38142 8.1571 5.56939 8.24145 5.76801C8.31103 5.92159 8.34917 6.08751 8.35362 6.25601C8.35135 6.45726 8.2931 6.65391 8.18537 6.82401C8.0618 7.03245 7.91091 7.22347 7.73669 7.39201L7.12778 8.02401C7.08537 8.06557 7.05207 8.11547 7.03 8.17056C7.00793 8.22565 6.99757 8.28471 6.99959 8.34401C6.99969 8.40612 7.00777 8.46796 7.02362 8.52801C7.04766 8.59201 7.0717 8.64001 7.08772 8.68801C7.30287 9.05226 7.55237 9.39515 7.83284 9.71201C8.19338 10.128 8.57795 10.552 8.99458 10.976C9.28301 11.256 10.4287 12.264 10.7092 12.504Z" fill="#6D6D6D"/>
<path d="M17.9997 15.0638C17.9988 15.2957 17.9582 15.5257 17.8796 15.7438C17.8563 15.8092 17.8295 15.8733 17.7994 15.9358C17.6595 16.2334 17.4759 16.5084 17.2546 16.7518C16.8938 17.1617 16.4445 17.4845 15.9406 17.6958C15.9326 17.6958 15.9246 17.7038 15.9166 17.7038C15.428 17.9016 14.9055 18.0021 14.3783 17.9998C13.4771 17.9832 12.5886 17.7845 11.7664 17.4158C10.7907 16.9935 9.86607 16.4621 9.01025 15.8318C8.69778 15.5998 8.38531 15.3678 8.08887 15.1198L10.7088 12.5038C10.896 12.6472 11.0943 12.7755 11.3017 12.8878C11.3417 12.9038 11.3898 12.9278 11.4459 12.9518C11.5101 12.9747 11.578 12.9856 11.6462 12.9838C11.7074 12.9852 11.7682 12.9738 11.8248 12.9504C11.8814 12.927 11.9324 12.892 11.9747 12.8478L12.5836 12.2478C12.7525 12.0706 12.9469 11.9196 13.1605 11.7998C13.3304 11.6913 13.5276 11.633 13.7293 11.6318C13.8975 11.6342 14.0636 11.6695 14.2181 11.7358C14.4153 11.8202 14.6033 11.9247 14.7789 12.0478L17.4309 13.9278C17.6233 14.0535 17.7761 14.231 17.8715 14.4398C17.9547 14.6375 17.9982 14.8495 17.9997 15.0638Z" fill="#6D6D6D"/>
</g>
<defs>
<clipPath id="clip0_130_2139">
<rect width="16" height="16" fill="white" transform="translate(2 2)"/>
</clipPath>
</defs>
</svg>
