<svg width="24" height="24" viewBox="0 0 24 24" fill="none" xmlns="http://www.w3.org/2000/svg">
<g clip-path="url(#clip0_26_2340)">
<path d="M7.55566 5.7C7.55566 4.98392 7.83662 4.29716 8.33671 3.79081C8.83681 3.28446 9.51509 3 10.2223 3H13.7779C14.4851 3 15.1634 3.28446 15.6635 3.79081C16.1636 4.29716 16.4446 4.98392 16.4446 5.7C16.4446 5.93869 16.3509 6.16761 16.1842 6.3364C16.0175 6.50518 15.7914 6.6 15.5557 6.6H8.44455C8.20881 6.6 7.98271 6.50518 7.81601 6.3364C7.64931 6.16761 7.55566 5.93869 7.55566 5.7Z" fill="#BC9962"/>
<path d="M17.1109 14.7004C17.1097 14.879 17.0391 15.0501 16.9143 15.1764C16.7896 15.3027 16.6207 15.3742 16.4442 15.3754H15.5553V18.3004C15.5553 19.0165 15.2744 19.7032 14.7743 20.2096C14.2742 20.7159 13.5959 21.0004 12.8887 21.0004H11.1109C10.4037 21.0004 9.72537 20.7159 9.22528 20.2096C8.72518 19.7032 8.44423 19.0165 8.44423 18.3004V15.3754H7.55534C7.37889 15.3742 7.20999 15.3027 7.08522 15.1764C6.96045 15.0501 6.88984 14.879 6.88867 14.7004C6.88984 14.5217 6.96045 14.3507 7.08522 14.2244C7.20999 14.0981 7.37889 14.0266 7.55534 14.0254H16.4442C16.6207 14.0266 16.7896 14.0981 16.9143 14.2244C17.0391 14.3507 17.1097 14.5217 17.1109 14.7004Z" fill="#BC9962"/>
<path d="M17.3335 7.50049H6.66686C6.30464 7.44816 5.93535 7.48193 5.58825 7.59911C5.24114 7.7163 4.92574 7.91368 4.66701 8.17564C4.40828 8.4376 4.21334 8.75694 4.0976 9.10839C3.98186 9.45984 3.94852 9.83374 4.0002 10.2005V14.7005C3.94852 15.0672 3.98186 15.4411 4.0976 15.7926C4.21334 16.144 4.40828 16.4634 4.66701 16.7253C4.92574 16.9873 5.24114 17.1847 5.58825 17.3019C5.93535 17.4191 6.30464 17.4528 6.66686 17.4005H7.55575V16.2755C7.14319 16.2755 6.74753 16.1096 6.45581 15.8142C6.16409 15.5188 6.0002 15.1182 6.0002 14.7005C6.0002 14.2828 6.16409 13.8822 6.45581 13.5868C6.74753 13.2914 7.14319 13.1255 7.55575 13.1255H16.4446C16.8572 13.1255 17.2529 13.2914 17.5446 13.5868C17.8363 13.8822 18.0002 14.2828 18.0002 14.7005C18.0002 15.1182 17.8363 15.5188 17.5446 15.8142C17.2529 16.1096 16.8572 16.2755 16.4446 16.2755V17.4005H17.3335C17.6958 17.4528 18.065 17.4191 18.4121 17.3019C18.7593 17.1847 19.0747 16.9873 19.3334 16.7253C19.5921 16.4634 19.7871 16.144 19.9028 15.7926C20.0185 15.4411 20.0519 15.0672 20.0002 14.7005V10.2005C20.0519 9.83374 20.0185 9.45984 19.9028 9.10839C19.7871 8.75694 19.5921 8.4376 19.3334 8.17564C19.0747 7.91368 18.7593 7.7163 18.4121 7.59911C18.065 7.48193 17.6958 7.44816 17.3335 7.50049ZM10.2224 11.7755H7.55575C7.37894 11.7755 7.20937 11.7044 7.08435 11.5778C6.95932 11.4512 6.88909 11.2795 6.88909 11.1005C6.88909 10.9215 6.95932 10.7498 7.08435 10.6232C7.20937 10.4966 7.37894 10.4255 7.55575 10.4255H10.2224C10.3992 10.4255 10.5688 10.4966 10.6938 10.6232C10.8188 10.7498 10.8891 10.9215 10.8891 11.1005C10.8891 11.2795 10.8188 11.4512 10.6938 11.5778C10.5688 11.7044 10.3992 11.7755 10.2224 11.7755Z" fill="#BC9962"/>
</g>
<defs>
<clipPath id="clip0_26_2340">
<rect width="16" height="18" fill="white" transform="translate(4 3)"/>
</clipPath>
</defs>
</svg>
