<svg width="24" height="24" viewBox="0 0 24 24" fill="none" xmlns="http://www.w3.org/2000/svg">
<path d="M4.55762 15.7178V19.9038" stroke="white" stroke-width="1.5" stroke-linecap="round" stroke-linejoin="round"/>
<path fill-rule="evenodd" clip-rule="evenodd" d="M11.9919 4.25582C10.9768 4.25446 9.97127 4.45318 9.03293 4.84064C8.09252 5.22896 7.23807 5.7992 6.51864 6.51864C5.7992 7.23807 5.22896 8.09252 4.84064 9.03293C4.45233 9.97334 4.25359 10.9812 4.25583 11.9986C4.2566 12.3454 3.97609 12.6271 3.62931 12.6279C3.28253 12.6287 3.00079 12.3482 3.00002 12.0014C2.99741 10.8186 3.22846 9.64691 3.67989 8.55363C4.13133 7.46036 4.79427 6.46702 5.63064 5.63064C6.46702 4.79427 7.46036 4.13133 8.55363 3.67989C9.64691 3.22846 10.8186 2.99741 12.0014 3.00002L12.0149 3.0002C13.7848 3.04211 15.518 3.51352 17.0654 4.37384C18.0655 4.92993 18.9687 5.63774 19.7442 6.46882V4.09676C19.7442 3.74998 20.0253 3.46886 20.3721 3.46886C20.7189 3.46886 21 3.74998 21 4.09676V8.2828C21 8.62959 20.7189 8.91071 20.3721 8.91071H16.6549C16.3081 8.91071 16.027 8.62959 16.027 8.2828C16.027 7.93602 16.3081 7.6549 16.6549 7.6549H19.1196C18.3714 6.77595 17.4697 6.03549 16.4551 5.47141C15.0876 4.71107 13.5561 4.29396 11.9919 4.25582ZM20.3721 11.3721C20.7189 11.3721 21 11.6532 21 12C21 14.387 20.0518 16.6761 18.364 18.364C16.6761 20.0518 14.387 21 12 21C9.47126 21 7.4661 19.7273 6.12375 18.5097C5.44856 17.8973 4.92671 17.2863 4.57315 16.8281C4.39602 16.5985 4.26017 16.4061 4.16754 16.2692C4.12119 16.2008 4.0856 16.1462 4.06098 16.1077C4.04868 16.0884 4.03911 16.0732 4.03231 16.0623L4.0242 16.0491L4.0217 16.0451L4.02085 16.0437C4.02071 16.0434 4.02026 16.0427 4.55723 15.7172L4.02026 16.0427C3.90274 15.8488 3.89887 15.6066 4.01013 15.4091C4.12139 15.2115 4.33051 15.0893 4.55723 15.0893H8.34141C8.68819 15.0893 8.96932 15.3704 8.96932 15.7172C8.96932 16.064 8.68819 16.3451 8.34141 16.3451H5.79387C6.09592 16.7123 6.48986 17.1464 6.96744 17.5796C8.19114 18.6895 9.90737 19.7442 12 19.7442C14.0539 19.7442 16.0237 18.9283 17.476 17.476C18.9283 16.0237 19.7442 14.0539 19.7442 12C19.7442 11.6532 20.0253 11.3721 20.3721 11.3721Z" fill="white"/>
</svg>
