<svg width="24" height="24" viewBox="0 0 24 24" fill="none" xmlns="http://www.w3.org/2000/svg">
<g clip-path="url(#clip0_26_2301)">
<g clip-path="url(#clip1_26_2301)">
<path d="M9.8653 20.7402C10.0184 20.741 10.1666 20.686 10.2822 20.5854C10.3977 20.4849 10.4728 20.3456 10.4933 20.1937C10.5138 20.0418 10.4784 19.8877 10.3936 19.76C10.3089 19.6323 10.1806 19.5399 10.0327 19.5C8.21296 19.0196 6.63014 17.8924 5.57997 16.3292C4.5298 14.766 4.08409 12.8735 4.32611 11.0054C4.56812 9.13727 5.48131 7.42121 6.89509 6.17778C8.30886 4.93434 10.1265 4.24859 12.0086 4.2486C13.3694 4.26996 14.7097 4.58496 15.9378 5.17212C17.1659 5.75927 18.253 6.60475 19.1248 7.65084H16.6634C16.4958 7.64973 16.3346 7.71532 16.2153 7.83318C16.0959 7.95105 16.0283 8.11153 16.0272 8.27933C16.0261 8.44713 16.0916 8.60849 16.2093 8.72793C16.3271 8.84737 16.4874 8.91509 16.6551 8.9162H20.3639C20.4234 8.91608 20.4826 8.90762 20.5397 8.89106C20.6113 8.86778 20.6791 8.83388 20.7407 8.7905C20.8138 8.74124 20.8741 8.67515 20.9165 8.59777C20.9605 8.51725 20.9889 8.4291 21.0002 8.33799V4.46648C21.0002 4.29979 20.934 4.13993 20.8163 4.02207C20.6985 3.9042 20.5388 3.83799 20.3723 3.83799C20.2057 3.83799 20.046 3.9042 19.9283 4.02207C19.8105 4.13993 19.7444 4.29979 19.7444 4.46648V6.46927C18.7652 5.38423 17.5708 4.51533 16.2374 3.91801C14.9041 3.32068 13.461 3.00803 12.0002 3C9.81347 3.00081 7.7018 3.79824 6.0595 5.24339C4.4172 6.68853 3.35655 8.68259 3.07561 10.8532C2.79466 13.0238 3.31264 15.2226 4.53281 17.0389C5.75297 18.8552 7.59191 20.1649 9.70623 20.7235C9.75874 20.7332 9.81192 20.7388 9.8653 20.7402Z" fill="#BC9962"/>
<path d="M12.5948 21C12.6147 21.0013 12.6347 20.9985 12.6534 20.9916C13.549 20.9312 14.4299 20.7333 15.2655 20.405C15.3844 20.3577 15.4864 20.2757 15.5581 20.1695C15.6297 20.0634 15.6678 19.9381 15.6674 19.8101C15.666 19.7087 15.6403 19.6091 15.5922 19.5199C15.5441 19.4307 15.4752 19.3544 15.3913 19.2976C15.3074 19.2408 15.2111 19.2052 15.1104 19.1937C15.0098 19.1823 14.9079 19.1953 14.8134 19.2318C14.0926 19.5143 13.3334 19.6866 12.5613 19.743H12.5529C12.3922 19.7535 12.2417 19.8255 12.1326 19.9441C12.0235 20.0627 11.9642 20.2187 11.9669 20.3799V20.4134C11.9796 20.5719 12.0511 20.72 12.1672 20.8285C12.2834 20.9371 12.4359 20.9982 12.5948 21ZM17.2078 19.1983C17.3505 19.2001 17.4894 19.1528 17.6013 19.0642C18.304 18.5021 18.9191 17.8384 19.4264 17.095C19.501 16.9926 19.542 16.8697 19.5436 16.743C19.5443 16.6403 19.5194 16.5389 19.4712 16.4482C19.423 16.3575 19.3529 16.2803 19.2674 16.2235C19.13 16.1317 18.9623 16.097 18.7998 16.1267C18.6373 16.1564 18.4928 16.2482 18.3967 16.3827C17.9587 17.0245 17.4251 17.5954 16.8143 18.0754C16.7419 18.1341 16.6833 18.2081 16.6427 18.2922C16.6022 18.3762 16.5808 18.4681 16.5799 18.5614C16.5781 18.7068 16.6253 18.8485 16.7139 18.9637C16.7729 19.0378 16.8481 19.0975 16.9337 19.1381C17.0193 19.1788 17.1131 19.1994 17.2078 19.1983ZM20.0041 15.1089C20.137 15.1106 20.2668 15.069 20.374 14.9905C20.4812 14.9119 20.56 14.8005 20.5985 14.6732C20.8658 13.8102 21.0012 12.9118 21.0004 12.0084C21.0004 11.8417 20.9342 11.6818 20.8165 11.564C20.6987 11.4461 20.539 11.3799 20.3725 11.3799C20.2059 11.3799 20.0462 11.4461 19.9285 11.564C19.8107 11.6818 19.7446 11.8417 19.7446 12.0084C19.7444 12.7838 19.6287 13.5548 19.4013 14.2961C19.3842 14.3589 19.3757 14.4237 19.3762 14.4888C19.3757 14.6215 19.4177 14.7509 19.4961 14.858C19.5744 14.9651 19.685 15.0442 19.8115 15.0838C19.8744 15.1004 19.9391 15.1088 20.0041 15.1089Z" fill="#BC9962"/>
<path d="M14.7917 15.0339C14.7397 15.1224 14.6653 15.1957 14.5762 15.2464C14.487 15.2971 14.3861 15.3236 14.2835 15.323C14.1782 15.3256 14.0747 15.2964 13.9863 15.2392L11.5651 13.7912C11.256 13.5901 10.9997 13.3177 10.8176 12.9969C10.6355 12.6761 10.5329 12.3163 10.5186 11.9476V8.73894C10.5186 8.58336 10.5803 8.43416 10.6902 8.32415C10.8001 8.21415 10.9492 8.15234 11.1046 8.15234C11.26 8.15234 11.4091 8.21415 11.519 8.32415C11.6289 8.43416 11.6906 8.58336 11.6906 8.73894V11.9451C11.7051 12.1109 11.7551 12.2716 11.8373 12.4162C11.9196 12.5608 12.032 12.686 12.167 12.7831L14.5882 14.2286C14.6553 14.2673 14.7138 14.3191 14.7605 14.3808C14.8072 14.4426 14.841 14.5131 14.86 14.5882C14.879 14.6633 14.8827 14.7414 14.871 14.818C14.8592 14.8945 14.8323 14.968 14.7917 15.0339Z" fill="#BC9962"/>
</g>
</g>
<defs>
<clipPath id="clip0_26_2301">
<rect width="18" height="18" fill="white" transform="translate(3 3)"/>
</clipPath>
<clipPath id="clip1_26_2301">
<rect width="18" height="18" fill="white" transform="translate(3 3)"/>
</clipPath>
</defs>
</svg>
