<svg width="24" height="24" viewBox="0 0 24 24" fill="none" xmlns="http://www.w3.org/2000/svg">
<g clip-path="url(#clip0_26_2289)">
<path d="M11.5826 20.1628C9.88512 20.1628 8.22576 19.6595 6.81436 18.7166C5.40296 17.7736 4.30291 16.4334 3.65331 14.8654C3.00372 13.2973 2.83375 11.5719 3.16492 9.90725C3.49608 8.24262 4.31349 6.71357 5.51379 5.51344C6.71408 4.31331 8.24336 3.49601 9.90822 3.16489C11.5731 2.83378 13.2987 3.00372 14.867 3.65322C16.4353 4.30273 17.7757 5.40263 18.7188 6.81383C19.6618 8.22503 20.1652 9.88416 20.1652 11.5814C20.1621 13.8564 19.2569 16.0373 17.648 17.6459C16.0391 19.2546 13.8579 20.1597 11.5826 20.1628ZM11.5826 4.25582C10.1335 4.25582 8.71701 4.68546 7.51215 5.4904C6.3073 6.29535 5.36823 7.43945 4.8137 8.77802C4.25916 10.1166 4.11407 11.5895 4.39677 13.0105C4.67947 14.4316 5.37726 15.7369 6.40191 16.7614C7.42655 17.7859 8.73202 18.4836 10.1532 18.7662C11.5745 19.0489 13.0476 18.9038 14.3864 18.3494C15.7251 17.7949 16.8694 16.856 17.6744 15.6513C18.4795 14.4466 18.9092 13.0303 18.9092 11.5814C18.907 9.63921 18.1344 7.77721 16.7608 6.40388C15.3873 5.03055 13.5251 4.25803 11.5826 4.25582Z" fill="#BC9962"/>
<path d="M20.3741 21.0016C20.2916 21.0019 20.2099 20.9857 20.1337 20.9541C20.0575 20.9225 19.9884 20.876 19.9304 20.8174L18.2557 19.143C18.1378 19.0253 18.0714 18.8656 18.0713 18.699C18.0711 18.5324 18.1372 18.3726 18.2549 18.2547C18.3726 18.1368 18.5323 18.0705 18.6989 18.0703C18.8655 18.0702 19.0253 18.1362 19.1433 18.2539L20.8179 19.9283C20.9347 20.0464 21.0002 20.2059 21.0002 20.372C21.0002 20.5381 20.9347 20.6976 20.8179 20.8157C20.76 20.8746 20.691 20.9214 20.6148 20.9534C20.5386 20.9853 20.4568 21.0017 20.3741 21.0016Z" fill="#BC9962"/>
</g>
<defs>
<clipPath id="clip0_26_2289">
<rect width="18" height="18" fill="white" transform="translate(3 3)"/>
</clipPath>
</defs>
</svg>
