<svg width="24" height="24" viewBox="0 0 24 24" fill="none" xmlns="http://www.w3.org/2000/svg">
<g clip-path="url(#clip0_130_2161)">
<g clip-path="url(#clip1_130_2161)">
<path d="M15.945 3.38142L7.33818 6.24175C1.55264 8.17723 1.55264 11.3331 7.33818 13.2591L9.89259 14.1076L10.7409 16.6628C12.6662 22.4502 15.8306 22.4502 17.756 16.6628L20.6249 8.06282C21.9021 4.19852 19.8052 2.09142 15.945 3.38142ZM16.25 8.51093L12.6262 12.1531C12.5599 12.2196 12.4812 12.2724 12.3945 12.3084C12.3078 12.3445 12.2149 12.363 12.121 12.363C12.0272 12.363 11.9342 12.3445 11.8475 12.3084C11.7608 12.2724 11.6821 12.2196 11.6159 12.1531C11.4829 12.0185 11.4084 11.8369 11.4084 11.6478C11.4084 11.4586 11.4829 11.277 11.6159 11.1424L15.2378 7.50029C15.3733 7.37397 15.5525 7.30521 15.7377 7.30848C15.9229 7.31175 16.0996 7.38679 16.2306 7.51781C16.3616 7.64882 16.4366 7.82558 16.4399 8.01083C16.4431 8.19609 16.3744 8.37538 16.2481 8.51093H16.25Z" fill="#BC9962"/>
</g>
</g>
<defs>
<clipPath id="clip0_130_2161">
<rect width="18" height="18" fill="white" transform="translate(3 3)"/>
</clipPath>
<clipPath id="clip1_130_2161">
<rect width="18" height="18" fill="white" transform="translate(3 3)"/>
</clipPath>
</defs>
</svg>
