<svg width="24" height="24" viewBox="0 0 24 24" fill="none" xmlns="http://www.w3.org/2000/svg">
<path d="M12 15.75C11.2583 15.75 10.5333 15.5301 9.91661 15.118C9.29993 14.706 8.81928 14.1203 8.53545 13.4351C8.25162 12.7498 8.17736 11.9958 8.32206 11.2684C8.46675 10.541 8.8239 9.8728 9.34835 9.34835C9.8728 8.8239 10.541 8.46675 11.2684 8.32206C11.9958 8.17736 12.7498 8.25162 13.4351 8.53545C14.1203 8.81928 14.706 9.29993 15.118 9.91661C15.5301 10.5333 15.75 11.2583 15.75 12C15.7497 12.9945 15.3546 13.9482 14.6514 14.6514C13.9482 15.3546 12.9945 15.7497 12 15.75ZM12 9.75C11.555 9.75 11.12 9.88196 10.75 10.1292C10.38 10.3764 10.0916 10.7278 9.92127 11.139C9.75098 11.5501 9.70642 12.0025 9.79323 12.439C9.88005 12.8754 10.0943 13.2763 10.409 13.591C10.7237 13.9057 11.1246 14.12 11.561 14.2068C11.9975 14.2936 12.4499 14.249 12.861 14.0787C13.2722 13.9084 13.6236 13.62 13.8708 13.25C14.118 12.88 14.25 12.445 14.25 12C14.2492 11.4035 14.0119 10.8317 13.5901 10.4099C13.1683 9.9881 12.5965 9.7508 12 9.75Z" fill="#BC9962"/>
<path d="M15.21 22.1904C14.9976 22.1884 14.7862 22.1616 14.58 22.1104C13.9646 21.9451 13.4374 21.5471 13.11 21.0004L12.99 20.8004C12.4 19.7804 11.59 19.7804 11 20.8004L10.89 20.9904C10.7313 21.2653 10.5197 21.5061 10.2674 21.6987C10.0151 21.8913 9.72705 22.0319 9.42 22.1124C9.11396 22.197 8.7939 22.2185 8.4793 22.1755C8.1647 22.1325 7.86213 22.026 7.59 21.8624L5.87 20.8724C5.26023 20.5221 4.81449 19.944 4.63073 19.2652C4.44696 18.5865 4.54022 17.8625 4.89 17.2524C5.0256 17.0756 5.11492 16.8678 5.14984 16.6478C5.18477 16.4277 5.1642 16.2025 5.09 15.9924C4.94592 15.8224 4.7615 15.6911 4.55361 15.6108C4.34572 15.5304 4.121 15.5035 3.9 15.5324C3.19724 15.5311 2.52366 15.2512 2.02692 14.7541C1.53018 14.2569 1.25079 13.5832 1.25 12.8804L1.25 11.1204C1.25132 10.418 1.53094 9.74471 2.02763 9.24803C2.52431 8.75134 3.19758 8.47172 3.9 8.4704C4.12083 8.49956 4.34544 8.47292 4.55331 8.39291C4.76119 8.31291 4.94571 8.18209 5.09 8.0124C5.16671 7.80273 5.18861 7.57694 5.1536 7.35643C5.1186 7.13593 5.02787 6.92801 4.89 6.7524C4.54158 6.14293 4.44813 5.42047 4.63 4.7424C4.71693 4.40407 4.87166 4.08692 5.08481 3.81017C5.29796 3.53342 5.56508 3.30284 5.87 3.1324L7.6 2.1404C8.15353 1.82053 8.81107 1.73248 9.42926 1.89546C10.0474 2.05843 10.5761 2.45921 10.9 3.0104L11.02 3.2104C11.61 4.2304 12.42 4.2304 13.01 3.2104L13.12 3.0204C13.2796 2.74534 13.4921 2.50454 13.745 2.31183C13.998 2.11912 14.2866 1.9783 14.5942 1.89745C14.9018 1.81661 15.2223 1.79734 15.5373 1.84075C15.8524 1.88416 16.1557 1.98939 16.43 2.1504L18.15 3.1404C18.7598 3.4907 19.2055 4.06876 19.3893 4.74756C19.573 5.42635 19.4798 6.15033 19.13 6.7604C18.9944 6.93717 18.9051 7.145 18.8702 7.36503C18.8352 7.58506 18.8558 7.81033 18.93 8.0204C19.0741 8.19045 19.2585 8.32165 19.4664 8.40201C19.6743 8.48237 19.899 8.50932 20.12 8.4804C20.8224 8.48172 21.4957 8.76134 21.9924 9.25803C22.4891 9.75471 22.7687 10.428 22.77 11.1304V12.8904C22.7687 13.5928 22.4891 14.2661 21.9924 14.7628C21.4957 15.2595 20.8224 15.5391 20.12 15.5404C19.899 15.5115 19.6743 15.5384 19.4664 15.6188C19.2585 15.6991 19.0741 15.8304 18.93 16.0004C18.8533 16.2101 18.8314 16.4359 18.8664 16.6564C18.9014 16.8769 18.9921 17.0848 19.13 17.2604C19.3048 17.5613 19.4178 17.8941 19.4625 18.2392C19.5071 18.5843 19.4825 18.9349 19.39 19.2704C19.3031 19.6087 19.1483 19.9259 18.9352 20.2026C18.722 20.4794 18.4549 20.71 18.15 20.8804L16.42 21.8704C16.0505 22.0784 15.634 22.1886 15.21 22.1904ZM12 18.4904C12.4853 18.521 12.9535 18.6808 13.3562 18.9533C13.7589 19.2259 14.0813 19.6012 14.29 20.0404L14.4 20.2304C14.5225 20.4367 14.7209 20.5867 14.9527 20.6484C15.1845 20.7101 15.4312 20.6785 15.64 20.5604L17.37 19.5604C17.6356 19.4077 17.8298 19.156 17.91 18.8604C17.9498 18.7153 17.9606 18.5637 17.9418 18.4144C17.9229 18.2651 17.8747 18.121 17.8 17.9904C17.5253 17.5892 17.3621 17.1224 17.3269 16.6374C17.2918 16.1525 17.386 15.667 17.6 15.2304C17.8696 14.8252 18.2426 14.4994 18.6804 14.2866C19.1182 14.0739 19.6048 13.982 20.09 14.0204C20.2412 14.0212 20.3911 13.992 20.531 13.9345C20.6709 13.877 20.798 13.7923 20.9049 13.6853C21.0119 13.5784 21.0966 13.4513 21.1541 13.3114C21.2116 13.1715 21.2408 13.0216 21.24 12.8704V11.1124C21.24 10.8074 21.1188 10.5149 20.9032 10.2992C20.6875 10.0836 20.395 9.9624 20.09 9.9624C19.6048 10.0008 19.1182 9.90888 18.6804 9.69615C18.2426 9.48342 17.8696 9.1576 17.6 8.7524C17.386 8.31583 17.2918 7.83028 17.3269 7.34537C17.3621 6.86045 17.5253 6.39356 17.8 5.9924C17.8747 5.86177 17.9229 5.71767 17.9418 5.56837C17.9606 5.41907 17.9498 5.26752 17.91 5.1224C17.8309 4.82911 17.6408 4.57808 17.38 4.4224L15.65 3.4324C15.5456 3.3712 15.4302 3.33119 15.3104 3.31466C15.1905 3.29812 15.0686 3.30539 14.9515 3.33604C14.8345 3.36669 14.7247 3.42013 14.6283 3.49329C14.532 3.56645 14.451 3.6579 14.39 3.7624L14.28 3.9524C14.0713 4.39157 13.7489 4.7669 13.3462 5.03945C12.9435 5.312 12.4753 5.47185 11.99 5.5024C11.5047 5.47185 11.0365 5.312 10.6338 5.03945C10.2311 4.7669 9.9087 4.39157 9.7 3.9524L9.59 3.7524C9.46573 3.54803 9.26661 3.40024 9.03501 3.34047C8.80342 3.2807 8.55764 3.31369 8.35 3.4324L6.62 4.4324C6.35443 4.58505 6.16024 4.83678 6.08 5.1324C6.04016 5.27752 6.02937 5.42907 6.04825 5.57837C6.06712 5.72767 6.1153 5.87177 6.19 6.0024C6.46469 6.40356 6.62794 6.87045 6.66308 7.35537C6.69822 7.84028 6.60398 8.32583 6.39 8.7624C6.12037 9.1676 5.74738 9.49342 5.30961 9.70615C4.87185 9.91888 4.3852 10.0108 3.9 9.9724C3.74893 9.97161 3.59919 10.0007 3.45944 10.0581C3.31969 10.1155 3.19269 10.2 3.08577 10.3068C2.97885 10.4135 2.89413 10.5403 2.8365 10.68C2.77887 10.8196 2.74947 10.9693 2.75 11.1204V12.8804C2.75 13.1854 2.87116 13.4779 3.08683 13.6936C3.30249 13.9092 3.595 14.0304 3.9 14.0304C4.3852 13.992 4.87185 14.0839 5.30961 14.2966C5.74738 14.5094 6.12037 14.8352 6.39 15.2404C6.60398 15.677 6.69822 16.1625 6.66308 16.6474C6.62794 17.1323 6.46469 17.5992 6.19 18.0004C6.1153 18.131 6.06712 18.2751 6.04825 18.4244C6.02937 18.5737 6.04016 18.7253 6.08 18.8704C6.1591 19.1637 6.34916 19.4147 6.61 19.5704L8.34 20.5604C8.44225 20.6229 8.55613 20.664 8.67474 20.6812C8.79335 20.6984 8.91421 20.6913 9.03 20.6604C9.26873 20.5967 9.47322 20.4425 9.6 20.2304L9.71 20.0404C9.9204 19.6025 10.2432 19.2283 10.6456 18.956C11.0479 18.6837 11.5153 18.523 12 18.4904Z" fill="#BC9962"/>
</svg>
