<svg width="24" height="24" viewBox="0 0 24 24" fill="none" xmlns="http://www.w3.org/2000/svg">
<path d="M12 22.7604C10.918 22.7728 9.86011 22.44 8.98002 21.8104L4.68002 18.6004C4.07955 18.1052 3.5889 17.4903 3.23937 16.7948C2.88985 16.0994 2.68913 15.3387 2.65002 14.5614L2.65002 7.12039C2.68095 6.31895 2.94022 5.54303 3.3973 4.88398C3.85438 4.22493 4.49024 3.7102 5.23002 3.40039L10.22 1.53139C11.371 1.16141 12.609 1.16141 13.76 1.53139L18.75 3.40139C19.4898 3.7112 20.1257 4.22593 20.5828 4.88498C21.0398 5.54402 21.2991 6.31995 21.33 7.12139V14.5534C21.292 15.3311 21.0917 16.0922 20.7421 16.788C20.3925 17.4837 19.9013 18.0987 19.3 18.5934L15 21.8034C14.1315 22.4418 13.0778 22.7779 12 22.7604ZM10.75 2.94139L5.76002 4.81039C5.3082 5.0159 4.92069 5.34029 4.63888 5.74891C4.35708 6.15753 4.19157 6.63502 4.16002 7.13039V14.5604C4.19786 15.104 4.34279 15.6348 4.58649 16.1222C4.83018 16.6095 5.16784 17.044 5.58002 17.4004L9.88002 20.6104C10.5089 21.0309 11.2485 21.2554 12.005 21.2554C12.7616 21.2554 13.5011 21.0309 14.13 20.6104L18.43 17.4004C18.8431 17.0447 19.1813 16.6104 19.4251 16.1229C19.6688 15.6354 19.8133 15.1042 19.85 14.5604V7.12039C19.8157 6.62578 19.6491 6.14948 19.3677 5.74133C19.0862 5.33319 18.7002 5.0082 18.25 4.80039L13.26 2.93039C12.4402 2.68893 11.5677 2.69276 10.75 2.94139Z" fill="#BC9962"/>
</svg>
