<svg width="24" height="24" viewBox="0 0 24 24" fill="none" xmlns="http://www.w3.org/2000/svg">
<g clip-path="url(#clip0_26_2310)">
<path d="M14.1583 3.00002H9.84141C9.3823 2.99906 8.94158 3.17673 8.61608 3.49399C8.29058 3.81125 8.10693 4.24215 8.10547 4.69202V5.53802C8.10523 5.76028 8.14973 5.98041 8.23642 6.1858C8.32311 6.39119 8.45029 6.57781 8.61068 6.73497C8.77108 6.89214 8.96153 7.01676 9.17114 7.10171C9.38074 7.18665 9.60539 7.23026 9.83222 7.23002H14.1583C14.3851 7.23026 14.6098 7.18665 14.8194 7.10171C15.029 7.01676 15.2194 6.89214 15.3798 6.73497C15.5402 6.57781 15.6674 6.39119 15.7541 6.1858C15.8408 5.98041 15.8853 5.76028 15.885 5.53802V4.69202C15.8861 4.46952 15.8422 4.24902 15.7558 4.04325C15.6694 3.83748 15.5423 3.65053 15.3817 3.4932C15.2212 3.33587 15.0304 3.21128 14.8204 3.12663C14.6104 3.04198 14.3853 2.99895 14.1583 3.00002Z" fill="#BC9962"/>
<path d="M16.8129 5.53787C16.8104 6.22697 16.53 6.88717 16.0327 7.37443C15.5354 7.8617 14.8617 8.1365 14.1584 8.13887H9.84156C9.13831 8.1365 8.46455 7.8617 7.96728 7.37443C7.47 6.88717 7.18956 6.22697 7.18714 5.53787C7.18583 5.42228 7.15413 5.30898 7.09509 5.2089C7.03605 5.10882 6.95168 5.02535 6.85012 4.96655C6.74856 4.90774 6.63324 4.87559 6.51529 4.87319C6.39735 4.8708 6.28077 4.89824 6.17681 4.95287C5.51895 5.29615 4.96881 5.80836 4.58534 6.43461C4.20188 7.06086 3.99953 7.77755 4 8.50787V16.9769C4.00267 18.043 4.43608 19.0648 5.20546 19.8187C5.97483 20.5726 7.01757 20.9973 8.10563 20.9999H15.8944C16.9824 20.9973 18.0252 20.5726 18.7945 19.8187C19.5639 19.0648 19.9973 18.043 20 16.9769V8.50787C20.0005 7.77755 19.7981 7.06086 19.4147 6.43461C19.0312 5.80836 18.4811 5.29615 17.8232 4.95287C17.7192 4.89824 17.6026 4.8708 17.4847 4.87319C17.3668 4.87559 17.2514 4.90774 17.1499 4.96655C17.0483 5.02535 16.9639 5.10882 16.9049 5.2089C16.8459 5.30898 16.8142 5.42228 16.8129 5.53787ZM15.2423 16.9769C15.1784 17.0397 15.1026 17.0895 15.019 17.1235C14.9355 17.1575 14.8459 17.175 14.7555 17.175C14.665 17.175 14.5754 17.1575 14.4919 17.1235C14.4084 17.0895 14.3325 17.0397 14.2687 16.9769L9.93341 12.7289V13.7999C9.93341 13.9789 9.86083 14.1506 9.73165 14.2772C9.60246 14.4038 9.42725 14.4749 9.24455 14.4749C9.06185 14.4749 8.88663 14.4038 8.75745 14.2772C8.62826 14.1506 8.55568 13.9789 8.55568 13.7999V11.0999C8.55689 10.9212 8.62985 10.7502 8.75878 10.6239C8.8877 10.4975 9.06222 10.4261 9.24455 10.4249H12C12.1827 10.4249 12.3579 10.496 12.4871 10.6226C12.6163 10.7492 12.6889 10.9208 12.6889 11.0999C12.6889 11.2789 12.6163 11.4506 12.4871 11.5772C12.3579 11.7038 12.1827 11.7749 12 11.7749H10.907L15.2423 16.0229C15.3704 16.1499 15.4422 16.3213 15.4422 16.4999C15.4422 16.6785 15.3704 16.8498 15.2423 16.9769Z" fill="#BC9962"/>
</g>
<defs>
<clipPath id="clip0_26_2310">
<rect width="16" height="18" fill="white" transform="translate(4 3)"/>
</clipPath>
</defs>
</svg>
