<svg width="24" height="24" viewBox="0 0 24 24" fill="none" xmlns="http://www.w3.org/2000/svg">
<g clip-path="url(#clip0_115_2742)">
<path d="M13.4662 21.0001H6.97763C5.92286 20.9991 4.91163 20.5798 4.16571 19.834C3.41979 19.0882 3.00021 18.0769 2.99902 17.022V6.97811C3.00021 5.92329 3.41979 4.91195 4.16571 4.16616C4.91163 3.42038 5.92286 3.00103 6.97763 3.00007H9.06471C9.56021 2.94517 10.0609 3.03498 10.5065 3.25858C10.9521 3.48218 11.3235 3.83001 11.5756 4.2601L12.8355 5.93408C13.1127 6.30128 13.1486 6.34805 13.6724 6.34805H17.0204C17.3579 6.34769 17.6939 6.39312 18.0192 6.48307C18.489 6.59795 18.9321 6.80276 19.3241 7.08611C19.8415 7.45334 20.2635 7.93901 20.5547 8.50269C20.846 9.06636 20.998 9.69163 20.9981 10.3261V13.4661C20.5621 13.1275 20.0196 12.9559 19.4682 12.9819H15.2292C14.9277 12.9539 14.6237 12.9927 14.3389 13.0955C14.0541 13.1983 13.7954 13.3626 13.5813 13.5767C13.3672 13.7908 13.203 14.0495 13.1002 14.3343C12.9974 14.6191 12.9586 14.9231 12.9866 15.2246V19.4728C12.9616 20.0221 13.1325 20.5623 13.4688 20.9973L13.4662 21.0001Z" fill="#BC9962"/>
<path fill-rule="evenodd" clip-rule="evenodd" d="M16.0334 20.992H18.9668C19.2391 21.0174 19.5136 20.9824 19.7708 20.8896C20.0281 20.7967 20.2617 20.6484 20.455 20.455C20.6484 20.2616 20.7968 20.0279 20.8896 19.7707C20.9824 19.5134 21.0173 19.2389 20.9919 18.9666V16.0344C21.0174 15.762 20.9826 15.4873 20.8898 15.23C20.7971 14.9726 20.6489 14.7388 20.4555 14.5453C20.2621 14.3518 20.0284 14.2033 19.7711 14.1105C19.5138 14.0176 19.2392 13.9826 18.9668 14.008H16.0334C15.7611 13.9826 15.4865 14.0176 15.2292 14.1105C14.9718 14.2033 14.7381 14.3518 14.5447 14.5453C14.3513 14.7388 14.2029 14.9726 14.1102 15.23C14.0174 15.4873 13.9826 15.762 14.0081 16.0344V18.9666C13.9827 19.2389 14.0179 19.5134 14.1107 19.7707C14.2035 20.0279 14.3518 20.2616 14.5452 20.455C14.7386 20.6484 14.9722 20.7967 15.2294 20.8896C15.4866 20.9824 15.7611 21.0174 16.0334 20.992ZM18.3856 15.6929C18.2654 15.5727 18.1029 15.5042 17.933 15.5019L16.1098 15.5C16.032 15.503 15.9554 15.5204 15.8839 15.5513C15.8736 15.5551 15.8637 15.5599 15.8543 15.5657C15.8452 15.5716 15.8356 15.5764 15.8255 15.5801C15.7733 15.6022 15.7261 15.6347 15.6868 15.6756L15.6427 15.7196C15.5914 15.7686 15.5516 15.8281 15.5258 15.8942L15.5113 15.9086C15.4827 15.9783 15.4677 16.0529 15.4671 16.1282L15.4671 16.1292C15.4671 16.1426 15.4671 16.1428 15.4601 16.1498V17.9777C15.4603 18.1467 15.5274 18.3086 15.6468 18.4281C15.7663 18.5475 15.9283 18.6147 16.0973 18.615H16.1098C16.2791 18.6135 16.441 18.5448 16.5598 18.4241C16.6802 18.3052 16.7484 18.1433 16.7496 17.9741V17.7113L18.3876 19.3493C18.4479 19.4101 18.5196 19.4584 18.5987 19.4913C18.6778 19.5242 18.7627 19.5411 18.8483 19.541C18.9338 19.5411 19.0185 19.5242 19.0975 19.4913C19.1764 19.4584 19.248 19.4101 19.3082 19.3493C19.3691 19.289 19.4174 19.2172 19.4503 19.1381C19.4832 19.059 19.5001 18.9742 19.5 18.8885C19.5001 18.8028 19.483 18.718 19.4501 18.6389C19.4172 18.5598 19.369 18.4881 19.3082 18.4277L17.6702 16.7897H17.933C18.1031 16.7874 18.2656 16.7187 18.3858 16.5983C18.506 16.4779 18.5744 16.3154 18.5765 16.1453C18.5742 15.9754 18.5058 15.8131 18.3856 15.6929Z" fill="#BC9962"/>
</g>
<defs>
<clipPath id="clip0_115_2742">
<rect width="18" height="18" fill="white" transform="translate(3 3)"/>
</clipPath>
</defs>
</svg>
