<svg width="24" height="24" viewBox="0 0 24 24" fill="none" xmlns="http://www.w3.org/2000/svg">
<path d="M15.13 19.0596H7.13C6.93109 19.0596 6.74033 18.9806 6.59967 18.8399C6.45902 18.6992 6.38 18.5085 6.38 18.3096C6.38 18.1107 6.45902 17.9199 6.59967 17.7792C6.74033 17.6386 6.93109 17.5596 7.13 17.5596H15.13C16.2572 17.5596 17.3382 17.1118 18.1352 16.3148C18.9322 15.5177 19.38 14.4367 19.38 13.3096C19.38 12.1824 18.9322 11.1014 18.1352 10.3044C17.3382 9.50734 16.2572 9.05957 15.13 9.05957H4.13C3.9315 9.05826 3.74149 8.97882 3.60112 8.83845C3.46075 8.69808 3.38132 8.50808 3.38 8.30957C3.38132 8.11106 3.46075 7.92106 3.60112 7.78069C3.74149 7.64032 3.9315 7.56088 4.13 7.55957H15.13C16.655 7.55957 18.1175 8.16537 19.1959 9.24371C20.2742 10.322 20.88 11.7846 20.88 13.3096C20.88 14.8346 20.2742 16.2971 19.1959 17.3754C18.1175 18.4538 16.655 19.0596 15.13 19.0596Z" fill="white"/>
<path d="M6.42902 11.5613C6.33049 11.5616 6.23288 11.5423 6.14189 11.5046C6.05089 11.4668 5.96833 11.4113 5.89902 11.3413L3.34002 8.78025C3.20054 8.63911 3.12231 8.44868 3.12231 8.25025C3.12231 8.05182 3.20054 7.86139 3.34002 7.72025L5.90002 5.16125C6.04219 5.02877 6.23024 4.95665 6.42454 4.96008C6.61884 4.96351 6.80422 5.04222 6.94164 5.17963C7.07905 5.31704 7.15776 5.50243 7.16119 5.69673C7.16462 5.89103 7.0925 6.07908 6.96002 6.22125L4.93002 8.25125L6.96002 10.2813C7.0995 10.4224 7.17772 10.6128 7.17772 10.8113C7.17772 11.0097 7.0995 11.2001 6.96002 11.3413C6.89118 11.4122 6.80856 11.4683 6.71725 11.5061C6.62593 11.544 6.52785 11.5627 6.42902 11.5613Z" fill="white"/>
</svg>
