<svg width="37" height="37" viewBox="0 0 37 37" fill="none" xmlns="http://www.w3.org/2000/svg">
<path d="M19.1526 6.07227C19.9633 6.07682 21.9916 6.09656 24.1474 6.18309L24.9125 6.21649C27.082 6.31821 29.2499 6.49431 30.3263 6.79339C31.761 7.19722 32.8875 8.37228 33.2685 9.86312C33.8758 12.2315 33.9517 16.8497 33.9608 17.9686L33.9623 18.1993V18.4635C33.9517 19.5824 33.8758 24.2022 33.2685 26.569C32.8829 28.0644 31.7549 29.2409 30.3263 29.6387C29.2499 29.9378 27.082 30.1139 24.9125 30.2156L24.1474 30.2505C21.9916 30.3355 19.9633 30.3568 19.1526 30.3598L18.7959 30.3613H18.4087C16.6932 30.3507 9.51838 30.2733 7.23507 29.6387C5.80192 29.2349 4.67393 28.0598 4.29287 26.569C3.6856 24.2006 3.60969 19.5824 3.60059 18.4635V17.9686C3.60969 16.8497 3.6856 12.2299 4.29287 9.86312C4.67848 8.36773 5.80648 7.19115 7.23658 6.79491C9.51838 6.1588 16.6947 6.08137 18.4103 6.07227H19.1526ZM15.7444 12.904V23.5311L24.8533 18.2176L15.7444 12.904Z" fill="white"/>
</svg>
