<svg width="24" height="24" viewBox="0 0 24 24" fill="none" xmlns="http://www.w3.org/2000/svg">
<path opacity="0.4" d="M19.5348 3.62793V13.7582C19.5773 14.0871 19.5437 14.4213 19.4367 14.7352C19.3296 15.0491 19.1521 15.3343 18.9176 15.5688C18.6831 15.8033 18.3979 15.9809 18.084 16.0879C17.7701 16.1949 17.4358 16.2285 17.1069 16.1861H6.89298C6.56407 16.2285 6.22982 16.1949 5.91592 16.0879C5.60203 15.9809 5.31687 15.8033 5.08237 15.5688C4.84787 15.3343 4.67028 15.0491 4.56326 14.7352C4.45625 14.4213 4.42266 14.0871 4.46508 13.7582V3.62793H19.5348Z" fill="#6D6D6D"/>
<path d="M20.3721 4.25581H3.62791C3.46171 4.25472 3.30264 4.18821 3.18512 4.07069C3.0676 3.95317 3.0011 3.7941 3 3.62791C3.0011 3.46171 3.0676 3.30264 3.18512 3.18512C3.30264 3.0676 3.46171 3.0011 3.62791 3H20.3721C20.5383 3.0011 20.6974 3.0676 20.8149 3.18512C20.9324 3.30264 20.9989 3.46171 21 3.62791C20.9989 3.7941 20.9324 3.95317 20.8149 4.07069C20.6974 4.18821 20.5383 4.25472 20.3721 4.25581Z" fill="#6D6D6D"/>
<path d="M15.9088 20.6572C15.856 20.7605 15.7757 20.8472 15.6767 20.9078C15.5777 20.9683 15.4639 21.0004 15.3479 21.0005C15.252 20.9992 15.1575 20.9763 15.0716 20.9335L11.9991 19.4014L8.92652 20.9335C8.84061 20.9763 8.74619 20.9992 8.65024 21.0005C8.5342 21.0004 8.42044 20.9683 8.32147 20.9078C8.2225 20.8472 8.14216 20.7605 8.08931 20.6572C8.05091 20.5833 8.0278 20.5024 8.02138 20.4194C8.01495 20.3363 8.02534 20.2529 8.05191 20.1739C8.07848 20.095 8.12069 20.0222 8.17603 19.96C8.23136 19.8977 8.29868 19.8473 8.37396 19.8116L11.3695 18.313V16.1865H12.6253V18.313L15.6225 19.8116C15.6979 19.8471 15.7654 19.8975 15.8209 19.9596C15.8764 20.0218 15.9188 20.0946 15.9456 20.1735C15.9723 20.2525 15.9828 20.336 15.9765 20.4191C15.9702 20.5022 15.9472 20.5832 15.9088 20.6572Z" fill="#6D6D6D"/>
<path d="M8.2332 11.7872C8.14068 11.7871 8.0493 11.7668 7.96542 11.7278C7.88155 11.6888 7.80722 11.6319 7.74761 11.5611C7.69443 11.4975 7.65439 11.424 7.6298 11.3449C7.6052 11.2657 7.59655 11.1824 7.60433 11.0999C7.61212 11.0174 7.63619 10.9372 7.67515 10.8641C7.71412 10.7909 7.7672 10.7262 7.83134 10.6737L10.4685 8.47599C10.5843 8.37838 10.7198 8.30691 10.8657 8.26645C11.0117 8.22599 11.1646 8.21751 11.3141 8.24157C11.4636 8.26757 11.6055 8.32602 11.7299 8.41281C11.8543 8.4996 11.9581 8.61262 12.0341 8.7439L12.9132 10.209L15.3662 8.16623C15.4297 8.11156 15.5035 8.07012 15.5833 8.04431C15.663 8.0185 15.7471 8.00885 15.8306 8.01592C15.9141 8.02299 15.9954 8.04664 16.0696 8.08548C16.1439 8.12433 16.2096 8.17759 16.2631 8.24216C16.3165 8.30672 16.3565 8.38129 16.3808 8.4615C16.4051 8.54172 16.4131 8.62597 16.4044 8.70932C16.3958 8.79268 16.3706 8.87347 16.3303 8.94697C16.29 9.02047 16.2355 9.08521 16.1699 9.13739L13.5327 11.3392C13.417 11.4369 13.2815 11.5083 13.1355 11.5488C12.9896 11.5892 12.8367 11.5977 12.6871 11.5737C12.5377 11.5477 12.3958 11.4892 12.2714 11.4024C12.147 11.3156 12.0431 11.2026 11.9671 11.0713L11.0881 9.60623L8.63506 11.649C8.52022 11.7385 8.37879 11.7871 8.2332 11.7872Z" fill="#6D6D6D"/>
</svg>
