<svg width="24" height="24" viewBox="0 0 24 24" fill="none" xmlns="http://www.w3.org/2000/svg">
<path d="M14.2509 10.8754H8.85079C8.67213 10.8742 8.50113 10.8027 8.37479 10.6764C8.24846 10.5501 8.17696 10.3791 8.17578 10.2004C8.17696 10.0217 8.24846 9.85074 8.37479 9.7244C8.50113 9.59807 8.67213 9.52657 8.85079 9.52539H14.2509C14.4296 9.52657 14.6006 9.59807 14.7269 9.7244C14.8532 9.85074 14.9247 10.0217 14.9259 10.2004C14.9247 10.3791 14.8532 10.5501 14.7269 10.6764C14.6006 10.8027 14.4296 10.8742 14.2509 10.8754Z" fill="#6D6D6D"/>
<path d="M11.5508 13.5756H8.85079C8.67213 13.5744 8.50113 13.5029 8.37479 13.3766C8.24846 13.2503 8.17696 13.0793 8.17578 12.9006C8.17696 12.7219 8.24846 12.5509 8.37479 12.4246C8.50113 12.2983 8.67213 12.2268 8.85079 12.2256H11.5508C11.7295 12.2268 11.9005 12.2983 12.0269 12.4246C12.1532 12.5509 12.2247 12.7219 12.2259 12.9006C12.2247 13.0793 12.1532 13.2503 12.0269 13.3766C11.9005 13.5029 11.7295 13.5744 11.5508 13.5756Z" fill="#6D6D6D"/>
<path opacity="0.4" d="M20.1003 11.5502C20.1003 13.2412 19.5989 14.8943 18.6594 16.3004C17.7199 17.7065 16.3845 18.8024 14.8222 19.4495C13.2598 20.0966 11.5407 20.266 9.88212 19.9361C8.22355 19.6061 6.70005 18.7918 5.50429 17.5961C4.30853 16.4003 3.4942 14.8768 3.16429 13.2182C2.83438 11.5597 3.0037 9.8405 3.65085 8.27816C4.29799 6.71582 5.39389 5.38047 6.79996 4.44096C8.20602 3.50146 9.85911 3 11.5502 3C13.8178 3 15.9926 3.90082 17.5961 5.50429C19.1995 7.10776 20.1003 9.28253 20.1003 11.5502Z" fill="#6D6D6D"/>
<path d="M20.3704 20.9995C20.2055 20.9995 20.0472 20.9349 19.9294 20.8195L18.2535 19.1455C18.1361 19.0266 18.0703 18.8662 18.0703 18.6991C18.0703 18.532 18.1361 18.3716 18.2535 18.2527C18.3724 18.1358 18.5324 18.0703 18.6991 18.0703C18.8657 18.0703 19.0257 18.1358 19.1446 18.2527L20.8186 19.9267C20.9355 20.0455 21.0009 20.2055 21.0009 20.3722C21.0009 20.5389 20.9355 20.6989 20.8186 20.8177C20.6974 20.9325 20.5373 20.9974 20.3704 20.9995Z" fill="#6D6D6D"/>
</svg>
