<svg width="24" height="24" viewBox="0 0 24 24" fill="none" xmlns="http://www.w3.org/2000/svg">
<path d="M15.5091 20.9997H8.81324C4.00013 20.9997 4 18.4414 4 16.1851V15.3467C4 13.8491 4.00011 12.1522 6.14207 11.5771C6.74193 11.4256 7.35955 11.3556 7.97807 11.3697C8.66293 11.3244 9.33795 11.5509 9.85714 11.9998C9.88949 12.0218 9.91782 12.0491 9.94085 12.0807L10.7949 12.9807C10.9723 13.1646 11.1854 13.31 11.4211 13.4087C11.6568 13.5074 11.91 13.5572 12.1655 13.5546C12.4204 13.5575 12.6732 13.5084 12.9082 13.4096C13.1432 13.3108 13.3555 13.1648 13.5318 12.9807L14.3858 12.0702C14.4097 12.0435 14.4367 12.0195 14.466 11.999C14.7227 11.7751 15.0211 11.6044 15.344 11.4962C15.667 11.3881 16.008 11.3446 16.3477 11.3688C16.966 11.3591 17.5831 11.4282 18.1837 11.5753C20.3257 12.1513 20.3258 13.8482 20.3258 15.3458V16.1842C20.3249 19.3792 18.7049 20.9997 15.5091 20.9997ZM10.767 17.8603C10.5999 17.8603 10.4398 17.9267 10.3216 18.0448C10.2035 18.163 10.1371 18.3234 10.1371 18.4904C10.1371 18.6575 10.2035 18.8179 10.3216 18.936C10.4398 19.0542 10.5999 19.1206 10.767 19.1206H13.557C13.7233 19.1181 13.882 19.051 13.9996 18.9334C14.1172 18.8158 14.1844 18.6567 14.187 18.4904C14.188 18.4074 14.1724 18.3247 14.1411 18.2479C14.1097 18.171 14.0633 18.1018 14.0046 18.0431C13.9459 17.9844 13.876 17.9373 13.7992 17.906C13.7223 17.8747 13.64 17.8593 13.557 17.8603H10.767ZM10.0641 15.3475C9.98112 15.3466 9.89885 15.3619 9.82198 15.3932C9.74511 15.4246 9.67523 15.4717 9.61654 15.5303C9.55785 15.589 9.51141 15.6583 9.48009 15.7351C9.44878 15.812 9.43321 15.8947 9.43417 15.9777C9.43417 16.1448 9.50059 16.3052 9.61874 16.4233C9.73688 16.5414 9.89703 16.6079 10.0641 16.6079H14.258C14.4232 16.6044 14.5806 16.5365 14.6967 16.4189C14.8128 16.3013 14.8786 16.143 14.88 15.9777C14.8807 15.8948 14.8648 15.8128 14.8334 15.736C14.802 15.6592 14.7556 15.589 14.697 15.5303C14.6383 15.4717 14.5687 15.4255 14.492 15.3941C14.4152 15.3627 14.333 15.3468 14.25 15.3475H10.0641Z" fill="#6D6D6D"/>
<path opacity="0.4" d="M14.6717 3H9.64981C5.67189 3 5.67189 5.11496 5.67189 6.97792V12.1888C5.67133 12.2845 5.69298 12.379 5.73515 12.4649C5.77731 12.5508 5.83884 12.6257 5.91488 12.6838C5.99189 12.7429 6.0815 12.7834 6.17673 12.8021C6.27196 12.8208 6.37023 12.8173 6.46387 12.7918C6.9589 12.6736 7.46701 12.6192 7.97584 12.6298C8.17128 12.6048 8.36983 12.6224 8.55781 12.6815C8.7458 12.7405 8.91877 12.8395 9.06482 12.9718L9.8838 13.8358C10.177 14.1482 10.5311 14.3973 10.9242 14.5675C11.3174 14.7378 11.7413 14.8256 12.1698 14.8256C12.5982 14.8256 13.0221 14.7378 13.4153 14.5675C13.8085 14.3973 14.1626 14.1482 14.4557 13.8358L15.2747 12.9718C15.4208 12.8395 15.5937 12.7405 15.7817 12.6815C15.9697 12.6224 16.1682 12.6048 16.3637 12.6298C16.8725 12.6192 17.3806 12.6736 17.8756 12.7918C17.9685 12.8175 18.0661 12.8213 18.1607 12.803C18.2553 12.7848 18.3444 12.7449 18.421 12.6866C18.4977 12.6282 18.5598 12.5529 18.6026 12.4666C18.6454 12.3802 18.6676 12.2852 18.6676 12.1888V6.97792C18.6496 5.11496 18.6496 3 14.6717 3Z" fill="#6D6D6D"/>
<path d="M13.118 8.21115L11.5485 7.66216C11.391 7.60906 11.3613 7.59646 11.3613 7.36696C11.3587 7.32906 11.3637 7.29102 11.3759 7.25503C11.3881 7.21905 11.4073 7.18584 11.4324 7.15731C11.4575 7.12879 11.488 7.10551 11.5221 7.08882C11.5562 7.07213 11.5933 7.06236 11.6313 7.06007H12.6122C12.7187 7.06657 12.8182 7.11486 12.8892 7.19443C12.9601 7.274 12.9968 7.37839 12.9911 7.48486C12.9911 7.61495 13.0428 7.73971 13.1348 7.83169C13.2268 7.92368 13.3515 7.97535 13.4816 7.97535C13.6117 7.97535 13.7365 7.92368 13.8284 7.83169C13.9204 7.73971 13.9721 7.61495 13.9721 7.48486C13.9754 7.12758 13.8409 6.78277 13.5965 6.52212C13.3521 6.26148 13.0167 6.10506 12.6599 6.08539V6.05299C12.6599 5.9229 12.6083 5.79815 12.5163 5.70616C12.4243 5.61418 12.2995 5.5625 12.1694 5.5625C12.0394 5.5625 11.9146 5.61418 11.8226 5.70616C11.7306 5.79815 11.679 5.9229 11.679 6.05299V6.08539H11.6205C11.284 6.09084 10.9634 6.22963 10.7292 6.47128C10.4949 6.71293 10.3662 7.03767 10.3713 7.37416C10.3486 7.64325 10.4204 7.91181 10.5743 8.1337C10.7282 8.35559 10.9546 8.51695 11.2146 8.59004L12.7904 9.13903C12.947 9.19123 12.9803 9.20473 12.9803 9.43332C12.9829 9.47123 12.9779 9.50927 12.9657 9.54526C12.9535 9.58124 12.9343 9.61445 12.9092 9.64298C12.8841 9.6715 12.8536 9.69478 12.8195 9.71147C12.7854 9.72816 12.7483 9.73793 12.7103 9.74022H11.7312C11.6247 9.73372 11.5252 9.68543 11.4542 9.60586C11.3832 9.52629 11.3466 9.4219 11.3523 9.31543C11.3513 9.18563 11.2993 9.06142 11.2076 8.96964C11.1158 8.87786 10.9916 8.82588 10.8618 8.82494C10.732 8.82588 10.6078 8.87786 10.516 8.96964C10.4242 9.06142 10.3722 9.18563 10.3713 9.31543C10.3679 9.67197 10.5018 10.0162 10.7452 10.2767C10.9887 10.5372 11.323 10.6941 11.679 10.7149V10.7545C11.679 10.8846 11.7306 11.0093 11.8226 11.1013C11.9146 11.1933 12.0394 11.245 12.1694 11.245C12.2995 11.245 12.4243 11.1933 12.5163 11.1013C12.6083 11.0093 12.6599 10.8846 12.6599 10.7545V10.7221H12.7184C12.8854 10.7199 13.0503 10.6847 13.2037 10.6187C13.3571 10.5526 13.496 10.4569 13.6124 10.3371C13.7287 10.2174 13.8203 10.0758 13.8819 9.92053C13.9435 9.76528 13.9738 9.59942 13.9712 9.43242C13.9911 9.16179 13.9172 8.89256 13.7617 8.6701C13.6063 8.44764 13.379 8.28555 13.118 8.21115Z" fill="#6D6D6D"/>
</svg>
