<svg width="37" height="36" viewBox="0 0 37 36" fill="none" xmlns="http://www.w3.org/2000/svg">
<path d="M18.4676 36C28.4036 36 36.4863 27.9257 36.4863 18C36.4863 8.07429 28.4036 0 18.4676 0C8.53156 0 0.448868 8.07429 0.448868 18C0.448868 27.9257 8.53156 36 18.4676 36ZM18.4676 2.57143C26.9879 2.57143 33.9122 9.48857 33.9122 18C33.9122 26.5114 26.9879 33.4286 18.4676 33.4286C9.94731 33.4286 3.02297 26.5114 3.02297 18C3.02297 9.48857 9.94731 2.57143 18.4676 2.57143Z" fill="#186E55"/>
<path d="M18.468 9C21.3253 9 23.6162 11.2886 23.6162 14.1429H21.0421C21.0421 12.7286 19.8838 11.5714 18.468 11.5714C17.0522 11.5714 15.8939 12.7286 15.8939 14.1429C15.8939 16.7143 19.7551 16.4057 19.7551 20.5714H17.181C17.181 17.6914 13.3198 17.3571 13.3198 14.1429C13.3198 11.2886 15.6107 9 18.468 9Z" fill="#186E55"/>
<path d="M18.4675 27.3087C17.5861 27.3087 16.8716 26.5949 16.8716 25.7144C16.8716 24.8339 17.5861 24.1201 18.4675 24.1201C19.3489 24.1201 20.0635 24.8339 20.0635 25.7144C20.0635 26.5949 19.3489 27.3087 18.4675 27.3087Z" fill="#186E55"/>
<path d="M22.3292 15.4284C21.6183 15.4284 21.0421 14.8527 21.0421 14.1426C21.0421 13.4326 21.6183 12.8569 22.3292 12.8569C23.04 12.8569 23.6162 13.4326 23.6162 14.1426C23.6162 14.8527 23.04 15.4284 22.3292 15.4284Z" fill="#186E55"/>
<path d="M18.4678 21.8571C17.757 21.8571 17.1808 21.2814 17.1808 20.5714C17.1808 19.8613 17.757 19.2856 18.4678 19.2856C19.1786 19.2856 19.7549 19.8613 19.7549 20.5714C19.7549 21.2814 19.1786 21.8571 18.4678 21.8571Z" fill="#186E55"/>
</svg>
