<svg width="26" height="29" viewBox="0 0 26 29" fill="none" xmlns="http://www.w3.org/2000/svg">
<path d="M11.3718 0C11.5355 0.0524645 11.7013 0.0965348 11.8608 0.157394C12.7191 0.482674 13.2857 1.08497 13.5669 1.96008C13.5921 2.03562 13.6152 2.11327 13.6404 2.19512C13.8461 2.19512 14.037 2.19302 14.2301 2.19512C14.8828 2.20141 15.3717 2.49941 15.676 3.06603C15.7747 3.2486 15.8733 3.29897 16.0706 3.29687C17.2583 3.28638 18.4482 3.29058 19.6381 3.29267C20.6643 3.29267 21.3611 3.98521 21.3611 5.00722C21.3611 8.95885 21.3611 12.9084 21.3611 16.86C21.3611 16.9691 21.3611 17.0783 21.3611 17.2084C21.6045 17.2818 21.8479 17.3448 22.0851 17.4266C24.4544 18.2577 25.957 20.5892 25.7429 23.0928C25.5247 25.6384 23.5478 27.7013 20.9875 28.0496C20.7714 28.079 20.551 28.0979 20.3328 28.0979C14.2889 28.1 8.24284 28.1 2.19893 28.1C1.21259 28.1 0.509568 27.3949 0.509568 26.4086C0.505371 19.265 0.505371 12.1214 0.505371 4.97993C0.505371 3.9957 1.21049 3.29477 2.20103 3.29477C3.40771 3.29267 4.61439 3.29267 5.82318 3.29687C5.99316 3.29687 6.0876 3.26329 6.17784 3.09331C6.48003 2.5141 6.9711 2.20561 7.63635 2.19722C7.82732 2.19512 8.01829 2.19722 8.14001 2.19722C8.38345 1.76491 8.56812 1.34519 8.83464 0.986333C9.21239 0.480575 9.74962 0.184675 10.3708 0.0545631C10.4128 0.0461688 10.4505 0.0188872 10.4925 0.00209858C10.7863 0 11.078 0 11.3718 0ZM14.8744 23.7077C14.7463 23.7077 14.6477 23.7077 14.547 23.7077C11.9489 23.7077 9.35299 23.7077 6.75495 23.7077C6.6731 23.7077 6.58916 23.7119 6.50731 23.7056C6.24289 23.6888 6.03513 23.4999 5.99736 23.2523C5.95749 22.9837 6.10019 22.7234 6.35412 22.6437C6.45485 22.6122 6.57027 22.6122 6.6794 22.6122C9.26695 22.6101 11.8545 22.6101 14.4441 22.6101C14.5512 22.6101 14.6561 22.6101 14.6897 22.6101C14.8492 21.8462 14.9961 21.1306 15.1451 20.4129C15.0674 20.4129 14.9583 20.4129 14.8492 20.4129C12.142 20.4129 9.43484 20.4129 6.72767 20.4129C6.64582 20.4129 6.56188 20.4171 6.48003 20.4087C6.21981 20.3793 6.01834 20.1779 5.99526 19.9281C5.97008 19.6658 6.11278 19.4224 6.35622 19.3468C6.45695 19.3153 6.57237 19.3174 6.6815 19.3174C9.65309 19.3153 12.6268 19.3153 15.5984 19.3216C15.7914 19.3216 15.9132 19.265 16.0349 19.1139C16.6959 18.2996 17.527 17.712 18.5301 17.4077C19.082 17.2398 19.6612 17.1643 20.2635 17.0405C20.2635 17.0321 20.2635 16.9712 20.2635 16.9083C20.2635 12.9566 20.2635 9.00711 20.2635 5.05548C20.2635 4.60009 20.0474 4.39023 19.5836 4.39023C18.4231 4.38813 17.2604 4.39023 16.0999 4.39023C16.0307 4.39023 15.9593 4.40073 15.8733 4.40702C15.8733 4.51195 15.867 4.60429 15.8754 4.69243C15.932 5.29472 15.6487 5.50458 15.0947 5.49409C13.8335 5.471 12.5701 5.48569 11.3089 5.48569C9.74543 5.48569 8.18198 5.48569 6.61644 5.48569C6.19882 5.48569 5.99946 5.28213 5.99526 4.86241C5.99316 4.70922 5.99526 4.55812 5.99526 4.38813C5.87144 4.38813 5.78121 4.38813 5.69097 4.38813C4.58501 4.38813 3.47696 4.38813 2.37101 4.38813C1.77921 4.38813 1.60293 4.56441 1.60293 5.15831C1.60293 12.1823 1.60293 19.2041 1.60293 26.2281C1.60293 26.822 1.77921 26.9983 2.37101 26.9983C7.118 26.9983 11.8629 26.9983 16.6099 26.9983C16.6959 26.9983 16.7841 26.9983 16.9457 26.9983C15.8397 26.1168 15.1661 25.0403 14.8744 23.7077ZM24.6517 22.6038C24.6475 20.1967 22.6769 18.222 20.2719 18.2199C17.8564 18.2178 15.8796 20.1926 15.8733 22.6143C15.867 25.0214 17.8669 27.0108 20.2803 27.0004C22.679 26.9899 24.6558 25.0025 24.6517 22.6038ZM14.7736 4.37764C14.7736 4.23494 14.7736 4.10902 14.7736 3.98311C14.7694 3.50463 14.5659 3.29687 14.0916 3.29267C13.7726 3.29058 13.4515 3.29687 13.1325 3.29058C12.8115 3.28428 12.6163 3.08282 12.5764 2.76803C12.547 2.54348 12.5156 2.31264 12.4337 2.10488C12.1609 1.42913 11.4117 1.00312 10.7402 1.11435C9.90072 1.25285 9.35299 1.84885 9.29003 2.69038C9.25856 3.11849 9.07598 3.28848 8.64577 3.29058C8.35407 3.29267 8.06027 3.28848 7.76856 3.29058C7.30687 3.29477 7.09911 3.50253 7.09282 3.96002C7.09072 4.09433 7.09282 4.22864 7.09282 4.37554C9.65519 4.37764 12.1945 4.37764 14.7736 4.37764Z" fill="black"/>
<path d="M12.0161 10.537C10.205 10.537 8.39601 10.5349 6.58493 10.5391C6.3415 10.5391 6.12324 10.4593 6.06029 10.2285C6.01412 10.0564 6.01832 9.80665 6.11485 9.67444C6.21138 9.54223 6.45062 9.45199 6.6269 9.44989C8.75696 9.4352 10.887 9.4394 13.0171 9.4394C14.5071 9.4394 15.9971 9.4373 17.4871 9.4415C17.7935 9.4415 18.0159 9.61988 18.06 9.8864C18.1061 10.155 17.9676 10.4131 17.7116 10.5013C17.6109 10.5349 17.4976 10.537 17.3884 10.537C15.5983 10.537 13.8082 10.537 12.0161 10.537Z" fill="black"/>
<path d="M12.0014 13.8297C10.2008 13.8297 8.39815 13.8297 6.59757 13.8297C6.22192 13.8297 5.99108 13.6114 5.99318 13.2735C5.99738 12.9797 6.20933 12.7552 6.50313 12.7342C6.5493 12.73 6.59547 12.7321 6.63954 12.7321C10.2323 12.7321 13.8251 12.7321 17.42 12.7321C17.7914 12.7321 18.0202 12.8979 18.0621 13.1917C18.1146 13.5589 17.8628 13.8276 17.4577 13.8276C15.7117 13.8297 13.9657 13.8276 12.2197 13.8276C12.1462 13.8297 12.0749 13.8297 12.0014 13.8297Z" fill="black"/>
<path d="M12.0016 17.1223C10.201 17.1223 8.39832 17.1223 6.59774 17.1223C6.25567 17.1223 6.02902 16.9398 5.99544 16.6481C5.95347 16.2871 6.19481 16.0269 6.58514 16.0269C7.50013 16.0248 8.41301 16.0269 9.32799 16.0269C12.0247 16.0269 14.7213 16.0269 17.4201 16.0269C17.8042 16.0269 18.035 16.2032 18.0644 16.5137C18.098 16.8726 17.8545 17.1223 17.46 17.1223C15.7329 17.1244 14.0036 17.1223 12.2765 17.1223C12.1842 17.1223 12.0939 17.1223 12.0016 17.1223Z" fill="black"/>
<path d="M4.33321 10.537C4.02052 10.5307 3.78968 10.2852 3.79807 9.96828C3.80647 9.65769 4.0562 9.42894 4.37308 9.44154C4.67318 9.45413 4.89773 9.69127 4.89353 9.99556C4.89143 10.3062 4.648 10.5433 4.33321 10.537Z" fill="black"/>
<path d="M4.89577 13.2694C4.89996 13.5841 4.66492 13.8276 4.35223 13.8297C4.03745 13.8318 3.79821 13.5925 3.80031 13.2778C3.80031 12.9735 4.02905 12.7405 4.33125 12.7321C4.64394 12.7258 4.88947 12.9588 4.89577 13.2694Z" fill="black"/>
<path d="M4.33531 17.1223C4.02262 17.1181 3.78968 16.8726 3.79807 16.5557C3.80647 16.2451 4.0541 16.0143 4.37098 16.0248C4.67108 16.0353 4.89773 16.2724 4.89563 16.5767C4.89353 16.8894 4.6501 17.1265 4.33531 17.1223Z" fill="black"/>
<path d="M4.34573 19.3195C4.66051 19.3195 4.89765 19.5588 4.89346 19.8735C4.89136 20.1862 4.64582 20.4213 4.33104 20.415C4.02884 20.4087 3.8001 20.1757 3.7959 19.8735C3.7959 19.5588 4.03094 19.3195 4.34573 19.3195Z" fill="black"/>
<path d="M4.89577 23.1515C4.89996 23.4663 4.66282 23.7077 4.35014 23.7077C4.03535 23.7077 3.79821 23.4705 3.80031 23.1536C3.80241 22.8514 4.03115 22.6185 4.33335 22.6101C4.64604 22.6038 4.89157 22.8389 4.89577 23.1515Z" fill="black"/>
<path d="M19.6971 22.9417C20.1945 22.4422 20.6583 21.9784 21.122 21.5146C21.2438 21.3908 21.3634 21.2649 21.4914 21.1474C21.7495 20.9081 22.0769 20.9018 22.2993 21.1243C22.5218 21.3467 22.5197 21.6804 22.2721 21.9322C21.781 22.4359 21.2794 22.9291 20.7821 23.4285C20.5743 23.6363 20.3708 23.8462 20.1609 24.0476C19.8566 24.3414 19.5712 24.3435 19.2711 24.0518C18.9374 23.7265 18.6079 23.395 18.2827 23.0634C18.0098 22.7843 17.991 22.4485 18.2302 22.2156C18.4673 21.9847 18.7968 22.0078 19.078 22.2869C19.2837 22.4926 19.4768 22.7087 19.6971 22.9417Z" fill="black"/>
<path d="M11.4808 2.74499C11.4808 3.05768 11.2395 3.29692 10.9247 3.29272C10.612 3.28852 10.3791 3.04509 10.3854 2.7303C10.3917 2.4281 10.6246 2.19936 10.9268 2.19726C11.2416 2.19306 11.4808 2.4302 11.4808 2.74499Z" fill="black"/>
</svg>
