<svg width="24" height="24" viewBox="0 0 24 24" fill="none" xmlns="http://www.w3.org/2000/svg">
<path opacity="0.4" fill-rule="evenodd" clip-rule="evenodd" d="M17.9884 7.55894C17.7184 7.64801 17.4297 7.6962 17.1298 7.6962C15.617 7.6962 14.3906 6.46981 14.3906 4.95699C14.3906 4.64098 14.4441 4.33747 14.5426 4.05503C13.8585 3.79933 13.1302 3.66211 12.408 3.66211H12.3305C10.5651 3.66211 8.78069 4.47848 7.66751 5.83969C6.91878 6.77307 6.55518 7.72652 6.55518 9.18465V9.55398C6.55518 10.6428 6.28637 11.2845 5.63327 12.0241C5.15423 12.5689 5 13.2683 5 14.027C5 14.7849 5.24986 15.5043 5.74873 16.0885C6.40096 16.7887 7.32201 17.2358 8.26287 17.3135C9.62506 17.4689 10.9872 17.5274 12.3692 17.5274C13.7504 17.5274 15.1134 17.4296 16.4756 17.3135C17.4156 17.2358 18.3367 16.7887 18.9898 16.0885C19.4886 15.5043 19.7376 14.7849 19.7376 14.027C19.7376 13.2683 19.5843 12.5689 19.1044 12.0241C18.4711 11.2845 18.1833 10.6428 18.1833 9.55398V9.18465C18.1833 8.55882 18.12 8.03141 17.9884 7.55894Z" fill="#6D6D6D"/>
<ellipse cx="17.1304" cy="4.95658" rx="1.95658" ry="1.95658" fill="#6D6D6D"/>
<path d="M10.6032 18.5971C11.0365 18.5054 13.6773 18.5054 14.1107 18.5971C14.4812 18.6826 14.8819 18.8826 14.8819 19.3192C14.8603 19.7348 14.6165 20.1032 14.2796 20.3372C13.8428 20.6777 13.3301 20.8934 12.7942 20.9711C12.4978 21.0095 12.2066 21.0104 11.9205 20.9711C11.3838 20.8934 10.8711 20.6777 10.4351 20.3364C10.0974 20.1032 9.85357 19.7348 9.83203 19.3192C9.83203 18.8826 10.2327 18.6826 10.6032 18.5971Z" fill="#6D6D6D"/>
</svg>
