<svg width="25" height="25" viewBox="0 0 25 25" fill="none" xmlns="http://www.w3.org/2000/svg">
<path d="M0 14.7408C0.113246 14.4728 0.320863 14.3143 0.577554 14.1935C1.01544 13.9896 1.44955 13.7669 1.87988 13.548C2.49519 13.2347 3.11804 13.2007 3.76354 13.4687C3.83526 13.4989 3.97116 13.4574 4.0391 13.4008C4.52606 12.9931 4.99037 12.559 5.48488 12.1588C7.19867 10.7659 9.83352 10.781 11.57 12.1551C12.5778 12.9516 12.2381 12.8006 13.4121 12.8119C14.3445 12.8194 15.2807 12.8157 16.213 12.8119C17.2209 12.8081 17.9306 13.2573 18.327 14.1935C18.3345 14.2124 18.3534 14.2312 18.3836 14.2728C18.4515 14.201 18.5119 14.1369 18.5723 14.0727C19.2518 13.3555 19.9086 12.6156 20.6145 11.9248C21.2449 11.3095 22.2604 11.234 23.038 11.6832C23.8232 12.1324 24.2271 13.0006 24.0723 13.8726C24.0081 14.2463 23.8496 14.571 23.6269 14.8692C22.5284 16.3376 21.4375 17.8136 20.3239 19.2745C19.3009 20.6108 17.9344 21.2902 16.247 21.2902C13.6008 21.294 10.9584 21.2902 8.31225 21.2902C8.21788 21.2902 8.12728 21.2902 8.04801 21.2902C7.97251 21.5998 7.92722 21.9018 7.82152 22.1811C7.62523 22.7058 7.23642 23.0606 6.74191 23.306C6.28515 23.5325 5.83217 23.759 5.37541 23.9855C4.85825 24.2422 4.49964 24.1214 4.23917 23.6004C2.83115 20.7806 1.42312 17.957 0.0113246 15.1372C0.0150995 15.1259 0.00754973 15.1221 0 15.1146C0 14.99 0 14.8654 0 14.7408ZM12.0305 19.8709C13.4121 19.8709 14.7937 19.8709 16.1715 19.8709C17.4587 19.8709 18.4931 19.3688 19.2594 18.327C19.7048 17.7192 20.1616 17.1228 20.6145 16.5188C21.2449 15.677 21.8791 14.839 22.5057 13.9972C22.7926 13.6122 22.7322 13.1629 22.3698 12.9289C22.0528 12.7213 21.713 12.7892 21.4073 13.1139C20.422 14.1708 19.4368 15.224 18.4553 16.281C17.9759 16.7981 17.3908 17.0548 16.6811 17.0473C15.3788 17.036 14.0765 17.0435 12.7741 17.0435C12.3438 17.0435 12.0229 16.7377 12.0192 16.3414C12.0154 15.945 12.34 15.6355 12.7704 15.6317C13.397 15.6279 14.0274 15.6317 14.654 15.6317C15.2014 15.6317 15.7525 15.6393 16.2999 15.6279C16.8321 15.6166 17.1681 15.1523 16.9982 14.6804C16.8925 14.3898 16.6207 14.2199 16.2508 14.2161C15.3184 14.2124 14.3822 14.2199 13.4498 14.2161C12.0871 14.2086 12.0418 14.3558 10.6866 13.2724C9.50133 12.3212 7.83662 12.2532 6.58714 13.1176C6.03601 13.4989 5.5566 13.9859 5.03567 14.4124C4.896 14.5257 4.87335 14.6163 4.96017 14.7824C5.78309 16.4093 6.59469 18.0401 7.40628 19.6746C7.47801 19.818 7.55728 19.8747 7.72337 19.8709C9.15782 19.8709 10.5923 19.8709 12.0305 19.8709ZM5.26216 22.4491C5.5415 22.3094 5.80197 22.1811 6.05866 22.0528C6.58336 21.7885 6.70038 21.4412 6.43614 20.9203C5.91521 19.8784 5.39428 18.8366 4.87335 17.7947C4.43547 16.9189 4.00136 16.0432 3.56347 15.1712C3.3634 14.7748 3.01989 14.6125 2.64995 14.7635C2.32154 14.8994 2.00445 15.073 1.66094 15.2429C2.86135 17.6475 4.0542 20.0294 5.26216 22.4491Z" fill="#637381"/>
<path d="M13.1856 0C13.3479 0.0452984 13.514 0.0868219 13.6763 0.13967C15.6015 0.788947 16.2583 3.15201 14.956 4.70726C14.9296 4.73745 14.9069 4.76765 14.8692 4.8205C15.0164 4.91865 15.1674 5.0017 15.2995 5.10739C16.364 5.93031 16.9567 7.00615 17.0435 8.35377C17.0624 8.66709 17.0548 8.9804 17.051 9.29372C17.0435 9.68253 16.7491 9.98074 16.3602 9.98074C13.9821 9.98452 11.6039 9.98452 9.22575 9.98074C8.86336 9.98074 8.55005 9.7165 8.53495 9.36921C8.50853 8.61047 8.50475 7.85172 8.78409 7.11939C9.1276 6.2172 9.69383 5.49998 10.5017 4.97527C10.5734 4.92997 10.6451 4.8809 10.7281 4.82428C10.3431 4.39394 10.0751 3.91076 9.97695 3.33698C9.73536 1.91008 10.664 0.468083 12.0758 0.0943716C12.1928 0.0641727 12.3136 0.0339738 12.4306 0C12.6835 0 12.9327 0 13.1856 0ZM9.94675 8.55384C11.8493 8.55384 13.7367 8.55384 15.6204 8.55384C15.6392 7.0137 14.352 5.71137 12.8232 5.69627C11.2906 5.68495 9.96185 6.99482 9.94675 8.55384ZM14.2199 2.87645C14.2274 2.11392 13.5744 1.43067 12.8194 1.41557C12.0682 1.40047 11.3548 2.11015 11.351 2.87267C11.3472 3.61632 12.0267 4.27315 12.8005 4.28447C13.5555 4.29202 14.2123 3.63897 14.2199 2.87645Z" fill="#637381"/>
</svg>
