<svg width="24" height="24" viewBox="0 0 24 24" fill="none" xmlns="http://www.w3.org/2000/svg">
<path opacity="0.4" d="M9.86459 20.7244C10.0177 20.7252 10.1659 20.6702 10.2815 20.5697C10.397 20.4693 10.4721 20.3302 10.4926 20.1784C10.5131 20.0267 10.4777 19.8726 10.3929 19.7451C10.3082 19.6175 10.1799 19.5252 10.032 19.4853C8.21218 19.0053 6.62931 17.8792 5.5791 16.3173C4.52888 14.7555 4.08316 12.8647 4.32518 10.9983C4.56721 9.1318 5.48043 7.41727 6.89426 6.17494C8.30809 4.93262 10.1258 4.24747 12.0079 4.24749C13.3688 4.26883 14.7091 4.58355 15.9373 5.17018C17.1655 5.75681 18.2526 6.60154 19.1245 7.64669H16.663C16.4954 7.64558 16.3341 7.71112 16.2148 7.82888C16.0955 7.94664 16.0278 8.10698 16.0267 8.27463C16.0256 8.44227 16.0911 8.6035 16.2089 8.72283C16.3266 8.84216 16.487 8.90982 16.6546 8.91093H20.3636C20.4231 8.91081 20.4823 8.90235 20.5394 8.88581C20.6111 8.86255 20.6788 8.82869 20.7404 8.78534C20.8135 8.73612 20.8738 8.67009 20.9162 8.59278C20.9602 8.51233 20.9887 8.42426 20.9999 8.33323V4.46517C20.9999 4.29864 20.9338 4.13892 20.816 4.02116C20.6982 3.9034 20.5385 3.83724 20.372 3.83724C20.2054 3.83724 20.0457 3.9034 19.928 4.02116C19.8102 4.13892 19.7441 4.29864 19.7441 4.46517V6.46618C18.7648 5.3821 17.5704 4.51398 16.237 3.91719C14.9036 3.3204 13.4604 3.00803 11.9996 3C9.81276 3.00081 7.70101 3.79753 6.05865 5.24139C4.41628 6.68525 3.35559 8.67752 3.07463 10.8462C2.79368 13.0149 3.31167 15.2117 4.53189 17.0264C5.75211 18.8411 7.59112 20.1496 9.70552 20.7077C9.75803 20.7174 9.81121 20.723 9.86459 20.7244Z" fill="#6D6D6D"/>
<path d="M12.5948 20.9836C12.6147 20.985 12.6347 20.9821 12.6534 20.9752C13.549 20.9148 14.43 20.7172 15.2656 20.3892C15.3846 20.3419 15.4865 20.2599 15.5582 20.1539C15.6299 20.0479 15.668 19.9227 15.6675 19.7947C15.6662 19.6935 15.6404 19.594 15.5923 19.5048C15.5443 19.4157 15.4753 19.3395 15.3915 19.2827C15.3076 19.226 15.2112 19.1904 15.1105 19.1789C15.0099 19.1675 14.908 19.1806 14.8135 19.217C14.0926 19.4992 13.3334 19.6714 12.5613 19.7277H12.553C12.3922 19.7383 12.2417 19.8102 12.1326 19.9287C12.0235 20.0471 11.9642 20.203 11.9669 20.3641V20.3975C11.9796 20.5559 12.0511 20.7039 12.1672 20.8123C12.2834 20.9207 12.4359 20.9818 12.5948 20.9836ZM17.208 19.1835C17.3507 19.1853 17.4896 19.138 17.6015 19.0496C18.3042 18.488 18.9194 17.8249 19.4267 17.0821C19.5013 16.9798 19.5423 16.857 19.5439 16.7304C19.5446 16.6278 19.5197 16.5265 19.4715 16.4359C19.4233 16.3453 19.3532 16.2681 19.2676 16.2113C19.1302 16.1196 18.9626 16.085 18.8001 16.1147C18.6376 16.1443 18.493 16.2361 18.3969 16.3704C17.959 17.0117 17.4253 17.5821 16.8145 18.0616C16.7421 18.1203 16.6835 18.1942 16.6429 18.2782C16.6024 18.3621 16.5809 18.454 16.5801 18.5472C16.5783 18.6924 16.6255 18.834 16.714 18.9491C16.7731 19.0232 16.8483 19.0828 16.9339 19.1234C17.0195 19.164 17.1133 19.1846 17.208 19.1835ZM20.0044 15.0978C20.1373 15.0995 20.2671 15.058 20.3744 14.9794C20.4816 14.9009 20.5604 14.7896 20.5989 14.6624C20.8661 13.8003 21.0016 12.9027 21.0007 12C21.0007 11.8335 20.9346 11.6737 20.8168 11.556C20.6991 11.4382 20.5393 11.3721 20.3728 11.3721C20.2063 11.3721 20.0465 11.4382 19.9288 11.556C19.811 11.6737 19.7449 11.8335 19.7449 12C19.7447 12.7747 19.629 13.5451 19.4016 14.2857C19.3845 14.3484 19.376 14.4132 19.3765 14.4782C19.376 14.6108 19.418 14.7401 19.4964 14.8471C19.5747 14.9541 19.6853 15.0331 19.8118 15.0727C19.8747 15.0893 19.9394 15.0977 20.0044 15.0978Z" fill="#6D6D6D"/>
<path d="M15.1976 15.492C15.0847 15.494 14.9738 15.4619 14.8795 15.3999L12.284 13.851C11.9525 13.6355 11.6775 13.3436 11.4823 12.9997C11.287 12.6559 11.1772 12.2702 11.1621 11.8751V8.44238C11.1632 8.27619 11.2297 8.11711 11.3472 7.99958C11.4648 7.88206 11.6238 7.81555 11.79 7.81445C11.9562 7.81555 12.1153 7.88206 12.2328 7.99958C12.3504 8.11711 12.4169 8.27619 12.418 8.44238V11.8751C12.4337 12.0523 12.4874 12.2241 12.5756 12.3787C12.6637 12.5333 12.7842 12.6671 12.9287 12.7709L15.5241 14.3198C15.5952 14.362 15.6573 14.4178 15.7068 14.484C15.7562 14.5502 15.7921 14.6256 15.8123 14.7057C15.8325 14.7859 15.8367 14.8692 15.8246 14.951C15.8125 15.0328 15.7844 15.1113 15.7418 15.1822C15.6849 15.2758 15.6051 15.3534 15.5099 15.4076C15.4146 15.4618 15.3072 15.4908 15.1976 15.492Z" fill="#6D6D6D"/>
</svg>
